<svg width="24" height="24" viewBox="0 0 24 24" fill="none" xmlns="http://www.w3.org/2000/svg">
<path fill-rule="evenodd" clip-rule="evenodd" d="M17 7H14L14 17H17V7ZM14 6C13.4477 6 13 6.44772 13 7V17C13 17.5523 13.4477 18 14 18H17C17.5523 18 18 17.5523 18 17V7C18 6.44772 17.5523 6 17 6H14Z" fill="black"/>
<path fill-rule="evenodd" clip-rule="evenodd" d="M10 7H7L7 17H10V7ZM7 6C6.44772 6 6 6.44772 6 7V17C6 17.5523 6.44772 18 7 18H10C10.5523 18 11 17.5523 11 17V7C11 6.44772 10.5523 6 10 6H7Z" fill="black"/>
</svg>
