<svg width="24" height="24" viewBox="0 0 24 24" fill="none" xmlns="http://www.w3.org/2000/svg">
<path fill-rule="evenodd" clip-rule="evenodd" d="M8 7H6V17H8V7ZM6 6C5.44772 6 5 6.44772 5 7V17C5 17.5523 5.44772 18 6 18H8C8.55228 18 9 17.5523 9 17V7C9 6.44772 8.55228 6 8 6H6Z" fill="black"/>
<path fill-rule="evenodd" clip-rule="evenodd" d="M19.1417 12L12 7.44019L12 16.5598L19.1417 12ZM20.3399 12.4214C20.6479 12.2248 20.6479 11.7751 20.3399 11.5786L11.7691 6.1063C11.4362 5.8938 11 6.13285 11 6.52773L11 17.4722C11 17.8671 11.4362 18.1062 11.7691 17.8937L20.3399 12.4214Z" fill="black"/>
</svg>
