<svg xmlns="http://www.w3.org/2000/svg" width="24" height="24" viewBox="0 0 24 24" fill="none">
<path fill-rule="evenodd" clip-rule="evenodd" d="M16.8536 4.64645C16.6583 4.45118 16.3417 4.45118 16.1464 4.64645L5.14645 15.6464C5.05268 15.7402 5 15.8674 5 16V18.5C5 18.7761 5.22386 19 5.5 19H8C8.13261 19 8.25979 18.9473 8.35355 18.8536L19.3536 7.85355C19.5488 7.65829 19.5488 7.34171 19.3536 7.14645L16.8536 4.64645ZM14.9571 7.25003L16.5 5.70711L18.2929 7.5L16.75 9.04292L14.9571 7.25003ZM14.25 7.95714L6 16.2071V18H7.79289L16.0429 9.75003L14.25 7.95714Z" fill="black"/>
</svg>
