<svg xmlns="http://www.w3.org/2000/svg" height="48" width="48" fill="#041E49"><path d="M9 42q-1.25 0-2.125-.875T6 39v-8.8q2.2-.25 3.775-1.725Q11.35 27 11.35 24.85t-1.575-3.625Q8.2 19.75 6 19.5v-8.8q0-1.25.875-2.125T9 7.7h8.85q.55-1.95 1.975-3.325Q21.25 3 23.25 3q2 0 3.425 1.375Q28.1 5.75 28.65 7.7h8.65q1.25 0 2.125.875T40.3 10.7v8.65q1.95.55 3.25 2.075 1.3 1.525 1.3 3.525 0 1.9-1.325 3.325Q42.2 29.7 40.3 30.2V39q0 1.25-.875 2.125T37.3 42h-8.8q-.25-2.2-1.725-3.775Q25.3 36.65 23.15 36.65t-3.625 1.575Q18.05 39.8 17.8 42Z"/></svg>