<svg width="16" height="16" viewBox="0 0 16 16" fill="none" xmlns="http://www.w3.org/2000/svg">
<path fill-rule="evenodd" clip-rule="evenodd" d="M9.5 3.01461C9.50193 3.21281 9.46455 3.40943 9.39004 3.5931C9.31552 3.77678 9.20533 3.94386 9.06585 4.0847C8.92638 4.22553 8.76038 4.33733 8.57744 4.41363C8.39449 4.48993 8.19824 4.52921 8.00003 4.52921C7.80181 4.52921 7.60558 4.48993 7.42264 4.41363C7.2397 4.33733 7.07367 4.22553 6.9342 4.0847C6.79472 3.94386 6.68455 3.77678 6.61004 3.5931C6.53552 3.40943 6.49815 3.21281 6.50007 3.01461C6.49815 2.8164 6.53552 2.61978 6.61004 2.43611C6.68455 2.25243 6.79472 2.08535 6.9342 1.94451C7.07367 1.80368 7.2397 1.69188 7.42264 1.61558C7.60558 1.53928 7.80181 1.5 8.00003 1.5C8.19824 1.5 8.39449 1.53928 8.57744 1.61558C8.76038 1.69188 8.92638 1.80368 9.06585 1.94451C9.20533 2.08535 9.31552 2.25243 9.39004 2.43611C9.46455 2.61978 9.50193 2.8164 9.5 3.01461V3.01461Z" fill="black"/>
<path fill-rule="evenodd" clip-rule="evenodd" d="M9.5 8.01461C9.50193 8.21281 9.46455 8.40943 9.39004 8.5931C9.31552 8.77678 9.20533 8.94386 9.06585 9.0847C8.92638 9.22553 8.76038 9.33733 8.57744 9.41363C8.39449 9.48993 8.19824 9.52921 8.00003 9.52921C7.80181 9.52921 7.60558 9.48993 7.42264 9.41363C7.2397 9.33733 7.07367 9.22553 6.9342 9.0847C6.79472 8.94386 6.68455 8.77678 6.61004 8.5931C6.53552 8.40943 6.49815 8.21281 6.50007 8.01461C6.49815 7.8164 6.53552 7.61978 6.61004 7.43611C6.68455 7.25243 6.79472 7.08535 6.9342 6.94451C7.07367 6.80368 7.2397 6.69188 7.42264 6.61558C7.60558 6.53928 7.80181 6.5 8.00003 6.5C8.19824 6.5 8.39449 6.53928 8.57744 6.61558C8.76038 6.69188 8.92638 6.80368 9.06585 6.94451C9.20533 7.08535 9.31552 7.25243 9.39004 7.43611C9.46455 7.61978 9.50193 7.8164 9.5 8.01461V8.01461Z" fill="black"/>
<path fill-rule="evenodd" clip-rule="evenodd" d="M9.5 13.0146C9.50193 13.2128 9.46455 13.4094 9.39004 13.5931C9.31552 13.7768 9.20533 13.9439 9.06585 14.0847C8.92638 14.2255 8.76038 14.3373 8.57744 14.4136C8.39449 14.4899 8.19824 14.5292 8.00003 14.5292C7.80181 14.5292 7.60558 14.4899 7.42264 14.4136C7.2397 14.3373 7.07367 14.2255 6.9342 14.0847C6.79472 13.9439 6.68455 13.7768 6.61004 13.5931C6.53552 13.4094 6.49815 13.2128 6.50007 13.0146C6.49815 12.8164 6.53552 12.6198 6.61004 12.4361C6.68455 12.2524 6.79472 12.0854 6.9342 11.9445C7.07367 11.8037 7.2397 11.6919 7.42264 11.6156C7.60558 11.5393 7.80181 11.5 8.00003 11.5C8.19824 11.5 8.39449 11.5393 8.57744 11.6156C8.76038 11.6919 8.92638 11.8037 9.06585 11.9445C9.20533 12.0854 9.31552 12.2524 9.39004 12.4361C9.46455 12.6198 9.50193 12.8164 9.5 13.0146V13.0146Z" fill="black"/>
</svg>
