<svg width="24" height="24" viewBox="0 0 24 24" fill="none" xmlns="http://www.w3.org/2000/svg">
<path d="M17.5217 14.4348C16.5232 14.4348 15.6783 15.08 15.3557 15.971H11.3768C10.5319 15.971 9.84059 15.2797 9.84059 14.4348C9.84059 13.5899 10.5319 12.8986 11.3768 12.8986H12.9131C14.6106 12.8986 15.9855 11.5236 15.9855 9.8261C15.9855 8.12857 14.6106 6.75364 12.9131 6.75364H8.93421C8.6116 5.86262 7.76667 5.21741 6.76812 5.21741C5.49305 5.21741 4.46378 6.24668 4.46378 7.52175C4.46378 8.79683 5.49305 9.8261 6.76812 9.8261C7.76667 9.8261 8.6116 9.18088 8.93421 8.28987H12.9131C13.758 8.28987 14.4493 8.98117 14.4493 9.8261C14.4493 10.671 13.758 11.3623 12.9131 11.3623H11.3768C9.67928 11.3623 8.30436 12.7373 8.30436 14.4348C8.30436 16.1323 9.67928 17.5073 11.3768 17.5073H15.3557C15.6706 18.3983 16.5155 19.0435 17.5217 19.0435C18.7968 19.0435 19.8261 18.0142 19.8261 16.7391C19.8261 15.4641 18.7968 14.4348 17.5217 14.4348ZM6.76812 8.28987C6.34566 8.28987 6.00001 7.94422 6.00001 7.52175C6.00001 7.09929 6.34566 6.75364 6.76812 6.75364C7.19059 6.75364 7.53624 7.09929 7.53624 7.52175C7.53624 7.94422 7.19059 8.28987 6.76812 8.28987Z" fill="black"/>
</svg>
