<svg width="24" height="24" viewBox="0 0 24 24" fill="none" xmlns="http://www.w3.org/2000/svg">
<path fill-rule="evenodd" clip-rule="evenodd" d="M7 15C8.65685 15 10 13.6569 10 12C10 10.3431 8.65685 9 7 9C5.34315 9 4 10.3431 4 12C4 13.6569 5.34315 15 7 15ZM9.64582 15C10.4762 14.2671 11 13.1947 11 12C11 9.79086 9.20914 8 7 8C4.79086 8 3 9.79086 3 12C3 14.2091 4.79086 16 7 16H17C19.2091 16 21 14.2091 21 12C21 9.79086 19.2091 8 17 8C14.7909 8 13 9.79086 13 12C13 13.1947 13.5238 14.2671 14.3542 15H9.64582ZM17 15C18.6569 15 20 13.6569 20 12C20 10.3431 18.6569 9 17 9C15.3431 9 14 10.3431 14 12C14 13.6569 15.3431 15 17 15Z" fill="black"/>
</svg>
