<svg width="24" height="24" viewBox="0 0 24 24" fill="none" xmlns="http://www.w3.org/2000/svg">
<path fill-rule="evenodd" clip-rule="evenodd" d="M11.4906 5.33647L11.4887 5.3406L11.4906 5.3406L11.4926 5.3406L11.4906 5.33647ZM9.31039 5.56622C9.37433 5.61061 9.44239 5.64357 9.51232 5.6657C9.76485 5.57996 10.0248 5.51019 10.2908 5.45757C10.3406 5.40329 10.3832 5.34051 10.4165 5.26983L10.8122 4.43029C11.0825 3.85657 11.8987 3.85657 12.169 4.43029L12.5647 5.26984C12.598 5.34051 12.6406 5.40329 12.6904 5.45757C12.9564 5.51019 13.2164 5.57996 13.4689 5.6657C13.5388 5.64357 13.6069 5.61061 13.6708 5.56622L14.4332 5.03697C14.9542 4.6753 15.661 5.08338 15.6083 5.71541L15.5312 6.6403C15.5246 6.71881 15.5303 6.79513 15.5466 6.86754C15.7476 7.0441 15.9371 7.23357 16.1137 7.43465C16.1861 7.45089 16.2624 7.45659 16.3409 7.45004L17.2658 7.3729C17.8978 7.32018 18.3059 8.027 17.9442 8.54799L17.415 9.31039C17.3706 9.37433 17.3376 9.44239 17.3155 9.51232C17.4012 9.76485 17.471 10.0248 17.5236 10.2908C17.5779 10.3406 17.6407 10.3832 17.7114 10.4165L18.5509 10.8122C19.1246 11.0825 19.1246 11.8987 18.5509 12.169L17.7114 12.5647C17.6407 12.598 17.5779 12.6406 17.5236 12.6904C17.471 12.9564 17.4012 13.2164 17.3155 13.4689C17.3376 13.5388 17.3706 13.6069 17.415 13.6708L17.9442 14.4332C18.3059 14.9542 17.8978 15.661 17.2658 15.6083L16.3409 15.5312C16.2624 15.5246 16.1861 15.5303 16.1137 15.5466C15.9371 15.7476 15.7476 15.9371 15.5466 16.1137C15.5303 16.1861 15.5246 16.2624 15.5312 16.3409L15.6083 17.2658C15.661 17.8978 14.9542 18.3059 14.4332 17.9442L13.6708 17.415C13.6069 17.3706 13.5388 17.3376 13.4689 17.3155C13.2164 17.4012 12.9565 17.471 12.6904 17.5236C12.6406 17.5779 12.598 17.6407 12.5647 17.7114L12.169 18.5509C11.8987 19.1246 11.0825 19.1246 10.8122 18.5509L10.4165 17.7114C10.3832 17.6407 10.3406 17.5779 10.2908 17.5236C10.0248 17.471 9.76485 17.4012 9.51232 17.3155C9.44239 17.3376 9.37433 17.3706 9.31039 17.415L8.54799 17.9442C8.027 18.3059 7.32018 17.8978 7.3729 17.2658L7.45004 16.3409C7.45659 16.2624 7.45089 16.1861 7.43465 16.1137C7.23357 15.9371 7.0441 15.7476 6.86754 15.5466C6.79513 15.5303 6.71881 15.5246 6.6403 15.5312L5.71541 15.6083C5.08338 15.661 4.6753 14.9542 5.03697 14.4332L5.56622 13.6708C5.61061 13.6069 5.64357 13.5388 5.6657 13.4689C5.57996 13.2164 5.51019 12.9564 5.45757 12.6904C5.40329 12.6406 5.34051 12.598 5.26983 12.5647L4.43029 12.169C3.85657 11.8987 3.85657 11.0825 4.43029 10.8122L5.26984 10.4165C5.34051 10.3832 5.40329 10.3406 5.45757 10.2908C5.51019 10.0248 5.57996 9.76485 5.6657 9.51232C5.64357 9.44239 5.61061 9.37433 5.56622 9.31039L5.03697 8.54799C4.6753 8.027 5.08338 7.32018 5.71541 7.3729L6.6403 7.45004C6.71881 7.45659 6.79513 7.45089 6.86754 7.43465C7.0441 7.23356 7.23356 7.0441 7.43465 6.86754C7.45089 6.79513 7.45659 6.71881 7.45004 6.6403L7.3729 5.71541C7.32018 5.08338 8.027 4.6753 8.54799 5.03697L9.31039 5.56622ZM14.5674 6.16439L14.5648 6.16293L14.5677 6.16096L14.5674 6.16439ZM16.8183 8.41636L16.8168 8.41382L16.8202 8.41353L16.8183 8.41636ZM17.6406 11.4906V11.4887L17.6447 11.4906L17.6406 11.4926V11.4906ZM16.8168 14.5674L16.8183 14.5648L16.8202 14.5677L16.8168 14.5674ZM14.5648 16.8183L14.5674 16.8168L14.5677 16.8202L14.5648 16.8183ZM11.4906 17.6406H11.4926L11.4906 17.6447L11.4887 17.6406H11.4906ZM8.41382 16.8168L8.41636 16.8183L8.41353 16.8202L8.41382 16.8168ZM6.16293 14.5648L6.16439 14.5674L6.16096 14.5677L6.16293 14.5648ZM5.3406 11.4906L5.3406 11.4926L5.33647 11.4906L5.3406 11.4887L5.3406 11.4906ZM6.16439 8.41382L6.16293 8.41636L6.16096 8.41353L6.16439 8.41382ZM8.41636 6.16293L8.41382 6.16439L8.41353 6.16096L8.41636 6.16293ZM11.4906 6.6406C8.81202 6.6406 6.6406 8.81202 6.6406 11.4906C6.6406 14.1692 8.81202 16.3406 11.4906 16.3406C14.1692 16.3406 16.3406 14.1692 16.3406 11.4906C16.3406 8.81202 14.1692 6.6406 11.4906 6.6406ZM12.4906 11.4906C12.4906 12.0429 12.0429 12.4906 11.4906 12.4906C10.9383 12.4906 10.4906 12.0429 10.4906 11.4906C10.4906 10.9383 10.9383 10.4906 11.4906 10.4906C12.0429 10.4906 12.4906 10.9383 12.4906 11.4906ZM13.4906 11.4906C13.4906 12.5952 12.5952 13.4906 11.4906 13.4906C10.386 13.4906 9.4906 12.5952 9.4906 11.4906C9.4906 10.386 10.386 9.4906 11.4906 9.4906C12.5952 9.4906 13.4906 10.386 13.4906 11.4906Z" fill="black"/>
</svg>
