<svg width="24" height="24" viewBox="0 0 24 24" fill="none" xmlns="http://www.w3.org/2000/svg">
<path fill-rule="evenodd" clip-rule="evenodd" d="M11 16C11.5523 16 12 15.5523 12 15C12 14.4477 11.5523 14 11 14C10.4477 14 10 14.4477 10 15C10 15.5523 10.4477 16 11 16ZM11 17C12.1046 17 13 16.1046 13 15C13 13.8954 12.1046 13 11 13C9.89543 13 9 13.8954 9 15C9 16.1046 9.89543 17 11 17Z" fill="black"/>
<path fill-rule="evenodd" clip-rule="evenodd" d="M3.5 15C3.5 10.8579 6.85786 7.5 11 7.5C14.7363 7.5 17.8344 10.2321 18.4057 13.8074L16.3612 12.5545L15.8387 13.4072L18.4774 15.0242C18.9483 15.3127 19.564 15.1649 19.8526 14.694L21.4696 12.0553L20.6169 11.5328L19.3777 13.5551C18.6916 9.5489 15.2019 6.5 11 6.5C6.30558 6.5 2.5 10.3056 2.5 15H3.5Z" fill="black"/>
</svg>
