<svg width="24" height="24" viewBox="0 0 24 24" fill="none" xmlns="http://www.w3.org/2000/svg">
<path fill-rule="evenodd" clip-rule="evenodd" d="M6.2952 9.74946C5.68959 10.7971 5.33984 12.0274 5.33984 13.3492C5.33984 15.1404 5.98472 16.7687 7.04026 18H5.17941C4.33175 16.6635 3.83984 15.0643 3.83984 13.3492C3.83984 8.70143 7.46443 4.88086 11.9994 4.88086C16.5344 4.88086 20.1589 8.70143 20.1589 13.3492C20.1589 15.0643 19.667 16.6635 18.8194 18H16.9585C18.0141 16.7687 18.6589 15.1404 18.6589 13.3492C18.6589 12.0281 18.3095 10.7983 17.7045 9.75104L16.6292 11.4083L15.3708 10.5918L16.7502 8.4661C15.7035 7.35285 14.3038 6.608 12.75 6.42484V9.00003H11.25V6.4247C9.69635 6.60754 8.29669 7.35196 7.24989 8.46475L8.62928 10.592L7.37072 11.4081L6.2952 9.74946ZM15.6462 12.8807C15.8565 12.5238 15.7376 12.0641 15.3807 11.8538C15.0238 11.6436 14.564 11.7625 14.3538 12.1193L12.5977 15.1002C12.4053 15.0551 12.2054 15.0314 12.0003 15.0314C10.9779 15.0314 10.0845 15.6214 9.60196 16.5C9.36026 16.9402 9.22168 17.4528 9.22168 18H14.7788C14.7788 17.4528 14.6403 16.9402 14.3986 16.5C14.2638 16.2545 14.0969 16.0316 13.9041 15.8378L15.6462 12.8807Z" fill="black"/>
</svg>
