<svg xmlns="http://www.w3.org/2000/svg" width="770" height="1580"><path d="M4.5 366v100" fill="none" stroke="#f80" stroke-width="9"/><path d="M4.5 768V568" fill="none" stroke="#888" stroke-width="9"/><rect width="767" height="1580" ry="80" rx="80" fill="#222" fill-rule="evenodd" transform="matrix(-1 0 0 1 770.5 0)"/><g fill="#fff" fill-rule="evenodd" transform="matrix(-1 0 0 1 770.5 0)"><rect x="273.5" y="1526" width="220" height="15" ry="5" rx="5" fill-opacity=".133"/><path d="M70.363 6.95C28.333 5.754 4.808 47.982 4.838 83.222l1.194 1424.49c.026 30.952 32.038 68.279 64.634 68.216l622.086-1.194c30.873-.06 68.216-37.263 68.216-64.634V76.057c0-31.282-24.689-66.72-63.137-70.302C456.898 4.61 269.722 6.95 70.363 6.95z" fill-opacity=".867"/></g></svg>