<svg xmlns="http://www.w3.org/2000/svg" width="20" height="20" fill="none"><path fill="#000" d="m10 13 3-3-3-3-1.062 1.063 1.187 1.187H7v1.5h3.125l-1.187 1.188zm0 5a7.8 7.8 0 0 1-3.104-.625 8.3 8.3 0 0 1-2.563-1.708 8.3 8.3 0 0 1-1.708-2.563A7.8 7.8 0 0 1 2 10a7.7 7.7 0 0 1 .625-3.104 8.03 8.03 0 0 1 4.27-4.271A7.8 7.8 0 0 1 10 2a7.7 7.7 0 0 1 3.104.625q1.459.625 2.542 1.73a7.9 7.9 0 0 1 1.729 2.54A7.7 7.7 0 0 1 18 10a7.8 7.8 0 0 1-.625 3.104 8.027 8.027 0 0 1-4.27 4.27 7.7 7.7 0 0 1-3.105.626m0-1.5q2.709 0 4.604-1.896T16.5 10t-1.896-4.604T10 3.5q-2.709 0-4.604 1.896T3.5 10t1.896 4.604T10 16.5"/></svg>