<svg xmlns="http://www.w3.org/2000/svg" width="20" height="20" fill="none"><path fill="#000" d="M14.5 13.5q0 1.872-1.314 3.186T10 18q-1.896 0-3.198-1.365T5.5 13.355V5.25q0-1.354.948-2.302T8.75 2q1.375 0 2.313 1Q12 4 12 5.396V13a1.93 1.93 0 0 1-.582 1.418A1.93 1.93 0 0 1 10 15q-.854 0-1.427-.606T8 12.917V5h1.5v8a.486.486 0 0 0 .5.5.485.485 0 0 0 .5-.5V5.25q0-.73-.51-1.24T8.746 3.5t-1.24.531A1.77 1.77 0 0 0 7 5.291V13.5q0 1.25.875 2.115A2.99 2.99 0 0 0 10 16.5q1.25.02 2.125-.896T13 13.396V5h1.5z"/></svg>