<svg xmlns="http://www.w3.org/2000/svg" width="18" height="10" fill="none" viewBox="0 0 540 300"><style>.blue-shape{fill:#a8c7fa}.darker-blue-shape{fill:#1b6ef3}@media (prefers-color-scheme:dark){.blue-shape{fill:#2d509e}.darker-blue-shape{fill:#4185ff}}</style><path d="m150 0 30 30-30 30-30-30zM210 60l30 30-30 30-30-30zM450 60l30 30-30 30-30-30zM510 120l30 30-30 30-30-30zM450 180l30 30-30 30-30-30zM390 240l30 30-30 30-30-30zM330 180l30 30-30 30-30-30zM90 60l30 30-30 30-30-30z" class="blue-shape"/><path d="m390 0 30 30-270 270L0 150l30-30 120 120z" class="darker-blue-shape"/></svg>