<svg xmlns="http://www.w3.org/2000/svg" width="20" height="20" fill="none"><path fill="#000" d="M10 13a2.9 2.9 0 0 1-2.125-.875A2.9 2.9 0 0 1 7 10q0-1.25.875-2.125A2.9 2.9 0 0 1 10 7q1.25 0 2.125.875T13 10t-.875 2.125A2.9 2.9 0 0 1 10 13m0-1.5q.624 0 1.063-.437.437-.438.437-1.063t-.437-1.062A1.45 1.45 0 0 0 10 8.5q-.625 0-1.062.438A1.45 1.45 0 0 0 8.5 10q0 .624.438 1.063.436.437 1.062.437M4.5 17q-.625 0-1.062-.437A1.45 1.45 0 0 1 3 15.5V12h1.5v3.5H8V17zm7.5 0v-1.5h3.5V12H17v3.5q0 .624-.437 1.063A1.45 1.45 0 0 1 15.5 17zM3 8V4.5q0-.625.438-1.062A1.45 1.45 0 0 1 4.5 3H8v1.5H4.5V8zm12.5 0V4.5H12V3h3.5q.624 0 1.063.438Q17 3.874 17 4.5V8z"/></svg>