<svg xmlns="http://www.w3.org/2000/svg" width="20" height="20" fill="none"><path fill="#000" d="M4.5 17q-.625 0-1.062-.438A1.44 1.44 0 0 1 3 15.5v-11q0-.625.438-1.062A1.44 1.44 0 0 1 4.5 3h11q.625 0 1.062.438Q17 3.875 17 4.5v11q0 .625-.438 1.062A1.44 1.44 0 0 1 15.5 17zm0-1.5h11v-11h-11z"/><path fill="#000" d="M6.857 14a.83.83 0 0 1-.607-.25.83.83 0 0 1-.25-.607V6.857q0-.357.25-.607A.83.83 0 0 1 6.857 6h6.286q.357 0 .607.25t.25.607v6.286q0 .357-.25.607a.83.83 0 0 1-.607.25zm.643-1.5h5v-5h-5z"/></svg>