<svg xmlns="http://www.w3.org/2000/svg" width="20" height="20" fill="#e3e3e3" viewBox="0 -960 960 960"><path d="M768-90 90-768l51-51 678 678zm-287.52-54Q339-144 241.5-185.85T144-288v-384q0-23 16-44.5t45-38.5l226 226q-65-4-120.5-18T216-583v109q44 32 111.5 49T480-408q17.96 0 35.02-.5t34.12-2.5L612-348q-31 6-64.07 9T480-336q-80 0-148.5-14.5T216-391v103q10 26 93.5 49T480-216q62 0 123-12t99-29l53 52q-45.91 28.22-117.59 44.61Q565.74-144 480.48-144M807-255l-63-63v-73q-11 6-23.94 11.33Q707.12-374.33 693-369l-57-57q32-8 59-20t49-28v-109q-40 22-94.5 35T532-530l-70-70q23 1 65-2.5t85.5-12 81-22.5 50.5-35q-18-28-98.5-50T480-744q-37 0-74 4.5T335-727l-59-59q43-14 94.5-22t109.5-8q139.07 0 237.53 42Q816-732 816-672v384q0 8-2 16.5t-7 16.5"/></svg>