<svg xmlns="http://www.w3.org/2000/svg" width="20" height="20" fill="none"><g clip-path="url(#a)"><path fill="#000" d="M7.042 14.98q.416 0 1.187-.126a9.6 9.6 0 0 1 1.73-.146q.936 0 1.729.146.812.146 1.25.146.603 0 1.062-.542.48-.541.48-1.208 0-.73-.48-1.27-.48-.543-1.02-1.105a8 8 0 0 1-.626-.75 9 9 0 0 0-.687-.812q-.459-.502-.792-.646-.312-.167-.917-.167-.416 0-.833.23-.416.207-.73.582-.374.417-.687.834-.312.396-.708.812-.5.522-1.02 1.084-.5.54-.5 1.27 0 .646.478 1.167.479.5 1.084.5M5.5 10.25q.624 0 1.063-.437Q7 9.375 7 8.75t-.437-1.062A1.45 1.45 0 0 0 5.5 7.25q-.625 0-1.062.438A1.45 1.45 0 0 0 4 8.75q0 .624.438 1.063.436.437 1.062.437m9 0q.624 0 1.063-.437Q16 9.375 16 8.75t-.437-1.062A1.45 1.45 0 0 0 14.5 7.25q-.625 0-1.062.438A1.45 1.45 0 0 0 13 8.75q0 .624.438 1.063.437.437 1.062.437M8 7.75q.624 0 1.063-.437.437-.438.437-1.063t-.437-1.062A1.45 1.45 0 0 0 8 4.75q-.625 0-1.062.438A1.45 1.45 0 0 0 6.5 6.25q0 .624.438 1.063.436.437 1.062.437m3.5 0q.624 0 1.063-.437Q13 6.875 13 6.25t-.437-1.062A1.45 1.45 0 0 0 11.5 4.75q-.625 0-1.062.438A1.45 1.45 0 0 0 10 6.25q0 .624.438 1.063.437.437 1.062.437M10 18a7.8 7.8 0 0 1-3.104-.625 8.3 8.3 0 0 1-2.563-1.708 8.3 8.3 0 0 1-1.708-2.563A7.8 7.8 0 0 1 2 10a7.7 7.7 0 0 1 .625-3.104 8.03 8.03 0 0 1 4.27-4.271A7.8 7.8 0 0 1 10 2a7.7 7.7 0 0 1 3.104.625q1.459.625 2.542 1.73a7.9 7.9 0 0 1 1.729 2.54A7.7 7.7 0 0 1 18 10a7.8 7.8 0 0 1-.625 3.104 8.027 8.027 0 0 1-4.27 4.27 7.7 7.7 0 0 1-3.105.626"/></g><defs><clipPath id="a"><path fill="#fff" d="M0 0h20v20H0z"/></clipPath></defs></svg>