<svg xmlns="http://www.w3.org/2000/svg" width="16" height="16" fill="none"><g clip-path="url(#a)"><path fill="#474747" d="M5.2 8.875a.83.83 0 0 0 .612-.248A.86.86 0 0 0 6.076 8a.8.8 0 0 0-.263-.612.8.8 0 0 0-.612-.263.86.86 0 0 0-.627.263.83.83 0 0 0-.248.612q0 .364.248.627a.88.88 0 0 0 .627.248m2.8 0a.83.83 0 0 0 .613-.248A.86.86 0 0 0 8.875 8a.8.8 0 0 0-.262-.612A.8.8 0 0 0 8 7.125a.86.86 0 0 0-.627.263.83.83 0 0 0-.248.612q0 .364.248.627A.88.88 0 0 0 8 8.875m2.8 0a.83.83 0 0 0 .612-.248.86.86 0 0 0 .263-.627.8.8 0 0 0-.263-.612.8.8 0 0 0-.612-.263.86.86 0 0 0-.627.263.83.83 0 0 0-.248.612q0 .364.248.627a.88.88 0 0 0 .627.248M8 13.6a5.5 5.5 0 0 1-2.173-.437 5.8 5.8 0 0 1-1.794-1.196 5.8 5.8 0 0 1-1.196-1.794A5.5 5.5 0 0 1 2.4 8q0-1.167.438-2.173a5.62 5.62 0 0 1 2.99-2.99A5.5 5.5 0 0 1 8 2.4a5.4 5.4 0 0 1 2.173.438q1.02.437 1.78 1.21a5.5 5.5 0 0 1 1.21 1.78A5.4 5.4 0 0 1 13.6 8q0 1.152-.437 2.173a5.62 5.62 0 0 1-2.99 2.99A5.4 5.4 0 0 1 8 13.6m0-1.05q1.896 0 3.223-1.327Q12.55 9.895 12.55 8q0-1.896-1.327-3.223Q9.895 3.45 8 3.45q-1.896 0-3.223 1.327Q3.45 6.105 3.45 8q0 1.896 1.327 3.223Q6.105 12.55 8 12.55"/></g><defs><clipPath id="a"><path fill="#fff" d="M0 0h16v16H0z"/></clipPath></defs></svg>