<svg xmlns="http://www.w3.org/2000/svg" width="20" height="20" fill="currentColor" viewBox="0 -960 960 960"><path d="M168-456v192-432zm383.79 312q15.21 0 25.71-10.29t10.5-25.5-10.29-25.71-25.5-10.5-25.71 10.29-10.5 25.5 10.29 25.71 25.5 10.5m240-360q15.21 0 25.71-10.29t10.5-25.5-10.29-25.71-25.5-10.5-25.71 10.29-10.5 25.5 10.29 25.71 25.5 10.5M240-528h204v-72H240zm0 168h204v-72H240zm-72 168q-29.7 0-50.85-21.16T96-264.04v-432.24Q96-726 117.15-747T168-768h624q29.7 0 50.85 21.15T864-696H168v432h204v72zm307.5 88.52Q444-134.96 444-179.92 444-215 464-243t52-39v-102h240v-54q-32-11-52-38.92t-20-63.05q0-45.03 31.5-76.53T792-648t76.5 31.48 31.5 76.44Q900-505 880-477t-52 39v126H588v30q32 11 52 38.92t20 63.05q0 45.03-31.5 76.53T552-72t-76.5-31.48"/></svg>