<svg xmlns="http://www.w3.org/2000/svg" width="20" height="20" fill="none"><g clip-path="url(#a)"><path fill="#474747" d="m10.083 14 1.854-1.417L13.793 14l-.709-2.27 1.854-1.48h-2.27L11.937 8l-.708 2.25H8.938l1.854 1.48zM3.5 16A1.49 1.49 0 0 1 2 14.5v-9q0-.625.438-1.062Q2.896 4 3.5 4H8l2 2h6.5q.625 0 1.063.438Q18 6.874 18 7.5v7q0 .604-.437 1.063A1.45 1.45 0 0 1 16.5 16zm0-1.5h13v-7H9.375l-2-2H3.5zm0 0v-9 9"/></g><defs><clipPath id="a"><path fill="#fff" d="M0 0h20v20H0z"/></clipPath></defs></svg>