<svg xmlns="http://www.w3.org/2000/svg" width="20" height="20" fill="none"><path fill="#000" d="M2 16v-1.917q0-.54.25-.979.27-.457.73-.729a10 10 0 0 1 2.374-1.02A9.8 9.8 0 0 1 8 11q1.375 0 2.625.354a9.9 9.9 0 0 1 2.396 1.021q.457.27.708.73.27.436.271.978V16zm13.5 0v-1.917q0-.875-.417-1.625-.396-.75-1.083-1.229a9.7 9.7 0 0 1 1.563.459q.77.27 1.458.687.457.27.708.73.27.436.271.978V16zM8 10a2.9 2.9 0 0 1-2.125-.875A2.9 2.9 0 0 1 5 7q0-1.25.875-2.125A2.9 2.9 0 0 1 8 4q1.25 0 2.125.875T11 7t-.875 2.125A2.9 2.9 0 0 1 8 10m7-3q0 1.25-.875 2.125A2.9 2.9 0 0 1 12 10h-.312a3 3 0 0 1-.313-.062q.52-.605.813-1.334A4.1 4.1 0 0 0 12.5 7q0-.854-.312-1.583a4.6 4.6 0 0 0-.813-1.354q.166-.042.313-.042Q11.833 4 12 4q1.25 0 2.125.875T15 7M3.5 14.5h9v-.417q0-.125-.062-.229a.44.44 0 0 0-.167-.187 8.6 8.6 0 0 0-2.063-.854A8 8 0 0 0 8 12.5q-1.125 0-2.208.292a8.2 8.2 0 0 0-2.063.875.5.5 0 0 0-.167.166.5.5 0 0 0-.062.25zm4.5-6q.624 0 1.063-.437Q9.5 7.625 9.5 7t-.437-1.062A1.45 1.45 0 0 0 8 5.5q-.625 0-1.062.438A1.45 1.45 0 0 0 6.5 7q0 .624.438 1.063Q7.374 8.5 8 8.5"/></svg>