<svg xmlns="http://www.w3.org/2000/svg" width="20" height="20" fill="none"><path fill="#000" d="M3.5 16q-.625 0-1.062-.437A1.45 1.45 0 0 1 2 14.5v-5h1.5v5h8.75l3.375-4.5-3.375-4.5H9.52V4h2.73q.354 0 .667.167.312.146.541.437L17.5 10l-4.042 5.396a1.7 1.7 0 0 1-.541.458q-.312.146-.667.146zm1-8q-.021 0-.167-.125a4.2 4.2 0 0 0-1.166-2.042 4.2 4.2 0 0 0-2.042-1.166Q1.083 4.646 1 4.5q0-.042.125-.167a4.27 4.27 0 0 0 2.042-1.146 4.33 4.33 0 0 0 1.166-2.062Q4.354 1.083 4.5 1q.042 0 .167.125a4.43 4.43 0 0 0 1.166 2.042q.854.854 2.042 1.166.042 0 .125.167 0 .021-.125.167a4.33 4.33 0 0 0-2.062 1.166q-.855.854-1.146 2.042 0 .042-.167.125"/></svg>