<svg xmlns="http://www.w3.org/2000/svg" width="20" height="20" fill="#e3e3e3" viewBox="0 -960 960 960"><path d="M720-240q25 0 42.5-17.5T780-300t-17.5-42.5T720-360t-42.5 17.5T660-300t17.5 42.5T720-240m0 120q32 0 59-16t43-42q-23-13-48.5-19.5T720-204t-53.5 7-48.5 19q16 26 43 42t59 16M360-624h240v-96q0-50-35-85t-85-35-85 35-35 85zM499-96H264q-29.7 0-50.85-21.15T192-168v-384q0-29.7 21.15-50.85T264-624h24v-96q0-79.68 56.23-135.84 56.22-56.16 136-56.16Q560-912 616-855.84T672-720v96h24q29.7 0 50.85 21.15T768-552v53q-17.05-3-35.53-4.5Q714-505 696-503v-49H264v384h202q6 20 14 38t19 34m220.77 48Q640-48 584-104.23q-56-56.22-56-136Q528-320 584.23-376q56.22-56 136-56Q800-432 856-375.77q56 56.22 56 136Q912-160 855.77-104q-56.22 56-136 56M264-552v384z"/></svg>