<svg xmlns="http://www.w3.org/2000/svg" width="24" height="24" fill="#e3e3e3" viewBox="0 -960 960 960"><path d="M720-240q25 0 42.5-17.5T780-300t-17.5-42.5T720-360t-42.5 17.5T660-300t17.5 42.5T720-240m0 120q30 0 56-14t43-39q-23-14-48-20.5t-51-6.5-51 6.5-48 20.5q17 25 43 39t56 14M360-640h240v-80q0-50-35-85t-85-35-85 35-35 85zM490-80H240q-33 0-56.5-23.5T160-160v-400q0-33 23.5-56.5T240-640h40v-80q0-83 58.5-141.5T480-920t141.5 58.5T680-720v80h40q33 0 56.5 23.5T800-560v52q-18-6-37.5-9t-42.5-3v-40H240v400h212q8 24 16 41.5T490-80m230 40q-83 0-141.5-58.5T520-240t58.5-141.5T720-440t141.5 58.5T920-240 861.5-98.5 720-40M240-560v400z"/></svg>