<svg xmlns="http://www.w3.org/2000/svg" width="20" height="21" fill="none"><path fill="#000" d="M3.5 16.75q-.625 0-1.062-.437A1.45 1.45 0 0 1 2 15.25v-9q0-.625.438-1.062A1.45 1.45 0 0 1 3.5 4.75h8.02a4.4 4.4 0 0 0-.02.75q.021.375.125.75H3.5L10 9.98l2.917-1.688q.291.27.77.5t.855.333L10 11.75 3.5 8.02v7.23h13V9.125q.417-.105.77-.292.375-.208.73-.458v6.875q0 .625-.458 1.063a1.42 1.42 0 0 1-1.042.437zm0-10.5v9zm12 1.5a2.4 2.4 0 0 1-1.77-.73A2.4 2.4 0 0 1 13 5.25q0-1.042.73-1.77a2.4 2.4 0 0 1 1.77-.73 2.4 2.4 0 0 1 1.77.73q.73.728.73 1.77t-.73 1.77a2.4 2.4 0 0 1-1.77.73"/></svg>