<svg height="110" width="130" xmlns="http://www.w3.org/2000/svg" xmlns:xlink="http://www.w3.org/1999/xlink"><linearGradient id="a" gradientUnits="userSpaceOnUse" x1="80.001" x2="90.001" y1="5" y2="5"><stop offset="0" stop-color="#606eda"/><stop offset="1" stop-color="#021db2"/></linearGradient><linearGradient id="b" gradientTransform="matrix(0 -.41667 -.41667 0 25 10)" gradientUnits="userSpaceOnUse" x2="24"><stop offset="0" stop-color="#d7687d"/><stop offset="1" stop-color="#b21402"/></linearGradient><linearGradient id="c" gradientTransform="matrix(-.0048 .4396 .78038 .00853 65.608 -94.834)" gradientUnits="userSpaceOnUse" x1="227.88" x2="235.12" y1="103.16" y2="103.16"><stop offset="0" stop-color="#00d600" stop-opacity="0"/><stop offset="1" stop-color="#d8fc7b" stop-opacity=".81"/></linearGradient><linearGradient id="d" gradientTransform="matrix(.00687 -.62923 .9267 .01012 47.871 147.44)" gradientUnits="userSpaceOnUse" x1="227.88" x2="235.12" y1="103.16" y2="103.16"><stop offset="0" stop-color="#00ba00"/><stop offset="1" stop-color="#fff" stop-opacity=".91"/></linearGradient><linearGradient id="e" gradientTransform="matrix(-.01507 1.3791 -1.3006 -.0142 282.66 -312.8)" gradientUnits="userSpaceOnUse" x1="227.88" x2="235.12" y1="103.16" y2="103.16"><stop offset="0" stop-color="#00a104"/><stop offset="1" stop-color="#00c605"/></linearGradient><linearGradient id="f" gradientTransform="matrix(0 .43966 .78049 0 84.444 -93.924)" gradientUnits="userSpaceOnUse" x1="227.88" x2="235.12" y1="103.16" y2="103.16"><stop offset="0" stop-color="#ffa801" stop-opacity="0"/><stop offset="1" stop-color="#f0fb3d"/></linearGradient><linearGradient id="g" gradientTransform="matrix(0 -.62931 .92683 0 69.47 148.53)" gradientUnits="userSpaceOnUse" x1="227.88" x2="235.12" y1="103.16" y2="103.16"><stop offset="0" stop-color="#ffbd00" stop-opacity=".65"/><stop offset="1" stop-color="#fff" stop-opacity=".91"/></linearGradient><linearGradient id="h" gradientTransform="matrix(0 .43966 .78049 0 44.488 -93.88)" gradientUnits="userSpaceOnUse" x1="227.88" x2="235.12" y1="103.16" y2="103.16"><stop offset="0" stop-color="#f00" stop-opacity="0"/><stop offset="1" stop-color="#f0cb68" stop-opacity=".71"/></linearGradient><linearGradient id="i" gradientTransform="matrix(0 -.62931 .92683 0 29.47 148.53)" gradientUnits="userSpaceOnUse" x1="227.88" x2="235.12" y1="103.16" y2="103.16"><stop offset="0" stop-color="#e60000" stop-opacity=".65"/><stop offset="1" stop-color="#fff" stop-opacity=".91"/></linearGradient><linearGradient id="j" gradientTransform="matrix(0 1.3793 -1.3008 0 259.08 -314.35)" gradientUnits="userSpaceOnUse" x1="227.88" x2="235.12" y1="103.16" y2="103.16"><stop offset="0" stop-color="#a10000"/><stop offset="1" stop-color="#c60000"/></linearGradient><mask id="k"><path d="m0 0h10v10h-10z" fill="#fff"/><path d="m64 3h2v2.25l-.5 1.75h-1l-.5-1.75zm0 5h2v1h-2" transform="translate(-60)"/></mask><mask id="l"><path d="m0 0h10v10h-10z" fill="#fff"/><path d="m83.93 2.14c-.03-.53.55-.97 1.06-.83.5.12.79.73.56 1.18-.2.44-.79.61-1.2.36a.812.812 0 0 1 -.42-.71zm1.7 5.46h.67v.53h-2.89v-.53h.66v-3.61h-.66v-.53h2.22z" transform="translate(-80)"/></mask><mask id="m"><path d="m0 0h10v10h-10z" fill="#fff"/><path d="m23 3 4 4m0-4-4 4" stroke="#000" transform="translate(-20)"/></mask><path d="m0 20.995c0-.55.456-.995.995-.995h8.01a1 1 0 0 1 .995.995v8.01c0 .549-.456.995-.995.995h-8.01c-.55 0-.995-.456-.995-.996zm5.123 4.744c2.568-.427 3.627-1.193 3.627-3.739h-1.5c0 1.62-.44 1.939-2.373 2.26-2.568.429-3.627 1.194-3.627 3.74h1.5c0-1.62.44-1.937 2.373-2.26zm18.527 1.471-1.44-2.03-1.21 1.21 2.55 3.61 6.45-7.67-1.12-1.33z"/><path d="m6.5 46c0 .55.45 1 1 1s1-.45 1-1-.45-1-1-1-1 .45-1 1" fill="#bababa"/><path d="m5.75 42.75-3.5 3.25 3.5 3.25" fill="none" stroke="#bababa" stroke-width="1.5"/><path d="m27.5 42.43-.93-.93-2.57 2.57-2.57-2.57-.93.93 2.57 2.57-2.57 2.57.93.93 2.57-2.57 2.57 2.57.93-.93-2.57-2.57z" fill-opacity=".24"/><path d="m27.5 41.93-.93-.93-2.57 2.57-2.57-2.57-.93.93 2.57 2.57-2.57 2.57.93.93 2.57-2.57 2.57 2.57.93-.93-2.57-2.57z" fill="#676767"/><path d="m43.25 20c-.7 0-1.25.5-1.25 1.25v7.5c0 .7.5 1.25 1.25 1.25h3.5c.7 0 1.25-.5 1.25-1.25v-7.5c0-.7-.5-1.25-1.25-1.25zm-.25 1h4v7h-4zm2 7.25c.4 0 .75.3.75.75 0 .4-.3.75-.75.75-.4 0-.75-.3-.75-.75 0-.4.3-.75.75-.75z"/><path d="m25 0c-2.76 0-5 2.24-5 5s2.24 5 5 5 5-2.24 5-5-2.24-5-5-5" fill="url(#b)" transform="translate(20 40)"/><path d="m40.36 45c0 2.56 2.08 4.64 4.64 4.64s4.64-2.08 4.64-4.64-2.08-4.64-4.64-4.64-4.64 2.08-4.64 4.64" fill="#eb3941"/><path d="m43 43 4 4m0-4-4 4" stroke="#fff"/><path d="m4.5 61.3 4 3.7-4 3.7v-1.2h-3.075l.075-5h3z" fill="#adf2ad" stroke="#007200"/><path d="m144.95 10a5.002 5.002 0 0 1 -4.95-5.05 5.002 5.002 0 0 1 5.05-4.95c2.76.03 4.98 2.29 4.95 5.05a5.002 5.002 0 0 1 -5.05 4.95z" fill="url(#e)" transform="translate(-120 60)"/><path d="m29.5 65.05a4.494 4.494 0 0 1 -4.55 4.45 4.494 4.494 0 0 1 -4.45-4.55 4.494 4.494 0 0 1 4.55-4.45c2.49.03 4.48 2.06 4.45 4.55z" fill="#00be00"/><path d="m145.08.53c1.97.02 3.55 1.06 3.54 2.32s-1.62 2.26-3.59 2.24-3.55-1.06-3.54-2.32 1.62-2.26 3.59-2.24z" fill="url(#d)" transform="translate(-120 60)"/><path d="m144.98 9.41c1.66.02 3.01-.68 3.02-1.56s-1.33-1.61-2.98-1.63c-1.66-.02-3.01.68-3.02 1.56s1.33 1.61 2.98 1.63z" fill="url(#c)" transform="translate(-120 60)"/><path d="m85 0c-2.76 0-5 2.24-5 5s2.24 5 5 5 5-2.24 5-5-2.24-5-5-5" fill="url(#a)" transform="translate(-40 60)"/><path d="m40.36 65c0 2.56 2.08 4.64 4.64 4.64s4.64-2.08 4.64-4.64-2.08-4.64-4.64-4.64-4.64 2.08-4.64 4.64" fill="#2a53cd"/><path d="m43.93 62.14c-.03-.53.55-.97 1.06-.83.5.12.79.73.56 1.18-.2.44-.79.61-1.2.36a.812.812 0 0 1 -.42-.71zm1.7 5.46h.67v.53h-2.89v-.53h.66v-3.61h-.66v-.53h2.22z" fill="#fff"/><path d="m60.45 20.467v9.079h5.373l3.582-4.54-3.582-4.539z" fill="#698cfe" stroke="#4073f4" stroke-width=".908"/><path d="m60.45 40.467v9.08h5.372l3.581-4.54-3.581-4.54z" fill="#ef9d0d" stroke="#a36c01" stroke-width=".908"/><path d="m65 70c-2.76 0-5-2.24-5-5s2.24-5 5-5 5 2.24 5 5-2.24 5-5 5z" fill="#e5a600"/><path d="m69.5 65c0 2.49-2.01 4.5-4.5 4.5s-4.5-2.01-4.5-4.5 2.01-4.5 4.5-4.5 4.5 2.01 4.5 4.5z" fill="#ffbd00"/><path d="m165.03.53c1.97 0 3.56 1.02 3.56 2.28s-1.59 2.28-3.56 2.28-3.56-1.02-3.56-2.28 1.59-2.28 3.56-2.28z" fill="url(#g)" transform="translate(-100 60)"/><path d="m164.99 9.42c1.66 0 3-.71 3-1.59s-1.34-1.59-3-1.59-3 .71-3 1.59 1.34 1.59 3 1.59z" fill="url(#f)" transform="translate(-100 60)"/><path d="m125 10c-2.76 0-5-2.24-5-5s2.24-5 5-5 5 2.24 5 5-2.24 5-5 5z" fill="url(#j)" transform="translate(-120 80)"/><path d="m9.5 85c0 2.49-2.01 4.5-4.5 4.5s-4.5-2.01-4.5-4.5 2.01-4.5 4.5-4.5 4.5 2.01 4.5 4.5z" fill="#d00"/><path d="m125.03.53c1.97 0 3.56 1.02 3.56 2.28s-1.59 2.28-3.56 2.28-3.56-1.02-3.56-2.28 1.59-2.28 3.56-2.28z" fill="url(#i)" transform="translate(-120 80)"/><path d="m125.03 9.47c1.66 0 3-.71 3-1.59s-1.34-1.59-3-1.59-3 .71-3 1.59 1.34 1.59 3 1.59z" fill="url(#h)" transform="translate(-120 80)"/><path d="m20 80h10v10h-10z" fill="none"/><path d="m27.5 82.5v-2.5h-7.5v7.5h2.5v2.5h7.5v-7.5zm-6.5-1.5h5.5v5.5h-5.5zm2.5 6.5h4v-4h1.5v5.5h-5.5z"/><path d="m23.5 87.5h4v-4h1.5v5.5h-5.5z" fill-opacity=".25"/><g stroke="#007200"><g fill="#acf2ae" stroke-width="2.577" transform="matrix(.29356 0 0 .2909 2.65 86.864)"><path d="m144.95 10a5.002 5.002 0 0 1 -4.95-5.05 5.002 5.002 0 0 1 5.05-4.95c2.76.03 4.98 2.29 4.95 5.05a5.002 5.002 0 0 1 -5.05 4.95z"/><path d="m149.5 5.05a4.494 4.494 0 0 1 -4.55 4.45 4.494 4.494 0 0 1 -4.45-4.55 4.494 4.494 0 0 1 4.55-4.45c2.49.03 4.48 2.06 4.45 4.55z"/></g><path d="m48.313 82.5-3.103 3.5-3.102-3.5h1.24v-1.92h3.723v1.92z" fill="#adf2ad"/><path d="m66.537 88.514a1.314 1.314 0 0 1 -1.335 1.295 1.313 1.313 0 0 1 -1.306-1.324 1.314 1.314 0 0 1 1.335-1.294c.731.009 1.315.6 1.307 1.323z" fill="#acf2ae" stroke-width=".753"/><path d="m62.108 83.5 3.102-2.982 3.102 2.982h-1.24v2h-3.723v-2z" fill="#adf2ad"/></g><path d="m83.25 21.75 3.5 3.25-3.5 3.25" fill="none" stroke="#367cf1" stroke-width="1.5"/><path d="m86 40-5 5 5 5v-2h3v-6h-3zm-2 20 5 5-5 5.022v-2.045l-3 .023v-6h3z" fill="#4688f1"/><path d="m84.5 88 3.5-6h-7m-74 22.5-5-3.5v7m22-8 4 7h-8"/><path d="m43.25 102.75 3.5 3.25-3.5 3.25" fill="none" stroke="#939393" stroke-width="1.5"/><path d="m61 109 4-8 4 8z" stroke="#c19600" stroke-linejoin="round" stroke-width="2"/><path d="m61 109 4-8 4 8z" fill="#f4bd00" stroke="#f5bd00" stroke-linejoin="round" stroke-width="1.5"/><path d="m63.75 102.75h2.5v2.5l-.5 1.75h-1.5l-.5-1.75zm0 5.25h2.5v1.25h-2.5" fill="#ad8601"/><path d="m64 103h2v2.25l-.5 1.75h-1l-.5-1.75zm0 5h2v1h-2" fill="#fff"/><g fill="#ccc" font-family="sans-serif" font-weight="400" letter-spacing="0" word-spacing="0"><text x="3.051" y="118.387"><tspan font-size="8" x="3.051" y="118.387">a</tspan></text><text x="23.051" y="118.387"><tspan font-size="8" x="23.051" y="118.387">b</tspan></text><text x="43.051" y="118.387"><tspan font-size="8" x="43.051" y="118.387">c</tspan></text><text x="63.051" y="118.387"><tspan font-size="8" x="63.051" y="118.387">d</tspan></text><text x="83.051" y="118.387"><tspan font-size="8" x="83.051" y="118.387">e</tspan></text><text x="-7.026" y="107.818"><tspan font-size="8" x="-7.026" y="107.818">1</tspan></text><text x="-6.819" y="87.88"><tspan font-size="8" x="-6.819" y="87.88">2</tspan></text><text x="-6.756" y="67.992"><tspan font-size="8" x="-6.756" y="67.992">3</tspan></text><text x="-6.917" y="47.994"><tspan font-size="8" x="-6.917" y="47.994">4</tspan></text><text x="-7.108" y="28.056"><tspan font-size="8" x="-7.108" y="28.056">5</tspan></text></g><circle cx="85" cy="106" fill="#00bcd4" r="2.83" stroke="#000" stroke-width=".34"/><path d="m5 0a5 5 0 1 0 0 10 5 5 0 0 0 0-10zm.048.721c1.083 0 2.179.4 3.005 1.226a4.234 4.234 0 0 1 0 5.986l-3.005-2.981-2.98-3.005a4.18 4.18 0 0 1 2.979-1.226z"/><text fill="#ccc" font-family="sans-serif" font-weight="400" letter-spacing="0" word-spacing="0" x="-6.68" y="8"><tspan font-size="8" x="-6.68" y="8">6</tspan></text><path d="m17.601-2.913h16.232v16.232h-16.232z" fill="none"/><path d="m21.11 5.556-1.11 1.111 3.334 3.333 6.666-6.666-1.11-1.111-5.556 5.555z" fill-rule="evenodd"/><path d="m44.954 8.42a3.467 3.467 0 0 1 -3.462-3.46c0-.678.2-1.309.531-1.84l4.77 4.77a3.411 3.411 0 0 1 -1.84.53m3.462-3.46c0 .676-.2 1.307-.53 1.838l-4.77-4.77a3.405 3.405 0 0 1 1.839-.53 3.467 3.467 0 0 1 3.461 3.461m-3.415-4.954a5 5 0 1 0 0 10 5 5 0 0 0 0-10"/><path d="m68.875 2.219-5.531 5.561-.407-.406-1.093 1.126 1.5 1.5 6.656-6.656z" fill-rule="evenodd"/><text fill="#ccc" font-family="sans-serif" font-weight="400" letter-spacing="0" word-spacing="0" x="103.739" y="118.482"><tspan font-size="8" x="103.739" y="118.482">f</tspan></text><g mask="url(#k)" transform="translate(100 100)"><path d="m1 9 4-8 4 8z" stroke="#c19600" stroke-linejoin="round" stroke-width="2"/><path d="m1 9 4-8 4 8z" fill="#f4bd00" stroke="#f5bd00" stroke-linejoin="round" stroke-width="1.5"/><path d="m3.75 2.75h2.5v2.5l-.5 1.75h-1.5l-.5-1.75zm0 5.25h2.5v1.25h-2.5" fill="#ad8601"/></g><g mask="url(#l)" transform="translate(100 80)"><path d="m85 0c-2.76 0-5 2.24-5 5s2.24 5 5 5 5-2.24 5-5-2.24-5-5-5" fill="url(#a)" transform="translate(-80)"/><path d="m.36 5c0 2.56 2.08 4.64 4.64 4.64s4.64-2.08 4.64-4.64-2.08-4.64-4.64-4.64-4.64 2.08-4.64 4.64" fill="#2a53cd"/></g><g mask="url(#m)" transform="translate(100 60)"><path d="m25 0c-2.76 0-5 2.24-5 5s2.24 5 5 5 5-2.24 5-5-2.24-5-5-5" fill="url(#b)" transform="translate(-20)"/><path d="m.36 5c0 2.56 2.08 4.64 4.64 4.64s4.64-2.08 4.64-4.64-2.08-4.64-4.64-4.64-4.64 2.08-4.64 4.64" fill="#eb3941"/></g><path d="m105.1 40.267a4.835 4.835 0 0 0 -4.833 4.833 4.835 4.835 0 0 0 4.833 4.833 4.835 4.835 0 0 0 4.833-4.833 4.835 4.835 0 0 0 -4.833-4.833zm0 1.45c.802 0 1.45.647 1.45 1.45 0 .802-.648 1.45-1.45 1.45s-1.45-.648-1.45-1.45c0-.803.648-1.45 1.45-1.45zm0 6.863a3.48 3.48 0 0 1 -2.9-1.556c.014-.962 1.933-1.489 2.9-1.489.962 0 2.885.527 2.9 1.489a3.48 3.48 0 0 1 -2.9 1.556z"/><path d="m99.3 39.3h11.6v11.6h-11.6z" fill="none"/><path d="m105 22.528-4 4.43.94 1.042 3.06-3.382 3.06 3.382.94-1.041z"/><path d="m76.448 14.99h17.528v19.416h-17.528z" fill="none"/><path d="m88.06 3.06-3.06 3.053-3.06-3.053-.94.94 4 4 4-4zm13.94-1.06h2v6h-2z"/><a><path d="m106 2h2v6h-2z"/></a><text fill="#ccc" font-family="sans-serif" font-weight="400" letter-spacing="0" word-spacing="0" x="122.66" y="117.219"><tspan font-size="8" x="122.66" y="117.219">g</tspan></text><path d="m128 5-6 3v-6zm0 21.5-1.5 1.5-1.5-1.5-1.5 1.5-1.5-1.5 1.5-1.5-1.5-1.5 1.5-1.5 1.5 1.5 1.5-1.5 1.5 1.5-1.5 1.5z"/></svg>