<svg xmlns="http://www.w3.org/2000/svg" width="20" height="20" fill="none"><path fill="#000" d="m10 19-3-3H4.5A1.49 1.49 0 0 1 3 14.5v-11q0-.604.438-1.042Q3.896 2 4.5 2h6v1.5h-6v11h11v-5H17v5q0 .604-.437 1.063A1.45 1.45 0 0 1 15.5 16H13zm5.5-11q-.021 0-.167-.125a4.2 4.2 0 0 0-1.166-2.042 4.2 4.2 0 0 0-2.042-1.166Q12.083 4.646 12 4.5q0-.042.125-.167a4.3 4.3 0 0 0 2.042-1.146 4.33 4.33 0 0 0 1.166-2.062q.021-.042.167-.125.042 0 .167.125a4.43 4.43 0 0 0 1.166 2.042q.855.854 2.042 1.166.042 0 .125.167 0 .021-.125.167a4.33 4.33 0 0 0-2.062 1.166q-.855.854-1.146 2.042 0 .042-.167.125"/></svg>