<svg xmlns="http://www.w3.org/2000/svg" width="20" height="20" fill="none"><path fill="#000" d="M10 18a.28.28 0 0 1-.208-.083.5.5 0 0 1-.125-.209 9.7 9.7 0 0 0-1.042-2.52Q7.938 13.958 7 13a10 10 0 0 0-2.187-1.646 10.1 10.1 0 0 0-2.521-1.02.5.5 0 0 1-.209-.126A.28.28 0 0 1 2 10q0-.125.083-.208a.5.5 0 0 1 .209-.125 10.1 10.1 0 0 0 2.52-1.021A10.6 10.6 0 0 0 7 7a9.5 9.5 0 0 0 1.646-2.167q.687-1.23 1.02-2.541a.5.5 0 0 1 .126-.209A.28.28 0 0 1 10 2q.125 0 .208.083a.5.5 0 0 1 .125.209q.334 1.312 1.021 2.541A10.1 10.1 0 0 0 13 7a10.1 10.1 0 0 0 2.167 1.646q1.23.687 2.541 1.02.126.042.209.126A.28.28 0 0 1 18 10a.28.28 0 0 1-.083.208.5.5 0 0 1-.209.125q-1.312.334-2.541 1.021A9.5 9.5 0 0 0 13 13a10.6 10.6 0 0 0-1.646 2.188 10.1 10.1 0 0 0-1.02 2.52.5.5 0 0 1-.126.209A.28.28 0 0 1 10 18"/></svg>