<svg xmlns="http://www.w3.org/2000/svg" width="14" height="16" fill="none"><g clip-path="url(#a)"><path fill="#0B57D0" d="M7 12.632a.2.2 0 0 1-.143-.057.36.36 0 0 1-.085-.143 6.6 6.6 0 0 0-.713-1.724 7 7 0 0 0-1.111-1.496A6.8 6.8 0 0 0 3.45 8.086a7 7 0 0 0-1.724-.699.36.36 0 0 1-.142-.085.2.2 0 0 1-.057-.143q0-.085.057-.142a.36.36 0 0 1 .142-.086 7 7 0 0 0 1.724-.698 7.3 7.3 0 0 0 1.497-1.126 6.5 6.5 0 0 0 1.126-1.482q.47-.84.698-1.739a.36.36 0 0 1 .085-.142A.2.2 0 0 1 7 1.687q.086 0 .143.057a.36.36 0 0 1 .085.142q.228.898.698 1.74a7 7 0 0 0 1.126 1.481q.656.656 1.482 1.126.84.47 1.739.698a.36.36 0 0 1 .143.086.2.2 0 0 1 .056.142.2.2 0 0 1-.056.143.36.36 0 0 1-.143.085 7.2 7.2 0 0 0-1.739.699 6.5 6.5 0 0 0-1.482 1.126 7.3 7.3 0 0 0-1.126 1.496 7 7 0 0 0-.698 1.724.36.36 0 0 1-.085.143.2.2 0 0 1-.143.057"/></g><defs><clipPath id="a"><path fill="#fff" d="M0 0h14v15.144H0z"/></clipPath></defs></svg>