<svg xmlns="http://www.w3.org/2000/svg" width="20" height="20" fill="none"><path fill="#000" d="M15.5 8q-.021 0-.167-.125a4.2 4.2 0 0 0-1.166-2.042 4.2 4.2 0 0 0-2.042-1.166Q12.083 4.646 12 4.5q0-.042.125-.167a4.3 4.3 0 0 0 2.042-1.146 4.33 4.33 0 0 0 1.166-2.062q.021-.042.167-.125.042 0 .167.125a4.43 4.43 0 0 0 1.166 2.042q.855.854 2.042 1.166.042 0 .125.167 0 .021-.125.167a4.33 4.33 0 0 0-2.062 1.166q-.855.854-1.146 2.042 0 .042-.167.125m0 0q-.021 0-.167-.125a4.2 4.2 0 0 0-1.166-2.042 4.2 4.2 0 0 0-2.042-1.166Q12.083 4.646 12 4.5q0-.042.125-.167a4.3 4.3 0 0 0 2.042-1.146 4.33 4.33 0 0 0 1.166-2.062q.021-.042.167-.125.042 0 .167.125a4.43 4.43 0 0 0 1.166 2.042q.855.854 2.042 1.166.042 0 .125.167 0 .021-.125.167a4.33 4.33 0 0 0-2.062 1.166q-.855.854-1.146 2.042 0 .042-.167.125M10 3.5q-2.709 0-4.604 1.896T3.5 10t1.875 4.604Q7.271 16.5 10 16.5q2.709 0 4.604-1.896T16.5 10H18a7.8 7.8 0 0 1-.625 3.104 8.027 8.027 0 0 1-4.27 4.27 7.7 7.7 0 0 1-3.105.626 7.8 7.8 0 0 1-3.104-.625 8.3 8.3 0 0 1-2.563-1.708 8.3 8.3 0 0 1-1.708-2.563A7.8 7.8 0 0 1 2 10a7.7 7.7 0 0 1 .625-3.104 8.03 8.03 0 0 1 4.27-4.271A7.8 7.8 0 0 1 10 2v1.5M9.25 14h1.5V9h-1.5zM10 8q.313 0 .52-.208a.74.74 0 0 0 .23-.542.68.68 0 0 0-.23-.52.68.68 0 0 0-.52-.23.74.74 0 0 0-.542.23.7.7 0 0 0-.208.52q0 .312.208.542A.78.78 0 0 0 10 8"/></svg>