<svg xmlns="http://www.w3.org/2000/svg" width="20" height="20" fill="none"><path fill="#000" d="M0 16v-1.5h9V16zm0-3.75v-1.5h14v1.5zM0 8.5V7h9v1.5zM12.5 7q-.021 0-.167-.125a4.2 4.2 0 0 0-1.166-2.042 4.2 4.2 0 0 0-2.042-1.166Q9.083 3.646 9 3.5q0-.042.125-.167a4.3 4.3 0 0 0 2.042-1.145A4.33 4.33 0 0 0 12.333.125Q12.354.083 12.5 0q.042 0 .167.125a4.43 4.43 0 0 0 1.166 2.042q.854.854 2.042 1.166.042 0 .125.167 0 .021-.125.167a4.33 4.33 0 0 0-2.062 1.166q-.855.855-1.146 2.042 0 .042-.167.125"/></svg>