<svg width="20" height="20" viewBox="0 0 20 20" fill="none" xmlns="http://www.w3.org/2000/svg">
<path d="M8 16.25L6.938 15.188L8.229 13.896C6.40967 13.7013 4.91667 13.236 3.75 12.5C2.58333 11.764 2 10.9307 2 10C2 8.88867 2.77767 7.94433 4.333 7.167C5.889 6.389 7.778 6 10 6C12.222 6 14.111 6.389 15.667 7.167C17.2223 7.94433 18 8.88867 18 10C18 10.8333 17.545 11.5867 16.635 12.26C15.7257 12.934 14.514 13.4167 13 13.708V12.167C14 11.9303 14.8333 11.6073 15.5 11.198C16.1667 10.788 16.5 10.3887 16.5 10C16.5 9.36133 15.8263 8.785 14.479 8.271C13.1317 7.757 11.6387 7.5 10 7.5C8.37467 7.5 6.885 7.76033 5.531 8.281C4.177 8.80167 3.5 9.37467 3.5 10C3.5 10.472 3.948 10.9443 4.844 11.417C5.74 11.889 6.785 12.2013 7.979 12.354L6.938 11.312L8 10.25L11 13.25L8 16.25Z" fill="black"/>
</svg>
