<svg width="16" height="16" viewBox="0 0 16 16" fill="none" xmlns="http://www.w3.org/2000/svg">
<path d="M13.6667 3.99999C11.9267 4.46666 9.88667 4.66666 8 4.66666C6.11333 4.66666 4.07333 4.46666 2.33333 3.99999L2 5.33333C3.24 5.66666 4.66667 5.88666 6 5.99999V14.6667H7.33333V10.6667H8.66667V14.6667H10V5.99999C11.3333 5.88666 12.76 5.66666 14 5.33333L13.6667 3.99999ZM8 3.99999C8.73333 3.99999 9.33333 3.39999 9.33333 2.66666C9.33333 1.93333 8.73333 1.33333 8 1.33333C7.26667 1.33333 6.66667 1.93333 6.66667 2.66666C6.66667 3.39999 7.26667 3.99999 8 3.99999Z" fill="#202124"/>
</svg>
