<svg width="20" height="20" viewBox="0 0 20 20" fill="none" xmlns="http://www.w3.org/2000/svg">
<path d="M7.5 18C6.75 18 6.04514 17.8646 5.38542 17.5938C4.72569 17.3229 4.13194 16.9236 3.60417 16.3958C3.07639 15.8681 2.67708 15.2743 2.40625 14.6146C2.13542 13.9549 2 13.25 2 12.5C2 11.4444 2.27083 10.4757 2.8125 9.59375C3.35417 8.71181 4.10417 8.03472 5.0625 7.5625C5.29861 7.04861 5.63542 6.57292 6.07292 6.13542C6.51042 5.69792 7.00694 5.34028 7.5625 5.0625C8.03472 4.11806 8.71181 3.37153 9.59375 2.82292C10.4757 2.27431 11.4444 2 12.5 2C13.25 2 13.9549 2.13542 14.6146 2.40625C15.2743 2.67708 15.8681 3.07639 16.3958 3.60417C16.9236 4.13194 17.3229 4.72569 17.5938 5.38542C17.8646 6.04514 18 6.75 18 7.5C18 8.56944 17.7326 9.53819 17.1979 10.4063C16.6632 11.2743 15.9097 11.9514 14.9375 12.4375C14.6736 12.9931 14.3229 13.4861 13.8854 13.9167C13.4479 14.3472 12.9653 14.6875 12.4375 14.9375C11.9514 15.8819 11.2674 16.6285 10.3854 17.1771C9.50347 17.7257 8.54167 18 7.5 18ZM7.5 16.5C7.95833 16.5 8.42014 16.4132 8.88542 16.2396C9.35069 16.066 9.76389 15.8194 10.125 15.5C9.36111 15.5278 8.63542 15.3993 7.94792 15.1146C7.26042 14.8299 6.64583 14.4167 6.10417 13.875C5.5625 13.3333 5.15278 12.7222 4.875 12.0417C4.59722 11.3611 4.47222 10.6389 4.5 9.875C4.18056 10.2361 3.93403 10.6493 3.76042 11.1146C3.58681 11.5799 3.5 12.0417 3.5 12.5C3.5 13.0417 3.59722 13.5486 3.79167 14.0208C3.98611 14.4931 4.27778 14.9236 4.66667 15.3125C5.05556 15.7014 5.48958 15.9965 5.96875 16.1979C6.44792 16.3993 6.95833 16.5 7.5 16.5ZM10 14C10.4722 14 10.9375 13.9132 11.3958 13.7396C11.8542 13.566 12.2708 13.3194 12.6458 13C11.8958 13.0278 11.1736 12.9028 10.4792 12.625C9.78472 12.3472 9.15972 11.9306 8.60417 11.375C8.04861 10.8194 7.63542 10.2049 7.36458 9.53125C7.09375 8.85764 6.97222 8.13889 7 7.375C6.68056 7.73611 6.43403 8.14236 6.26042 8.59375C6.08681 9.04514 6 9.51389 6 10C6 10.5417 6.09722 11.0486 6.29167 11.5208C6.48611 11.9931 6.77778 12.4236 7.16667 12.8125C7.55556 13.2014 7.98958 13.4965 8.46875 13.6979C8.94792 13.8993 9.45833 14 10 14ZM12.4375 11.4792C12.6736 11.4792 12.9063 11.4618 13.1354 11.4271C13.3646 11.3924 13.5764 11.3403 13.7708 11.2708C14.0208 10.5347 14.0625 9.80208 13.8958 9.07292C13.7292 8.34375 13.375 7.70833 12.8333 7.16667C12.2917 6.625 11.6563 6.27083 10.9271 6.10417C10.1979 5.9375 9.46528 5.97917 8.72917 6.22917C8.65972 6.42361 8.60764 6.63542 8.57292 6.86458C8.53819 7.09375 8.52083 7.32639 8.52083 7.5625C8.52083 8.07639 8.62153 8.56944 8.82292 9.04167C9.02431 9.51389 9.30556 9.93056 9.66667 10.2917C10.0417 10.6667 10.4722 10.9583 10.9583 11.1667C11.4444 11.375 11.9375 11.4792 12.4375 11.4792ZM15.5 10.125C15.8194 9.77778 16.066 9.375 16.2396 8.91667C16.4132 8.45833 16.5 7.98611 16.5 7.5C16.5 6.97222 16.3993 6.46528 16.1979 5.97917C15.9965 5.49306 15.7014 5.05556 15.3125 4.66667C14.9236 4.27778 14.4931 3.98611 14.0208 3.79167C13.5486 3.59722 13.0417 3.5 12.5 3.5C12.0278 3.5 11.566 3.58681 11.1146 3.76042C10.6632 3.93403 10.25 4.18056 9.875 4.5C10.6667 4.47222 11.3958 4.59375 12.0625 4.86458C12.7292 5.13542 13.3403 5.54861 13.8958 6.10417C14.4514 6.65972 14.8646 7.27083 15.1354 7.9375C15.4063 8.60417 15.5278 9.33333 15.5 10.125Z" fill="black"/>
</svg>
