<svg width="24" height="24" viewBox="0 0 24 24" fill="none" xmlns="http://www.w3.org/2000/svg">
<mask id="mask0_3853_165798" style="mask-type:alpha" maskUnits="userSpaceOnUse" x="0" y="0" width="24" height="24">
<rect width="24" height="24" fill="#D9D9D9"/>
</mask>
<g mask="url(#mask0_3853_165798)">
<path d="M6.6255 12.99L13.838 12.99L12.247 14.581L13.6612 15.9952L17.6564 12L13.6612 8.00489L12.247 9.41911L13.8203 10.9924H6.64318L6.6255 12.99ZM4.92844 19.0711C3.95028 18.0929 3.21666 16.9881 2.72757 15.7565C2.23849 14.525 1.99395 13.2728 1.99395 12C1.99395 10.7273 2.23849 9.47509 2.72757 8.24354C3.21666 7.012 3.95028 5.90714 4.92844 4.92898C5.90661 3.95081 7.01146 3.21719 8.24301 2.72811C9.47455 2.23903 10.7267 1.99448 11.9995 1.99448C13.2723 1.99448 14.5245 2.23903 15.756 2.72811C16.9876 3.21719 18.0924 3.95081 19.0706 4.92898C20.0487 5.90714 20.7824 7.012 21.2714 8.24354C21.7605 9.47509 22.0051 10.7273 22.0051 12C22.0051 13.2728 21.7605 14.525 21.2714 15.7565C20.7824 16.9881 20.0487 18.0929 19.0706 19.0711C18.0924 20.0493 16.9876 20.7829 15.756 21.272C14.5245 21.7611 13.2723 22.0056 11.9995 22.0056C10.7267 22.0056 9.47455 21.7611 8.24301 21.272C7.01146 20.7829 5.90661 20.0493 4.92844 19.0711ZM6.34266 17.6569C7.92186 19.2361 9.80748 20.0257 11.9995 20.0257C14.1915 20.0257 16.0772 19.2361 17.6564 17.6569C19.2356 16.0777 20.0252 14.1921 20.0252 12C20.0252 9.80801 19.2356 7.9224 17.6564 6.34319C16.0772 4.76399 14.1915 3.97438 11.9995 3.97438C9.80748 3.97438 7.92186 4.76399 6.34266 6.34319C4.76345 7.9224 3.97385 9.80801 3.97385 12C3.97385 14.1921 4.76345 16.0777 6.34266 17.6569Z" fill="#1F1F1F"/>
</g>
</svg>
