<svg width="20" height="20" viewBox="0 0 20 20" fill="none" xmlns="http://www.w3.org/2000/svg">
<path fill-rule="evenodd" clip-rule="evenodd" d="M6.896 17.375C7.868 17.7917 8.90267 18 10 18C11.1113 18 12.1497 17.7917 13.115 17.375C14.0797 16.9583 14.9267 16.3853 15.656 15.656C16.3853 14.9267 16.9583 14.076 17.375 13.104C17.7917 12.132 18 11.0973 18 10C18 8.88867 17.7917 7.85033 17.375 6.885C16.9583 5.92033 16.3853 5.07333 15.656 4.344C14.9267 3.61467 14.0797 3.04167 13.115 2.625C12.1497 2.20833 11.1113 2 10 2C8.90267 2 7.868 2.20833 6.896 2.625C5.924 3.04167 5.07333 3.61467 4.344 4.344C3.61467 5.07333 3.04167 5.92033 2.625 6.885C2.20833 7.85033 2 8.88867 2 10C2 11.0973 2.20833 12.132 2.625 13.104C3.04167 14.076 3.61467 14.9267 4.344 15.656C5.07333 16.3853 5.924 16.9583 6.896 17.375ZM11.75 16.2802C11.198 16.4267 10.6147 16.5 10 16.5C8.19467 16.5 6.66 15.868 5.396 14.604C4.132 13.34 3.5 11.8053 3.5 10C3.5 8.19467 4.132 6.66 5.396 5.396C5.81727 4.97473 6.2686 4.62367 6.75 4.3428V11.6893L5.53033 10.4697L4.46967 11.5303L7.5 14.5607L10.5303 11.5303L9.46967 10.4697L8.25 11.6893V3.71982C8.80195 3.57327 9.38528 3.5 10 3.5C11.8053 3.5 13.34 4.132 14.604 5.396C15.868 6.66 16.5 8.19467 16.5 10C16.5 11.8053 15.868 13.34 14.604 14.604C14.1827 15.0253 13.7314 15.3763 13.25 15.6572V8.31066L14.4697 9.53033L15.5303 8.46967L12.5 5.43934L9.46967 8.46967L10.5303 9.53033L11.75 8.31066V16.2802Z" fill="black"/>
</svg>
