<svg width="20" height="20" viewBox="0 0 20 20" fill="none" xmlns="http://www.w3.org/2000/svg">
<path d="M10 13L13 10L10 7L8.9375 8.0625L10.125 9.25H7V10.75H10.125L8.9375 11.9375L10 13ZM10 18C8.90278 18 7.86806 17.7917 6.89583 17.375C5.92361 16.9583 5.06944 16.3889 4.33333 15.6667C3.61111 14.9306 3.04167 14.0764 2.625 13.1042C2.20833 12.1319 2 11.0972 2 10C2 8.88889 2.20833 7.85417 2.625 6.89583C3.04167 5.92361 3.61111 5.07639 4.33333 4.35417C5.06944 3.61806 5.92361 3.04167 6.89583 2.625C7.86806 2.20833 8.90278 2 10 2C11.1111 2 12.1458 2.20833 13.1042 2.625C14.0764 3.04167 14.9236 3.61806 15.6458 4.35417C16.3819 5.07639 16.9583 5.92361 17.375 6.89583C17.7917 7.85417 18 8.88889 18 10C18 11.0972 17.7917 12.1319 17.375 13.1042C16.9583 14.0764 16.3819 14.9306 15.6458 15.6667C14.9236 16.3889 14.0764 16.9583 13.1042 17.375C12.1458 17.7917 11.1111 18 10 18ZM10 16.5C11.8056 16.5 13.3403 15.8681 14.6042 14.6042C15.8681 13.3403 16.5 11.8056 16.5 10C16.5 8.19445 15.8681 6.65972 14.6042 5.39583C13.3403 4.13194 11.8056 3.5 10 3.5C8.19444 3.5 6.65972 4.13194 5.39583 5.39583C4.13194 6.65972 3.5 8.19445 3.5 10C3.5 11.8056 4.13194 13.3403 5.39583 14.6042C6.65972 15.8681 8.19444 16.5 10 16.5Z" fill="black"/>
</svg>
