<svg width="20" height="20" viewBox="0 0 20 20" fill="none" xmlns="http://www.w3.org/2000/svg">
<path d="M14.5 13.5C14.5 14.7481 14.062 15.8101 13.186 16.686C12.3101 17.562 11.2481 18 10 18C8.73611 18 7.67014 17.5451 6.80208 16.6354C5.93403 15.7257 5.5 14.6319 5.5 13.3542V5.25C5.5 4.34722 5.81597 3.57986 6.44792 2.94792C7.07986 2.31597 7.84722 2 8.75 2C9.66667 2 10.4375 2.33333 11.0625 3C11.6875 3.66667 12 4.46528 12 5.39583V13C12 13.5576 11.806 14.0303 11.4181 14.4181C11.0303 14.806 10.5576 15 10 15C9.43056 15 8.95486 14.798 8.57292 14.394C8.19097 13.9899 8 13.4975 8 12.9167V5H9.5V13C9.5 13.1444 9.54722 13.2639 9.64167 13.3583C9.73611 13.4528 9.85556 13.5 10 13.5C10.1444 13.5 10.2639 13.4528 10.3583 13.3583C10.4528 13.2639 10.5 13.1444 10.5 13V5.25C10.5 4.76389 10.3299 4.35069 9.98958 4.01042C9.64931 3.67014 9.23472 3.5 8.74583 3.5C8.25708 3.5 7.84389 3.67708 7.50625 4.03125C7.16875 4.38542 7 4.80556 7 5.29167V13.5C7 14.3333 7.29167 15.0382 7.875 15.6146C8.45833 16.191 9.16667 16.4861 10 16.5C10.8333 16.5139 11.5417 16.2153 12.125 15.6042C12.7083 14.9931 13 14.2569 13 13.3958V5H14.5V13.5Z" fill="black"/>
</svg>