<?xml version="1.0" encoding="UTF-8" standalone="no"?>
<svg xmlns="http://www.w3.org/2000/svg" width="96" height="96" viewBox="0 0 48 48">
  <title>audits_logo_48_final</title>
  <path d="M33 11c0-1.674-1.827-3.134-4.538-3.909a4.5 4.5 0 1 0-8.923 0C16.826 7.866 15 9.326 15 11h18zM16.97 6h-5.974A2.997 2.997 0 0 0 8 9.007v33.986A2.999 2.999 0 0 0 10.996 46h26.008A2.997 2.997 0 0 0 40 42.993V9.007A2.999 2.999 0 0 0 37.004 6h-5.975c1.584.778 2.793 1.815 3.44 3h.534C36.106 9 37 9.892 37 11v30c0 1.105-.895 2-1.997 2H12.997A1.996 1.996 0 0 1 11 41V11c0-1.105.895-2 1.997-2h.534c.647-1.185 1.856-2.222 3.44-3zm4.305 25.62l1.058 1.082 1.073-1.067 9.114-9.072-2.116-2.126-8.036 8.01-3.295-3.371-2.146 2.097 4.348 4.447zM24 8a1.5 1.5 0 1 0 0-3 1.5 1.5 0 0 0 0 3z" fill="#CCC" fill-rule="evenodd" />
</svg>
