<svg width="20" height="20" viewBox="0 0 20 20" fill="none" xmlns="http://www.w3.org/2000/svg">
<path d="M4 15.5V14H5V9C5 7.80533 5.37167 6.74633 6.115 5.823C6.85767 4.89967 7.81933 4.32667 9 4.104V3C9 2.722 9.09733 2.486 9.292 2.292C9.486 2.09733 9.722 2 10 2C10.278 2 10.514 2.09733 10.708 2.292C10.9027 2.486 11 2.722 11 3V4.104C12.1807 4.32667 13.1423 4.896 13.885 5.812C14.6283 6.72933 15 7.792 15 9V14H16V15.5H4ZM10 18C9.58333 18 9.22933 17.854 8.938 17.562C8.646 17.2707 8.5 16.9167 8.5 16.5H11.5C11.5 16.9167 11.354 17.2707 11.062 17.562C10.7707 17.854 10.4167 18 10 18ZM6.5 14H13.5V9C13.5 8.028 13.1597 7.20167 12.479 6.521C11.7983 5.84033 10.972 5.5 10 5.5C9.028 5.5 8.20167 5.84033 7.521 6.521C6.84033 7.20167 6.5 8.028 6.5 9V14Z" fill="black"/>
</svg>
