<svg width="20" height="20" viewBox="0 0 20 20" fill="none" xmlns="http://www.w3.org/2000/svg">
<path fill-rule="evenodd" clip-rule="evenodd" d="M4.5 3C3.67157 3 3 3.67157 3 4.5V15.5C3 16.3284 3.67157 17 4.5 17H15.5C16.3284 17 17 16.3284 17 15.5V4.5C17 3.67157 16.3284 3 15.5 3H4.5ZM6 14C7.57534 14 8.69035 13.5614 9.49423 12.7792C10.221 12.0721 10.6018 11.1569 10.8953 10.4514L10.9231 10.3846C11.2507 9.5984 11.4942 9.04953 11.9005 8.65423C12.2529 8.31138 12.8253 8 14 8V6C12.4247 6 11.3096 6.43862 10.5058 7.22077C9.77897 7.92793 9.39825 8.84306 9.10473 9.54858L9.07692 9.61538C8.74933 10.4016 8.50581 10.9505 8.09952 11.3458C7.74715 11.6886 7.17466 12 6 12V14Z" fill="black"/>
</svg>
