<svg xmlns="http://www.w3.org/2000/svg" viewBox="203.28 149.413 16 16" width="16" height="16"><g fill="none"><path d="M204.498 151.182c-.218.427-.218.987-.218 2.108v5.6a104.578 104.578 0 000 .45v5.146c0 .223.27.334.427.177l2.573-2.574h7.8c1.12 0 1.68 0 2.108-.217a2 2 0 00.874-.874c.218-.428.218-.988.218-2.108v-5.6c0-1.12 0-1.68-.218-2.108a2 2 0 00-.874-.874c-.428-.218-.988-.218-2.108-.218h-7.6c-1.12 0-1.68 0-2.108.218a2 2 0 00-.874.874z" clip-rule="evenodd" fill="#f29900" fill-rule="evenodd"/><path d="M212.28 152.09h-2v4.5h2zm0 6h-2v2h2z" clip-rule="evenodd" fill="#fff" fill-rule="evenodd"/><path mask="url(#path-4-outside-2)" d="M9 5v-.5h-.5V5zm2 0h.5v-.5H11zM9 9.5h-.5v.5H9zm2 0v.5h.5v-.5zM9 11v-.5h-.5v.5zm2 0h.5v-.5H11zm-2 2h-.5v.5H9zm2 0v.5h.5V13zM9 5.5h2v-1H9zm.5 4V5h-1v4.5zM11 9H9v1h2zm-.5-4v4.5h1V5zM9 11.5h2v-1H9zm.5 1.5v-2h-1v2zm1.5-.5H9v1h2zm-.5-1.5v2h1v-2z" transform="translate(201.28 147.09)"/></g></svg>