<svg width="20" height="20" viewBox="0 0 20 20" fill="none" xmlns="http://www.w3.org/2000/svg">
<path d="M5.14583 17.1042C4.52083 17.1042 3.93403 16.9618 3.38542 16.6771C2.83681 16.3924 2.375 16.0069 2 15.5208C2.43056 15.4931 2.79861 15.3333 3.10417 15.0417C3.40972 14.75 3.5625 14.3889 3.5625 13.9583C3.5625 13.2917 3.79271 12.7326 4.25312 12.2812C4.7134 11.8299 5.27243 11.6042 5.93021 11.6042C6.58785 11.6042 7.14236 11.8331 7.59375 12.2908C8.04514 12.7486 8.27083 13.3044 8.27083 13.9583C8.27083 14.8333 7.96875 15.5764 7.36458 16.1875C6.76042 16.7986 6.02083 17.1042 5.14583 17.1042ZM5.14583 15.7083C5.62708 15.7083 6.0391 15.5369 6.38187 15.1942C6.72451 14.8515 6.89583 14.4396 6.89583 13.9583C6.89583 13.6944 6.80208 13.4687 6.61458 13.2812C6.42708 13.0937 6.20139 13 5.9375 13C5.67361 13 5.44792 13.0937 5.26042 13.2812C5.07292 13.4687 4.97917 13.6944 4.97917 13.9583C4.97917 14.2639 4.94444 14.559 4.875 14.8437C4.80556 15.1285 4.67361 15.3819 4.47917 15.6042C4.59028 15.6319 4.70139 15.6562 4.8125 15.6771C4.92361 15.6979 5.03472 15.7083 5.14583 15.7083ZM10.0625 12.1667L7.9375 10.0417L14.5833 3.39583C14.7778 3.20139 15.0139 3.10416 15.2917 3.10416C15.5694 3.10416 15.8056 3.20139 16 3.39583L16.7083 4.10416C16.9028 4.30486 17 4.53909 17 4.80687C17 5.07451 16.9028 5.30555 16.7083 5.5L10.0625 12.1667Z" fill="black"/>
</svg>
