<svg width="21" height="20" viewBox="0 0 21 20" fill="none" xmlns="http://www.w3.org/2000/svg">
<path d="M17.9108 2.00177L16.0739 16.6795C15.9799 17.4299 15.3418 17.9937 14.5856 17.994H7.18323C6.42511 17.9938 5.7866 17.4272 5.69495 16.6746L3.90784 2.00177H17.9108ZM7.18323 16.494H14.5856L16.2106 3.50177H5.6012L7.18323 16.494Z" fill="black"/>
<path d="M8.90189 6.50294C8.90715 7.60475 9.80206 8.49591 10.9038 8.4961C12.0126 8.4961 12.9102 7.59411 12.9058 6.48536L12.8999 5.00294L14.3999 4.99708L14.4058 6.4795C14.4135 8.419 12.8434 9.9961 10.9038 9.9961C8.97653 9.99591 7.41125 8.43804 7.40189 6.51075L7.39506 5.00391L8.89506 4.9961L8.90189 6.50294Z" fill="black"/>
</svg>
