<svg width="20" height="20" viewBox="0 0 20 20" fill="none" xmlns="http://www.w3.org/2000/svg">
<path d="M10 17C9.16667 17 8.40967 16.7743 7.729 16.323C7.04833 15.8717 6.56933 15.264 6.292 14.5H4V13H6V11.75H4V10.25H6V9H4V7.5H6.292C6.40267 7.13867 6.583 6.81233 6.833 6.521C7.083 6.229 7.368 5.972 7.688 5.75L6 4.062L7.062 3L9.167 5.083C9.44433 5.01367 9.72533 4.979 10.01 4.979C10.2953 4.979 10.5767 5.01367 10.854 5.083L12.938 3L14 4.062L12.312 5.75C12.632 5.972 12.91 6.229 13.146 6.521C13.382 6.81233 13.5693 7.13867 13.708 7.5H16V9H14V10.25H16V11.75H14V13H16V14.5H13.708C13.4307 15.264 12.9517 15.8717 12.271 16.323C11.5903 16.7743 10.8333 17 10 17ZM10 15.5C10.6807 15.5 11.2607 15.257 11.74 14.771C12.2187 14.285 12.472 13.6947 12.5 13V9C12.528 8.30533 12.2953 7.715 11.802 7.229C11.3087 6.743 10.715 6.5 10.021 6.5C9.31233 6.5 8.71867 6.743 8.24 7.229C7.76067 7.715 7.514 8.30533 7.5 9V13C7.486 13.6947 7.722 14.285 8.208 14.771C8.69467 15.257 9.292 15.5 10 15.5ZM8.5 13H11.5V11.5H8.5V13ZM8.5 10.5H11.5V9H8.5V10.5Z" fill="black"/>
</svg>
