<svg width="20" height="20" viewBox="0 0 20 20" fill="none" xmlns="http://www.w3.org/2000/svg">
<path d="M3 16.5V7.917C2.68067 7.81967 2.434 7.639 2.26 7.375C2.08667 7.111 2 6.81933 2 6.5V3.5C2 3.08333 2.146 2.72933 2.438 2.438C2.72933 2.146 3.08333 2 3.5 2H16.5C16.9167 2 17.2707 2.146 17.562 2.438C17.854 2.72933 18 3.08333 18 3.5V6.5C18 6.81933 17.9133 7.111 17.74 7.375C17.566 7.639 17.3193 7.81967 17 7.917V16.5C17 16.9167 16.854 17.2707 16.562 17.562C16.2707 17.854 15.9167 18 15.5 18H4.5C4.08333 18 3.72933 17.854 3.438 17.562C3.146 17.2707 3 16.9167 3 16.5ZM4.5 8V16.5H15.5V8H4.5ZM16.5 6.5V3.5H3.5V6.5H16.5ZM8 11.5H12V10H8V11.5Z" fill="black"/>
</svg>
