<svg width="20" height="20" viewBox="0 0 20 20" fill="none" xmlns="http://www.w3.org/2000/svg">
<path d="M13 18L11 16L13 14L15 16L13 18ZM7 16L2 11L7 6L12 11L7 16ZM14.5 10C14.5 8.74542 14.0636 7.68181 13.1908 6.80917C12.3182 5.93639 11.2546 5.5 10 5.5C11.2546 5.5 12.3182 5.06361 13.1908 4.19083C14.0636 3.31819 14.5 2.25458 14.5 1C14.5 2.25458 14.9364 3.31819 15.8092 4.19083C16.6818 5.06361 17.7454 5.5 19 5.5C17.7454 5.5 16.6818 5.93639 15.8092 6.80917C14.9364 7.68181 14.5 8.74542 14.5 10Z" fill="black"/>
</svg>
