<svg width="20" height="20" viewBox="0 0 20 20" fill="none" xmlns="http://www.w3.org/2000/svg">
<path d="M4.5 18C4.0875 18 3.73437 17.8507 3.44062 17.5521C3.14687 17.2535 3 16.9028 3 16.5V5.5C3 5.09722 3.14687 4.74653 3.44062 4.44792C3.73437 4.14931 4.0875 4 4.5 4H6V2H7.5V4H12.5V2H14V4H15.5C15.9125 4 16.2656 4.14931 16.5594 4.44792C16.8531 4.74653 17 5.09722 17 5.5V16.5C17 16.9028 16.8531 17.2535 16.5594 17.5521C16.2656 17.8507 15.9125 18 15.5 18H4.5ZM4.5 16.5H15.5V9H4.5V16.5ZM4.5 7.5H15.5V5.5H4.5V7.5Z" fill="black"/>
</svg>
