<svg width="20" height="20" viewBox="0 0 20 20" fill="none" xmlns="http://www.w3.org/2000/svg">
<path d="M10 13C9.16667 13 8.45833 12.7083 7.875 12.125C7.29167 11.5417 7 10.8333 7 10C7 9.16667 7.29167 8.45833 7.875 7.875C8.45833 7.29167 9.16667 7 10 7C10.8333 7 11.5417 7.29167 12.125 7.875C12.7083 8.45833 13 9.16667 13 10C13 10.8333 12.7083 11.5417 12.125 12.125C11.5417 12.7083 10.8333 13 10 13ZM10 11.5C10.4167 11.5 10.7708 11.3542 11.0625 11.0625C11.3542 10.7708 11.5 10.4167 11.5 10C11.5 9.58333 11.3542 9.22917 11.0625 8.9375C10.7708 8.64583 10.4167 8.5 10 8.5C9.58333 8.5 9.22917 8.64583 8.9375 8.9375C8.64583 9.22917 8.5 9.58333 8.5 10C8.5 10.4167 8.64583 10.7708 8.9375 11.0625C9.22917 11.3542 9.58333 11.5 10 11.5ZM4.5 17C4.08333 17 3.72917 16.8542 3.4375 16.5625C3.14583 16.2708 3 15.9167 3 15.5V12H4.5V15.5H8V17H4.5ZM12 17V15.5H15.5V12H17V15.5C17 15.9167 16.8542 16.2708 16.5625 16.5625C16.2708 16.8542 15.9167 17 15.5 17H12ZM3 8V4.5C3 4.08333 3.14583 3.72917 3.4375 3.4375C3.72917 3.14583 4.08333 3 4.5 3H8V4.5H4.5V8H3ZM15.5 8V4.5H12V3H15.5C15.9167 3 16.2708 3.14583 16.5625 3.4375C16.8542 3.72917 17 4.08333 17 4.5V8H15.5Z" fill="black"/>
</svg>
