<svg width="20" height="20" viewBox="0 0 20 20" fill="none" xmlns="http://www.w3.org/2000/svg">
<path d="M19.1469 7.9282V9.30107C18.8573 9.11516 18.5552 8.97572 18.2406 8.88277C17.9295 8.78624 17.6167 8.73797 17.3021 8.73797C16.9517 8.73797 16.6871 8.78981 16.5084 8.89349C16.3296 8.9936 16.2402 9.14376 16.2402 9.34397C16.2402 9.62998 16.6228 9.86237 17.3879 10.0411L17.4469 10.0572L17.8973 10.1645C18.4694 10.3003 18.8877 10.5202 19.1522 10.8241C19.4204 11.1244 19.5544 11.532 19.5544 12.0468C19.5544 12.6653 19.3507 13.1301 18.9431 13.4411C18.5391 13.7486 17.9295 13.9023 17.1144 13.9023C16.7533 13.9023 16.3833 13.8702 16.0043 13.8058C15.6253 13.745 15.241 13.6521 14.8513 13.5269V12.1541C15.1981 12.3507 15.5502 12.5009 15.9078 12.6045C16.2689 12.7082 16.6174 12.7601 16.9535 12.7601C17.3217 12.7601 17.6006 12.7064 17.7901 12.5992C17.9796 12.4919 18.0743 12.3364 18.0743 12.1326C18.0743 11.9324 18.0064 11.7787 17.8705 11.6714C17.7383 11.5642 17.4201 11.4498 16.916 11.3282L16.4816 11.2317C15.8809 11.0958 15.443 10.8831 15.1677 10.5935C14.8924 10.3039 14.7548 9.916 14.7548 9.42977C14.7548 8.85059 14.9639 8.40012 15.3822 8.07835C15.8005 7.75659 16.3886 7.5957 17.1466 7.5957C17.4862 7.5957 17.8241 7.6243 18.1601 7.68151C18.4998 7.73514 18.8287 7.81736 19.1469 7.9282Z" fill="black"/>
<path d="M10.0588 11.2424V6.60897H8.46606V5.40234H11.6301V11.2424C11.6301 11.7143 11.7034 12.0486 11.85 12.2452C11.9966 12.4419 12.245 12.5402 12.5954 12.5402H13.8503V13.7468H12.1557C11.4084 13.7468 10.8722 13.5538 10.5468 13.1676C10.2215 12.7815 10.0588 12.1398 10.0588 11.2424Z" fill="black"/>
<path d="M8.48354 13.4412C8.21898 13.5949 7.93475 13.7093 7.63086 13.7844C7.32697 13.863 6.99984 13.9024 6.64947 13.9024C5.7235 13.9024 4.99952 13.6235 4.47755 13.0658C3.95557 12.5081 3.69458 11.7358 3.69458 10.7491C3.69458 9.75873 3.95736 8.98471 4.48291 8.42698C5.00846 7.86567 5.73422 7.58502 6.6602 7.58502C6.98196 7.58502 7.29122 7.62256 7.58796 7.69764C7.88827 7.77272 8.1868 7.88891 8.48354 8.04622V9.48344C8.25473 9.28681 8.00268 9.13665 7.72739 9.03297C7.45567 8.92572 7.17323 8.87209 6.88007 8.87209C6.36882 8.87209 5.97555 9.03476 5.70026 9.3601C5.42497 9.68544 5.28732 10.1484 5.28732 10.7491C5.28732 11.3497 5.42497 11.8109 5.70026 12.1327C5.97555 12.4544 6.36882 12.6153 6.88007 12.6153C7.18396 12.6153 7.46819 12.5653 7.73275 12.4651C7.99731 12.3615 8.24758 12.2059 8.48354 11.9986V13.4412Z" fill="black"/>
<path d="M1 11.7787H2.7858V13.7468H1V11.7787Z" fill="black"/>
</svg>
