<svg width="20" height="20" viewBox="0 0 20 20" fill="none" xmlns="http://www.w3.org/2000/svg">
<path fill-rule="evenodd" clip-rule="evenodd" d="M17.5 10C17.5 14.1421 14.1421 17.5 10 17.5C5.85786 17.5 2.5 14.1421 2.5 10C2.5 5.85786 5.85786 2.5 10 2.5C14.1421 2.5 17.5 5.85786 17.5 10ZM16 10C16 13.3137 13.3137 16 10 16C8.6135 16 7.33683 15.5297 6.32083 14.7399L14.7399 6.32083C15.5297 7.33683 16 8.6135 16 10ZM5.26016 13.6793L13.6793 5.26016C12.6633 4.47033 11.3866 4 10 4C6.68629 4 4 6.68629 4 10C4 11.3866 4.47033 12.6633 5.26016 13.6793Z" fill="black"/>
</svg>
