<svg width="20" height="20" viewBox="0 0 20 20" fill="none" xmlns="http://www.w3.org/2000/svg">
<path d="M3 17.083V13.375L10.125 6.25001L9 5.14601L10.062 4.08301L11.562 5.58301L13.854 3.29201C14.0067 3.13868 14.1907 3.06201 14.406 3.06201C14.6213 3.06201 14.8053 3.13868 14.958 3.29201L16.771 5.12501C16.9237 5.27768 17 5.46168 17 5.67701C17 5.89234 16.9237 6.07635 16.771 6.22901L14.5 8.50001L16 10.021L14.938 11.083L13.812 9.95801L6.708 17.083H3ZM4.5 15.583H6.083L12.75 8.91701L11.188 7.33301L4.5 14V15.583ZM13.333 7.56201L15.208 5.66701L14.417 4.85401L12.521 6.72901L13.333 7.56201Z" fill="black"/>
</svg>
