<svg width="20" height="20" viewBox="0 0 20 20" fill="none" xmlns="http://www.w3.org/2000/svg">
<path d="M4.5 17C4.08333 17 3.72933 16.854 3.438 16.562C3.146 16.2707 3 15.9167 3 15.5V4.5C3 4.08333 3.146 3.72933 3.438 3.438C3.72933 3.146 4.08333 3 4.5 3H15.5C15.9167 3 16.2707 3.146 16.562 3.438C16.854 3.72933 17 4.08333 17 4.5V15.5C17 15.9167 16.854 16.2707 16.562 16.562C16.2707 16.854 15.9167 17 15.5 17H4.5ZM4.5 15.5H15.5V4.5H4.5V15.5Z" fill="black"/>
<path d="M6.85714 14C6.61905 14 6.41676 13.9166 6.25029 13.7497C6.08343 13.5833 6 13.381 6 13.1429V6.85714C6 6.61905 6.08343 6.41676 6.25029 6.25029C6.41676 6.08343 6.61905 6 6.85714 6H13.1429C13.381 6 13.5833 6.08343 13.7497 6.25029C13.9166 6.41676 14 6.61905 14 6.85714V13.1429C14 13.381 13.9166 13.5833 13.7497 13.7497C13.5833 13.9166 13.381 14 13.1429 14H6.85714ZM7.5 12.5H12.5V7.5H7.5V12.5Z" fill="black"/>
</svg>
