<svg width="20" height="20" viewBox="0 0 20 20" fill="none" xmlns="http://www.w3.org/2000/svg">
<path d="M8.75 8.5C9.09733 8.5 9.39233 8.37833 9.635 8.135C9.87833 7.89233 10 7.59733 10 7.25C10 6.90267 9.87833 6.60767 9.635 6.365C9.39233 6.12167 9.09733 6 8.75 6C8.40267 6 8.10767 6.12167 7.865 6.365C7.62167 6.60767 7.5 6.90267 7.5 7.25C7.5 7.59733 7.62167 7.89233 7.865 8.135C8.10767 8.37833 8.40267 8.5 8.75 8.5ZM6.75 12.5C7.09733 12.5 7.39233 12.3783 7.635 12.135C7.87833 11.8923 8 11.5973 8 11.25C8 10.9027 7.87833 10.6077 7.635 10.365C7.39233 10.1217 7.09733 10 6.75 10C6.40267 10 6.10767 10.1217 5.865 10.365C5.62167 10.6077 5.5 10.9027 5.5 11.25C5.5 11.5973 5.62167 11.8923 5.865 12.135C6.10767 12.3783 6.40267 12.5 6.75 12.5ZM12.5 13.25C12.708 13.25 12.885 13.177 13.031 13.031C13.177 12.885 13.25 12.708 13.25 12.5C13.25 12.292 13.177 12.115 13.031 11.969C12.885 11.823 12.708 11.75 12.5 11.75C12.292 11.75 12.115 11.823 11.969 11.969C11.823 12.115 11.75 12.292 11.75 12.5C11.75 12.708 11.823 12.885 11.969 13.031C12.115 13.177 12.292 13.25 12.5 13.25ZM10 18C8.90267 18 7.868 17.7917 6.896 17.375C5.924 16.9583 5.07333 16.3853 4.344 15.656C3.61467 14.9267 3.04167 14.076 2.625 13.104C2.20833 12.132 2 11.0973 2 10C2 8.708 2.28133 7.51 2.844 6.406C3.40667 5.302 4.146 4.382 5.062 3.646C5.97933 2.91 7.01433 2.396 8.167 2.104C9.31967 1.81267 10.4863 1.83367 11.667 2.167C11.5557 2.77767 11.5903 3.34 11.771 3.854C11.9517 4.368 12.2363 4.795 12.625 5.135C13.0137 5.47567 13.486 5.712 14.042 5.844C14.5973 5.976 15.1873 5.96533 15.812 5.812C15.4653 6.604 15.5177 7.35767 15.969 8.073C16.4203 8.78833 17.0833 9.16 17.958 9.188C18.0833 10.368 17.9583 11.4893 17.583 12.552C17.2083 13.6147 16.6563 14.5487 15.927 15.354C15.1977 16.1593 14.3227 16.8017 13.302 17.281C12.2813 17.7603 11.1807 18 10 18ZM10 16.5C11.736 16.5 13.2257 15.9133 14.469 14.74C15.7117 13.566 16.3887 12.111 16.5 10.375C15.8747 10.125 15.354 9.73967 14.938 9.219C14.5207 8.69833 14.2567 8.10467 14.146 7.438C13.09 7.28467 12.194 6.847 11.458 6.125C10.722 5.403 10.2847 4.528 10.146 3.5C9.27067 3.44467 8.43367 3.58 7.635 3.906C6.837 4.23267 6.12867 4.69467 5.51 5.292C4.892 5.88933 4.40267 6.594 4.042 7.406C3.68067 8.21867 3.5 9.08333 3.5 10C3.5 11.8053 4.132 13.34 5.396 14.604C6.66 15.868 8.19467 16.5 10 16.5Z" fill="black"/>
</svg>
