<svg width="20" height="20" viewBox="0 0 20 20" fill="none" xmlns="http://www.w3.org/2000/svg">
<path d="M4.5 18C4.08333 18 3.72933 17.854 3.438 17.562C3.146 17.2707 3 16.9167 3 16.5V5H4.5V16.5H14V18H4.5ZM7.5 15C7.08333 15 6.72933 14.854 6.438 14.562C6.146 14.2707 6 13.9167 6 13.5V3.5C6 3.08333 6.146 2.72933 6.438 2.438C6.72933 2.146 7.08333 2 7.5 2H15.5C15.9167 2 16.2707 2.146 16.562 2.438C16.854 2.72933 17 3.08333 17 3.5V13.5C17 13.9167 16.854 14.2707 16.562 14.562C16.2707 14.854 15.9167 15 15.5 15H7.5ZM7.5 13.5H15.5V3.5H7.5V13.5Z" fill="black"/>
</svg>
