<?xml version="1.0" encoding="UTF-8" standalone="no"?>
<svg
   xmlns:dc="http://purl.org/dc/elements/1.1/"
   xmlns:cc="http://creativecommons.org/ns#"
   xmlns:rdf="http://www.w3.org/1999/02/22-rdf-syntax-ns#"
   xmlns:svg="http://www.w3.org/2000/svg"
   xmlns="http://www.w3.org/2000/svg"
   xmlns:sodipodi="http://sodipodi.sourceforge.net/DTD/sodipodi-0.dtd"
   xmlns:inkscape="http://www.inkscape.org/namespaces/inkscape"
   width="4.1506615mm"
   height="4.1506615mm"
   viewBox="0 0 4.1506615 4.1506615"
   version="1.1"
   id="svg349"
   inkscape:version="1.0.2 (e86c870879, 2021-01-15)"
   sodipodi:docname="copy_icon.svg">
  <defs
     id="defs343" />
  <sodipodi:namedview
     id="base"
     pagecolor="#ffffff"
     bordercolor="#666666"
     borderopacity="1.0"
     inkscape:pageopacity="0.0"
     inkscape:pageshadow="2"
     inkscape:zoom="78.023708"
     inkscape:cx="5.4855121"
     inkscape:cy="7.8437697"
     inkscape:document-units="mm"
     inkscape:current-layer="layer1"
     inkscape:document-rotation="0"
     showgrid="false"
     fit-margin-top="0"
     fit-margin-left="0"
     fit-margin-right="0"
     fit-margin-bottom="0"
     inkscape:window-width="1878"
     inkscape:window-height="1456"
     inkscape:window-x="0"
     inkscape:window-y="0"
     inkscape:window-maximized="1" />
  <metadata
     id="metadata346">
    <rdf:RDF>
      <cc:Work
         rdf:about="">
        <dc:format>image/svg+xml</dc:format>
        <dc:type
           rdf:resource="http://purl.org/dc/dcmitype/StillImage" />
        <dc:title></dc:title>
      </cc:Work>
    </rdf:RDF>
  </metadata>
  <g
     inkscape:label="Layer 1"
     inkscape:groupmode="layer"
     id="layer1"
     transform="translate(-28.918717,-80.323479)">
    <g
       transform="matrix(0.26458333,0,0,0.26458333,27.841598,79.114862)"
       id="g98">
      <g
         id="g102"
         style="fill-rule:evenodd">
        <path
           transform="matrix(0.87153,0,0,0.87153,4.071,4.568)"
           d="M 0,0 H 18 V 18 H 0 Z"
           id="path104"
           inkscape:connector-curvature="0"
           style="fill:none" />
        <path
           transform="matrix(0.87153,0,0,0.87153,4.071,4.568)"
           d="M 12,3.5 A 1.505,1.505 0 0 0 10.494,2 H 4.506 C 3.676,2 3,2.674 3,3.506 v 7.988 C 3,12.326 3.671,12.997 4.5,13 V 3.5 Z M 6,6.506 C 6,5.674 6.676,5 7.506,5 h 5.988 C 14.326,5 15,5.672 15,6.506 v 7.988 C 15,15.326 14.324,16 13.494,16 H 7.506 A 1.505,1.505 0 0 1 6,14.494 Z M 7.5,6.5 h 6 v 8 h -6 z"
           id="path106"
           inkscape:connector-curvature="0" />
      </g>
    </g>
  </g>
</svg>
