<svg width="20" height="20" viewBox="0 0 20 20" fill="none" xmlns="http://www.w3.org/2000/svg">
<path d="M10 17C8.04167 17 6.38194 16.7083 5.02083 16.125C3.67361 15.5417 3 14.8333 3 14V6C3 5.16667 3.68056 4.45833 5.04167 3.875C6.40278 3.29167 8.05556 3 10 3C11.9306 3 13.5764 3.29167 14.9375 3.875C16.3125 4.45833 17 5.16667 17 6V14C17 14.8333 16.3194 15.5417 14.9583 16.125C13.5972 16.7083 11.9444 17 10 17ZM10 7.5C11.1944 7.5 12.3472 7.35417 13.4583 7.0625C14.5694 6.75694 15.25 6.40278 15.5 6C15.25 5.61111 14.5625 5.26389 13.4375 4.95833C12.3264 4.65278 11.1806 4.5 10 4.5C8.80556 4.5 7.64583 4.65278 6.52083 4.95833C5.40972 5.26389 4.73611 5.61111 4.5 6C4.73611 6.40278 5.40278 6.75694 6.5 7.0625C7.61111 7.35417 8.77778 7.5 10 7.5ZM10 11.5C10.5833 11.5 11.1389 11.4722 11.6667 11.4167C12.1944 11.3472 12.6875 11.2569 13.1458 11.1458C13.6181 11.0347 14.0486 10.8958 14.4375 10.7292C14.8403 10.5486 15.1944 10.3472 15.5 10.125V7.85417C15.1667 8.03472 14.7917 8.20139 14.375 8.35417C13.9722 8.49306 13.5347 8.61111 13.0625 8.70833C12.5903 8.80556 12.0972 8.88194 11.5833 8.9375C11.0694 8.97917 10.5417 9 10 9C9.44444 9 8.90278 8.97917 8.375 8.9375C7.86111 8.88194 7.36806 8.80556 6.89583 8.70833C6.4375 8.61111 6 8.49306 5.58333 8.35417C5.18056 8.20139 4.81944 8.03472 4.5 7.85417V10.125C4.80556 10.3472 5.15278 10.5486 5.54167 10.7292C5.93056 10.8958 6.35417 11.0347 6.8125 11.1458C7.28472 11.2569 7.78472 11.3472 8.3125 11.4167C8.85417 11.4722 9.41667 11.5 10 11.5ZM10 15.5C10.6111 15.5 11.2222 15.4583 11.8333 15.375C12.4583 15.2778 13.0278 15.1597 13.5417 15.0208C14.0694 14.8681 14.5069 14.7014 14.8542 14.5208C15.2153 14.3403 15.4306 14.1528 15.5 13.9583V11.8542C15.1667 12.0347 14.7917 12.2014 14.375 12.3542C13.9722 12.4931 13.5347 12.6111 13.0625 12.7083C12.5903 12.8056 12.0972 12.8819 11.5833 12.9375C11.0694 12.9792 10.5417 13 10 13C9.44444 13 8.90278 12.9792 8.375 12.9375C7.86111 12.8819 7.36806 12.8056 6.89583 12.7083C6.4375 12.6111 6 12.4931 5.58333 12.3542C5.18056 12.2014 4.81944 12.0347 4.5 11.8542V14C4.56944 14.1806 4.77778 14.3611 5.125 14.5417C5.48611 14.7222 5.92361 14.8819 6.4375 15.0208C6.96528 15.1597 7.54167 15.2778 8.16667 15.375C8.79167 15.4583 9.40278 15.5 10 15.5Z" fill="black"/>
</svg>
