<svg width="20" height="20" viewBox="0 0 20 20" fill="none" xmlns="http://www.w3.org/2000/svg">
<path fill-rule="evenodd" clip-rule="evenodd" d="M10.6406 1.77992C10.246 1.54439 9.75398 1.54439 9.35936 1.77992L3.35936 5.36105C2.98145 5.58661 2.75 5.99429 2.75 6.4344V13.8972C2.75 14.3472 2.99188 14.7624 3.38331 14.9845L9.38331 18.3876C9.76581 18.6045 10.2342 18.6045 10.6167 18.3876L16.6167 14.9845C17.0081 14.7624 17.25 14.3472 17.25 13.8972V6.4344C17.25 5.99429 17.0185 5.58661 16.6406 5.36105L10.6406 1.77992ZM4.95872 6.15333L10 3.14442L15.0413 6.15331L9.99997 9.18877L4.95872 6.15333ZM4.25 7.47752V13.7516L9.24997 16.5875V10.4881L4.25 7.47752ZM10.75 16.5875L15.75 13.7516V7.47749L10.75 10.4881V16.5875Z" fill="black"/>
</svg>
