<svg width="20" height="20" viewBox="0 0 20 20" fill="none" xmlns="http://www.w3.org/2000/svg">
<path d="M2 16V14H4V5.5C4 5.08333 4.146 4.72933 4.438 4.438C4.72933 4.146 5.08333 4 5.5 4H17V5.5H5.5V14H10V16H2ZM13 16C12.722 16 12.486 15.9027 12.292 15.708C12.0973 15.514 12 15.278 12 15V8C12 7.722 12.0973 7.486 12.292 7.292C12.486 7.09733 12.722 7 13 7H17C17.278 7 17.514 7.09733 17.708 7.292C17.9027 7.486 18 7.722 18 8V15C18 15.278 17.9027 15.514 17.708 15.708C17.514 15.9027 17.278 16 17 16H13ZM13.5 14H16.5V8.5H13.5V14Z" fill="black"/>
</svg>
