<svg width="117" height="72" viewBox="0 0 117 72" fill="none" xmlns="http://www.w3.org/2000/svg">
<g clip-path="url(#clip0_4170_128)">
<rect width="117" height="72" fill="white"/>
<g clip-path="url(#clip1_4170_128)">
<path d="M714.5 -129H-130V434.556H714.5V-129Z" fill="#1A73E8"/>
<path d="M-130 -129L187.039 188.352" stroke="white" stroke-opacity="0.3" stroke-width="0.5"/>
<path d="M187.039 -129.352L-130 188" stroke="white" stroke-opacity="0.3" stroke-width="0.5"/>
<path d="M49.4563 -129V188" stroke="white" stroke-opacity="0.3" stroke-width="0.5"/>
<path d="M7.2312 -129V188" stroke="white" stroke-opacity="0.3" stroke-width="0.5"/>
<path d="M433 50.6334H-130" stroke="white" stroke-opacity="0.3" stroke-width="0.5"/>
<path d="M433 8.36676H-130" stroke="white" stroke-opacity="0.3" stroke-width="0.5"/>
<path d="M28.3437 59.3626C44.8201 59.3626 58.1768 45.9927 58.1768 29.5001C58.1768 13.0075 44.8201 -0.362457 28.3437 -0.362457C11.8674 -0.362457 -1.48938 13.0075 -1.48938 29.5001C-1.48938 45.9927 11.8674 59.3626 28.3437 59.3626Z" stroke="white" stroke-opacity="0.3" stroke-width="0.5"/>
<path d="M-130 29.5001H433" stroke="white" stroke-opacity="0.3" stroke-width="0.5"/>
<path d="M28.3438 -129V188" stroke="white" stroke-opacity="0.3" stroke-width="0.5"/>
<path fill-rule="evenodd" clip-rule="evenodd" d="M27.9919 71.0623C51.1178 71.0623 69.865 52.2966 69.865 29.1479C69.865 5.99916 51.1178 -12.7666 27.9919 -12.7666C4.86601 -12.7666 -13.8812 5.99916 -13.8812 29.1479C-13.8812 52.2966 4.86601 71.0623 27.9919 71.0623Z" stroke="white"/>
<path d="M27.9918 50.4313C39.7348 50.4313 49.2543 40.9024 49.2543 29.1479C49.2543 17.3933 39.7348 7.86441 27.9918 7.86441C16.2489 7.86441 6.72937 17.3933 6.72937 29.1479C6.72937 40.9024 16.2489 50.4313 27.9918 50.4313Z" stroke="white"/>
<path d="M27.9917 44.9897C36.7322 44.9897 43.8179 37.8971 43.8179 29.1479C43.8179 20.3987 36.7322 13.3061 27.9917 13.3061C19.2511 13.3061 12.1655 20.3987 12.1655 29.1479C12.1655 37.8971 19.2511 44.9897 27.9917 44.9897Z" stroke="white"/>
<path d="M46.4138 39.8084L28.3993 71.0413" stroke="white"/>
<path d="M9.54724 39.8064L-8.46729 8.57355" stroke="white"/>
<path d="M27.9923 7.86441L64.0214 7.86441" stroke="white"/>
</g>
<g filter="url(#filter0_dd_4170_128)">
<path d="M73.0588 30.804C77.0588 33.1134 77.0588 38.8869 73.0588 41.1963L56.4706 50.7735C52.4706 53.0829 47.4706 50.1961 47.4706 45.5773L47.4706 26.4229C47.4706 21.8041 52.4706 18.9173 56.4706 21.2267L73.0588 30.804Z" fill="#ECF3FE"/>
</g>
<g filter="url(#filter1_f_4170_128)">
<path d="M78 30.8039C82 33.1133 82 38.8868 78 41.1962L54 55.0527C50 57.3621 45 54.4753 45 49.8565L45 22.1437C45 17.5249 50 14.6381 54 16.9475L78 30.8039Z" fill="white" fill-opacity="0.3"/>
</g>
<g opacity="0.9">
<rect x="80" y="12.0001" width="29" height="16" rx="4" fill="white"/>
<path d="M84.352 18.2141H85.309V16.6301H86.75V18.2141H88.07V19.4461H86.75V21.9871C86.75 22.2364 86.805 22.4234 86.915 22.5481C87.025 22.6728 87.1937 22.7351 87.421 22.7351C87.5603 22.7351 87.6777 22.7168 87.773 22.6801C87.8757 22.6434 87.9857 22.5921 88.103 22.5261V23.9011C87.9563 23.9598 87.8023 24.0038 87.641 24.0331C87.487 24.0698 87.3147 24.0881 87.124 24.0881C86.5593 24.0881 86.1157 23.9231 85.793 23.5931C85.4703 23.2558 85.309 22.7938 85.309 22.2071V19.4461H84.352V18.2141ZM89.4331 24.0001V18.2141H90.8741V24.0001H89.4331ZM90.1591 17.2241C89.9025 17.2241 89.6825 17.1324 89.4991 16.9491C89.3158 16.7658 89.2241 16.5458 89.2241 16.2891C89.2241 16.0324 89.3158 15.8124 89.4991 15.6291C89.6825 15.4458 89.9025 15.3541 90.1591 15.3541C90.4158 15.3541 90.6358 15.4458 90.8191 15.6291C91.0025 15.8124 91.0941 16.0324 91.0941 16.2891C91.0941 16.5458 91.0025 16.7658 90.8191 16.9491C90.6358 17.1324 90.4158 17.2241 90.1591 17.2241ZM92.4837 26.3761V18.2141H93.8367V18.8851H93.9247C94.0273 18.7311 94.1593 18.5918 94.3207 18.4671C94.482 18.3351 94.6727 18.2324 94.8927 18.1591C95.12 18.0784 95.373 18.0381 95.6517 18.0381C96.143 18.0381 96.5793 18.1554 96.9607 18.3901C97.3493 18.6248 97.6573 18.9694 97.8847 19.4241C98.112 19.8788 98.2257 20.4398 98.2257 21.1071C98.2257 21.7671 98.112 22.3281 97.8847 22.7901C97.6573 23.2448 97.3493 23.5894 96.9607 23.8241C96.5793 24.0588 96.143 24.1761 95.6517 24.1761C95.2117 24.1761 94.845 24.0918 94.5517 23.9231C94.2657 23.7471 94.0567 23.5454 93.9247 23.3181H93.8367L93.9247 24.1761V26.3761H92.4837ZM95.3107 22.8341C95.5893 22.8341 95.8387 22.7718 96.0587 22.6471C96.286 22.5224 96.462 22.3318 96.5867 22.0751C96.7187 21.8184 96.7847 21.4958 96.7847 21.1071C96.7847 20.7184 96.7187 20.3958 96.5867 20.1391C96.462 19.8824 96.286 19.6918 96.0587 19.5671C95.8387 19.4424 95.5893 19.3801 95.3107 19.3801C95.032 19.3801 94.779 19.4424 94.5517 19.5671C94.3317 19.6918 94.1557 19.8824 94.0237 20.1391C93.899 20.3958 93.8367 20.7184 93.8367 21.1071C93.8367 21.4958 93.899 21.8184 94.0237 22.0751C94.1557 22.3318 94.3317 22.5224 94.5517 22.6471C94.779 22.7718 95.032 22.8341 95.3107 22.8341ZM101.579 24.1761C101.08 24.1761 100.651 24.0991 100.292 23.9451C99.9328 23.7838 99.6468 23.5638 99.4341 23.2851C99.2288 22.9991 99.0931 22.6764 99.0271 22.3171L100.402 22.0861C100.461 22.3501 100.593 22.5554 100.798 22.7021C101.003 22.8414 101.264 22.9111 101.579 22.9111C101.85 22.9111 102.085 22.8634 102.283 22.7681C102.488 22.6654 102.591 22.5078 102.591 22.2951C102.591 22.1631 102.547 22.0531 102.459 21.9651C102.371 21.8698 102.246 21.7891 102.085 21.7231C101.931 21.6571 101.74 21.6058 101.513 21.5691L100.853 21.4481C100.538 21.3894 100.255 21.2904 100.006 21.1511C99.7641 21.0044 99.5735 20.8174 99.4341 20.5901C99.2948 20.3628 99.2251 20.0951 99.2251 19.7871C99.2251 19.4424 99.3241 19.1381 99.5221 18.8741C99.7275 18.6101 99.9988 18.4048 100.336 18.2581C100.681 18.1114 101.066 18.0381 101.491 18.0381C101.946 18.0381 102.334 18.1004 102.657 18.2251C102.987 18.3424 103.251 18.5184 103.449 18.7531C103.647 18.9878 103.779 19.2774 103.845 19.6221L102.58 19.8201C102.499 19.5928 102.367 19.4314 102.184 19.3361C102.001 19.2408 101.781 19.1931 101.524 19.1931C101.253 19.1931 101.033 19.2481 100.864 19.3581C100.703 19.4681 100.622 19.5964 100.622 19.7431C100.622 19.8971 100.688 20.0254 100.82 20.1281C100.952 20.2308 101.165 20.3114 101.458 20.3701L102.261 20.5351C102.826 20.6524 103.262 20.8468 103.57 21.1181C103.878 21.3821 104.032 21.7671 104.032 22.2731C104.032 22.6544 103.922 22.9881 103.702 23.2741C103.482 23.5601 103.185 23.7838 102.811 23.9451C102.444 24.0991 102.034 24.1761 101.579 24.1761Z" fill="#1A73E8"/>
</g>
</g>
<defs>
<filter id="filter0_dd_4170_128" x="39.4706" y="14.4139" width="44.5883" height="47.1723" filterUnits="userSpaceOnUse" color-interpolation-filters="sRGB">
<feFlood flood-opacity="0" result="BackgroundImageFix"/>
<feColorMatrix in="SourceAlpha" type="matrix" values="0 0 0 0 0 0 0 0 0 0 0 0 0 0 0 0 0 0 127 0" result="hardAlpha"/>
<feMorphology radius="2" operator="dilate" in="SourceAlpha" result="effect1_dropShadow_4170_128"/>
<feOffset dy="2"/>
<feGaussianBlur stdDeviation="3"/>
<feColorMatrix type="matrix" values="0 0 0 0 0 0 0 0 0 0 0 0 0 0 0 0 0 0 0.15 0"/>
<feBlend mode="normal" in2="BackgroundImageFix" result="effect1_dropShadow_4170_128"/>
<feColorMatrix in="SourceAlpha" type="matrix" values="0 0 0 0 0 0 0 0 0 0 0 0 0 0 0 0 0 0 127 0" result="hardAlpha"/>
<feOffset dy="1"/>
<feGaussianBlur stdDeviation="1"/>
<feColorMatrix type="matrix" values="0 0 0 0 0 0 0 0 0 0 0 0 0 0 0 0 0 0 0.3 0"/>
<feBlend mode="normal" in2="effect1_dropShadow_4170_128" result="effect2_dropShadow_4170_128"/>
<feBlend mode="normal" in="SourceGraphic" in2="effect2_dropShadow_4170_128" result="shape"/>
</filter>
<filter id="filter1_f_4170_128" x="37" y="8.13474" width="52" height="55.7307" filterUnits="userSpaceOnUse" color-interpolation-filters="sRGB">
<feFlood flood-opacity="0" result="BackgroundImageFix"/>
<feBlend mode="normal" in="SourceGraphic" in2="BackgroundImageFix" result="shape"/>
<feGaussianBlur stdDeviation="4" result="effect1_foregroundBlur_4170_128"/>
</filter>
<clipPath id="clip0_4170_128">
<rect width="117" height="72" fill="white"/>
</clipPath>
<clipPath id="clip1_4170_128">
<rect width="563" height="317" fill="white" transform="translate(-130 -129)"/>
</clipPath>
</defs>
</svg>
