<svg width="20" height="20" viewBox="0 0 20 20" fill="none" xmlns="http://www.w3.org/2000/svg">
<path d="M10.25 9.5H11.75V8H13.25V6.5H11.75V5H10.25V6.5H8.75V8H10.25V9.5ZM8.75 12.5H13.25V11H8.75V12.5ZM6.5 16C6.09722 16 5.74653 15.8507 5.44792 15.5521C5.14931 15.2535 5 14.9028 5 14.5V2.5C5 2.09722 5.14931 1.74653 5.44792 1.44792C5.74653 1.14931 6.09722 1 6.5 1H13L17 5V14.5C17 14.9028 16.8507 15.2535 16.5521 15.5521C16.2535 15.8507 15.9028 16 15.5 16H6.5ZM6.5 14.5H15.5V5.625L12.375 2.5H6.5V14.5ZM3.5 19C3.09722 19 2.74653 18.8507 2.44792 18.5521C2.14931 18.2535 2 17.9028 2 17.5V6H3.5V17.5H12.5V19H3.5Z" fill="black"/>
</svg>
