<svg width="20" height="20" viewBox="0 0 20 20" fill="none" xmlns="http://www.w3.org/2000/svg">
<path d="M6.5 13.5H16.5V5H6.5V13.5ZM6.5 15C6.08333 15 5.72933 14.854 5.438 14.562C5.146 14.2707 5 13.9167 5 13.5V3.5C5 3.08333 5.146 2.72933 5.438 2.438C5.72933 2.146 6.08333 2 6.5 2H16.5C16.9167 2 17.2707 2.146 17.562 2.438C17.854 2.72933 18 3.08333 18 3.5V13.5C18 13.9167 17.854 14.2707 17.562 14.562C17.2707 14.854 16.9167 15 16.5 15H6.5ZM3.5 18C3.08333 18 2.72933 17.854 2.438 17.562C2.146 17.2707 2 16.9167 2 16.5V5H3.5V16.5H15V18H3.5Z" fill="black"/>
</svg>
