<svg width="20" height="20" viewBox="0 0 20 20" fill="none" xmlns="http://www.w3.org/2000/svg">
<path d="M4.396 17C4.00667 17 3.67667 16.8647 3.406 16.594C3.13533 16.3233 3 15.9933 3 15.604V4.396C3 4.00667 3.13533 3.67667 3.406 3.406C3.67667 3.13533 4.00667 3 4.396 3H15.604C15.9933 3 16.3233 3.13533 16.594 3.406C16.8647 3.67667 17 4.00667 17 4.396V15.604C17 15.9933 16.8647 16.3233 16.594 16.594C16.3233 16.8647 15.9933 17 15.604 17H4.396ZM7 15.5V4.5H4.5V15.5H7ZM8.5 15.5H15.5V4.5H8.5V15.5Z" fill="black"/>
</svg>
