<svg xmlns="http://www.w3.org/2000/svg" width="16" height="16" viewBox="0 0 16 16" fill="none">
<path d="M5.83313 12.0654C6.25535 12.0654 6.62202 12.0154 6.93313 11.9154C7.24424 11.8154 7.5998 11.7654 7.9998 11.7654C8.3998 11.7654 8.75535 11.8154 9.06646 11.9154C9.37757 12.0154 9.74424 12.0654 10.1665 12.0654C10.5887 12.0654 10.9442 11.9209 11.2331 11.632C11.522 11.3431 11.6665 10.9876 11.6665 10.5654C11.6665 10.1765 11.5359 9.83481 11.2748 9.54036C11.0137 9.24592 10.7331 8.96536 10.4331 8.6987C10.2331 8.50981 10.047 8.29036 9.8748 8.04036C9.70257 7.79036 9.52202 7.55425 9.33313 7.33203C9.16646 7.14314 8.96924 6.98481 8.74146 6.85703C8.51369 6.72925 8.26646 6.66536 7.9998 6.66536C7.73313 6.66536 7.48591 6.72925 7.25813 6.85703C7.03035 6.98481 6.83313 7.14314 6.66646 7.33203C6.47757 7.54314 6.29702 7.77648 6.1248 8.03203C5.95257 8.28759 5.76646 8.50981 5.56646 8.6987C5.26646 8.96536 4.98591 9.24592 4.7248 9.54036C4.46369 9.83481 4.33313 10.1765 4.33313 10.5654C4.33313 10.9876 4.47757 11.3431 4.76646 11.632C5.05535 11.9209 5.41091 12.0654 5.83313 12.0654ZM4.53313 8.23203C4.86646 8.23203 5.1498 8.11536 5.38313 7.88203C5.61646 7.6487 5.73313 7.36536 5.73313 7.03203C5.73313 6.6987 5.61646 6.41536 5.38313 6.18203C5.1498 5.9487 4.86646 5.83203 4.53313 5.83203C4.1998 5.83203 3.91646 5.9487 3.68313 6.18203C3.4498 6.41536 3.33313 6.6987 3.33313 7.03203C3.33313 7.36536 3.4498 7.6487 3.68313 7.88203C3.91646 8.11536 4.1998 8.23203 4.53313 8.23203ZM11.4665 8.23203C11.7998 8.23203 12.0831 8.11536 12.3165 7.88203C12.5498 7.6487 12.6665 7.36536 12.6665 7.03203C12.6665 6.6987 12.5498 6.41536 12.3165 6.18203C12.0831 5.9487 11.7998 5.83203 11.4665 5.83203C11.1331 5.83203 10.8498 5.9487 10.6165 6.18203C10.3831 6.41536 10.2665 6.6987 10.2665 7.03203C10.2665 7.36536 10.3831 7.6487 10.6165 7.88203C10.8498 8.11536 11.1331 8.23203 11.4665 8.23203ZM6.53313 6.1987C6.86646 6.1987 7.1498 6.08203 7.38313 5.8487C7.61646 5.61536 7.73313 5.33203 7.73313 4.9987C7.73313 4.66536 7.61646 4.38203 7.38313 4.1487C7.1498 3.91536 6.86646 3.7987 6.53313 3.7987C6.1998 3.7987 5.91646 3.91536 5.68313 4.1487C5.4498 4.38203 5.33313 4.66536 5.33313 4.9987C5.33313 5.33203 5.4498 5.61536 5.68313 5.8487C5.91646 6.08203 6.1998 6.1987 6.53313 6.1987ZM9.46646 6.1987C9.7998 6.1987 10.0831 6.08203 10.3165 5.8487C10.5498 5.61536 10.6665 5.33203 10.6665 4.9987C10.6665 4.66536 10.5498 4.38203 10.3165 4.1487C10.0831 3.91536 9.7998 3.7987 9.46646 3.7987C9.13313 3.7987 8.8498 3.91536 8.61646 4.1487C8.38313 4.38203 8.26646 4.66536 8.26646 4.9987C8.26646 5.33203 8.38313 5.61536 8.61646 5.8487C8.8498 6.08203 9.13313 6.1987 9.46646 6.1987ZM7.9998 14.6654C7.07757 14.6654 6.21091 14.4904 5.3998 14.1404C4.58869 13.7904 3.88313 13.3154 3.28313 12.7154C2.68313 12.1154 2.20813 11.4098 1.85813 10.5987C1.50813 9.78759 1.33313 8.92092 1.33313 7.9987C1.33313 7.07648 1.50813 6.20981 1.85813 5.3987C2.20813 4.58759 2.68313 3.88203 3.28313 3.28203C3.88313 2.68203 4.58869 2.20703 5.3998 1.85703C6.21091 1.50703 7.07757 1.33203 7.9998 1.33203C8.92202 1.33203 9.78868 1.50703 10.5998 1.85703C11.4109 2.20703 12.1165 2.68203 12.7165 3.28203C13.3165 3.88203 13.7915 4.58759 14.1415 5.3987C14.4915 6.20981 14.6665 7.07648 14.6665 7.9987C14.6665 8.92092 14.4915 9.78759 14.1415 10.5987C13.7915 11.4098 13.3165 12.1154 12.7165 12.7154C12.1165 13.3154 11.4109 13.7904 10.5998 14.1404C9.78868 14.4904 8.92202 14.6654 7.9998 14.6654Z" fill="#474747"/>
</svg>