<svg width="20" height="20" viewBox="0 0 20 20" fill="none" xmlns="http://www.w3.org/2000/svg">
<g clip-path="url(#clip0_5628_51)">
<path d="M7.04167 14.9792C7.31945 14.9792 7.71528 14.9375 8.22917 14.8542C8.75694 14.7569 9.33333 14.7083 9.95833 14.7083C10.5833 14.7083 11.1597 14.7569 11.6875 14.8542C12.2292 14.9514 12.6458 15 12.9375 15C13.3403 15 13.6944 14.8194 14 14.4583C14.3194 14.0972 14.4792 13.6944 14.4792 13.25C14.4792 12.7639 14.3194 12.3403 14 11.9792C13.6806 11.6181 13.3403 11.25 12.9792 10.875C12.7569 10.6389 12.5486 10.3889 12.3542 10.125C12.1597 9.86111 11.9306 9.59028 11.6667 9.3125C11.3611 8.97917 11.0972 8.76389 10.875 8.66667C10.6667 8.55555 10.3611 8.5 9.95833 8.5C9.68056 8.5 9.40278 8.57639 9.125 8.72917C8.84722 8.86805 8.60417 9.0625 8.39583 9.3125C8.14583 9.59028 7.91667 9.86805 7.70833 10.1458C7.5 10.4097 7.26389 10.6806 7 10.9583C6.66667 11.3056 6.32639 11.6667 5.97917 12.0417C5.64583 12.4028 5.47917 12.8264 5.47917 13.3125C5.47917 13.7431 5.63889 14.1319 5.95833 14.4792C6.27778 14.8125 6.63889 14.9792 7.04167 14.9792ZM5.5 10.25C5.91667 10.25 6.27083 10.1042 6.5625 9.8125C6.85417 9.52083 7 9.16667 7 8.75C7 8.33333 6.85417 7.97917 6.5625 7.6875C6.27083 7.39583 5.91667 7.25 5.5 7.25C5.08333 7.25 4.72917 7.39583 4.4375 7.6875C4.14583 7.97917 4 8.33333 4 8.75C4 9.16667 4.14583 9.52083 4.4375 9.8125C4.72917 10.1042 5.08333 10.25 5.5 10.25ZM14.5 10.25C14.9167 10.25 15.2708 10.1042 15.5625 9.8125C15.8542 9.52083 16 9.16667 16 8.75C16 8.33333 15.8542 7.97917 15.5625 7.6875C15.2708 7.39583 14.9167 7.25 14.5 7.25C14.0833 7.25 13.7292 7.39583 13.4375 7.6875C13.1458 7.97917 13 8.33333 13 8.75C13 9.16667 13.1458 9.52083 13.4375 9.8125C13.7292 10.1042 14.0833 10.25 14.5 10.25ZM8 7.75C8.41667 7.75 8.77083 7.60417 9.0625 7.3125C9.35417 7.02083 9.5 6.66667 9.5 6.25C9.5 5.83333 9.35417 5.47917 9.0625 5.1875C8.77083 4.89583 8.41667 4.75 8 4.75C7.58333 4.75 7.22917 4.89583 6.9375 5.1875C6.64583 5.47917 6.5 5.83333 6.5 6.25C6.5 6.66667 6.64583 7.02083 6.9375 7.3125C7.22917 7.60417 7.58333 7.75 8 7.75ZM11.5 7.75C11.9167 7.75 12.2708 7.60417 12.5625 7.3125C12.8542 7.02083 13 6.66667 13 6.25C13 5.83333 12.8542 5.47917 12.5625 5.1875C12.2708 4.89583 11.9167 4.75 11.5 4.75C11.0833 4.75 10.7292 4.89583 10.4375 5.1875C10.1458 5.47917 10 5.83333 10 6.25C10 6.66667 10.1458 7.02083 10.4375 7.3125C10.7292 7.60417 11.0833 7.75 11.5 7.75ZM10 18C8.90278 18 7.86806 17.7917 6.89583 17.375C5.92361 16.9583 5.06944 16.3889 4.33333 15.6667C3.61111 14.9306 3.04167 14.0764 2.625 13.1042C2.20833 12.1319 2 11.0972 2 10C2 8.88889 2.20833 7.85417 2.625 6.89583C3.04167 5.92361 3.61111 5.07639 4.33333 4.35417C5.06944 3.61805 5.92361 3.04167 6.89583 2.625C7.86806 2.20833 8.90278 2 10 2C11.1111 2 12.1458 2.20833 13.1042 2.625C14.0764 3.04167 14.9236 3.61805 15.6458 4.35417C16.3819 5.07639 16.9583 5.92361 17.375 6.89583C17.7917 7.85417 18 8.88889 18 10C18 11.0972 17.7917 12.1319 17.375 13.1042C16.9583 14.0764 16.3819 14.9306 15.6458 15.6667C14.9236 16.3889 14.0764 16.9583 13.1042 17.375C12.1458 17.7917 11.1111 18 10 18Z" fill="black"/>
</g>
<defs>
<clipPath id="clip0_5628_51">
<rect width="20" height="20" fill="white"/>
</clipPath>
</defs>
</svg>
