<svg width="20" height="20" viewBox="0 0 20 20" fill="none" xmlns="http://www.w3.org/2000/svg">
<path d="M2 17V3H10V6H18V17H2ZM3.5 15.5H5V14H3.5V15.5ZM3.5 12.3333H5V10.8333H3.5V12.3333ZM3.5 9.16667H5V7.66667H3.5V9.16667ZM3.5 6H5V4.5H3.5V6ZM7 15.5H8.5V14H7V15.5ZM7 12.3333H8.5V10.8333H7V12.3333ZM7 9.16667H8.5V7.66667H7V9.16667ZM7 6H8.5V4.5H7V6ZM10 15.5H16.5V7.5H10V9.16667H11.5V10.6667H10V12.3333H11.5V13.8333H10V15.5ZM13.5 10.6667V9.16667H15V10.6667H13.5ZM13.5 13.8333V12.3333H15V13.8333H13.5Z" fill="black"/>
</svg>
