<svg width="16" height="16" viewBox="0 0 16 16" fill="none" xmlns="http://www.w3.org/2000/svg">
<g clip-path="url(#clip0_367_65863)">
<path d="M5.2 8.875C5.44306 8.875 5.64722 8.79236 5.8125 8.62708C5.9875 8.45208 6.075 8.24306 6.075 8C6.075 7.75694 5.9875 7.55278 5.8125 7.3875C5.64722 7.2125 5.44306 7.125 5.2 7.125C4.95694 7.125 4.74792 7.2125 4.57292 7.3875C4.40764 7.55278 4.325 7.75694 4.325 8C4.325 8.24306 4.40764 8.45208 4.57292 8.62708C4.74792 8.79236 4.95694 8.875 5.2 8.875ZM8 8.875C8.24306 8.875 8.44722 8.79236 8.6125 8.62708C8.7875 8.45208 8.875 8.24306 8.875 8C8.875 7.75694 8.7875 7.55278 8.6125 7.3875C8.44722 7.2125 8.24306 7.125 8 7.125C7.75694 7.125 7.54792 7.2125 7.37292 7.3875C7.20764 7.55278 7.125 7.75694 7.125 8C7.125 8.24306 7.20764 8.45208 7.37292 8.62708C7.54792 8.79236 7.75694 8.875 8 8.875ZM10.8 8.875C11.0431 8.875 11.2472 8.79236 11.4125 8.62708C11.5875 8.45208 11.675 8.24306 11.675 8C11.675 7.75694 11.5875 7.55278 11.4125 7.3875C11.2472 7.2125 11.0431 7.125 10.8 7.125C10.5569 7.125 10.3479 7.2125 10.1729 7.3875C10.0076 7.55278 9.925 7.75694 9.925 8C9.925 8.24306 10.0076 8.45208 10.1729 8.62708C10.3479 8.79236 10.5569 8.875 10.8 8.875ZM8 13.6C7.23194 13.6 6.50764 13.4542 5.82708 13.1625C5.14653 12.8708 4.54861 12.4722 4.03333 11.9667C3.52778 11.4514 3.12917 10.8535 2.8375 10.1729C2.54583 9.49236 2.4 8.76806 2.4 8C2.4 7.22222 2.54583 6.49792 2.8375 5.82708C3.12917 5.14653 3.52778 4.55347 4.03333 4.04792C4.54861 3.53264 5.14653 3.12917 5.82708 2.8375C6.50764 2.54583 7.23194 2.4 8 2.4C8.77778 2.4 9.50208 2.54583 10.1729 2.8375C10.8535 3.12917 11.4465 3.53264 11.9521 4.04792C12.4674 4.55347 12.8708 5.14653 13.1625 5.82708C13.4542 6.49792 13.6 7.22222 13.6 8C13.6 8.76806 13.4542 9.49236 13.1625 10.1729C12.8708 10.8535 12.4674 11.4514 11.9521 11.9667C11.4465 12.4722 10.8535 12.8708 10.1729 13.1625C9.50208 13.4542 8.77778 13.6 8 13.6ZM8 12.55C9.26389 12.55 10.3382 12.1076 11.2229 11.2229C12.1076 10.3382 12.55 9.26389 12.55 8C12.55 6.73611 12.1076 5.66181 11.2229 4.77708C10.3382 3.89236 9.26389 3.45 8 3.45C6.73611 3.45 5.66181 3.89236 4.77708 4.77708C3.89236 5.66181 3.45 6.73611 3.45 8C3.45 9.26389 3.89236 10.3382 4.77708 11.2229C5.66181 12.1076 6.73611 12.55 8 12.55Z" fill="#474747"/>
</g>
<defs>
<clipPath id="clip0_367_65863">
<rect width="16" height="16" fill="white"/>
</clipPath>
</defs>
</svg>
