<svg xmlns="http://www.w3.org/2000/svg" width="20" height="20" fill="none"><path d="M 16.715 5 C 16.854 5 16.965 5.112 16.965 5.25 L 16.965 5.5 C 16.965 5.885 17.382 6.125 17.715 5.933 C 17.87 5.844 17.965 5.679 17.965 5.5 L 17.965 5.25 C 17.965 4.56 17.405 4 16.715 4 L 16.465 4 C 16.081 4 15.84 4.417 16.032 4.75 C 16.122 4.905 16.287 5 16.465 5 L 16.715 5 Z M 14.965 4.5 C 14.965 4.224 14.742 4 14.465 4 L 13.465 4 C 13.081 4 12.84 4.417 13.032 4.75 C 13.122 4.905 13.287 5 13.465 5 L 14.465 5 C 14.742 5 14.965 4.776 14.965 4.5 Z M 11.965 4.5 C 11.965 4.224 11.742 4 11.465 4 L 11.215 4 C 10.525 4 9.965 4.56 9.965 5.25 L 9.965 5.5 C 9.965 5.885 10.381 6.125 10.715 5.933 C 10.87 5.844 10.965 5.679 10.965 5.5 L 10.965 5.25 C 10.965 5.112 11.077 5 11.215 5 L 11.465 5 C 11.742 5 11.965 4.776 11.965 4.5 Z M 5.111 5.854 L 5.264 6.006 C 2.575 6.164 1.064 9.174 2.546 11.424 C 3.192 12.407 4.288 12.999 5.464 13 C 5.85 13 6.091 12.583 5.898 12.25 C 5.809 12.095 5.643 12 5.464 12 C 3.541 11.994 2.343 9.908 3.311 8.244 C 3.718 7.542 4.442 7.082 5.249 7.01 L 5.111 7.146 C 4.839 7.419 4.964 7.884 5.336 7.984 C 5.509 8.03 5.693 7.98 5.819 7.854 L 6.819 6.854 C 7.015 6.659 7.015 6.341 6.819 6.146 L 5.819 5.146 C 5.547 4.873 5.082 4.998 4.982 5.37 C 4.935 5.543 4.985 5.728 5.111 5.854 Z M 17.965 10.5 C 17.965 9.672 17.294 9 16.465 9 L 8.465 9 C 7.637 9 6.964 9.672 6.964 10.5 L 6.964 14.5 C 6.964 15.328 7.637 16 8.465 16 L 16.465 16 C 17.294 16 17.965 15.328 17.965 14.5 L 17.965 10.5 Z M 16.465 10 C 16.742 10 16.965 10.224 16.965 10.5 L 16.965 14.5 C 16.965 14.776 16.742 15 16.465 15 L 8.465 15 C 8.188 15 7.964 14.776 7.964 14.5 L 7.964 10.5 C 7.964 10.224 8.188 10 8.465 10 L 16.465 10 Z M 10.465 9 C 10.742 9 10.965 8.776 10.965 8.5 L 10.965 7.5 C 10.965 7.115 10.549 6.875 10.215 7.067 C 10.061 7.156 9.965 7.321 9.965 7.5 L 9.965 8.5 C 9.965 8.776 10.189 9 10.465 9 Z M 16.965 7.5 C 16.965 7.115 17.382 6.875 17.715 7.067 C 17.87 7.156 17.965 7.321 17.965 7.5 L 17.965 8.5 C 17.965 8.885 17.549 9.125 17.215 8.933 C 17.061 8.844 16.965 8.679 16.965 8.5 L 16.965 7.5 Z" fill="#212121"/></svg>