<svg xmlns="http://www.w3.org/2000/svg" width="20" height="20" fill="none"><path d="M 4.969 16.746 C 4.969 16.885 5.081 16.996 5.219 16.996 L 5.469 16.996 C 5.854 16.996 6.094 17.413 5.902 17.746 C 5.813 17.901 5.648 17.996 5.469 17.996 L 5.219 17.996 C 4.529 17.996 3.969 17.436 3.969 16.746 L 3.969 16.496 C 3.969 16.112 4.386 15.871 4.719 16.063 C 4.874 16.153 4.969 16.318 4.969 16.496 L 4.969 16.746 Z M 4.469 14.996 C 4.193 14.996 3.969 14.773 3.969 14.496 L 3.969 13.496 C 3.969 13.112 4.386 12.871 4.719 13.063 C 4.874 13.153 4.969 13.318 4.969 13.496 L 4.969 14.496 C 4.969 14.773 4.745 14.996 4.469 14.996 Z M 4.469 11.996 C 4.193 11.996 3.969 11.773 3.969 11.496 L 3.969 11.246 C 3.969 10.556 4.529 9.996 5.219 9.996 L 5.469 9.996 C 5.854 9.996 6.094 10.412 5.902 10.746 C 5.813 10.901 5.648 10.996 5.469 10.996 L 5.219 10.996 C 5.081 10.996 4.969 11.108 4.969 11.246 L 4.969 11.496 C 4.969 11.773 4.745 11.996 4.469 11.996 Z M 5.823 5.142 L 5.975 5.295 C 6.133 2.606 9.143 1.095 11.393 2.577 C 12.376 3.223 12.968 4.319 12.969 5.495 C 12.969 5.881 12.552 6.122 12.219 5.929 C 12.064 5.84 11.969 5.674 11.969 5.495 C 11.963 3.572 9.877 2.374 8.213 3.342 C 7.511 3.749 7.051 4.473 6.979 5.28 L 7.115 5.142 C 7.388 4.87 7.853 4.995 7.953 5.367 C 7.999 5.54 7.949 5.724 7.823 5.85 L 6.823 6.85 C 6.628 7.046 6.31 7.046 6.115 6.85 L 5.115 5.85 C 4.842 5.578 4.967 5.113 5.339 5.013 C 5.512 4.966 5.697 5.016 5.823 5.142 Z M 10.469 17.996 C 9.641 17.996 8.969 17.325 8.969 16.496 L 8.969 8.496 C 8.969 7.668 9.641 6.995 10.469 6.995 L 14.469 6.995 C 15.297 6.995 15.969 7.668 15.969 8.496 L 15.969 16.496 C 15.969 17.325 15.297 17.996 14.469 17.996 L 10.469 17.996 Z M 9.969 16.496 C 9.969 16.773 10.193 16.996 10.469 16.996 L 14.469 16.996 C 14.745 16.996 14.969 16.773 14.969 16.496 L 14.969 8.496 C 14.969 8.219 14.745 7.995 14.469 7.995 L 10.469 7.995 C 10.193 7.995 9.969 8.219 9.969 8.496 L 9.969 16.496 Z M 8.969 10.496 C 8.969 10.773 8.745 10.996 8.469 10.996 L 7.469 10.996 C 7.084 10.996 6.844 10.58 7.036 10.246 C 7.125 10.092 7.29 9.996 7.469 9.996 L 8.469 9.996 C 8.745 9.996 8.969 10.22 8.969 10.496 Z M 7.469 16.996 C 7.084 16.996 6.844 17.413 7.036 17.746 C 7.125 17.901 7.29 17.996 7.469 17.996 L 8.469 17.996 C 8.854 17.996 9.094 17.58 8.902 17.246 C 8.813 17.092 8.648 16.996 8.469 16.996 L 7.469 16.996 Z" fill="#212121"/></svg>