<?xml version="1.0" encoding="UTF-8" standalone="no"?>
<svg
   xmlns:dc="http://purl.org/dc/elements/1.1/"
   xmlns:cc="http://creativecommons.org/ns#"
   xmlns:rdf="http://www.w3.org/1999/02/22-rdf-syntax-ns#"
   xmlns:svg="http://www.w3.org/2000/svg"
   xmlns="http://www.w3.org/2000/svg"
   xmlns:sodipodi="http://sodipodi.sourceforge.net/DTD/sodipodi-0.dtd"
   xmlns:inkscape="http://www.inkscape.org/namespaces/inkscape"
   width="90.708664"
   height="90.708664"
   viewBox="0 0 24 24"
   version="1.1"
   id="svg231"
   inkscape:version="1.0.2 (e86c870879, 2021-01-15)"
   sodipodi:docname="exclamation-mark-circle-icon.svg">
  <defs
     id="defs225" />
  <sodipodi:namedview
     id="base"
     pagecolor="#ffffff"
     bordercolor="#666666"
     borderopacity="1.0"
     inkscape:pageopacity="0.0"
     inkscape:pageshadow="2"
     inkscape:zoom="9.162384"
     inkscape:cx="28.346432"
     inkscape:cy="50.174849"
     inkscape:document-units="mm"
     inkscape:current-layer="layer1"
     inkscape:document-rotation="0"
     showgrid="false"
     units="px"
     inkscape:window-width="1506"
     inkscape:window-height="967"
     inkscape:window-x="292"
     inkscape:window-y="462"
     inkscape:window-maximized="0" />
  <metadata
     id="metadata228">
    <rdf:RDF>
      <cc:Work
         rdf:about="">
        <dc:format>image/svg+xml</dc:format>
        <dc:type
           rdf:resource="http://purl.org/dc/dcmitype/StillImage" />
        <dc:title></dc:title>
      </cc:Work>
    </rdf:RDF>
  </metadata>
  <g
     inkscape:label="Layer 1"
     inkscape:groupmode="layer"
     id="layer1"
     transform="translate(120.66889,143.34748)">
    <g
       transform="matrix(1.3333333,0,0,1.3333333,-119.33556,-142.01415)"
       id="g249"
       style="fill:#000000">
      <path
         d="m 7.25,10.25 h 1.5 v 1.5 h -1.5 z m 0,-6 h 1.5 v 4.5 H 7.25 Z M 7.9925,0.5 C 3.8525,0.5 0.5,3.86 0.5,8 c 0,4.14 3.3525,7.5 7.4925,7.5 C 12.14,15.5 15.5,12.14 15.5,8 15.5,3.86 12.14,0.5 7.9925,0.5 Z M 8,14 C 4.685,14 2,11.315 2,8 2,4.685 4.685,2 8,2 c 3.315,0 6,2.685 6,6 0,3.315 -2.685,6 -6,6 z"
         id="path237" />
    </g>
  </g>
</svg>
