<svg width="20" height="20" viewBox="0 0 20 20" fill="none" xmlns="http://www.w3.org/2000/svg">
<path d="M4.50002 17C3.86136 17 3.40302 16.7187 3.12502 16.156C2.84702 15.5933 2.90936 15.069 3.31202 14.583L7.50002 9.5V4.5H6.75002C6.54202 4.5 6.36502 4.427 6.21902 4.281C6.07302 4.135 6.00002 3.958 6.00002 3.75C6.00002 3.542 6.07302 3.365 6.21902 3.219C6.36502 3.073 6.54202 3 6.75002 3H13.25C13.458 3 13.635 3.073 13.781 3.219C13.927 3.365 14 3.542 14 3.75C14 3.958 13.927 4.135 13.781 4.281C13.635 4.427 13.458 4.5 13.25 4.5H12.5V9.5L16.688 14.583C17.0767 15.069 17.132 15.5933 16.854 16.156C16.5767 16.7187 16.1254 17 15.5 17H4.50002ZM4.50002 15.5H15.5L11 10V4.5H9.00002V10L4.50002 15.5Z" fill="black"/>
</svg>
