<svg width="20" height="20" viewBox="0 0 20 20" fill="none" xmlns="http://www.w3.org/2000/svg">
<path d="M13.2708 11.1459L11.9792 9.85419C12.0347 9.32641 11.875 8.87155 11.5 8.4896C11.125 8.10766 10.6736 7.94446 10.1458 8.00002L8.85417 6.70835C9.03472 6.63891 9.22222 6.58683 9.41667 6.5521C9.61111 6.51738 9.80556 6.50002 10 6.50002C10.9722 6.50002 11.7986 6.8403 12.4792 7.52085C13.1597 8.20141 13.5 9.0278 13.5 10C13.5 10.1945 13.4826 10.3889 13.4479 10.5834C13.4132 10.7778 13.3542 10.9653 13.2708 11.1459ZM16.0417 13.9167L14.9583 12.8334C15.4583 12.4445 15.9132 12.0174 16.3229 11.5521C16.7326 11.0868 17.0764 10.5695 17.3542 10C16.6736 8.59724 15.6701 7.49655 14.3438 6.69794C13.0174 5.89933 11.5694 5.50002 10 5.50002C9.63889 5.50002 9.28472 5.52085 8.9375 5.56252C8.59028 5.60419 8.25 5.67363 7.91667 5.77085L6.70833 4.56252C7.23611 4.35419 7.77431 4.20835 8.32292 4.12502C8.87153 4.04169 9.43056 4.00002 10 4.00002C11.9861 4.00002 13.8021 4.53821 15.4479 5.6146C17.0938 6.69099 18.2778 8.1528 19 10C18.6944 10.7917 18.2882 11.5104 17.7813 12.1563C17.2743 12.8021 16.6944 13.3889 16.0417 13.9167ZM16 18.125L13.2917 15.4167C12.7639 15.6111 12.2257 15.757 11.6771 15.8542C11.1285 15.9514 10.5694 16 10 16C8.01389 16 6.19792 15.4618 4.55208 14.3854C2.90625 13.309 1.72222 11.8472 1 10C1.30556 9.20835 1.70833 8.48613 2.20833 7.83335C2.70833 7.18058 3.29167 6.5903 3.95833 6.06252L1.875 3.97919L2.9375 2.91669L17.0625 17.0625L16 18.125ZM5.02083 7.14585C4.53472 7.53474 4.08333 7.96183 3.66667 8.4271C3.25 8.89238 2.90972 9.41669 2.64583 10C3.32639 11.4028 4.32986 12.5035 5.65625 13.3021C6.98264 14.1007 8.43056 14.5 10 14.5C10.3611 14.5 10.7153 14.4757 11.0625 14.4271C11.4097 14.3785 11.7569 14.3125 12.1042 14.2292L11.1667 13.2917C10.9722 13.3611 10.7778 13.4132 10.5833 13.4479C10.3889 13.4827 10.1944 13.5 10 13.5C9.02778 13.5 8.20139 13.1597 7.52083 12.4792C6.84028 11.7986 6.5 10.9722 6.5 10C6.5 9.80558 6.52431 9.61113 6.57292 9.41669C6.62153 9.22224 6.66667 9.0278 6.70833 8.83335L5.02083 7.14585Z" fill="black"/>
</svg>
