<svg width="20" height="20" viewBox="0 0 20 20" fill="none" xmlns="http://www.w3.org/2000/svg">
<path d="M4.5 17C4.08333 17 3.72933 16.854 3.438 16.562C3.146 16.2707 3 15.9167 3 15.5V4.5C3 4.08333 3.146 3.72933 3.438 3.438C3.72933 3.146 4.08333 3 4.5 3H15.5C15.9167 3 16.2707 3.146 16.562 3.438C16.854 3.72933 17 4.08333 17 4.5V15.5C17 15.9167 16.854 16.2707 16.562 16.562C16.2707 16.854 15.9167 17 15.5 17H4.5ZM4.5 15.5H15.5V4.5H4.5V15.5Z" fill="black"/>
<path d="M7.59765 13.8623C7.25261 13.8623 6.92873 13.7838 6.626 13.6267C6.32327 13.4696 6.06854 13.257 5.86182 12.9889C6.09944 12.9734 6.30249 12.8853 6.47096 12.7246C6.63943 12.5635 6.72366 12.3641 6.72366 12.1265C6.72366 11.7586 6.8502 11.4502 7.10327 11.2012C7.35634 10.9521 7.6668 10.8276 8.03464 10.8276C8.39475 10.8276 8.69932 10.9542 8.94835 11.2072C9.19738 11.46 9.32189 11.7664 9.32189 12.1265C9.32189 12.6094 9.15526 13.0196 8.822 13.3569C8.48837 13.6938 8.08025 13.8623 7.59765 13.8623ZM10.3101 11.1383L9.13815 9.96579L12.8046 6.29881C12.912 6.1914 13.0424 6.1377 13.1958 6.1377C13.3488 6.1377 13.479 6.1914 13.5864 6.29881L13.9771 6.68945C14.0845 6.79686 14.1382 6.92524 14.1382 7.07458C14.1382 7.22392 14.0845 7.3523 13.9771 7.45971L10.3101 11.1383Z" fill="black"/>
</svg>
