<svg width="20" height="20" viewBox="0 0 20 20" fill="none" xmlns="http://www.w3.org/2000/svg">
<path d="M4.5 17C4.08333 17 3.72933 16.854 3.438 16.562C3.146 16.2707 3 15.9167 3 15.5V4.5C3 4.08333 3.146 3.72933 3.438 3.438C3.72933 3.146 4.08333 3 4.5 3H15.5C15.9167 3 16.2707 3.146 16.562 3.438C16.854 3.72933 17 4.08333 17 4.5V15.5C17 15.9167 16.854 16.2707 16.562 16.562C16.2707 16.854 15.9167 17 15.5 17H4.5ZM4.5 15.5H15.5V4.5H4.5V15.5Z" fill="black"/>
<path d="M11.11 13V11.9099H11.4928C11.6223 11.9099 11.7329 11.8654 11.8244 11.7762C11.9159 11.6871 11.9617 11.5764 11.9617 11.4441V11.0528C11.9617 10.7857 12.051 10.5575 12.2297 10.368C12.4083 10.1786 12.6348 10.0652 12.9091 10.028V9.99068C12.6348 9.93478 12.4083 9.81366 12.2297 9.62733C12.051 9.44099 11.9617 9.21429 11.9617 8.94721V8.54658C11.9617 8.4205 11.9159 8.31289 11.8244 8.22376C11.7329 8.13463 11.6223 8.09006 11.4928 8.09006H11.11V7H11.8086C12.1595 7 12.4593 7.12112 12.7081 7.36335C12.9569 7.60559 13.0813 7.90062 13.0813 8.24845V8.63975C13.0813 8.76584 13.1271 8.875 13.2187 8.96724C13.3102 9.05947 13.4239 9.10559 13.5598 9.10559H14V10.8944H13.5598C13.4239 10.8944 13.3102 10.939 13.2187 11.0281C13.1271 11.1172 13.0813 11.2248 13.0813 11.3509V11.7516C13.0813 12.0994 12.9569 12.3944 12.7081 12.6366C12.4593 12.8789 12.1595 13 11.8086 13H11.11ZM8.19139 13C7.84051 13 7.54067 12.8789 7.29187 12.6366C7.04306 12.3944 6.91866 12.0994 6.91866 11.7516V11.3509C6.91866 11.2248 6.87289 11.1172 6.78134 11.0281C6.68979 10.939 6.57927 10.8944 6.44976 10.8944H6V9.10559H6.44976C6.57927 9.10559 6.68979 9.05947 6.78134 8.96724C6.87289 8.875 6.91866 8.76584 6.91866 8.63975V8.24845C6.91866 7.90062 7.04306 7.60559 7.29187 7.36335C7.54067 7.12112 7.84051 7 8.19139 7H8.88995V8.09006H8.51675C8.38724 8.09006 8.27512 8.13463 8.18038 8.22376C8.08565 8.31289 8.03828 8.4205 8.03828 8.54658V8.94721C8.03828 9.2205 7.94896 9.45186 7.77033 9.6413C7.59171 9.83075 7.36842 9.9441 7.10048 9.98137V10.02C7.36842 10.0501 7.59171 10.1615 7.77033 10.354C7.94896 10.5466 8.03828 10.7795 8.03828 11.0528V11.4441C8.03828 11.5764 8.08565 11.6871 8.18038 11.7762C8.27512 11.8654 8.38724 11.9099 8.51675 11.9099H8.88995V13H8.19139Z" fill="black"/>
</svg>
