<svg width="20" height="20" viewBox="0 0 20 20" fill="none" xmlns="http://www.w3.org/2000/svg">
<path d="M6.7456 7.5C6.95687 7.5 7.13542 7.42855 7.28125 7.28565C7.42708 7.14273 7.5 6.96565 7.5 6.7544C7.5 6.54313 7.42855 6.36458 7.28565 6.21875C7.14273 6.07292 6.96565 6 6.7544 6C6.54313 6 6.36458 6.07145 6.21875 6.21435C6.07292 6.35727 6 6.53435 6 6.7456C6 6.95687 6.07145 7.13542 6.21435 7.28125C6.35727 7.42708 6.53435 7.5 6.7456 7.5ZM6.7456 10.75C6.95687 10.75 7.13542 10.6785 7.28125 10.5356C7.42708 10.3927 7.5 10.2156 7.5 10.0044C7.5 9.79313 7.42855 9.61458 7.28565 9.46875C7.14273 9.32292 6.96565 9.25 6.7544 9.25C6.54313 9.25 6.36458 9.32145 6.21875 9.46435C6.07292 9.60727 6 9.78435 6 9.9956C6 10.2069 6.07145 10.3854 6.21435 10.5313C6.35727 10.6771 6.53435 10.75 6.7456 10.75ZM6.7456 14C6.95687 14 7.13542 13.9285 7.28125 13.7856C7.42708 13.6427 7.5 13.4656 7.5 13.2544C7.5 13.0431 7.42855 12.8646 7.28565 12.7188C7.14273 12.5729 6.96565 12.5 6.7544 12.5C6.54313 12.5 6.36458 12.5715 6.21875 12.7144C6.07292 12.8573 6 13.0344 6 13.2456C6 13.4569 6.07145 13.6354 6.21435 13.7813C6.35727 13.9271 6.53435 14 6.7456 14ZM4.5 17C4.0875 17 3.73437 16.8531 3.44062 16.5594C3.14687 16.2656 3 15.9125 3 15.5V4.5C3 4.0875 3.14687 3.73438 3.44062 3.44063C3.73437 3.14688 4.0875 3 4.5 3H13L17 7V15.5C17 15.9125 16.8531 16.2656 16.5594 16.5594C16.2656 16.8531 15.9125 17 15.5 17H4.5ZM4.5 15.5H15.5V8H12V4.5H4.5V15.5Z" fill="black"/>
</svg>
