<svg width="20" height="20" viewBox="0 0 20 20" fill="none" xmlns="http://www.w3.org/2000/svg">
<path d="M12 16V14.5H13.75C13.9625 14.5 14.1406 14.4281 14.2844 14.2844C14.4281 14.1406 14.5 13.9625 14.5 13.75V12.25C14.5 11.6806 14.691 11.191 15.0729 10.7813C15.4549 10.3715 15.9306 10.1319 16.5 10.0625V9.97917C15.9306 9.86806 15.4549 9.61111 15.0729 9.20833C14.691 8.80556 14.5 8.31944 14.5 7.75V6.25C14.5 6.0375 14.4281 5.85937 14.2844 5.71562C14.1406 5.57187 13.9625 5.5 13.75 5.5H12V4H13.75C14.375 4 14.9063 4.21875 15.3438 4.65625C15.7813 5.09375 16 5.625 16 6.25V7.75C16 7.9625 16.0719 8.14063 16.2156 8.28438C16.3594 8.42813 16.5375 8.5 16.75 8.5H18V11.5H16.75C16.5375 11.5 16.3594 11.5719 16.2156 11.7156C16.0719 11.8594 16 12.0375 16 12.25V13.75C16 14.375 15.7813 14.9063 15.3438 15.3438C14.9063 15.7813 14.375 16 13.75 16H12ZM6.25 16C5.625 16 5.09375 15.7813 4.65625 15.3438C4.21875 14.9063 4 14.375 4 13.75V12.25C4 12.0375 3.92812 11.8594 3.78437 11.7156C3.64062 11.5719 3.4625 11.5 3.25 11.5H2V8.5H3.25C3.4625 8.5 3.64062 8.42813 3.78437 8.28438C3.92812 8.14063 4 7.9625 4 7.75V6.25C4 5.625 4.21875 5.09375 4.65625 4.65625C5.09375 4.21875 5.625 4 6.25 4H8V5.5H6.25C6.0375 5.5 5.85938 5.57187 5.71563 5.71562C5.57188 5.85937 5.5 6.0375 5.5 6.25V7.75C5.5 8.33333 5.30903 8.82986 4.92708 9.23958C4.54514 9.64931 4.06944 9.88889 3.5 9.95833V10.0448C4.06944 10.0983 4.54514 10.3333 4.92708 10.75C5.30903 11.1667 5.5 11.6667 5.5 12.25V13.75C5.5 13.9625 5.57188 14.1406 5.71563 14.2844C5.85938 14.4281 6.0375 14.5 6.25 14.5H8V16H6.25Z" fill="black"/>
<path d="M9.19336 10.3495H11.1445V11.9374L9.99609 14.1816H8.73633L9.19336 11.9374V10.3495ZM9.19336 6.27142H11.1445V8.4101H9.19336V6.27142Z" fill="black"/>
</svg>
