<svg width="20" height="20" viewBox="0 0 20 20" fill="none" xmlns="http://www.w3.org/2000/svg">
<path fill-rule="evenodd" clip-rule="evenodd" d="M13.1632 4.5C12.6015 5.68247 11.3962 6.5 10 6.5C8.6038 6.5 7.39855 5.68247 6.83682 4.5L4.5 4.5L4.5 15.5H15.5V4.5H13.1632ZM12 3C12 4.10457 11.1046 5 10 5C8.89543 5 8 4.10457 8 3H4.5C3.67157 3 3 3.67157 3 4.5V15.5C3 16.3284 3.67157 17 4.5 17H15.5C16.3284 17 17 16.3284 17 15.5V4.5C17 3.67157 16.3284 3 15.5 3H12Z" fill="black"/>
<path d="M10 13.5L10 10H9.00003V13L8.38675 13V11H7.6055V13H7L7 10H5.99999L5.99999 13.5C5.99999 13.6417 6.04791 13.7604 6.14375 13.8562C6.23958 13.9521 6.35833 14 6.5 14L9.50003 14C9.6417 14 9.76045 13.9521 9.85628 13.8562C9.95212 13.7604 10 13.6417 10 13.5Z" fill="black"/>
<path fill-rule="evenodd" clip-rule="evenodd" d="M12 13V14H11V10.75C11 10.3358 11.3358 10 11.75 10H13.25C13.6642 10 14 10.3358 14 10.75V14H13V13H12ZM12 12V11H13V12H12Z" fill="black"/>
</svg>
