<svg width="20" height="20" viewBox="0 0 20 20" fill="none" xmlns="http://www.w3.org/2000/svg">
<path d="M4.5 17C4.08333 17 3.72933 16.8507 3.438 16.552C3.146 16.2533 3 15.9027 3 15.5V4.5C3 4.09733 3.146 3.74667 3.438 3.448C3.72933 3.14933 4.08333 3 4.5 3H15.5C15.9167 3 16.2707 3.14933 16.562 3.448C16.854 3.74667 17 4.09733 17 4.5V15.5C17 15.9027 16.854 16.2533 16.562 16.552C16.2707 16.8507 15.9167 17 15.5 17H4.5ZM4.5 15.5H15.5V4.5H4.5V15.5ZM5.5 14H14.5L11.5 10L9.25 13L7.75 11L5.5 14Z" fill="black"/>
</svg>
