<svg width="20" height="20" viewBox="0 0 20 20" fill="none" xmlns="http://www.w3.org/2000/svg">
<path d="M7 16L4 13L7 10L8.0625 11.0625L6.875 12.25H10V13.75H6.875L8.0625 14.9375L7 16ZM12.2544 13.75C12.0431 13.75 11.8646 13.6785 11.7188 13.5356C11.5729 13.3927 11.5 13.2156 11.5 13.0044C11.5 12.7931 11.5715 12.6146 11.7144 12.4688C11.8573 12.3229 12.0344 12.25 12.2456 12.25C12.4569 12.25 12.6354 12.3215 12.7813 12.4644C12.9271 12.6073 13 12.7844 13 12.9956C13 13.2069 12.9285 13.3854 12.7856 13.5313C12.6427 13.6771 12.4656 13.75 12.2544 13.75ZM15.2544 13.75C15.0431 13.75 14.8646 13.6785 14.7188 13.5356C14.5729 13.3927 14.5 13.2156 14.5 13.0044C14.5 12.7931 14.5715 12.6146 14.7144 12.4688C14.8573 12.3229 15.0344 12.25 15.2456 12.25C15.4569 12.25 15.6354 12.3215 15.7813 12.4644C15.9271 12.6073 16 12.7844 16 12.9956C16 13.2069 15.9285 13.3854 15.7856 13.5313C15.6427 13.6771 15.4656 13.75 15.2544 13.75ZM14 10L12.9375 8.9375L14.125 7.75H11V6.25H14.125L12.9375 5.0625L14 4L17 7L14 10ZM5.7544 7.75C5.54313 7.75 5.36458 7.67855 5.21875 7.53565C5.07292 7.39273 5 7.21565 5 7.0044C5 6.79313 5.07145 6.61458 5.21435 6.46875C5.35727 6.32292 5.53435 6.25 5.7456 6.25C5.95687 6.25 6.13542 6.32145 6.28125 6.46435C6.42708 6.60727 6.5 6.78435 6.5 6.9956C6.5 7.20687 6.42855 7.38542 6.28565 7.53125C6.14273 7.67708 5.96565 7.75 5.7544 7.75ZM8.7544 7.75C8.54313 7.75 8.36458 7.67855 8.21875 7.53565C8.07292 7.39273 8 7.21565 8 7.0044C8 6.79313 8.07145 6.61458 8.21435 6.46875C8.35727 6.32292 8.53435 6.25 8.7456 6.25C8.95687 6.25 9.13542 6.32145 9.28125 6.46435C9.42708 6.60727 9.5 6.78435 9.5 6.9956C9.5 7.20687 9.42855 7.38542 9.28565 7.53125C9.14273 7.67708 8.96565 7.75 8.7544 7.75Z" fill="black"/>
</svg>
