<svg width="20" height="20" viewBox="0 0 20 20" fill="none" xmlns="http://www.w3.org/2000/svg">
<path d="M11.854 9.74999L10.792 8.66699L13.396 5.49999H7.625L6.125 3.99999H15.5C15.708 3.99999 15.8573 4.09366 15.948 4.28099C16.038 4.46832 16.0207 4.64532 15.896 4.81199L11.854 9.74999ZM16 18.125L11 13.125V15.5C11 15.6387 10.9513 15.7567 10.854 15.854C10.7567 15.9513 10.6387 16 10.5 16H9.5C9.36133 16 9.24333 15.9513 9.146 15.854C9.04867 15.7567 9 15.6387 9 15.5V11.125L1.875 3.99999L2.938 2.93799L17.062 17.062L16 18.125Z" fill="black"/>
</svg>
