<svg width="20" height="20" viewBox="0 0 20 20" fill="none" xmlns="http://www.w3.org/2000/svg">
<path d="M9.50002 16C9.36135 16 9.24335 15.9513 9.14602 15.854C9.04869 15.7567 9.00002 15.6387 9.00002 15.5V10.771L4.10402 4.812C3.97936 4.64533 3.96202 4.46833 4.05202 4.281C4.14269 4.09367 4.29202 4 4.50002 4H15.5C15.708 4 15.8574 4.09367 15.948 4.281C16.038 4.46833 16.0207 4.64533 15.896 4.812L11 10.771V15.5C11 15.6387 10.9514 15.7567 10.854 15.854C10.7567 15.9513 10.6387 16 10.5 16H9.50002ZM10 9.625L13.375 5.5H6.60402L10 9.625Z" fill="black"/>
</svg>
