<svg width="20" height="20" viewBox="0 0 20 20" fill="none" xmlns="http://www.w3.org/2000/svg">
<path d="M15.5 17C14.9307 17 14.4307 16.8333 14 16.5C13.5693 16.1667 13.2777 15.75 13.125 15.25H8.25C7.486 15.25 6.83667 14.9827 6.302 14.448C5.76733 13.9133 5.5 13.264 5.5 12.5C5.5 11.736 5.76733 11.0867 6.302 10.552C6.83667 10.0173 7.486 9.75 8.25 9.75H10.75C11.236 9.75 11.6493 9.58 11.99 9.24C12.33 8.89933 12.5 8.486 12.5 8C12.5 7.514 12.33 7.10067 11.99 6.76C11.6493 6.42 11.236 6.25 10.75 6.25H6.875C6.72233 6.75 6.43067 7.16667 6 7.5C5.56933 7.83333 5.06933 8 4.5 8C3.80533 8 3.215 7.757 2.729 7.271C2.243 6.785 2 6.19467 2 5.5C2 4.80533 2.243 4.215 2.729 3.729C3.215 3.243 3.80533 3 4.5 3C5.06933 3 5.56933 3.16667 6 3.5C6.43067 3.83333 6.72233 4.25 6.875 4.75H10.75C11.6527 4.75 12.42 5.066 13.052 5.698C13.684 6.33 14 7.09733 14 8C14 8.90267 13.684 9.67 13.052 10.302C12.42 10.934 11.6527 11.25 10.75 11.25H8.25C7.90267 11.25 7.60767 11.3717 7.365 11.615C7.12167 11.8577 7 12.1527 7 12.5C7 12.8473 7.12167 13.1423 7.365 13.385C7.60767 13.6283 7.90267 13.75 8.25 13.75H13.125C13.2777 13.25 13.5693 12.8333 14 12.5C14.4307 12.1667 14.9307 12 15.5 12C16.1947 12 16.785 12.243 17.271 12.729C17.757 13.215 18 13.8053 18 14.5C18 15.1947 17.757 15.785 17.271 16.271C16.785 16.757 16.1947 17 15.5 17ZM4.5 6.5C4.778 6.5 5.014 6.40267 5.208 6.208C5.40267 6.014 5.5 5.778 5.5 5.5C5.5 5.222 5.40267 4.986 5.208 4.792C5.014 4.59733 4.778 4.5 4.5 4.5C4.222 4.5 3.986 4.59733 3.792 4.792C3.59733 4.986 3.5 5.222 3.5 5.5C3.5 5.778 3.59733 6.014 3.792 6.208C3.986 6.40267 4.222 6.5 4.5 6.5Z" fill="black"/>
</svg>
