<svg width="20" height="20" viewBox="0 0 20 20" fill="none" xmlns="http://www.w3.org/2000/svg">
<g clip-path="url(#clip0_4031_4372)">
<path d="M10.0833 14L11.9375 12.5833L13.7917 14L13.0833 11.7292L14.9375 10.25H12.6667L11.9375 8L11.2292 10.25H8.9375L10.7917 11.7292L10.0833 14ZM3.5 16C3.09722 16 2.74306 15.8542 2.4375 15.5625C2.14583 15.2569 2 14.9028 2 14.5V5.5C2 5.08333 2.14583 4.72917 2.4375 4.4375C2.74306 4.14583 3.09722 4 3.5 4H8L10 6H16.5C16.9167 6 17.2708 6.14583 17.5625 6.4375C17.8542 6.72917 18 7.08333 18 7.5V14.5C18 14.9028 17.8542 15.2569 17.5625 15.5625C17.2708 15.8542 16.9167 16 16.5 16H3.5ZM3.5 14.5H16.5V7.5H9.375L7.375 5.5H3.5V14.5ZM3.5 14.5V5.5V7.5V14.5Z" fill="#474747"/>
</g>
<defs>
<clipPath id="clip0_4031_4372">
<rect width="20" height="20" fill="white"/>
</clipPath>
</defs>
</svg>
