<svg width="57" height="26" viewBox="0 0 57 26" fill="none" xmlns="http://www.w3.org/2000/svg">
<path d="M37.8354 6.97422L34.9026 10.6776L33.0631 13.0009L29.9954 9.12688C29.521 8.56621 28.9209 8.48183 28.6022 8.48183C28.2834 8.48183 27.6833 8.56621 27.2089 9.12688L24.1412 13.0009L22.3429 15.2736L22.3035 15.3242L22.2623 15.3767L19.3708 19.0277L18.047 20.7003C18.0188 20.7359 17.9907 20.7697 17.9626 20.8034C16.0912 23.0498 13.4247 24.2668 10.6476 24.2668C9.55629 24.2668 8.44808 24.0793 7.36425 23.6911C3.49769 22.3035 1 18.7501 1 14.6361V11.3639C1 13.4303 2.67451 15.1048 4.74092 15.1048C6.80733 15.1048 8.48183 13.4303 8.48183 11.3639V14.6361C8.48183 15.9955 9.46441 16.4943 9.88819 16.6462C10.3063 16.7962 11.3677 17.0325 12.2171 16.0087L14.6004 13.0009L16.4118 10.7133L16.44 10.6776L16.4606 10.6514L19.3727 6.97422L21.3753 4.44652C21.3903 4.42777 21.4053 4.40902 21.4203 4.39214C23.1942 2.23572 25.8138 1 28.6059 1C31.398 1 34.0176 2.23572 35.7915 4.39214C35.8065 4.41089 35.8215 4.42777 35.8365 4.44652L37.8391 6.97422H37.8354Z" fill="#4285F4" stroke="#202124" stroke-width="0.853016" stroke-miterlimit="10"/>
<path d="M18.0451 5.3041L19.3689 6.97673L16.4568 10.6539L16.4362 10.6801L16.4081 10.7158L14.5967 13.0035L12.2152 9.99572C11.3658 8.97189 10.3045 9.20816 9.88632 9.35817C9.46441 9.51005 8.47996 10.0088 8.47996 11.3683C8.47996 13.4347 6.80545 15.1092 4.73904 15.1092C2.67263 15.1092 1 13.431 1 11.3646C1 7.2505 3.49769 3.6971 7.36424 2.31137C11.2027 0.935011 15.3542 2.06947 17.9607 5.19722C17.9888 5.23097 18.0188 5.2666 18.047 5.30035L18.0451 5.3041Z" fill="#EA4335" stroke="#202124" stroke-width="0.853016" stroke-miterlimit="10"/>
<path d="M22.3424 15.2715L22.303 15.3221L22.2617 15.3746C22.2898 15.3409 22.3161 15.3071 22.3424 15.2734V15.2715Z" fill="#EA4335" stroke="#202124" stroke-width="0.853016" stroke-miterlimit="10"/>
<path d="M16.4102 10.7132C16.4254 10.6922 16.4425 10.6713 16.4596 10.6504L16.4387 10.677L16.4102 10.7132Z" fill="#34A853" stroke="#202124" stroke-width="0.853016" stroke-miterlimit="10"/>
<path d="M56.2064 11.3638V14.6359C56.2064 12.5695 54.5319 10.895 52.4655 10.895C50.3991 10.895 48.7246 12.5695 48.7246 14.6359V11.3638C48.7246 10.0043 47.742 9.50549 47.3182 9.3536C46.9 9.20359 45.8387 8.96732 44.9893 9.99115L42.6078 12.9989L40.7964 15.2866L40.7683 15.3222L40.7477 15.3484L37.8356 19.0256L35.8329 21.5533C35.8179 21.572 35.8029 21.5908 35.7879 21.6077C34.014 23.7622 31.3945 24.9998 28.6024 24.9998C25.8103 24.9998 23.1907 23.7641 21.4168 21.6077C21.4018 21.5889 21.3868 21.572 21.3718 21.5533L19.3691 19.0237L22.2606 15.3728C22.2887 15.3391 22.315 15.3053 22.3412 15.2716L24.1395 12.9989L27.2073 16.8729C27.6817 17.4336 28.2817 17.518 28.6005 17.518C28.9193 17.518 29.5193 17.4336 29.9918 16.8729L33.0596 12.9989L34.8691 10.7131L34.8972 10.6775L34.9235 10.6437L37.83 6.97404L39.1538 5.30141C39.1819 5.26578 39.2119 5.23015 39.2401 5.1964C41.8465 2.06866 45.9981 0.936069 49.8365 2.31055C53.7012 3.69628 56.2008 7.24969 56.2008 11.3638H56.2064Z" fill="#34A853" stroke="#202124" stroke-width="0.853016" stroke-miterlimit="10"/>
<path d="M34.8721 10.7149C34.8892 10.6921 34.9082 10.6674 34.9272 10.6445L34.9006 10.6788L34.8721 10.7149Z" fill="#FBBC04" stroke="#202124" stroke-width="0.853016" stroke-miterlimit="10"/>
<path d="M56.2058 14.6353C56.2058 18.7494 53.7081 22.3028 49.8415 23.6885C48.7577 24.0767 47.6495 24.2642 46.5581 24.2642C43.7829 24.2642 41.1165 23.0472 39.2451 20.8008C39.2151 20.767 39.1869 20.7314 39.1588 20.6958L37.835 19.0231L40.7471 15.346L40.7677 15.3197L40.7958 15.2841L42.6072 12.9964L44.9886 16.0041C45.8381 17.028 46.9013 16.7917 47.3176 16.6417C47.7395 16.4898 48.7239 15.991 48.7239 14.6315C48.7239 12.5651 50.3984 10.8906 52.4648 10.8906C54.5313 10.8906 56.2058 12.5651 56.2058 14.6315V14.6353Z" fill="#FBBC04" stroke="#202124" stroke-width="0.853016" stroke-miterlimit="10"/>
</svg>
