<svg width="20" height="20" viewBox="0 0 20 20" fill="none" xmlns="http://www.w3.org/2000/svg">
<path d="M5.125 10L4.854 8.833C4.65933 8.76367 4.47867 8.68033 4.312 8.583C4.14533 8.48633 3.98567 8.37533 3.833 8.25L2.667 8.604L2 7.438L2.875 6.604C2.847 6.40933 2.82967 6.208 2.823 6C2.81567 5.792 2.833 5.59067 2.875 5.396L2 4.604L2.667 3.438L3.812 3.771C3.96533 3.63167 4.12867 3.51367 4.302 3.417C4.47533 3.31967 4.65933 3.23633 4.854 3.167L5.125 2H6.458L6.729 3.167C6.92367 3.23633 7.11133 3.31967 7.292 3.417C7.472 3.51367 7.63867 3.63167 7.792 3.771L8.938 3.438L9.583 4.604L8.75 5.375C8.79133 5.58367 8.812 5.792 8.812 6C8.812 6.208 8.79133 6.41633 8.75 6.625L9.604 7.458L8.938 8.604L7.771 8.25C7.61833 8.38867 7.455 8.50333 7.281 8.594C7.10767 8.684 6.92367 8.76367 6.729 8.833L6.458 10H5.125ZM5.812 7.5C6.22933 7.5 6.58367 7.354 6.875 7.062C7.16633 6.77067 7.312 6.41667 7.312 6C7.312 5.58333 7.16633 5.22933 6.875 4.938C6.58367 4.646 6.22933 4.5 5.812 4.5C5.396 4.5 5.042 4.646 4.75 4.938C4.458 5.22933 4.312 5.58333 4.312 6C4.312 6.41667 4.458 6.77067 4.75 7.062C5.042 7.354 5.396 7.5 5.812 7.5ZM12.896 18L12.562 16.521C12.326 16.4377 12.1003 16.337 11.885 16.219C11.6697 16.101 11.465 15.9587 11.271 15.792L9.833 16.25L9 14.792L10.083 13.771C10.0277 13.521 10 13.2673 10 13.01C10 12.7533 10.0277 12.5 10.083 12.25L9 11.25L9.833 9.792L11.25 10.229C11.4447 10.0623 11.653 9.913 11.875 9.781C12.097 9.649 12.326 9.54133 12.562 9.458L12.896 8H14.562L14.917 9.458C15.167 9.54133 15.403 9.64567 15.625 9.771C15.847 9.89567 16.0553 10.0483 16.25 10.229L17.667 9.792L18.5 11.25L17.438 12.229C17.4933 12.493 17.521 12.7533 17.521 13.01C17.521 13.2673 17.4933 13.528 17.438 13.792L18.5 14.792L17.667 16.25L16.25 15.792C16.0553 15.9587 15.8437 16.1043 15.615 16.229C15.3857 16.3543 15.153 16.4587 14.917 16.542L14.562 18H12.896ZM13.75 15C14.3053 15 14.7777 14.8057 15.167 14.417C15.5557 14.0277 15.75 13.5553 15.75 13C15.75 12.4447 15.5557 11.9723 15.167 11.583C14.7777 11.1943 14.3053 11 13.75 11C13.1947 11 12.7223 11.1943 12.333 11.583C11.9443 11.9723 11.75 12.4447 11.75 13C11.75 13.5553 11.9443 14.0277 12.333 14.417C12.7223 14.8057 13.1947 15 13.75 15Z" fill="black"/>
</svg>
