<svg width="20" height="20" viewBox="0 0 20 20" fill="none" xmlns="http://www.w3.org/2000/svg">
<path fill-rule="evenodd" clip-rule="evenodd" d="M11.353 17.5H8.64432C8.10259 17.5 7.64871 17.1047 7.58283 16.5703L7.38517 15.1867C7.18752 15.0842 6.99718 14.9744 6.80684 14.8499L5.48913 15.377C4.97669 15.5674 4.413 15.3551 4.1641 14.9012L2.82442 12.5805C2.5682 12.0974 2.67801 11.5264 3.08797 11.2042L4.20802 10.3331C4.2007 10.2233 4.19338 10.1135 4.19338 9.99634C4.19338 9.88653 4.2007 9.7694 4.20802 9.65959L3.09529 8.78843C2.66337 8.459 2.55356 7.86603 2.82442 7.41215L4.17874 5.07687C4.42764 4.62299 4.99133 4.41801 5.48913 4.61567L6.81416 5.15007C7.0045 5.02562 7.19484 4.91581 7.38517 4.81332L7.58283 3.41508C7.64871 2.90264 8.10259 2.5 8.637 2.5H11.3456C11.8874 2.5 12.3412 2.89531 12.4071 3.42972L12.6048 4.81332C12.8024 4.91581 12.9928 5.02562 13.1831 5.15007L14.5008 4.62299C15.0206 4.43265 15.5843 4.64495 15.8332 5.09883L17.1802 7.42679C17.4437 7.90996 17.3266 8.48097 16.9166 8.80307L15.8039 9.67423C15.8112 9.78404 15.8185 9.89385 15.8185 10.011C15.8185 10.1281 15.8112 10.2379 15.8039 10.3477L16.9166 11.2189C17.3266 11.5483 17.4437 12.1193 17.1875 12.5805L15.8259 14.9378C15.5769 15.3917 15.0133 15.5966 14.5081 15.399L13.1904 14.8719C13.0001 14.9963 12.8098 15.1061 12.6194 15.2086L12.4218 16.6069C12.3486 17.1047 11.8947 17.5 11.353 17.5ZM12.561 9.99623C12.561 11.4113 11.4138 12.5585 9.99875 12.5585C8.58367 12.5585 7.43653 11.4113 7.43653 9.99623C7.43653 8.58115 8.58367 7.43401 9.99875 7.43401C11.4138 7.43401 12.561 8.58115 12.561 9.99623Z" fill="black"/>
</svg>
