<svg width="20" height="20" viewBox="0 0 20 20" fill="none" xmlns="http://www.w3.org/2000/svg">
<path d="M2.14582 16.1875C2.47916 16.507 2.87499 16.6667 3.33332 16.6667H7.5V15H3.33332V6.66671H16.6667V11.6666H18.3333V5.00004C18.3333 4.54171 18.1667 4.15282 17.8333 3.83337C17.5139 3.50004 17.125 3.33337 16.6667 3.33337H3.33332C2.87499 3.33337 2.47916 3.50004 2.14582 3.83337C1.82638 4.15282 1.66666 4.54171 1.66666 5.00004V15C1.66666 15.4584 1.82638 15.8542 2.14582 16.1875Z" fill="black"/>
<path d="M9.16666 15.8334L12.1667 18.8334L13.3333 17.6459L11.5208 15.8334L13.3333 14.0209L12.1667 12.8334L9.16666 15.8334Z" fill="black"/>
<path d="M15 17.6459L16.1667 18.8334L19.1667 15.8334L16.1667 12.8334L15 14.0209L16.8125 15.8334L15 17.6459Z" fill="black"/>
</svg>
