<svg width="20" height="20" viewBox="0 0 20 20" fill="none" xmlns="http://www.w3.org/2000/svg">
<path d="M10.0058 18C8.90472 18 7.86806 17.7917 6.89583 17.375C5.92361 16.9583 5.07292 16.3854 4.34375 15.6563C3.61458 14.9271 3.04167 14.0767 2.625 13.105C2.20833 12.1333 2 11.0951 2 9.99042C2 8.88569 2.20833 7.85069 2.625 6.88542C3.04167 5.92014 3.61458 5.07292 4.34375 4.34375C5.07292 3.61458 5.92333 3.04167 6.895 2.625C7.86667 2.20833 8.90486 2 10.0096 2C11.1143 2 12.1493 2.20833 13.1146 2.625C14.0799 3.04167 14.9271 3.61458 15.6563 4.34375C16.3854 5.07292 16.9583 5.92167 17.375 6.89C17.7917 7.85847 18 8.89319 18 9.99417C18 11.0953 17.7917 12.1319 17.375 13.1042C16.9583 14.0764 16.3854 14.9271 15.6563 15.6563C14.9271 16.3854 14.0783 16.9583 13.11 17.375C12.1415 17.7917 11.1068 18 10.0058 18ZM10 16.5C11.6944 16.5 13.1528 15.9375 14.375 14.8125C15.5972 13.6875 16.2917 12.2986 16.4583 10.6458C16.3333 10.7569 16.191 10.8438 16.0313 10.9063C15.8715 10.9688 15.6944 11 15.5 11H12.5C12.0875 11 11.7344 10.8531 11.4406 10.5594C11.1469 10.2656 11 9.9125 11 9.5V8.5H7.5V6.5C7.5 6.0875 7.64688 5.73438 7.94063 5.44063C8.23438 5.14688 8.5875 5 9 5H10V4.5C10 4.30556 10.0347 4.125 10.1042 3.95833C10.1736 3.79167 10.2639 3.64583 10.375 3.52083C10.3333 3.50694 10.2639 3.5 10.1667 3.5H10C8.19444 3.5 6.65972 4.13194 5.39583 5.39583C4.13194 6.65972 3.5 8.19444 3.5 10H8C8.83333 10 9.54167 10.2917 10.125 10.875C10.7083 11.4583 11 12.1667 11 13V14H8V16.1875C8.31944 16.2986 8.64396 16.3785 8.97354 16.4271C9.30299 16.4757 9.64514 16.5 10 16.5Z" fill="black"/>
</svg>
