<svg width="20" height="20" viewBox="0 0 20 20" fill="none" xmlns="http://www.w3.org/2000/svg">
<path d="M10 18C8.88889 18 7.84722 17.7917 6.875 17.375C5.90278 16.9583 5.05556 16.3889 4.33333 15.6667C3.61111 14.9444 3.04167 14.0972 2.625 13.125C2.20833 12.1528 2 11.1111 2 10C2 8.88889 2.20833 7.85069 2.625 6.88542C3.04167 5.92014 3.61111 5.07292 4.33333 4.34375C5.05556 3.61458 5.90278 3.04167 6.875 2.625C7.84722 2.20833 8.88889 2 10 2C11 2 11.9549 2.18056 12.8646 2.54167C13.7743 2.90278 14.6042 3.41667 15.3542 4.08333L13.0833 6.29167C12.6667 5.91667 12.1944 5.625 11.6667 5.41667C11.1389 5.20833 10.5833 5.10417 10 5.10417C8.65278 5.10417 7.51389 5.58681 6.58333 6.55208C5.65278 7.51736 5.1875 8.66667 5.1875 10C5.1875 11.3472 5.65278 12.5 6.58333 13.4583C7.51389 14.4167 8.65278 14.8958 10 14.8958C11.125 14.8958 12.0938 14.5799 12.9063 13.9479C13.7188 13.316 14.2153 12.5069 14.3958 11.5208H10V8.54167H17.5C17.5694 8.83333 17.6181 9.11111 17.6458 9.375C17.6736 9.63889 17.6875 9.90972 17.6875 10.1875C17.6875 12.5347 16.9792 14.4236 15.5625 15.8542C14.1458 17.2847 12.2917 18 10 18Z" fill="black"/>
</svg>
