<svg width="20" height="20" viewBox="0 0 20 20" fill="none" xmlns="http://www.w3.org/2000/svg">
<g clip-path="url(#clip0_4467_2516)">
<path d="M4.5 17C4.08333 17 3.72917 16.8542 3.4375 16.5625C3.14583 16.2708 3 15.9167 3 15.5V4.5C3 4.08333 3.14583 3.72917 3.4375 3.4375C3.72917 3.14583 4.08333 3 4.5 3H15.5C15.9167 3 16.2708 3.14583 16.5625 3.4375C16.8542 3.72917 17 4.08333 17 4.5V15.5C17 15.9167 16.8542 16.2708 16.5625 16.5625C16.2708 16.8542 15.9167 17 15.5 17H4.5ZM4.5 15.5H7.16667V12.8333H4.5V15.5ZM8.66667 15.5H11.3333V12.8333H8.66667V15.5ZM12.8333 15.5H15.5V12.8333H12.8333V15.5ZM4.5 11.3333H7.16667V8.66667H4.5V11.3333ZM8.66667 11.3333H11.3333V8.66667H8.66667V11.3333ZM12.8333 11.3333H15.5V8.66667H12.8333V11.3333ZM4.5 7.16667H7.16667V4.5H4.5V7.16667ZM8.66667 7.16667H11.3333V4.5H8.66667V7.16667ZM12.8333 7.16667H15.5V4.5H12.8333V7.16667Z" fill="black"/>
</g>
<defs>
<clipPath id="clip0_4467_2516">
<rect width="20" height="20" fill="white"/>
</clipPath>
</defs>
</svg>
