<svg width="20" height="20" viewBox="0 0 20 20" fill="none" xmlns="http://www.w3.org/2000/svg">
<path d="M2 16V14.0833C2 13.7222 2.08333 13.3958 2.25 13.1042C2.43056 12.7986 2.67361 12.5556 2.97917 12.375C3.72917 11.9306 4.52083 11.5903 5.35417 11.3542C6.20139 11.1181 7.08333 11 8 11C8.91667 11 9.79167 11.1181 10.625 11.3542C11.4722 11.5903 12.2708 11.9306 13.0208 12.375C13.3264 12.5556 13.5625 12.7986 13.7292 13.1042C13.9097 13.3958 14 13.7222 14 14.0833V16H2ZM15.5 16V14.0833C15.5 13.5 15.3611 12.9583 15.0833 12.4583C14.8194 11.9583 14.4583 11.5486 14 11.2292C14.5417 11.3403 15.0625 11.4931 15.5625 11.6875C16.0764 11.8681 16.5625 12.0972 17.0208 12.375C17.3264 12.5556 17.5625 12.7986 17.7292 13.1042C17.9097 13.3958 18 13.7222 18 14.0833V16H15.5ZM8 10C7.16667 10 6.45833 9.70833 5.875 9.125C5.29167 8.54167 5 7.83333 5 7C5 6.16667 5.29167 5.45833 5.875 4.875C6.45833 4.29167 7.16667 4 8 4C8.83333 4 9.54167 4.29167 10.125 4.875C10.7083 5.45833 11 6.16667 11 7C11 7.83333 10.7083 8.54167 10.125 9.125C9.54167 9.70833 8.83333 10 8 10ZM15 7C15 7.83333 14.7083 8.54167 14.125 9.125C13.5417 9.70833 12.8333 10 12 10C11.8889 10 11.7847 10 11.6875 10C11.5903 9.98611 11.4861 9.96528 11.375 9.9375C11.7222 9.53472 11.9931 9.09028 12.1875 8.60417C12.3958 8.10417 12.5 7.56944 12.5 7C12.5 6.43056 12.3958 5.90278 12.1875 5.41667C11.9931 4.91667 11.7222 4.46528 11.375 4.0625C11.4861 4.03472 11.5903 4.02083 11.6875 4.02083C11.7847 4.00694 11.8889 4 12 4C12.8333 4 13.5417 4.29167 14.125 4.875C14.7083 5.45833 15 6.16667 15 7ZM3.5 14.5H12.5V14.0833C12.5 14 12.4792 13.9236 12.4375 13.8542C12.3958 13.7708 12.3403 13.7083 12.2708 13.6667C11.6181 13.2917 10.9306 13.0069 10.2083 12.8125C9.48611 12.6042 8.75 12.5 8 12.5C7.25 12.5 6.51389 12.5972 5.79167 12.7917C5.06944 12.9861 4.38194 13.2778 3.72917 13.6667C3.65972 13.7083 3.60417 13.7639 3.5625 13.8333C3.52083 13.9028 3.5 13.9861 3.5 14.0833V14.5ZM8 8.5C8.41667 8.5 8.77083 8.35417 9.0625 8.0625C9.35417 7.77083 9.5 7.41667 9.5 7C9.5 6.58333 9.35417 6.22917 9.0625 5.9375C8.77083 5.64583 8.41667 5.5 8 5.5C7.58333 5.5 7.22917 5.64583 6.9375 5.9375C6.64583 6.22917 6.5 6.58333 6.5 7C6.5 7.41667 6.64583 7.77083 6.9375 8.0625C7.22917 8.35417 7.58333 8.5 8 8.5Z" fill="black"/>
</svg>
