<svg width="20" height="20" viewBox="0 0 20 20" fill="none" xmlns="http://www.w3.org/2000/svg">
    <path fill="black"
        d="M 8.292969 17.5 C 7.917969 17.5 7.558594 17.421875 7.21875 17.261719 C 6.878906 17.101562 6.589844 16.875 6.355469 16.582031 L 0.957031 9.9375 L 1.5 9.417969 C 1.765625 9.152344 2.078125 9 2.4375 8.957031 C 2.796875 8.917969 3.125 9 3.417969 9.207031 L 5.832031 10.894531 L 5.832031 2.5 C 5.832031 2.265625 5.914062 2.066406 6.074219 1.90625 C 6.234375 1.746094 6.429688 1.667969 6.667969 1.667969 C 6.902344 1.667969 7.101562 1.746094 7.261719 1.90625 C 7.421875 2.066406 7.5 2.265625 7.5 2.5 L 7.5 14.105469 L 5.1875 12.480469 L 7.644531 15.519531 C 7.730469 15.617188 7.828125 15.695312 7.9375 15.75 C 8.046875 15.804688 8.167969 15.832031 8.292969 15.832031 L 14.167969 15.832031 C 14.625 15.832031 15.015625 15.671875 15.34375 15.34375 C 15.671875 15.015625 15.832031 14.625 15.832031 14.167969 L 15.832031 8.332031 C 15.832031 8.097656 15.914062 7.898438 16.074219 7.738281 C 16.234375 7.578125 16.429688 7.5 16.667969 7.5 C 16.902344 7.5 17.101562 7.578125 17.261719 7.738281 C 17.421875 7.898438 17.5 8.097656 17.5 8.332031 L 17.5 14.167969 C 17.5 15.082031 17.171875 15.867188 16.519531 16.519531 C 15.867188 17.171875 15.082031 17.5 14.167969 17.5 Z M 9.167969 10.832031 L 9.167969 5.832031 C 9.167969 5.597656 9.246094 5.398438 9.40625 5.238281 C 9.566406 5.078125 9.765625 5 10 5 C 10.234375 5 10.433594 5.078125 10.59375 5.238281 C 10.753906 5.398438 10.832031 5.597656 10.832031 5.832031 L 10.832031 10.832031 Z M 12.5 10.832031 L 12.5 6.667969 C 12.5 6.429688 12.578125 6.234375 12.738281 6.074219 C 12.898438 5.914062 13.097656 5.832031 13.332031 5.832031 C 13.570312 5.832031 13.765625 5.914062 13.925781 6.074219 C 14.085938 6.234375 14.167969 6.429688 14.167969 6.667969 L 14.167969 10.832031 Z M 10.832031 12.5 Z M 10.832031 12.5 " />
</svg>