<svg width="20" height="20" viewBox="0 0 20 20" fill="none" xmlns="http://www.w3.org/2000/svg">
<path d="M12.9923 7.50226L8.33722 12.1574L9.51573 13.3359L14.1709 8.68077L12.9923 7.50226Z" fill="black"/>
<path d="M9.37498 9.58333C9.95028 9.58333 10.4166 9.11696 10.4166 8.54167C10.4166 7.96637 9.95028 7.5 9.37498 7.5C8.79968 7.5 8.33331 7.96637 8.33331 8.54167C8.33331 9.11696 8.79968 9.58333 9.37498 9.58333Z" fill="black"/>
<path d="M13.125 13.3333C13.7003 13.3333 14.1666 12.867 14.1666 12.2917C14.1666 11.7164 13.7003 11.25 13.125 11.25C12.5497 11.25 12.0833 11.7164 12.0833 12.2917C12.0833 12.867 12.5497 13.3333 13.125 13.3333Z" fill="black"/>
<path d="M15 19.1667H3.33329C2.41663 19.1667 1.66663 18.4167 1.66663 17.5V5.83334H3.33329V17.5H15V19.1667Z" fill="black"/>
<path d="M12.5 0.833344H6.66664C5.74998 0.833344 5.00831 1.58334 5.00831 2.50001V14.1667C4.99998 15.0833 5.74164 15.8333 6.65831 15.8333H15.8333C16.75 15.8333 17.5 15.0833 17.5 14.1667V5.83334L12.5 0.833344ZM15.8333 14.1667H6.66664V2.50001H11.6666V6.66668H15.8333V14.1667Z" fill="black"/>
</svg>
