<svg width="20" height="20" viewBox="0 0 20 20" fill="none" xmlns="http://www.w3.org/2000/svg">
<path d="M12.1141 8.78753L6.69879 14.2028L7.8773 15.3813L13.2926 9.96604L12.1141 8.78753Z" fill="black"/>
<path d="M7.91669 11.25C8.60704 11.25 9.16669 10.6904 9.16669 10C9.16669 9.30964 8.60704 8.75 7.91669 8.75C7.22633 8.75 6.66669 9.30964 6.66669 10C6.66669 10.6904 7.22633 11.25 7.91669 11.25Z" fill="black"/>
<path d="M12.0833 15.4167C12.7737 15.4167 13.3333 14.857 13.3333 14.1667C13.3333 13.4763 12.7737 12.9167 12.0833 12.9167C11.393 12.9167 10.8333 13.4763 10.8333 14.1667C10.8333 14.857 11.393 15.4167 12.0833 15.4167Z" fill="black"/>
<path d="M11.6667 1.66666H5.00002C4.08335 1.66666 3.34168 2.41666 3.34168 3.33332V16.6667C3.33335 17.5833 4.07502 18.3333 4.99168 18.3333H15C15.9167 18.3333 16.6667 17.5833 16.6667 16.6667V6.66666L11.6667 1.66666ZM5.00002 16.6667V3.33332H10.8334V7.49999H15V16.6667H5.00002Z" fill="black"/>
</svg>
