<svg width="20" height="20" viewBox="0 0 20 20" fill="none" xmlns="http://www.w3.org/2000/svg">
<path d="M19.9998 7.74005L18.091 13.7452H16.1555L14.2467 7.74005H15.8391L17.1206 12.4262L18.4074 7.74005H19.9998Z" fill="black"/>
<path d="M11.273 8.87136C10.8976 8.87136 10.6028 9.03757 10.3883 9.37C10.1738 9.69885 10.0666 10.1582 10.0666 10.748C10.0666 11.3377 10.1738 11.7988 10.3883 12.1313C10.6028 12.4601 10.8976 12.6246 11.273 12.6246C11.6519 12.6246 11.9485 12.4601 12.163 12.1313C12.3775 11.7988 12.4847 11.3377 12.4847 10.748C12.4847 10.1582 12.3775 9.69885 12.163 9.37C11.9485 9.03757 11.6519 8.87136 11.273 8.87136ZM8.49561 10.748C8.49561 9.77927 8.74582 9.01255 9.24624 8.44779C9.75024 7.87945 10.4258 7.59528 11.273 7.59528C12.1237 7.59528 12.7993 7.87945 13.2997 8.44779C13.8037 9.01255 14.0557 9.77927 14.0557 10.748C14.0557 11.7166 13.8037 12.4851 13.2997 13.0535C12.7993 13.6183 12.1237 13.9006 11.273 13.9006C10.4258 13.9006 9.75024 13.6183 9.24624 13.0535C8.74582 12.4851 8.49561 11.7166 8.49561 10.748Z" fill="black"/>
<path d="M7.75523 9.84719V13.7451H6.19497V10.0885C6.19497 9.65596 6.13242 9.34677 6.00731 9.1609C5.88578 8.97502 5.68561 8.88209 5.4068 8.88209C5.12084 8.88209 4.89744 9.00898 4.73659 9.26277C4.57574 9.51298 4.49531 9.86149 4.49531 10.3083V13.7451H2.93506V5.40234H4.49531V8.64081C4.60612 8.30839 4.79557 8.05102 5.06365 7.86873C5.33174 7.68643 5.65523 7.59528 6.03412 7.59528C6.60246 7.59528 7.0314 7.78473 7.32093 8.16362C7.61046 8.53894 7.75523 9.10013 7.75523 9.84719Z" fill="black"/>
<path d="M0 8.04565H1.78545V10.0027H0V8.04565ZM0 11.7774H1.78545V13.7451H0V11.7774Z" fill="black"/>
</svg>
