<svg width="18" height="18" viewBox="0 0 18 18" fill="none" xmlns="http://www.w3.org/2000/svg">
<path fill-rule="evenodd" clip-rule="evenodd" d="M4 9C4 6.24 6.24 4 9 4C11.76 4 14 6.24 14 9V9.715C14 10.7 13.235 11.5 12.25 11.5C11.655 11.5 11.095 11.21 10.77 10.765C10.32 11.22 9.69 11.5 9 11.5C7.62 11.5 6.5 10.38 6.5 9C6.5 7.62 7.62 6.5 9 6.5C10.38 6.5 11.5 7.62 11.5 9V9.715C11.5 10.11 11.855 10.5 12.25 10.5C12.645 10.5 13 10.11 13 9.715V9C13 6.83 11.17 5 9 5C6.83 5 5 6.83 5 9C5 11.17 6.83 13 9 13H11.5V14H9C6.24 14 4 11.76 4 9ZM7.5 9C7.5 9.83 8.17 10.5 9 10.5C9.83 10.5 10.5 9.83 10.5 9C10.5 8.17 9.83 7.5 9 7.5C8.17 7.5 7.5 8.17 7.5 9Z" fill="#202124"/>
</svg>
