<svg width="13" height="13" viewBox="0 0 13 13" fill="none" xmlns="http://www.w3.org/2000/svg">
<path d="M4.10957 3.68765L1.85969 6.5L4.10957 9.31235L4.89043 8.68765L3.54031 7H9.45968L8.10956 8.68765L8.89043 9.31235L11.1403 6.5L8.89043 3.68765L8.10956 4.31235L9.45968 6H3.54031L4.89043 4.31235L4.10957 3.68765Z" fill="#202124"/>
<path fill-rule="evenodd" clip-rule="evenodd" d="M12 1H1L1 12H12V1ZM1 0C0.447715 0 0 0.447715 0 1V12C0 12.5523 0.447715 13 1 13H12C12.5523 13 13 12.5523 13 12V1C13 0.447715 12.5523 0 12 0H1Z" fill="#CACDD1"/>
</svg>
