<svg width="18" height="18" viewBox="0 0 18 18" fill="none" xmlns="http://www.w3.org/2000/svg">
<path fill-rule="evenodd" clip-rule="evenodd" d="M13 14H5L5 4L13 4V14ZM14 14C14 14.5523 13.5523 15 13 15H5C4.44772 15 4 14.5523 4 14V4C4 3.44772 4.44772 3 5 3H13C13.5523 3 14 3.44772 14 4V14ZM10.7433 6.11333C10.8733 5.98333 11.0433 5.91667 11.2133 5.91667C11.3867 5.91667 11.5567 5.98333 11.6867 6.11667L12.1367 6.56667C12.3967 6.82667 12.3967 7.25 12.1367 7.51L9.54 10.1067C9.41 10.2367 9.24 10.3033 9.07 10.3033C8.9 10.3033 8.73 10.2367 8.6 10.1067L8.14667 9.65333C7.88667 9.39333 7.88667 8.97 8.14667 8.71L10.7433 6.11333ZM7.33333 9.75C6.78 9.75 6.33333 10.1967 6.33333 10.75C6.33333 11.1867 5.94667 11.4167 5.66667 11.4167C5.97333 11.8233 6.49667 12.0833 7 12.0833C7.73667 12.0833 8.33333 11.4867 8.33333 10.75C8.33333 10.1967 7.88667 9.75 7.33333 9.75Z" fill="#AE52FF"/>
</svg>
