<svg width="18" height="18" viewBox="0 0 18 18" fill="none" xmlns="http://www.w3.org/2000/svg">
<path fill-rule="evenodd" clip-rule="evenodd" d="M5 14H13V4L5 4L5 14ZM13 15C13.5523 15 14 14.5523 14 14V4C14 3.44772 13.5523 3 13 3H5C4.44772 3 4 3.44772 4 4V14C4 14.5523 4.44772 15 5 15H13ZM6.64645 10.1464L8.14645 8.64645L8.85355 9.35355L7.70711 10.5L8.85355 11.6464L8.14645 12.3536L6.64645 10.8536L6.29289 10.5L6.64645 10.1464ZM9.85355 8.64645L11.3536 10.1464L11.7071 10.5L11.3536 10.8536L9.85355 12.3536L9.14645 11.6464L10.2929 10.5L9.14645 9.35355L9.85355 8.64645Z" fill="#F0B300"/>
</svg>
