<svg width="16" height="16" viewBox="0 0 16 16" fill="none" xmlns="http://www.w3.org/2000/svg">
<g clip-path="url(#clip0_101_638)">
<path d="M5.34247 8.54807L2.42415 9.82267C1.94959 10.0299 1.94959 10.859 2.42415 11.0663L7.822 13.4239C7.93714 13.4742 8.06277 13.4742 8.17792 13.4239L13.576 11.0663C14.0506 10.859 14.0506 10.0299 13.576 9.82266L10.6576 8.54803L9.05598 9.24755L11.7964 10.4445L7.99996 12.1026L4.20373 10.4445L6.9441 9.24761L5.34247 8.54807Z" fill="black"/>
<path fill-rule="evenodd" clip-rule="evenodd" d="M4.20374 5.15001L7.99997 6.80809L11.7964 5.14999L8.0001 3.49191L4.20374 5.15001ZM2.42415 4.5282C1.94959 4.73547 1.94959 5.56454 2.42415 5.77181L7.822 8.12942C7.93715 8.17972 8.06277 8.17972 8.17792 8.12943L13.576 5.7718C14.0506 5.56453 14.0506 4.73546 13.576 4.52819L8.17806 2.17057C8.06291 2.12028 7.93729 2.12028 7.82214 2.17058L2.42415 4.5282Z" fill="black"/>
</g>
<defs>
<clipPath id="clip0_101_638">
<rect width="16" height="16" rx="2" fill="white"/>
</clipPath>
</defs>
</svg>
