<svg width="16" height="16" viewBox="0 0 16 16" fill="none" xmlns="http://www.w3.org/2000/svg">
<path d="M5.75 9.75V6.25H4.25V9.75H5.75Z" fill="black"/>
<path d="M7.25 6.25H8.75V9.75H7.25V6.25Z" fill="black"/>
<path d="M11.75 9.75V6.25H10.25V9.75H11.75Z" fill="black"/>
<path fill-rule="evenodd" clip-rule="evenodd" d="M5 2H3V3H2.5C1.67157 3 1 3.67157 1 4.5V11.5C1 12.3284 1.67157 13 2.5 13H3V14H5V13H7V14H9V13H11V14H13V13H13.5C14.3284 13 15 12.3284 15 11.5V4.5C15 3.67157 14.3284 3 13.5 3H13V2H11V3H9V2H7V3H5V2ZM2.5 4.5H13.5V11.5H2.5V4.5Z" fill="black"/>
</svg>
