<svg width="16" height="16" viewBox="0 0 16 16" fill="none" xmlns="http://www.w3.org/2000/svg">
<path d="M7.33333 14.6667C6.96667 14.6667 6.65289 14.5362 6.392 14.2753C6.13067 14.014 6 13.7 6 13.3333V10.6667H4C3.63333 10.6667 3.31956 10.536 3.05867 10.2747C2.79733 10.0138 2.66667 9.7 2.66667 9.33333V4.66667C2.66667 3.93333 2.92778 3.30556 3.45 2.78333C3.97222 2.26111 4.6 2 5.33333 2H13.3333V9.33333C13.3333 9.7 13.2029 10.0138 12.942 10.2747C12.6807 10.536 12.3667 10.6667 12 10.6667H10V13.3333C10 13.7 9.86956 14.014 9.60867 14.2753C9.34733 14.5362 9.03333 14.6667 8.66667 14.6667H7.33333ZM4 6.66667H12V3.33333H11.3333V6H10V3.33333H9.33333V4.66667H8V3.33333H5.33333C4.96667 3.33333 4.65289 3.464 4.392 3.72533C4.13067 3.98622 4 4.3 4 4.66667V6.66667ZM4 9.33333H12V8H4V9.33333ZM4 8V9.33333V8Z" fill="black"/>
</svg>
