<svg width="15" height="16" viewBox="0 0 15 16" fill="none" xmlns="http://www.w3.org/2000/svg">
<path fill-rule="evenodd" clip-rule="evenodd" d="M7.5 14.5C11.0899 14.5 14 11.5899 14 8C14 4.41015 11.0899 1.5 7.5 1.5C3.91015 1.5 1 4.41015 1 8C1 11.5899 3.91015 14.5 7.5 14.5ZM7.5 15.5C11.6421 15.5 15 12.1421 15 8C15 3.85786 11.6421 0.5 7.5 0.5C3.35786 0.5 0 3.85786 0 8C0 12.1421 3.35786 15.5 7.5 15.5Z" fill="black"/>
<path d="M10.3536 6.14652L7.50004 3.29297L4.64648 6.14652L5.35359 6.85363L7 5.20722V12H8V5.20714L9.64648 6.85363L10.3536 6.14652Z" fill="black"/>
</svg>
