<svg width="15" height="15" viewBox="0 0 15 15" fill="none" xmlns="http://www.w3.org/2000/svg">
<path fill-rule="evenodd" clip-rule="evenodd" d="M7.5 14C11.0899 14 14 11.0899 14 7.5C14 3.91015 11.0899 1 7.5 1C3.91015 1 1 3.91015 1 7.5C1 11.0899 3.91015 14 7.5 14ZM7.5 15C11.6421 15 15 11.6421 15 7.5C15 3.35786 11.6421 0 7.5 0C3.35786 0 0 3.35786 0 7.5C0 11.6421 3.35786 15 7.5 15Z" fill="black"/>
<path d="M7.85359 5.14652L5.50004 2.79297L3.14648 5.14652L3.85359 5.85363L5 4.70722V10H6V4.70714L7.14648 5.85363L7.85359 5.14652Z" fill="black"/>
<path d="M11.8536 9.85348L9.50004 12.207L7.14648 9.85348L7.85359 9.14637L9 10.2928V5H10V10.2929L11.1465 9.14637L11.8536 9.85348Z" fill="black"/>
</svg>
