<svg width="16" height="16" viewBox="0 0 16 16" fill="none" xmlns="http://www.w3.org/2000/svg">
<path fill-rule="evenodd" clip-rule="evenodd" d="M0.939346 8L4.46968 4.46967C4.76257 4.17678 5.23744 4.17678 5.53034 4.46967C5.82323 4.76256 5.82323 5.23744 5.53034 5.53033L3.06067 8L5.53034 10.4697C5.82323 10.7626 5.82323 11.2374 5.53034 11.5303C5.23744 11.8232 4.76257 11.8232 4.46968 11.5303L0.939346 8Z" fill="black"/>
<path fill-rule="evenodd" clip-rule="evenodd" d="M9.48821 2.44593C9.88831 2.55314 10.1257 2.96439 10.0185 3.36449L7.43035 13.0237C7.32314 13.4238 6.91189 13.6613 6.51179 13.5541C6.11169 13.4469 5.87425 13.0356 5.98146 12.6355L8.56965 2.97626C8.67686 2.57616 9.08811 2.33872 9.48821 2.44593Z" fill="black"/>
<path fill-rule="evenodd" clip-rule="evenodd" d="M15.0607 8L11.5303 4.46967C11.2374 4.17678 10.7626 4.17678 10.4697 4.46967C10.1768 4.76256 10.1768 5.23744 10.4697 5.53033L12.9393 8L10.4697 10.4697C10.1768 10.7626 10.1768 11.2374 10.4697 11.5303C10.7626 11.8232 11.2374 11.8232 11.5303 11.5303L15.0607 8Z" fill="black"/>
</svg>
