<svg width="20" height="20" viewBox="0 0 20 20" fill="none" xmlns="http://www.w3.org/2000/svg">
<path d="M16.729 18.833L13.875 16H3.49999C3.08333 16 2.72933 15.854 2.43799 15.562C2.14599 15.2707 1.99999 14.9167 1.99999 14.5V5.5C1.99999 5.08334 2.15266 4.72934 2.45799 4.438C2.76399 4.146 3.13199 4 3.56199 4H3.79199V5.896L1.16699 3.271L2.22899 2.229L17.771 17.771L16.729 18.833ZM3.49999 14.5H12.375L4.87499 7H3.49999V14.5ZM17.625 15.5L16.5 14.375V7H9.12499L6.12499 4H16.5C16.9167 4 17.2707 4.146 17.562 4.438C17.854 4.72934 18 5.08334 18 5.5V14.5C18 14.6947 17.9653 14.882 17.896 15.062C17.8267 15.2427 17.7363 15.3887 17.625 15.5ZM15 12.875L14 11.875V9.5H11.625L10.625 8.5H15V12.875Z" fill="black"/>
</svg>
