<svg width="20" height="20" viewBox="0 0 20 20" fill="none" xmlns="http://www.w3.org/2000/svg">
<path d="M4.5 17C4.08333 17 3.72917 16.8542 3.4375 16.5625C3.14583 16.2708 3 15.9167 3 15.5V12H4.5V15.5H8V17H4.5ZM15.5 17H12V15.5H15.5V12H17V15.5C17 15.9167 16.8542 16.2708 16.5625 16.5625C16.2708 16.8542 15.9167 17 15.5 17ZM3 4.5C3 4.08333 3.14583 3.72917 3.4375 3.4375C3.72917 3.14583 4.08333 3 4.5 3H8V4.5H4.5V8H3V4.5ZM17 4.5V8H15.5V4.5H12V3H15.5C15.9167 3 16.2708 3.14583 16.5625 3.4375C16.8542 3.72917 17 4.08333 17 4.5ZM10 14.5C10.2639 14.5 10.4861 14.4097 10.6667 14.2292C10.8472 14.0347 10.9375 13.8056 10.9375 13.5417C10.9375 13.2778 10.8472 13.0625 10.6667 12.8958C10.4861 12.7153 10.2639 12.625 10 12.625C9.73611 12.625 9.51389 12.7153 9.33333 12.8958C9.15278 13.0625 9.0625 13.2778 9.0625 13.5417C9.0625 13.8056 9.15278 14.0347 9.33333 14.2292C9.51389 14.4097 9.73611 14.5 10 14.5ZM9.33333 11.6458H10.7083C10.7083 11.1736 10.7431 10.8472 10.8125 10.6667C10.8958 10.4861 11.1181 10.2222 11.4792 9.875C11.8958 9.47222 12.1806 9.125 12.3333 8.83333C12.5 8.52778 12.5833 8.19444 12.5833 7.83333C12.5833 7.15278 12.3403 6.59722 11.8542 6.16667C11.3819 5.72222 10.7639 5.5 10 5.5C9.41667 5.5 8.88889 5.67361 8.41667 6.02083C7.94444 6.35417 7.61111 6.80556 7.41667 7.375L8.64583 7.89583C8.75694 7.5625 8.93056 7.29167 9.16667 7.08333C9.41667 6.875 9.69444 6.77083 10 6.77083C10.3472 6.77083 10.6389 6.88194 10.875 7.10417C11.125 7.3125 11.25 7.5625 11.25 7.85417C11.25 8.07639 11.1806 8.28472 11.0417 8.47917C10.9167 8.65972 10.6528 8.95139 10.25 9.35417C9.84722 9.75694 9.59028 10.0833 9.47917 10.3333C9.38195 10.5694 9.33333 11.0069 9.33333 11.6458Z" fill="black"/>
</svg>
