<svg width="20" height="20" viewBox="0 0 20 20" fill="none" xmlns="http://www.w3.org/2000/svg">
<path d="M9.25 14H10.75V9H9.25V14ZM9.9956 7.5C10.2069 7.5 10.3854 7.42855 10.5313 7.28565C10.6771 7.14273 10.75 6.96565 10.75 6.7544C10.75 6.54313 10.6785 6.36458 10.5356 6.21875C10.3927 6.07292 10.2156 6 10.0044 6C9.79313 6 9.61458 6.07145 9.46875 6.21435C9.32292 6.35727 9.25 6.53435 9.25 6.7456C9.25 6.95687 9.32145 7.13542 9.46435 7.28125C9.60727 7.42708 9.78435 7.5 9.9956 7.5ZM10.0058 18C8.90469 18 7.86806 17.7917 6.89583 17.375C5.92361 16.9583 5.07292 16.3854 4.34375 15.6563C3.61458 14.9271 3.04167 14.0767 2.625 13.105C2.20833 12.1334 2 11.0952 2 9.99046C2 8.88571 2.20833 7.85069 2.625 6.88542C3.04167 5.92014 3.61458 5.07292 4.34375 4.34375C5.07292 3.61458 5.92332 3.04167 6.89496 2.625C7.86661 2.20833 8.90481 2 10.0095 2C11.1143 2 12.1493 2.20833 13.1146 2.625C14.0799 3.04167 14.9271 3.61458 15.6563 4.34375C16.3854 5.07292 16.9583 5.92169 17.375 6.89008C17.7917 7.85849 18 8.89321 18 9.99425C18 11.0953 17.7917 12.1319 17.375 13.1042C16.9583 14.0764 16.3854 14.9271 15.6563 15.6563C14.9271 16.3854 14.0783 16.9583 13.1099 17.375C12.1415 17.7917 11.1068 18 10.0058 18Z" fill="black"/>
</svg>
