<svg width="16" height="16" fill="none" xmlns="http://www.w3.org/2000/svg"><path d="M7.25 12h1.5V7h-1.5v5ZM8 5.5c.208 0 .382-.07.52-.208a.74.74 0 0 0 .23-.542.675.675 0 0 0-.23-.52A.675.675 0 0 0 8 4a.74.74 0 0 0-.542.23.707.707 0 0 0-.208.52c0 .208.07.389.208.542A.779.779 0 0 0 8 5.5ZM8 16a7.796 7.796 0 0 1-3.104-.625 8.28 8.28 0 0 1-2.563-1.708 8.28 8.28 0 0 1-1.708-2.563A7.797 7.797 0 0 1 0 8a7.7 7.7 0 0 1 .625-3.104A8.027 8.027 0 0 1 4.895.625 7.797 7.797 0 0 1 8 0a7.7 7.7 0 0 1 3.104.625c.972.417 1.82.993 2.542 1.73a7.86 7.86 0 0 1 1.729 2.54A7.7 7.7 0 0 1 16 8a7.796 7.796 0 0 1-.625 3.104 8.027 8.027 0 0 1-4.27 4.27A7.7 7.7 0 0 1 8 16.001Z" fill="#000"/></svg>