<?xml version="1.0" encoding="UTF-8" standalone="no"?>
<svg
   xmlns:dc="http://purl.org/dc/elements/1.1/"
   xmlns:cc="http://creativecommons.org/ns#"
   xmlns:rdf="http://www.w3.org/1999/02/22-rdf-syntax-ns#"
   xmlns:svg="http://www.w3.org/2000/svg"
   xmlns="http://www.w3.org/2000/svg"
   xmlns:sodipodi="http://sodipodi.sourceforge.net/DTD/sodipodi-0.dtd"
   xmlns:inkscape="http://www.inkscape.org/namespaces/inkscape"
   viewBox="203.28 149.413 16 16"
   width="16"
   height="16"
   version="1.1"
   id="svg10"
   sodipodi:docname="issue-text-icon.svg"
   inkscape:version="1.0.1 (3bc2e813f5, 2020-09-07)">
  <metadata
     id="metadata16">
    <rdf:RDF>
      <cc:Work
         rdf:about="">
        <dc:format>image/svg+xml</dc:format>
        <dc:type
           rdf:resource="http://purl.org/dc/dcmitype/StillImage" />
        <dc:title></dc:title>
      </cc:Work>
    </rdf:RDF>
  </metadata>
  <defs
     id="defs14" />
  <sodipodi:namedview
     pagecolor="#ffffff"
     bordercolor="#666666"
     borderopacity="1"
     objecttolerance="10"
     gridtolerance="10"
     guidetolerance="10"
     inkscape:pageopacity="0"
     inkscape:pageshadow="2"
     inkscape:window-width="2370"
     inkscape:window-height="1227"
     id="namedview12"
     showgrid="false"
     inkscape:zoom="45.343222"
     inkscape:cx="11.804628"
     inkscape:cy="8.329433"
     inkscape:window-x="0"
     inkscape:window-y="0"
     inkscape:window-maximized="0"
     inkscape:current-layer="svg10" />
  <path
     id="path2"
     style="fill:#000000;fill-opacity:1"
     d="M 4.1992188 0.67773438 C 3.0792187 0.67773438 2.5197969 0.67653125 2.0917969 0.89453125 A 2 2 0 0 0 1.21875 1.7695312 C 1.00075 2.1965312 1 2.7559531 1 3.8769531 L 1 9.4765625 A 104.578 104.578 0 0 0 1 9.9277344 L 1 15.072266 C 1 15.295266 1.2707344 15.407 1.4277344 15.25 L 4 12.675781 L 11.800781 12.675781 C 12.920781 12.675781 13.480203 12.675984 13.908203 12.458984 A 2 2 0 0 0 14.78125 11.585938 C 14.99925 11.157937 15 10.596563 15 9.4765625 L 15 3.8769531 C 15 2.7569531 14.99925 2.1975313 14.78125 1.7695312 A 2 2 0 0 0 13.908203 0.89453125 C 13.480203 0.67653125 12.920781 0.67773438 11.800781 0.67773438 L 4.1992188 0.67773438 z M 4.0605469 4.2246094 L 12.859375 4.2246094 L 12.859375 5.5058594 L 4.0605469 5.5058594 L 4.0605469 4.2246094 z M 4.0605469 7.6777344 L 9.5 7.6777344 L 9.5 8.9570312 L 4.0605469 8.9570312 L 4.0605469 7.6777344 z "
     transform="translate(203.28,149.413)" />
</svg>
