<svg width="20" height="20" viewBox="0 0 20 20" fill="none" xmlns="http://www.w3.org/2000/svg">
<path fill-rule="evenodd" clip-rule="evenodd" d="M9 10V4.5H11V10H9ZM2 3.5V18L5 15H16.5C16.9167 15 17.2707 14.854 17.562 14.562C17.854 14.2707 18 13.9167 18 13.5V3.5C18 3.08333 17.854 2.72933 17.562 2.438C17.2707 2.146 16.9167 2 16.5 2H3.5C3.08333 2 2.72933 2.146 2.438 2.438C2.146 2.72933 2 3.08333 2 3.5ZM10 13.08C10.5964 13.08 11.08 12.5965 11.08 12C11.08 11.4035 10.5964 10.92 10 10.92C9.40356 10.92 8.92004 11.4035 8.92004 12C8.92004 12.5965 9.40356 13.08 10 13.08Z" fill="black"/>
</svg>
