<svg width="20" height="20" viewBox="0 0 20 20" fill="none" xmlns="http://www.w3.org/2000/svg">
<path d="M9.25 11.75C9.25 11.958 9.323 12.135 9.469 12.281C9.615 12.427 9.792 12.5 10 12.5C10.208 12.5 10.385 12.427 10.531 12.281C10.677 12.135 10.75 11.958 10.75 11.75C10.75 11.542 10.677 11.365 10.531 11.219C10.385 11.073 10.208 11 10 11C9.792 11 9.615 11.073 9.469 11.219C9.323 11.365 9.25 11.542 9.25 11.75ZM9.25 4.5V10H10.75V4.5H9.25ZM2 18V3.5C2 3.08333 2.146 2.72933 2.438 2.438C2.72933 2.146 3.08333 2 3.5 2H16.5C16.9167 2 17.2707 2.146 17.562 2.438C17.854 2.72933 18 3.08333 18 3.5V13.5C18 13.9167 17.854 14.2707 17.562 14.562C17.2707 14.854 16.9167 15 16.5 15H5L2 18Z" fill="black"/>
</svg>
