<svg width="20" height="20" viewBox="0 0 20 20" fill="none" xmlns="http://www.w3.org/2000/svg">
<path fill-rule="evenodd" clip-rule="evenodd" d="M2 18V3.5C2 3.08333 2.146 2.72933 2.438 2.438C2.72933 2.146 3.08333 2 3.5 2H16.5C16.9167 2 17.2707 2.146 17.562 2.438C17.854 2.72933 18 3.08333 18 3.5V13.5C18 13.9167 17.854 14.2707 17.562 14.562C17.2707 14.854 16.9167 15 16.5 15H5L2 18ZM9.4375 9.95833H10.6458C10.6458 9.54167 10.6944 9.22569 10.7917 9.01042C10.8889 8.79514 11.0972 8.54861 11.4167 8.27083C11.7361 7.97917 11.9722 7.69792 12.125 7.42708C12.2778 7.15625 12.3542 6.86111 12.3542 6.54167C12.3542 5.97 12.1319 5.48681 11.6875 5.09208C11.2431 4.69736 10.7083 4.5 10.0833 4.5C9.54167 4.5 9.05903 4.64931 8.63542 4.94792C8.21181 5.24653 7.91667 5.65278 7.75 6.16667L8.83333 6.625C8.92599 6.33192 9.08812 6.09545 9.31973 5.9156C9.55135 5.73576 9.80613 5.64583 10.0841 5.64583C10.3752 5.64583 10.6215 5.73958 10.8229 5.92708C11.0243 6.11458 11.125 6.34722 11.125 6.625C11.125 6.90278 11.0243 7.14236 10.8229 7.34375C10.6215 7.54514 10.4167 7.74306 10.2083 7.9375C9.90278 8.22917 9.69792 8.51042 9.59375 8.78125C9.48958 9.05208 9.4375 9.44445 9.4375 9.95833ZM10.0417 12.5C10.2778 12.5 10.4688 12.4229 10.6146 12.2688C10.7604 12.1147 10.8333 11.9237 10.8333 11.6959C10.8333 11.4681 10.7604 11.2778 10.6146 11.125C10.4688 10.9722 10.2778 10.8958 10.0417 10.8958C9.80556 10.8958 9.61458 10.9717 9.46875 11.1234C9.32292 11.2752 9.25 11.4632 9.25 11.6875C9.25 11.9177 9.32292 12.1107 9.46875 12.2664C9.61458 12.4221 9.80556 12.5 10.0417 12.5Z" fill="black"/>
</svg>
