<?xml version="1.0" encoding="UTF-8" standalone="no"?>
<svg
   xmlns:dc="http://purl.org/dc/elements/1.1/"
   xmlns:cc="http://creativecommons.org/ns#"
   xmlns:rdf="http://www.w3.org/1999/02/22-rdf-syntax-ns#"
   xmlns:svg="http://www.w3.org/2000/svg"
   xmlns="http://www.w3.org/2000/svg"
   xmlns:sodipodi="http://sodipodi.sourceforge.net/DTD/sodipodi-0.dtd"
   xmlns:inkscape="http://www.inkscape.org/namespaces/inkscape"
   fill="none"
   viewBox="0 0 13 13"
   version="1.1"
   id="svg6"
   sodipodi:docname="justify-items-end-icon.svg"
   inkscape:version="1.0.2 (e86c870879, 2021-01-15)">
  <metadata
     id="metadata12">
    <rdf:RDF>
      <cc:Work
         rdf:about="">
        <dc:format>image/svg+xml</dc:format>
        <dc:type
           rdf:resource="http://purl.org/dc/dcmitype/StillImage" />
      </cc:Work>
    </rdf:RDF>
  </metadata>
  <defs
     id="defs10" />
  <sodipodi:namedview
     pagecolor="#ffffff"
     bordercolor="#666666"
     borderopacity="1"
     objecttolerance="10"
     gridtolerance="10"
     guidetolerance="10"
     inkscape:pageopacity="0"
     inkscape:pageshadow="2"
     inkscape:window-width="2560"
     inkscape:window-height="1212"
     id="namedview8"
     showgrid="false"
     inkscape:zoom="77.538462"
     inkscape:cx="6.5"
     inkscape:cy="6.5"
     inkscape:window-x="0"
     inkscape:window-y="0"
     inkscape:window-maximized="1"
     inkscape:current-layer="svg6" />
  <path
     fill="#000000"
     d="m 12,1 h -1 v 11 h 1 z M 6,1 H 5 v 11 h 1 z"
     id="path2" />
  <path
     d="M 12,7 H 8 C 7.4477,7 7,7.4477 7,8 v 1 c 0,0.5523 0.4477,1 1,1 h 4 z M 6,7 H 2 C 1.4477,7 1,7.4477 1,8 v 1 c 0,0.5523 0.4477,1 1,1 H 6 Z M 12,3 H 9 C 8.4477,3 8,3.4477 8,4 v 1 c 0,0.5523 0.4477,1 1,1 h 3 z M 6,3 H 3 C 2.4477,3 2,3.4477 2,4 v 1 c 0,0.5523 0.4477,1 1,1 h 3 z"
     fill="#000000"
     id="path4" />
</svg>
