<svg width="20" height="20" viewBox="0 0 20 20" fill="none" xmlns="http://www.w3.org/2000/svg">
<path d="M3.5 15C3.08333 15 2.72917 14.8542 2.4375 14.5625C2.14583 14.2708 2 13.9167 2 13.5V6.5C2 6.08333 2.14583 5.72917 2.4375 5.4375C2.72917 5.14583 3.08333 5 3.5 5H16.5C16.9167 5 17.2708 5.14583 17.5625 5.4375C17.8542 5.72917 18 6.08333 18 6.5V13.5C18 13.9167 17.8542 14.2708 17.5625 14.5625C17.2708 14.8542 16.9167 15 16.5 15H3.5ZM3.5 13.5H16.5V6.5H3.5V13.5ZM7 13H13V11.5H7V13ZM5 10.5H6.5V9H5V10.5ZM7.125 10.5H8.625V9H7.125V10.5ZM9.25 10.5H10.75V9H9.25V10.5ZM11.375 10.5H12.875V9H11.375V10.5ZM13.5 10.5H15V9H13.5V10.5ZM5 8.5H6.5V7H5V8.5ZM7.125 8.5H8.625V7H7.125V8.5ZM9.25 8.5H10.75V7H9.25V8.5ZM11.375 8.5H12.875V7H11.375V8.5ZM13.5 8.5H15V7H13.5V8.5ZM3.5 13.5V6.5V13.5Z" fill="black"/>
</svg>
