<svg width="20" height="20" viewBox="0 0 20 20" fill="none" xmlns="http://www.w3.org/2000/svg">
<g clip-path="url(#clip0_4467_2482)">
<path d="M3.5 16C3.08333 16 2.72917 15.8542 2.4375 15.5625C2.14583 15.2708 2 14.9167 2 14.5V5.5C2 5.08333 2.14583 4.72917 2.4375 4.4375C2.72917 4.14583 3.08333 4 3.5 4H16.5C16.9167 4 17.2708 4.14583 17.5625 4.4375C17.8542 4.72917 18 5.08333 18 5.5V14.5C18 14.9167 17.8542 15.2708 17.5625 15.5625C17.2708 15.8542 16.9167 16 16.5 16H3.5ZM3.5 11H16.5V5.5H3.5V11Z" fill="black"/>
</g>
<defs>
<clipPath id="clip0_4467_2482">
<rect width="20" height="20" fill="white"/>
</clipPath>
</defs>
</svg>
