<svg width="20" height="20" viewBox="0 0 20 20" fill="none" xmlns="http://www.w3.org/2000/svg">
<path d="M3.5 16C3.08333 16 2.72917 15.8542 2.4375 15.5625C2.14583 15.2708 2 14.9167 2 14.5V9.5C2.23611 9.5 2.47222 9.5 2.70833 9.5C2.95833 9.5 3.22222 9.5 3.5 9.5V14.5H12.25L15.625 10L12.25 5.5H9.52083C9.52083 5.25 9.52083 5 9.52083 4.75C9.52083 4.5 9.52083 4.25 9.52083 4H12.25C12.4861 4 12.7083 4.05556 12.9167 4.16667C13.125 4.26389 13.3056 4.40972 13.4583 4.60417L17.5 10L13.4583 15.3958C13.3056 15.5903 13.125 15.7431 12.9167 15.8542C12.7083 15.9514 12.4861 16 12.25 16H3.5ZM4.5 8C4.48611 8 4.43056 7.95833 4.33333 7.875C4.13889 7.08333 3.75 6.40278 3.16667 5.83333C2.59722 5.25 1.91667 4.86111 1.125 4.66667C1.09722 4.65278 1.05556 4.59722 1 4.5C1 4.47222 1.04167 4.41667 1.125 4.33333C1.91667 4.13889 2.59722 3.75694 3.16667 3.1875C3.75 2.60417 4.13889 1.91667 4.33333 1.125C4.34722 1.09722 4.40278 1.05556 4.5 1C4.52778 1 4.58333 1.04167 4.66667 1.125C4.875 1.91667 5.26389 2.59722 5.83333 3.16667C6.40278 3.73611 7.08333 4.125 7.875 4.33333C7.90278 4.33333 7.94445 4.38889 8 4.5C8 4.51389 7.95833 4.56944 7.875 4.66667C7.08333 4.86111 6.39583 5.25 5.8125 5.83333C5.24306 6.40278 4.86111 7.08333 4.66667 7.875C4.66667 7.90278 4.61111 7.94444 4.5 8Z" fill="black"/>
</svg>
