<svg width="20" height="20" viewBox="0 0 20 20" fill="none" xmlns="http://www.w3.org/2000/svg">
<g clip-path="url(#clip0_4467_2462)">
<path d="M3.5 16C3.08333 16 2.72917 15.8542 2.4375 15.5625C2.14583 15.2708 2 14.9167 2 14.5V5.5C2 5.08333 2.14583 4.72917 2.4375 4.4375C2.72917 4.14583 3.08333 4 3.5 4H12.25C12.4861 4 12.7083 4.05555 12.9167 4.16667C13.125 4.26389 13.3056 4.40972 13.4583 4.60417L17.5 10L13.4583 15.3958C13.3056 15.5903 13.125 15.7431 12.9167 15.8542C12.7083 15.9514 12.4861 16 12.25 16H3.5ZM3.5 14.5H12.25L15.625 10L12.25 5.5H3.5V14.5Z" fill="black"/>
</g>
<defs>
<clipPath id="clip0_4467_2462">
<rect width="20" height="20" fill="white"/>
</clipPath>
</defs>
</svg>
