<svg xmlns="http://www.w3.org/2000/svg" width="16" height="16" viewBox="0 0 16 16" fill="none">
<g clip-path="url(#clip0_1325_666)">
<path d="M12.3336 6.68384C12.3336 5.85051 12.0391 5.1394 11.4502 4.55051C10.8613 3.96162 10.1502 3.66718 9.31689 3.66718C10.1502 3.66718 10.8613 3.37551 11.4502 2.79218C12.0391 2.20884 12.3336 1.50051 12.3336 0.667175C12.3336 1.50051 12.6252 2.20884 13.2086 2.79218C13.7919 3.37551 14.5002 3.66718 15.3336 3.66718C14.5002 3.66718 13.7919 3.96162 13.2086 4.55051C12.6252 5.1394 12.3336 5.85051 12.3336 6.68384Z" fill="white"/>
<rect x="2.92822" y="11.9906" width="4.80381" height="1.2" fill="white"/>
<path d="M9.35185 7.34091C9.35185 8.73056 8.64766 9.95575 7.57664 10.6791C6.24445 10.6791 4.31123 10.6791 3.07648 10.6791C2.00547 9.95575 1.30127 8.73056 1.30127 7.34091C1.30127 5.1178 3.10345 3.31561 5.32656 3.31561C7.54967 3.31561 9.35185 5.1178 9.35185 7.34091Z" stroke="white" stroke-width="1.2"/>
<path d="M4.12646 13.9062C4.12847 14.5672 4.66495 15.1025 5.32646 15.1025C5.98796 15.1025 6.52445 14.5672 6.52645 13.9062H4.12646Z" fill="white"/>
</g>
<defs>
<clipPath id="clip0_1325_666">
<rect width="16" height="16" fill="white"/>
</clipPath>
</defs>
</svg>