<svg width="20" height="20" viewBox="0 0 20 20" fill="none" xmlns="http://www.w3.org/2000/svg">
<path d="M3.5 15.25C3.222 15.25 2.986 15.1527 2.792 14.958C2.59733 14.764 2.5 14.528 2.5 14.25C2.5 13.972 2.59733 13.736 2.792 13.542C2.986 13.3473 3.222 13.25 3.5 13.25C3.778 13.25 4.014 13.3473 4.208 13.542C4.40267 13.736 4.5 13.972 4.5 14.25C4.5 14.528 4.40267 14.764 4.208 14.958C4.014 15.1527 3.778 15.25 3.5 15.25ZM6 15V13.5H17V15H6ZM3.5 11C3.222 11 2.986 10.9027 2.792 10.708C2.59733 10.514 2.5 10.278 2.5 10C2.5 9.722 2.59733 9.486 2.792 9.292C2.986 9.09733 3.222 9 3.5 9C3.778 9 4.014 9.09733 4.208 9.292C4.40267 9.486 4.5 9.722 4.5 10C4.5 10.278 4.40267 10.514 4.208 10.708C4.014 10.9027 3.778 11 3.5 11ZM6 10.75V9.25H17V10.75H6ZM3.5 6.75C3.222 6.75 2.986 6.65267 2.792 6.458C2.59733 6.264 2.5 6.028 2.5 5.75C2.5 5.472 2.59733 5.236 2.792 5.042C2.986 4.84733 3.222 4.75 3.5 4.75C3.778 4.75 4.014 4.84733 4.208 5.042C4.40267 5.236 4.5 5.472 4.5 5.75C4.5 6.028 4.40267 6.264 4.208 6.458C4.014 6.65267 3.778 6.75 3.5 6.75ZM6 6.5V5H17V6.5H6Z" fill="black"/>
</svg>
