<svg width="20" height="20" viewBox="0 0 20 20" fill="none" xmlns="http://www.w3.org/2000/svg">
<path d="M10 18C9.81949 18 9.65976 17.9514 9.52087 17.8542C9.38199 17.7431 9.28476 17.6042 9.22921 17.4375C8.96532 16.7014 8.64587 16.0069 8.27087 15.3542C7.90976 14.6875 7.38199 13.9097 6.68754 13.0208C6.00699 12.1458 5.45143 11.3056 5.02087 10.5C4.60421 9.69444 4.39587 8.72917 4.39587 7.60417C4.39587 6.04861 4.93754 4.72917 6.02087 3.64583C7.1181 2.54861 8.44449 2 10 2C11.5556 2 12.875 2.54861 13.9584 3.64583C15.0556 4.72917 15.6042 6.04861 15.6042 7.60417C15.6042 8.82639 15.3681 9.84028 14.8959 10.6458C14.4375 11.4375 13.9098 12.2292 13.3125 13.0208C12.5903 13.9653 12.0417 14.7639 11.6667 15.4167C11.3056 16.0556 11.007 16.7292 10.7709 17.4375C10.7014 17.6042 10.5973 17.7431 10.4584 17.8542C10.3334 17.9514 10.1806 18 10 18ZM10 15.3542C10.2362 14.8819 10.5 14.4167 10.7917 13.9583C11.0973 13.4861 11.5417 12.8681 12.125 12.1042C12.7084 11.3542 13.1806 10.6597 13.5417 10.0208C13.9167 9.36806 14.1042 8.5625 14.1042 7.60417C14.1042 6.47917 13.7014 5.51389 12.8959 4.70833C12.0903 3.90278 11.125 3.5 10 3.5C8.86115 3.5 7.88893 3.90278 7.08337 4.70833C6.29171 5.51389 5.89587 6.47917 5.89587 7.60417C5.89587 8.5625 6.08337 9.36806 6.45837 10.0208C6.83337 10.6597 7.3056 11.3542 7.87504 12.1042C8.45837 12.8681 8.89587 13.4861 9.18754 13.9583C9.4931 14.4167 9.76393 14.8819 10 15.3542ZM10 9.625C10.5556 9.625 11.0278 9.43056 11.4167 9.04167C11.8195 8.63889 12.0209 8.15972 12.0209 7.60417C12.0209 7.04861 11.8195 6.57639 11.4167 6.1875C11.0278 5.78472 10.5556 5.58333 10 5.58333C9.44449 5.58333 8.96532 5.78472 8.56254 6.1875C8.17365 6.57639 7.97921 7.04861 7.97921 7.60417C7.97921 8.15972 8.17365 8.63889 8.56254 9.04167C8.96532 9.43056 9.44449 9.625 10 9.625Z" fill="black"/>
</svg>
