<svg xmlns="http://www.w3.org/2000/svg" height="20px" viewBox="0 -960 960 960" width="20px" fill="#e3e3e3"><path d="M720-240q25 0 42.5-17.5T780-300q0-25-17.5-42.5T720-360q-25 0-42.5 17.5T660-300q0 25 17.5 42.5T720-240Zm0 120q32 0 59-16t43-42q-23-13-48.5-19.5T720-204q-28 0-53.5 7T618-178q16 26 43 42t59 16ZM360-624h240v-96q0-50-35-85t-85-35q-50 0-85 35t-35 85v96ZM499-96H264q-29.7 0-50.85-21.15Q192-138.3 192-168v-384q0-29.7 21.15-50.85Q234.3-624 264-624h24v-96q0-79.68 56.23-135.84 56.22-56.16 136-56.16Q560-912 616-855.84q56 56.16 56 135.84v96h24q29.7 0 50.85 21.15Q768-581.7 768-552v53q-17.05-3-35.53-4.5Q714-505 696-503v-49H264v384h202q6 20 14 38t19 34Zm220.77 48Q640-48 584-104.23q-56-56.22-56-136Q528-320 584.23-376q56.22-56 136-56Q800-432 856-375.77q56 56.22 56 136Q912-160 855.77-104q-56.22 56-136 56ZM264-552v384-384Z"/></svg>