<svg width="10" height="10" viewBox="0 0 10 10" fill="none" xmlns="http://www.w3.org/2000/svg">
  <path fill-rule="evenodd" clip-rule="evenodd" d="M1 2C1 1.44772 1.44772 1 2 1H8C8.55228 1 9 1.44772 9 2V8C9 8.55228 8.55228 9 8 9H2C1.44772 9 1 8.55228 1 8V2ZM2.57574 2.57573C2.81005 2.34142 3.18995 2.34142 3.42426 2.57573L5.84853 4.99999L3.42426 7.42426C3.18995 7.65857 2.81005 7.65857 2.57574 7.42426C2.34142 7.18994 2.34142 6.81004 2.57574 6.57573L4.15147 4.99999L2.57574 3.42426C2.34142 3.18994 2.34142 2.81004 2.57574 2.57573ZM6 6.39999C5.66863 6.39999 5.4 6.66862 5.4 6.99999C5.4 7.33136 5.66863 7.59999 6 7.59999H7C7.33137 7.59999 7.6 7.33136 7.6 6.99999C7.6 6.66862 7.33137 6.39999 7 6.39999H6Z" fill="#9AA0A6"/>
</svg>