<svg width="10" height="10" viewBox="0 0 10 10" fill="none" xmlns="http://www.w3.org/2000/svg">
<path fill-rule="evenodd" clip-rule="evenodd" d="M5 10C7.76142 10 10 7.76142 10 5C10 2.23858 7.76142 0 5 0C2.23858 0 0 2.23858 0 5C0 7.76142 2.23858 10 5 10ZM4.55316 1.96967C4.26026 1.67678 3.78539 1.67678 3.4925 1.96967C3.1996 2.26256 3.1996 2.73744 3.4925 3.03033L5.46217 5L3.4925 6.96967C3.1996 7.26256 3.1996 7.73744 3.4925 8.03033C3.78539 8.32322 4.26026 8.32322 4.55316 8.03033L7.05316 5.53033L7.58349 5L7.05316 4.46967L4.55316 1.96967Z" fill="#9AA0A6"/>
</svg>
