<svg width="10" height="10" viewBox="0 0 10 10" fill="none" xmlns="http://www.w3.org/2000/svg">
<path fill-rule="evenodd" clip-rule="evenodd" d="M5 9C7.20914 9 9 7.20914 9 5C9 2.79086 7.20914 1 5 1C2.79086 1 1 2.79086 1 5C1 7.20914 2.79086 9 5 9ZM4.6425 2.57574C4.40819 2.34142 4.02829 2.34142 3.79397 2.57574C3.55966 2.81005 3.55966 3.18995 3.79397 3.42426L5.36971 5L3.79397 6.57574C3.55966 6.81005 3.55966 7.18995 3.79397 7.42426C4.02829 7.65858 4.40819 7.65858 4.6425 7.42426L6.6425 5.42426L7.06677 5L6.6425 4.57574L4.6425 2.57574Z" fill="#9AA0A6"/>
</svg>