<svg width="20" height="21" viewBox="0 0 20 21" fill="none" xmlns="http://www.w3.org/2000/svg">
<path d="M3.5 16.75C3.08333 16.75 2.72917 16.6042 2.4375 16.3125C2.14583 16.0208 2 15.6667 2 15.25V6.25C2 5.83333 2.14583 5.47917 2.4375 5.1875C2.72917 4.89583 3.08333 4.75 3.5 4.75H11.5208C11.4931 4.98611 11.4861 5.23611 11.5 5.5C11.5139 5.75 11.5556 6 11.625 6.25H3.5L10 9.97917L12.9167 8.29167C13.1111 8.47222 13.3681 8.63889 13.6875 8.79167C14.0069 8.94444 14.2917 9.05556 14.5417 9.125L10 11.75L3.5 8.02083V15.25H16.5V9.125C16.7778 9.05556 17.0347 8.95833 17.2708 8.83333C17.5208 8.69444 17.7639 8.54167 18 8.375V15.25C18 15.6667 17.8472 16.0208 17.5417 16.3125C17.25 16.6042 16.9028 16.75 16.5 16.75H3.5ZM3.5 6.25V15.25V6.25ZM15.5 7.75C14.8056 7.75 14.2153 7.50694 13.7292 7.02083C13.2431 6.53472 13 5.94444 13 5.25C13 4.55556 13.2431 3.96528 13.7292 3.47917C14.2153 2.99306 14.8056 2.75 15.5 2.75C16.1944 2.75 16.7847 2.99306 17.2708 3.47917C17.7569 3.96528 18 4.55556 18 5.25C18 5.94444 17.7569 6.53472 17.2708 7.02083C16.7847 7.50694 16.1944 7.75 15.5 7.75Z" fill="black"/>
</svg>
