<svg width="20" height="20" viewBox="0 0 20 20" fill="none" xmlns="http://www.w3.org/2000/svg">
<path d="M3.04163 14.1458L6.06246 6.0625H8.02079L11.0625 14.1458H9.22913L8.58329 12.2917H5.58329L4.89579 14.1458H3.04163ZM6.06246 10.7292H8.04163L7.06246 8.02083H7.02079L6.06246 10.7292ZM13.6666 14.3333C13.0555 14.3333 12.552 14.1493 12.1562 13.7813C11.7604 13.4132 11.5625 12.9444 11.5625 12.375C11.5625 11.7917 11.7777 11.3194 12.2083 10.9583C12.6388 10.5972 13.2222 10.4167 13.9583 10.4167C14.2222 10.4167 14.5069 10.4479 14.8125 10.5104C15.118 10.5729 15.3333 10.6389 15.4583 10.7083V10.3542C15.4583 10.1458 15.3229 9.94792 15.052 9.76042C14.7812 9.57292 14.4861 9.47917 14.1666 9.47917C13.8888 9.47917 13.6284 9.53819 13.3854 9.65625C13.1423 9.77431 12.868 9.95833 12.5625 10.2083L11.7291 9.04167C11.9791 8.79167 12.3541 8.56944 12.8541 8.375C13.3541 8.18056 13.8611 8.08333 14.375 8.08333C15.1527 8.08333 15.7882 8.30208 16.2812 8.73958C16.7743 9.17708 17.0208 9.75 17.0208 10.4583V14.1042H15.4375V13.5625H15.375C15.1666 13.8264 14.9201 14.0208 14.6354 14.1458C14.3507 14.2708 14.0277 14.3333 13.6666 14.3333ZM14.0833 13C14.4861 13 14.8125 12.8785 15.0625 12.6354C15.3125 12.3924 15.4375 12.0972 15.4375 11.75C15.2986 11.6806 15.1493 11.6319 14.9895 11.6042C14.8298 11.5764 14.6388 11.5625 14.4166 11.5625C14.0555 11.5625 13.7673 11.6354 13.552 11.7813C13.3368 11.9271 13.2291 12.1042 13.2291 12.3125C13.2291 12.5486 13.3055 12.7222 13.4583 12.8333C13.6111 12.9444 13.8194 13 14.0833 13Z" fill="black"/>
</svg>
