<?xml version="1.0" encoding="UTF-8" standalone="no"?>
<svg
   xmlns:dc="http://purl.org/dc/elements/1.1/"
   xmlns:cc="http://creativecommons.org/ns#"
   xmlns:rdf="http://www.w3.org/1999/02/22-rdf-syntax-ns#"
   xmlns:svg="http://www.w3.org/2000/svg"
   xmlns="http://www.w3.org/2000/svg"
   xmlns:xlink="http://www.w3.org/1999/xlink"
   xmlns:sodipodi="http://sodipodi.sourceforge.net/DTD/sodipodi-0.dtd"
   xmlns:inkscape="http://www.inkscape.org/namespaces/inkscape"
   width="64"
   height="64"
   id="svg4775"
   version="1.1"
   inkscape:version="0.48.4 r9939"
   sodipodi:docname="mediumIcons.svg">
  <metadata
     id="metadata4917">
    <rdf:RDF>
      <cc:Work
         rdf:about="">
        <dc:format>image/svg+xml</dc:format>
        <dc:type
           rdf:resource="http://purl.org/dc/dcmitype/StillImage" />
      </cc:Work>
    </rdf:RDF>
  </metadata>
  <defs
     id="defs4915" />
  <sodipodi:namedview
     pagecolor="#ffffff"
     bordercolor="#666666"
     borderopacity="1"
     objecttolerance="10"
     gridtolerance="10"
     guidetolerance="10"
     inkscape:pageopacity="0"
     inkscape:pageshadow="2"
     inkscape:window-width="1278"
     inkscape:window-height="746"
     id="namedview4913"
     showgrid="true"
     inkscape:zoom="2.6074563"
     inkscape:cx="-16.363967"
     inkscape:cy="36.722264"
     inkscape:window-x="0"
     inkscape:window-y="0"
     inkscape:window-maximized="0"
     inkscape:current-layer="svg4775">
    <inkscape:grid
       type="xygrid"
       id="grid4919"
       empspacing="5"
       visible="true"
       enabled="true"
       snapvisiblegridlinesonly="true"
       spacingx="16px"
       spacingy="16px" />
  </sodipodi:namedview>
  <g
     id="g4777">
    <path
       d="m 3,4 h 10 v 9.008 C 13,14.1082 12.11257,15 11.0004,15 H 4.9996 C 3.8952,15 3,14.09982 3,13.008 V 4 z M 2,2 H 14 V 3 H 2 V 2 z M 5,1 h 6 V 2 H 5 V 1 z"
       id="path4781"
       inkscape:connector-curvature="0"
       style="fill:#212121" />
  </g>
  <g
     transform="translate(16,0)"
     id="g4783">
    <path
       d="M 13.526,6.25 H 12.0523 V 5.5 c 0,-0.414 -0.33011,-0.75 -0.73684,-0.75 H 9.84176 V 4 c 0,-0.414 -0.33011,-0.75 -0.73684,-0.75 H 8.36808 V 1.75 C 8.36808,1.423 8.16029,1.153 7.87366,1.0495 7.81987,1.021 7.74913,1 7.63124,1 c -3.6628,0 -6.6316,3.0218 -6.6316,6.75 0,3.7275 2.9687,6.75 6.6316,6.75 3.6629,0 6.6316,-3.0225 6.6316,-6.75 V 7 c 0,-0.414 -0.3301,-0.75 -0.73684,-0.75 z M 3.5786,8.5 C 2.96784,8.5 2.4733,7.99667 2.4733,7.375 2.4733,6.75333 2.9678,6.25 3.5786,6.25 4.1894,6.25 4.6839,6.75333 4.6839,7.375 4.6839,7.99667 4.1894,8.5 3.5786,8.5 z M 4.6839,4.375 c 0,-0.62175 0.49516,-1.125 1.1053,-1.125 0.61084,0 1.1053,0.50325 1.1053,1.125 C 6.8945,4.996 6.40008,5.5 5.7892,5.5 5.17909,5.5 4.6839,4.996 4.6839,4.375 z M 6.8944,13 c -0.61059,0 -1.1053,-0.50334 -1.1053,-1.1246 0,-0.62129 0.49467,-1.1254 1.1053,-1.1254 0.61063,0 1.1053,0.50409 1.1053,1.1254 C 7.9997,12.49668 7.50503,13 6.8944,13 z M 7.26282,9.25 C 6.65271,9.25 6.15752,8.746 6.15752,8.125 6.15752,7.504 6.65268,7 7.26282,7 c 0.61014,0 1.1053,0.504 1.1053,1.125 0,0.621 -0.49516,1.125 -1.1053,1.125 z m 3.6842,1.5 c -0.6101,0 -1.1053,-0.504 -1.1053,-1.125 0,-0.621 0.49516,-1.125 1.1053,-1.125 0.61011,0 1.1053,0.504 1.1053,1.125 0,0.621 -0.49516,1.125 -1.1053,1.125 z"
       id="path4787"
       inkscape:connector-curvature="0"
       style="fill:#212121" />
  </g>
  <g
     transform="translate(32,0)"
     id="g4789">
    <path
       d="M 8,6 C 11.3137,6 14,5.10457 14,4 14,2.89543 11.3137,2 8,2 4.6863,2 2,2.89543 2,4 2,5.10457 4.6863,6 8,6 z m -6,7 c 0,1.1046 2.6863,2 6,2 3.3137,0 6,-0.89543 6,-2 v -2 c 0,1.1046 -2.6863,2 -6,2 -3.3137,0 -6,-0.89543 -6,-2 v 2 z m 0,-3 c 0,1.1046 2.6863,2 6,2 3.3137,0 6,-0.89543 6,-2 V 8 C 14,9.1046 11.3137,10 8,10 4.6863,10 2,9.10457 2,8 v 2 z M 2,7 c 0,1.1046 2.6863,2 6,2 3.3137,0 6,-0.89543 6,-2 V 5 C 14,6.1046 11.3137,7 8,7 4.6863,7 2,6.10457 2,5 v 2 z"
       id="path4793"
       inkscape:connector-curvature="0" />
  </g>
  <g
     transform="translate(48,0)"
     id="g4795">
    <g
       id="g4799">
      <g
         id="g4801"
         style="fill:none">
        <path
           d="M 0,0 H 16 V 16 H 0 z"
           id="path4803"
           inkscape:connector-curvature="0" />
        <path
           transform="translate(3,1)"
           d="M 6,0 H 0.9954 C 0.45567,0 0,0.45078 0,1.0068 v 11.986 c 0,0.5569 0.44565,1.0068 0.9954,1.0068 H 9.0046 C 9.54433,13.9996 10,13.54882 10,12.9928 V 3.9996 l -4,-4 z M 9.29,4 H 6 V 0.71 L 9.29,4 z"
           id="path4805"
           inkscape:connector-curvature="0"
           style="fill:#000000" />
      </g>
    </g>
  </g>
  <g
     transform="translate(0,16)"
     id="g4807">
    <path
       d="M 6.5,3.2289 V 1 h 3 v 2.2289 c 0.70763,0.22225 1.3475,0.59759 1.8807,1.0872 l 1.9315,-1.1151 1.5,2.5981 -1.9305,1.1146 c 0.07749,0.34976 0.11835,0.71329 0.11835,1.0864 0,0.37311 -0.04086,0.73661 -0.11835,1.0864 l 1.9305,1.1146 -1.5,2.5981 -1.9315,-1.1151 C 10.84746,12.17371 10.2076,12.54904 9.5,12.7713 v 2.2289 h -3 V 12.7713 C 5.79237,12.54905 5.1525,12.17371 4.6193,11.6841 l -1.9315,1.1151 -1.5,-2.5981 1.9305,-1.1146 C 3.04081,8.73674 2.99995,8.37321 2.99995,8.0001 2.99995,7.62699 3.04081,7.26349 3.1183,6.9137 L 1.1878,5.7991 2.6878,3.201 4.6193,4.3161 C 5.15253,3.82649 5.7924,3.45116 6.5,3.2289 z M 8,10.5 C 9.3807,10.5 10.5,9.3807 10.5,8 10.5,6.6193 9.3807,5.5 8,5.5 6.6193,5.5 5.5,6.6193 5.5,8 c 0,1.3807 1.1193,2.5 2.5,2.5 z"
       id="path4811"
       inkscape:connector-curvature="0"
       style="fill:#212121" />
  </g>
  <g
     transform="translate(16,16)"
     id="g4813">
    <path
       d="M 2,3.999 C 2,3.44729 2.45098,3.00004 2.99078,3.00004 h 5.0092 v 3 h -6 v -2.001 z M 2,11 h 6 v 3 H 2.9908 C 2.44361,14 2.00002,13.55734 2.00002,13.00104 v -2.001 z M 2,7 h 6 v 3 H 2 V 7 z M 9,3 h 5.0092 c 0.54719,0 0.99078,0.44266 0.99078,0.99896 v 2.001 h -6 v -3 z m 0,8 h 6 v 2.001 c 0,0.55171 -0.45098,0.99896 -0.99078,0.99896 h -5.0092 v -3 z M 9,7 h 6 v 3 H 9 V 7 z"
       id="path4817"
       inkscape:connector-curvature="0"
       style="fill:#212121" />
  </g>
  <g
     transform="translate(34,18)"
     id="g4819">
    <path
       transform="matrix(1.1,0,0,1.1,-3.3,-3.3)"
       d="m 8,13 c 2.7614,0 5,-2.2386 5,-5 C 13,5.2386 10.7614,3 8,3 5.2386,3 3,5.2386 3,8 c 0,2.7614 2.2386,5 5,5 z M 8,11 V 9 H 5 V 7 H 8 V 5 l 3,3 -3,3 z"
       id="path4823"
       inkscape:connector-curvature="0" />
  </g>
  <g
     transform="translate(50,17)"
     id="g4825">
    <g
       transform="translate(-76,-24)"
       id="g4829">
      <circle
         transform="matrix(1.2,0,0,1.2,72.4,21.2)"
         cx="10.5"
         cy="11.5"
         r="2.5"
         id="circle4831"
         d="M 13,11.5 C 13,12.880712 11.880712,14 10.5,14 9.1192881,14 8,12.880712 8,11.5 8,10.119288 9.1192881,9 10.5,9 11.880712,9 13,10.119288 13,11.5 z"
         sodipodi:cx="10.5"
         sodipodi:cy="11.5"
         sodipodi:rx="2.5"
         sodipodi:ry="2.5"
         style="fill:#009802" />
      <path
         d="m 78,25 c -0.54399,0 -1,0.45026 -1,1 v 8 c 0,0.53973 0.44936,1 1,1 h 3.0312 c -0.02335,-0.1633 -0.03125,-0.33024 -0.03125,-0.5 0,-0.16976 0.0079,-0.3367 0.03125,-0.5 H 78 v -8 h 3 v 3 h 3 v 1.5 c 0.1633,-0.02335 0.33024,0 0.5,0 0.16976,0 0.3367,-0.02335 0.5,0 V 28 l -3,-3 z m 4,1 2,2 h -2 z"
         id="path4833"
         inkscape:connector-curvature="0" />
    </g>
  </g>
  <g
     transform="translate(2,33)"
     id="g4835">
    <path
       transform="translate(-65.625,-24.5)"
       d="m 71.625,25.5 h -4.003 c -0.54399,0 -0.99703,0.44566 -0.99703,0.9954 v 8.0092 c 0,0.53973 0.44639,0.9954 0.99703,0.9954 h 6.0059 c 0.54399,0 0.99703,-0.44566 0.99703,-0.9954 V 28.5 l -3,-3 z m 0,1 2,2 h -2 v -2 z m -4,0 h 3 v 3 h 3 v 5 h -6 v -8 z"
       id="path4839"
       inkscape:connector-curvature="0" />
  </g>
  <g
     transform="translate(17,33)"
     id="g4841">
    <path
       transform="translate(-160,-96)"
       d="m 160,102.5 c 0,3.59 2.91,6.5 6.5,6.5 3.59,0 6.5,-2.91 6.5,-6.5 0,-3.59 -2.91,-6.5 -6.5,-6.5 -3.59,0 -6.5,2.91 -6.5,6.5"
       id="path4845"
       inkscape:connector-curvature="0"
       style="fill:#9f9f9f" />
    <path
       transform="translate(-160,-96)"
       d="m 170,100.43 -0.93,-0.93 -2.57,2.57 -2.57,-2.57 -0.93,0.93 2.57,2.57 -2.57,2.57 0.93,0.93 2.57,-2.57 2.57,2.57 0.93,-0.93 -2.57,-2.57 2.57,-2.57 z"
       id="path4847"
       inkscape:connector-curvature="0"
       style="fill-opacity:0.36000001" />
    <path
       transform="translate(-160,-96)"
       d="M 170,99.93 169.07,99 166.5,101.57 163.93,99 163,99.93 l 2.57,2.57 -2.57,2.57 0.93,0.93 2.57,-2.57 2.57,2.57 0.93,-0.93 -2.57,-2.57 2.57,-2.57 z"
       id="path4849"
       inkscape:connector-curvature="0"
       style="fill:#ffffff" />
  </g>
  <g
     transform="translate(33,33)"
     id="g4851">
    <path
       transform="translate(-143,-96)"
       d="m 143,102.5 c 0,3.59 2.91,6.5 6.5,6.5 3.59,0 6.5,-2.91 6.5,-6.5 0,-3.59 -2.91,-6.5 -6.5,-6.5 -3.59,0 -6.5,2.91 -6.5,6.5"
       id="path4855"
       inkscape:connector-curvature="0"
       style="fill:#bebebe" />
    <path
       transform="translate(-143,-96)"
       d="m 153,100.43 -0.93,-0.93 -2.57,2.57 -2.57,-2.57 -0.93,0.93 2.57,2.57 -2.57,2.57 0.93,0.93 2.57,-2.57 2.57,2.57 0.93,-0.93 -2.57,-2.57 2.57,-2.57 z"
       id="path4857"
       inkscape:connector-curvature="0"
       style="fill-opacity:0.37000002" />
    <path
       transform="translate(-143,-96)"
       d="M 153,99.93 152.07,99 149.5,101.57 146.93,99 146,99.93 l 2.57,2.57 -2.57,2.57 0.93,0.93 2.57,-2.57 2.57,2.57 0.93,-0.93 -2.57,-2.57 2.57,-2.57 z"
       id="path4859"
       inkscape:connector-curvature="0"
       style="fill:#ffffff" />
  </g>
  <g
     transform="translate(49,33)"
     id="g4861">
    <path
       transform="translate(-111,-96)"
       d="m 118,96 c -3.87,0 -7,3.13 -7,7 0,3.87 3.13,7 7,7 3.87,0 7,-3.13 7,-7 0,-3.87 -3.13,-7 -7,-7"
       id="path4865"
       inkscape:connector-curvature="0"
       style="fill:url(#sprite12_a)" />
    <path
       transform="translate(-111,-96)"
       d="m 111.5,103 c 0,3.59 2.91,6.5 6.5,6.5 3.59,0 6.5,-2.91 6.5,-6.5 0,-3.59 -2.91,-6.5 -6.5,-6.5 -3.59,0 -6.5,2.91 -6.5,6.5"
       id="path4867"
       inkscape:connector-curvature="0"
       style="fill:#f27d82" />
    <path
       transform="translate(-111,-96)"
       d="m 121.5,100.93 -0.93,-0.93 -2.57,2.57 -2.57,-2.57 -0.93,0.93 2.57,2.57 -2.57,2.57 0.93,0.93 2.57,-2.57 2.57,2.57 0.93,-0.93 -2.57,-2.57 2.57,-2.57 z"
       id="path4869"
       inkscape:connector-curvature="0"
       style="fill-opacity:0.36000001" />
    <path
       transform="translate(-111,-96)"
       d="m 121.5,100.43 -0.93,-0.93 -2.57,2.57 -2.57,-2.57 -0.93,0.93 2.57,2.57 -2.57,2.57 0.93,0.93 2.57,-2.57 2.57,2.57 0.93,-0.93 -2.57,-2.57 2.57,-2.57 z"
       id="path4871"
       inkscape:connector-curvature="0"
       style="fill:#ffffff" />
    <defs
       id="defs4873">
      <linearGradient
         id="sprite12_r">
        <stop
           stop-color="#d7687d"
           offset="0"
           id="stop4876" />
        <stop
           stop-color="#b21402"
           offset="1"
           id="stop4878" />
      </linearGradient>
      <linearGradient
         id="sprite12_a"
         x2="24"
         gradientTransform="matrix(0,-0.58333,-0.58333,0,118,110)"
         gradientUnits="userSpaceOnUse"
         xlink:href="#sprite12_r" />
    </defs>
  </g>
  <g
     transform="translate(1,49)"
     id="g4881">
    <path
       transform="translate(-96,-96)"
       d="m 103,110 c 3.87,0 7,-3.13 7,-7 0,-3.87 -3.13,-7 -7,-7 -3.87,0 -7,3.13 -7,7 0,3.87 3.13,7 7,7"
       id="path4885"
       inkscape:connector-curvature="0"
       style="fill:url(#sprite13_a)" />
    <path
       transform="translate(-96,-96)"
       d="m 103,96.5 c -3.59,0 -6.5,2.91 -6.5,6.5 0,3.59 2.91,6.5 6.5,6.5 3.59,0 6.5,-2.91 6.5,-6.5 0,-3.59 -2.91,-6.5 -6.5,-6.5"
       id="path4887"
       inkscape:connector-curvature="0"
       style="fill:url(#sprite13_b)" />
    <path
       transform="translate(-96,-96)"
       d="m 106.5,100.93 -0.93,-0.93 -2.57,2.57 -2.57,-2.57 -0.93,0.93 2.57,2.57 -2.57,2.57 0.93,0.93 2.57,-2.57 2.57,2.57 0.93,-0.93 -2.57,-2.57 2.57,-2.57 z"
       id="path4889"
       inkscape:connector-curvature="0"
       style="fill:#993c35" />
    <path
       transform="translate(-96,-96)"
       d="m 106.5,100.43 -0.93,-0.93 -2.57,2.57 -2.57,-2.57 -0.93,0.93 2.57,2.57 -2.57,2.57 0.93,0.93 2.57,-2.57 2.57,2.57 0.93,-0.93 -2.57,-2.57 2.57,-2.57 z"
       id="path4891"
       inkscape:connector-curvature="0"
       style="fill:#ffffff" />
    <defs
       id="defs4893">
      <linearGradient
         id="sprite13_b"
         x1="96.5"
         x2="109.5"
         y1="103"
         y2="103"
         gradientTransform="matrix(0,1,-1,0,206,0)"
         gradientUnits="userSpaceOnUse"
         xlink:href="#sprite13_q" />
      <linearGradient
         id="sprite13_q">
        <stop
           stop-color="#e59290"
           offset="0"
           id="stop4897" />
        <stop
           stop-color="#e99890"
           offset="1"
           id="stop4899" />
      </linearGradient>
      <linearGradient
         id="sprite13_a"
         x1="113"
         x2="127"
         y1="104"
         y2="104"
         gradientTransform="matrix(0,1,-1,0,207,-17)"
         gradientUnits="userSpaceOnUse"
         xlink:href="#sprite13_r" />
      <linearGradient
         id="sprite13_r">
        <stop
           stop-color="#c0544f"
           offset="0"
           id="stop4903" />
        <stop
           stop-color="#d08481"
           offset="1"
           id="stop4905" />
      </linearGradient>
    </defs>
  </g>
  <g
     transform="translate(18,50)"
     id="g4907">
    <path
       transform="translate(-234,-30)"
       d="m 242.27,38.92 c -0.75073,0.56132 -1.6826,0.89372 -2.6921,0.89372 -2.4853,0 -4.5,-2.0147 -4.5,-4.5 0,-2.4853 2.0147,-4.5 4.5,-4.5 2.4853,0 4.5,2.0147 4.5,4.5 0,1.1154 -0.40579,2.136 -1.0778,2.9222 l 2.3456,2.3456 -0.70711,0.70711 z m -2.6921,-0.10628 c 1.933,0 3.5,-1.567 3.5,-3.5 0,-1.933 -1.567,-3.5 -3.5,-3.5 -1.933,0 -3.5,1.567 -3.5,3.5 0,1.933 1.567,3.5 3.5,3.5 z"
       id="path4911"
       inkscape:connector-curvature="0"
       style="fill:#5b5b5b" />
  </g>
  <text
     xml:space="preserve"
     style="font-size:10px;font-style:normal;font-weight:normal;line-height:125%;letter-spacing:0px;word-spacing:0px;fill:#b3b3b3;fill-opacity:1;stroke:none;font-family:Sans"
     x="-11.403088"
     y="59.207676"
     id="text4355"
     sodipodi:linespacing="125%"><tspan
       sodipodi:role="line"
       id="tspan4357"
       x="-11.403088"
       y="59.207676">1</tspan></text>
  <text
     xml:space="preserve"
     style="font-size:10px;font-style:normal;font-weight:normal;line-height:125%;letter-spacing:0px;word-spacing:0px;fill:#b3b3b3;fill-opacity:1;stroke:none;font-family:Sans"
     x="-11.144299"
     y="43.675297"
     id="text4355-8"
     sodipodi:linespacing="125%"><tspan
       sodipodi:role="line"
       id="tspan4357-8"
       x="-11.144299"
       y="43.675297">2</tspan></text>
  <text
     xml:space="preserve"
     style="font-size:10px;font-style:normal;font-weight:normal;line-height:125%;letter-spacing:0px;word-spacing:0px;fill:#b3b3b3;fill-opacity:1;stroke:none;font-family:Sans"
     x="-11.066174"
     y="28.142918"
     id="text4355-4"
     sodipodi:linespacing="125%"><tspan
       sodipodi:role="line"
       id="tspan4357-3"
       x="-11.066174"
       y="28.142918">3</tspan></text>
  <text
     xml:space="preserve"
     style="font-size:10px;font-style:normal;font-weight:normal;line-height:125%;letter-spacing:0px;word-spacing:0px;fill:#b3b3b3;fill-opacity:1;stroke:none;font-family:Sans"
     x="-11.266369"
     y="12.610539"
     id="text4355-1"
     sodipodi:linespacing="125%"><tspan
       sodipodi:role="line"
       id="tspan4357-4"
       x="-11.266369"
       y="12.610539">4</tspan></text>
  <text
     xml:space="preserve"
     style="font-size:10px;font-style:normal;font-weight:normal;line-height:125%;letter-spacing:0px;word-spacing:0px;fill:#b3b3b3;fill-opacity:1;stroke:none;font-family:Sans"
     x="5.9353299"
     y="76.082359"
     id="text4355-9"
     sodipodi:linespacing="125%"><tspan
       sodipodi:role="line"
       id="tspan4357-2"
       x="5.9353299"
       y="76.082359">a</tspan></text>
  <text
     xml:space="preserve"
     style="font-size:10px;font-style:normal;font-weight:normal;line-height:125%;letter-spacing:0px;word-spacing:0px;fill:#b3b3b3;fill-opacity:1;stroke:none;font-family:Sans"
     x="21.659466"
     y="76.082359"
     id="text4355-0"
     sodipodi:linespacing="125%"><tspan
       sodipodi:role="line"
       id="tspan4357-6"
       x="21.659466"
       y="76.082359">b</tspan></text>
  <text
     xml:space="preserve"
     style="font-size:10px;font-style:normal;font-weight:normal;line-height:125%;letter-spacing:0px;word-spacing:0px;fill:#b3b3b3;fill-opacity:1;stroke:none;font-family:Sans"
     x="37.383606"
     y="76.082359"
     id="text4355-89"
     sodipodi:linespacing="125%"><tspan
       sodipodi:role="line"
       id="tspan4357-26"
       x="37.383606"
       y="76.082359">c</tspan></text>
  <text
     xml:space="preserve"
     style="font-size:10px;font-style:normal;font-weight:normal;line-height:125%;letter-spacing:0px;word-spacing:0px;fill:#b3b3b3;fill-opacity:1;stroke:none;font-family:Sans"
     x="53.107742"
     y="76.082359"
     id="text4355-6"
     sodipodi:linespacing="125%"><tspan
       sodipodi:role="line"
       id="tspan4357-49"
       x="53.107742"
       y="76.082359">d</tspan></text>
  <g
     style="fill:none;stroke:none"
     id="g6346"
     transform="translate(32,48)">
    <polygon
       points="16,16 0,16 0,0 16,0 "
       id="polygon6348" />
    <path
       style="fill:#000000"
       inkscape:connector-curvature="0"
       id="path6350"
       d="M 8,1 C 4.136,1 1,4.136 1,8 c 0,3.864 3.136,7 7,7 3.864,0 7,-3.136 7,-7 C 15,4.136 11.864,1 8,1 L 8,1 z M 2.5,8 C 2.5,4.968125 4.968125,2.5 8,2.5 c 3.031875,0 5.5,2.468125 5.5,5.5 0,3.031875 -2.468125,5.5 -5.5,5.5 C 4.968125,13.5 2.5,11.031875 2.5,8 z M 9,12 9,7 7,7 7,12 9,12 z M 7,6 9,6 9,4 7,4 7,6 7,6 z" />
  </g>
</svg>
