<svg width="20" height="20" viewBox="0 0 20 20" fill="none" xmlns="http://www.w3.org/2000/svg">
    <path fill="black"
        d="M 10 18.332031 C 8.390625 18.332031 7.015625 17.765625 5.875 16.625 C 4.734375 15.484375 4.167969 14.109375 4.167969 12.5 L 4.167969 7.5 C 4.167969 5.890625 4.734375 4.515625 5.875 3.375 C 7.015625 2.234375 8.390625 1.667969 10 1.667969 C 11.609375 1.667969 12.984375 2.234375 14.125 3.375 C 15.265625 4.515625 15.832031 5.890625 15.832031 7.5 L 15.832031 12.5 C 15.832031 14.109375 15.265625 15.484375 14.125 16.625 C 12.984375 17.765625 11.609375 18.332031 10 18.332031 Z M 10.832031 7.5 L 14.167969 7.5 C 14.167969 6.5 13.851562 5.617188 13.21875 4.855469 C 12.585938 4.089844 11.792969 3.609375 10.832031 3.417969 Z M 5.832031 7.5 L 9.167969 7.5 L 9.167969 3.417969 C 8.207031 3.609375 7.414062 4.089844 6.78125 4.855469 C 6.148438 5.617188 5.832031 6.5 5.832031 7.5 Z M 10 16.667969 C 11.152344 16.667969 12.136719 16.261719 12.949219 15.449219 C 13.761719 14.636719 14.167969 13.652344 14.167969 12.5 L 14.167969 9.167969 L 5.832031 9.167969 L 5.832031 12.5 C 5.832031 13.652344 6.238281 14.636719 7.050781 15.449219 C 7.863281 16.261719 8.847656 16.667969 10 16.667969 Z M 10 9.167969 Z M 10.832031 7.5 Z M 9.167969 7.5 Z M 10 9.167969 Z M 10 9.167969 " />
</svg>