<svg width="20" height="20" viewBox="0 0 20 20" fill="none" xmlns="http://www.w3.org/2000/svg">
    <path fill="black"
            d="M10 18C8.33333 18 6.91667 17.4167 5.75 16.25C4.58333 15.0833 4 13.6667 4 12V8C4 6.33333 4.58333 4.91667 5.75 3.75C6.91667 2.58333 8.33333 2 10 2C11.6667 2 13.0833 2.58333 14.25 3.75C15.4167 4.91667 16 6.33333 16 8V12C16 13.6667 15.4167 15.0833 14.25 16.25C13.0833 17.4167 11.6667 18 10 18ZM10.75 7.5H14.4583C14.3472 6.5 13.9514 5.63889 13.2708 4.91667C12.5903 4.19444 11.75 3.75 10.75 3.58333V7.5ZM5.54167 7.5H9.25V3.58333C8.25 3.73611 7.40972 4.17708 6.72917 4.90625C6.04861 5.63542 5.65278 6.5 5.54167 7.5ZM10 16.5C11.245 16.5 12.3063 16.0613 13.1838 15.1838C14.0613 14.3063 14.5 13.245 14.5 12V9H5.5V12C5.5 13.245 5.93875 14.3063 6.81625 15.1838C7.69375 16.0613 8.755 16.5 10 16.5Z" fill="black"/>
</svg>