<svg width="16" height="16" viewBox="0 0 16 16" fill="none" xmlns="http://www.w3.org/2000/svg">
<path d="M11.0892 7.48504L11.6364 6.9492C9.35545 4.71548 5.65045 4.71548 3.36364 6.9492L4.54545 8.10657C6.14125 6.54379 8.71011 6.51014 10.3478 8.00563C10.5736 7.80549 10.8222 7.63049 11.0892 7.48504Z" fill="black"/>
<path d="M2.18182 5.79183L1 4.63446C4.59273 1.12185 10.4132 1.12185 14 4.63446L12.8182 5.79183C9.88136 2.91577 5.11864 2.91577 2.18182 5.79183Z" fill="black"/>
<path d="M7.5 11L5.72727 9.26394C6.70818 8.30333 8.29773 8.30333 9.27273 9.26394L7.5 11Z" fill="black"/>
<path d="M15.2922 11.294C15.3046 11.198 15.3138 11.102 15.3138 11C15.3138 10.898 15.3046 10.802 15.2922 10.706L15.943 10.211C16.0016 10.166 16.017 10.085 15.98 10.019L15.3631 8.981C15.3261 8.915 15.2428 8.891 15.175 8.915L14.407 9.215C14.2466 9.095 14.0739 8.996 13.8858 8.921L13.7686 8.126C13.7594 8.054 13.6946 8 13.6175 8H12.3839C12.3067 8 12.242 8.054 12.2327 8.126L12.1155 8.921C11.9274 8.996 11.7547 9.098 11.5943 9.215L10.8263 8.915C10.7554 8.888 10.6752 8.915 10.6382 8.981L10.0214 10.019C9.98131 10.085 9.99978 10.166 10.0584 10.211L10.7091 10.706C10.6968 10.802 10.6875 10.901 10.6875 11C10.6875 11.099 10.6968 11.198 10.7091 11.294L10.0584 11.789C9.99977 11.834 9.98434 11.915 10.0214 11.981L10.6382 13.019C10.6752 13.085 10.7585 13.109 10.8263 13.085L11.5943 12.785C11.7547 12.905 11.9274 13.004 12.1155 13.079L12.2327 13.874C12.242 13.946 12.3067 14 12.3839 14H13.6175C13.6946 14 13.7594 13.946 13.7686 13.874L13.8858 13.079C14.074 13.004 14.2467 12.902 14.4071 12.785L15.175 13.085C15.246 13.112 15.3261 13.085 15.3631 13.019L15.98 11.981C16.017 11.915 16.0016 11.834 15.943 11.789L15.2922 11.294ZM13.0007 12.05C12.4055 12.05 11.9213 11.579 11.9213 11C11.9213 10.421 12.4055 9.95 13.0007 9.95C13.5959 9.95 14.0801 10.421 14.0801 11C14.0801 11.579 13.5959 12.05 13.0007 12.05Z" fill="black"/>
</svg>
