<svg width="20" height="20" viewBox="0 0 20 20" fill="none" xmlns="http://www.w3.org/2000/svg">
<path d="M7.80215 12.0788C8.14346 11.7943 8.51892 11.5726 8.9285 11.4136C9.33808 11.2542 9.75913 11.1744 10.1917 11.1744C10.2714 11.1744 10.3481 11.1775 10.4218 11.1835C10.4961 11.1889 10.5674 11.1974 10.6356 11.2089C10.4762 11.5158 10.3566 11.8399 10.2768 12.1812C10.1971 12.5225 10.1572 12.8753 10.1572 13.2396C10.1572 13.4329 10.1687 13.6235 10.1917 13.8113C10.2146 13.9992 10.2487 14.1841 10.294 14.3659L10.1917 14.4683L7.80215 12.0788ZM6.06142 10.3381L4.90148 9.17814C5.61798 8.49551 6.43141 7.97779 7.34178 7.62501C8.25214 7.27222 9.2021 7.09583 10.1917 7.09583C11.0447 7.09583 11.8696 7.23235 12.6663 7.50541C13.4626 7.77846 14.202 8.17112 14.8846 8.68337C14.4865 8.66043 14.0911 8.69429 13.6985 8.78494C13.3058 8.87614 12.9277 9.01841 12.564 9.21173C12.1882 9.05281 11.8013 8.93349 11.4032 8.85375C11.0051 8.77402 10.6012 8.73416 10.1917 8.73416C9.41781 8.73416 8.67838 8.87068 7.97335 9.14374C7.26778 9.41679 6.63047 9.81491 6.06142 10.3381ZM3.16076 7.45462L2 6.27666C3.10369 5.19591 4.36083 4.37947 5.77144 3.82736C7.18258 3.27579 8.65599 3 10.1917 3C11.7273 3 13.2007 3.27879 14.6119 3.83637C16.0225 4.39395 17.2796 5.20738 18.3833 6.27666L17.2225 7.45462C16.2554 6.56664 15.1689 5.87527 13.9631 5.38049C12.7573 4.88572 11.5001 4.63833 10.1917 4.63833C8.88317 4.63833 7.62603 4.88299 6.42021 5.3723C5.2144 5.86162 4.12792 6.55572 3.16076 7.45462ZM15.2606 9.9629L15.4818 10.9189C15.6413 10.9757 15.7977 11.0409 15.9512 11.1146C16.1047 11.1889 16.2385 11.2886 16.3526 11.4136L17.2742 11.1572L17.8197 12.096L17.1374 12.7448C17.1718 12.9043 17.186 13.0719 17.1799 13.2478C17.1745 13.4241 17.1546 13.5921 17.1201 13.7515L17.8197 14.4175L17.2742 15.3555L16.3354 15.0827C16.2103 15.1963 16.0765 15.2902 15.934 15.3645C15.792 15.4382 15.6413 15.5035 15.4818 15.5603L15.2434 16.5162H14.1507L13.9459 15.5603C13.787 15.5035 13.6362 15.4382 13.4937 15.3645C13.3517 15.2902 13.2182 15.1963 13.0931 15.0827L12.1544 15.3727L11.608 14.4339L12.3076 13.7515C12.2737 13.5921 12.2568 13.4272 12.2568 13.2568C12.2568 13.0858 12.2737 12.9209 12.3076 12.762L11.608 12.096L12.1544 11.1409L13.0759 11.4136C13.201 11.2886 13.3375 11.1862 13.4855 11.1065C13.6335 11.0267 13.787 10.9642 13.9459 10.9189L14.1679 9.9629H15.2606ZM14.7143 12.0108C14.3729 12.0108 14.0827 12.1304 13.8435 12.3696C13.6048 12.6083 13.4855 12.8982 13.4855 13.2396C13.4855 13.5809 13.6048 13.8709 13.8435 14.1095C14.0827 14.3487 14.3729 14.4683 14.7143 14.4683C15.0556 14.4683 15.3456 14.3487 15.5842 14.1095C15.8234 13.8709 15.943 13.5809 15.943 13.2396C15.943 12.8982 15.8234 12.6083 15.5842 12.3696C15.3456 12.1304 15.0556 12.0108 14.7143 12.0108Z" fill="black"/>
</svg>
