<svg width="20" height="20" viewBox="0 0 20 20" fill="none" xmlns="http://www.w3.org/2000/svg">
<g clip-path="url(#clip0_4467_2504)">
<path d="M4.4375 17.5625C4.72917 17.8542 5.08333 18 5.5 18H10.1C10.0344 17.6769 10 17.3425 10 17C10 16.8313 10.0084 16.6645 10.0247 16.5H5.5V3.5H11V7H14.5V12.0247C14.6645 12.0084 14.8313 12 15 12C15.3425 12 15.6769 12.0344 16 12.1V6L12 2H5.5C5.08333 2 4.72917 2.14583 4.4375 2.4375C4.14583 2.72917 4 3.08333 4 3.5V16.5C4 16.9167 4.14583 17.2708 4.4375 17.5625Z" fill="black"/>
<path d="M18 17C18 18.6569 16.6569 20 15 20C13.3432 20 12 18.6569 12 17C12 15.3432 13.3432 14 15 14C16.6569 14 18 15.3432 18 17Z" fill="black"/>
</g>
<defs>
<clipPath id="clip0_4467_2504">
<rect width="20" height="20" fill="white"/>
</clipPath>
</defs>
</svg>
