<svg width="20" height="20" viewBox="0 0 20 20" fill="none" xmlns="http://www.w3.org/2000/svg">
<g clip-path="url(#clip0_4467_2519)">
<path d="M10 18C8.90278 18 7.86806 17.7917 6.89583 17.375C5.92361 16.9583 5.06944 16.3889 4.33333 15.6667C3.61111 14.9306 3.04167 14.0764 2.625 13.1042C2.20833 12.1319 2 11.0972 2 10C2 8.88889 2.20833 7.85417 2.625 6.89583C3.05556 5.92361 3.63889 5.07639 4.375 4.35417C5.125 3.61805 5.99306 3.04167 6.97917 2.625C7.97917 2.20833 9.04167 2 10.1667 2C11.25 2 12.2639 2.1875 13.2083 2.5625C14.1667 2.9375 15 3.45139 15.7083 4.10417C16.4167 4.75694 16.9722 5.52083 17.375 6.39583C17.7917 7.27083 18 8.20833 18 9.20833C18 10.5417 17.5347 11.6736 16.6042 12.6042C15.6736 13.5347 14.5417 14 13.2083 14H11.7917C11.6806 14 11.5833 14.0347 11.5 14.1042C11.4167 14.1736 11.375 14.2639 11.375 14.375C11.375 14.5833 11.4792 14.7569 11.6875 14.8958C11.8958 15.0347 12 15.4028 12 16C12 16.5139 11.8125 16.9792 11.4375 17.3958C11.0625 17.7986 10.5833 18 10 18ZM5.5 10.75C5.84722 10.75 6.13889 10.6319 6.375 10.3958C6.625 10.1458 6.75 9.84722 6.75 9.5C6.75 9.15278 6.625 8.86111 6.375 8.625C6.13889 8.375 5.84722 8.25 5.5 8.25C5.15278 8.25 4.85417 8.375 4.60417 8.625C4.36806 8.86111 4.25 9.15278 4.25 9.5C4.25 9.84722 4.36806 10.1458 4.60417 10.3958C4.85417 10.6319 5.15278 10.75 5.5 10.75ZM8 7.75C8.34722 7.75 8.63889 7.63194 8.875 7.39583C9.125 7.14583 9.25 6.84722 9.25 6.5C9.25 6.15278 9.125 5.86111 8.875 5.625C8.63889 5.375 8.34722 5.25 8 5.25C7.65278 5.25 7.35417 5.375 7.10417 5.625C6.86806 5.86111 6.75 6.15278 6.75 6.5C6.75 6.84722 6.86806 7.14583 7.10417 7.39583C7.35417 7.63194 7.65278 7.75 8 7.75ZM12 7.75C12.3472 7.75 12.6389 7.63194 12.875 7.39583C13.125 7.14583 13.25 6.84722 13.25 6.5C13.25 6.15278 13.125 5.86111 12.875 5.625C12.6389 5.375 12.3472 5.25 12 5.25C11.6528 5.25 11.3542 5.375 11.1042 5.625C10.8681 5.86111 10.75 6.15278 10.75 6.5C10.75 6.84722 10.8681 7.14583 11.1042 7.39583C11.3542 7.63194 11.6528 7.75 12 7.75ZM14.5 10.75C14.8472 10.75 15.1389 10.6319 15.375 10.3958C15.625 10.1458 15.75 9.84722 15.75 9.5C15.75 9.15278 15.625 8.86111 15.375 8.625C15.1389 8.375 14.8472 8.25 14.5 8.25C14.1528 8.25 13.8542 8.375 13.6042 8.625C13.3681 8.86111 13.25 9.15278 13.25 9.5C13.25 9.84722 13.3681 10.1458 13.6042 10.3958C13.8542 10.6319 14.1528 10.75 14.5 10.75ZM10 16.5C10.1528 16.5 10.2708 16.4444 10.3542 16.3333C10.4514 16.2083 10.5 16.0972 10.5 16C10.5 15.7778 10.3958 15.5833 10.1875 15.4167C9.97917 15.25 9.875 14.9028 9.875 14.375C9.875 13.8472 10.0556 13.4028 10.4167 13.0417C10.7917 12.6806 11.2431 12.5 11.7708 12.5H13.2083C14.125 12.5 14.9028 12.1806 15.5417 11.5417C16.1806 10.9028 16.5 10.125 16.5 9.20833C16.5 7.61111 15.8819 6.26389 14.6458 5.16667C13.4236 4.05555 11.9306 3.5 10.1667 3.5C8.30556 3.5 6.72917 4.13194 5.4375 5.39583C4.14583 6.65972 3.5 8.19444 3.5 10C3.5 11.8056 4.13194 13.3403 5.39583 14.6042C6.65972 15.8681 8.19444 16.5 10 16.5Z" fill="black"/>
</g>
<defs>
<clipPath id="clip0_4467_2519">
<rect width="20" height="20" fill="white"/>
</clipPath>
</defs>
</svg>
