<svg width="20" height="20" viewBox="0 0 20 20" fill="none" xmlns="http://www.w3.org/2000/svg"><path d="M7.5 13H9V7H7.5V13ZM11 13H12.5V7H11V13ZM10.0058 18C8.90472 18 7.86806 17.7917 6.89583 17.375C5.92361 16.9583 5.07292 16.3854 4.34375 15.6563C3.61458 14.9271 3.04167 14.0767 2.625 13.105C2.20833 12.1333 2 11.0951 2 9.99042C2 8.88569 2.20833 7.85069 2.625 6.88542C3.04167 5.92014 3.61458 5.07292 4.34375 4.34375C5.07292 3.61458 5.92333 3.04167 6.895 2.625C7.86667 2.20833 8.90486 2 10.0096 2C11.1143 2 12.1493 2.20833 13.1146 2.625C14.0799 3.04167 14.9271 3.61458 15.6563 4.34375C16.3854 5.07292 16.9583 5.92167 17.375 6.89C17.7917 7.85847 18 8.89319 18 9.99417C18 11.0953 17.7917 12.1319 17.375 13.1042C16.9583 14.0764 16.3854 14.9271 15.6563 15.6563C14.9271 16.3854 14.0783 16.9583 13.11 17.375C12.1415 17.7917 11.1068 18 10.0058 18ZM10 16.5C11.8056 16.5 13.3403 15.8681 14.6042 14.6042C15.8681 13.3403 16.5 11.8056 16.5 10C16.5 8.19444 15.8681 6.65972 14.6042 5.39583C13.3403 4.13194 11.8056 3.5 10 3.5C8.19444 3.5 6.65972 4.13194 5.39583 5.39583C4.13194 6.65972 3.5 8.19444 3.5 10C3.5 11.8056 4.13194 13.3403 5.39583 14.6042C6.65972 15.8681 8.19444 16.5 10 16.5Z" fill="black"/></svg>