<svg width="20" height="20" viewBox="0 0 20 20" fill="none" xmlns="http://www.w3.org/2000/svg">
<path d="M5.5 15.5H6.5625L14.375 7.6875L13.3125 6.625L5.5 14.4375V15.5ZM4 17V13.8125L14.375 3.4375C14.5278 3.28472 14.6933 3.17361 14.8717 3.10417C15.0499 3.03472 15.2374 3 15.4342 3C15.6308 3 15.8194 3.03472 16 3.10417C16.1806 3.17361 16.3472 3.28472 16.5 3.4375L17.5625 4.5C17.7153 4.65278 17.8264 4.81944 17.8958 5C17.9653 5.18056 18 5.36486 18 5.55292C18 5.75361 17.9651 5.94486 17.8954 6.12667C17.8257 6.30847 17.7147 6.47458 17.5625 6.625L7.1875 17H4ZM13.8344 7.16563L13.3125 6.625L14.375 7.6875L13.8344 7.16563ZM5.5 10C5.5 8.74542 5.06361 7.68181 4.19083 6.80917C3.31819 5.93639 2.25458 5.5 1 5.5C2.25458 5.5 3.31819 5.06361 4.19083 4.19083C5.06361 3.31819 5.5 2.25458 5.5 1C5.5 2.25458 5.93639 3.31819 6.80917 4.19083C7.68181 5.06361 8.74542 5.5 10 5.5C8.74542 5.5 7.68181 5.93639 6.80917 6.80917C5.93639 7.68181 5.5 8.74542 5.5 10Z" fill="black"/>
</svg>
