<svg width="186" height="50" viewBox="0 0 186 50" fill="none" xmlns="http://www.w3.org/2000/svg">
<rect x="0.5" width="81" height="16" fill="#FACC15"/>
<rect x="82.5" width="42" height="16" fill="#FACC15"/>
<rect x="42.5" y="17" width="10" height="16" fill="#D190FF"/>
<rect x="53.5" y="17" width="84" height="16" fill="#D190FF"/>
<rect x="138.5" y="17" width="39" height="16" fill="#D190FF"/>
<rect x="56.5" y="34" width="74" height="16" fill="#37BE5F"/>
<rect x="131.5" y="34" width="54" height="16" fill="#37BE5F"/>
<rect x="1.5" y="1" width="79" height="14" stroke="#1F1F1F" stroke-width="2"/>
<rect x="132.5" y="35" width="52" height="14" stroke="#1F1F1F" stroke-width="2"/>
<g filter="url(#filter0_dd_4690_314721)">
<path d="M78.7261 6.95605L128.208 39.0898" stroke="#1F1F1F" stroke-width="2" stroke-linecap="round"/>
<circle cx="80.4031" cy="8.04544" r="2" transform="rotate(33 80.4031 8.04544)" fill="white" stroke="#1F1F1F" stroke-width="2"/>
<circle cx="132.401" cy="41.813" r="2" transform="rotate(33 132.401 41.813)" fill="white" stroke="#1F1F1F" stroke-width="2"/>
<path d="M129.239 40.749C129.949 40.7371 130.42 40.0107 130.143 39.3578L127.213 32.4675C126.899 31.7305 125.89 31.6425 125.454 32.3142L120.897 39.3304C120.461 40.002 120.952 40.8883 121.753 40.8749L129.239 40.749Z" fill="#1F1F1F"/>
</g>
<defs>
<filter id="filter0_dd_4690_314721" x="70.0747" y="-2.45898" width="69.3262" height="54.2744" filterUnits="userSpaceOnUse" color-interpolation-filters="sRGB">
<feFlood flood-opacity="0" result="BackgroundImageFix"/>
<feColorMatrix in="SourceAlpha" type="matrix" values="0 0 0 0 0 0 0 0 0 0 0 0 0 0 0 0 0 0 127 0" result="hardAlpha"/>
<feMorphology radius="1" operator="dilate" in="SourceAlpha" result="effect1_dropShadow_4690_314721"/>
<feOffset dy="1"/>
<feGaussianBlur stdDeviation="1.5"/>
<feColorMatrix type="matrix" values="0 0 0 0 0 0 0 0 0 0 0 0 0 0 0 0 0 0 0.15 0"/>
<feBlend mode="normal" in2="BackgroundImageFix" result="effect1_dropShadow_4690_314721"/>
<feColorMatrix in="SourceAlpha" type="matrix" values="0 0 0 0 0 0 0 0 0 0 0 0 0 0 0 0 0 0 127 0" result="hardAlpha"/>
<feOffset dy="1"/>
<feGaussianBlur stdDeviation="1"/>
<feColorMatrix type="matrix" values="0 0 0 0 0 0 0 0 0 0 0 0 0 0 0 0 0 0 0.3 0"/>
<feBlend mode="normal" in2="effect1_dropShadow_4690_314721" result="effect2_dropShadow_4690_314721"/>
<feBlend mode="normal" in="SourceGraphic" in2="effect2_dropShadow_4690_314721" result="shape"/>
</filter>
</defs>
</svg>
