<svg width="20" height="20" viewBox="0 0 20 20" fill="none" xmlns="http://www.w3.org/2000/svg">
<path d="M8.938 12.542C9.25733 12.8473 9.653 12.9897 10.125 12.969C10.597 12.9483 10.9443 12.7713 11.167 12.438L15.5 6L9.062 10.333C8.71533 10.5697 8.528 10.9203 8.5 11.385C8.472 11.8503 8.618 12.236 8.938 12.542ZM10.021 4C10.8543 4 11.6043 4.10767 12.271 4.323C12.9377 4.53833 13.5417 4.80567 14.083 5.125L12.646 6.062C12.2567 5.882 11.8503 5.74333 11.427 5.646C11.0037 5.54867 10.535 5.5 10.021 5.5C8.215 5.5 6.67667 6.14933 5.406 7.448C4.13533 8.74667 3.5 10.264 3.5 12C3.5 12.528 3.53833 12.962 3.615 13.302C3.691 13.642 3.81233 14.0413 3.979 14.5H16C16.1807 14.0413 16.309 13.6213 16.385 13.24C16.4617 12.858 16.5 12.4447 16.5 12C16.5 11.4167 16.42 10.8333 16.26 10.25C16.1007 9.66667 15.868 9.132 15.562 8.646L16.458 7.292C16.9447 7.95867 17.3233 8.69467 17.594 9.5C17.8647 10.3053 18 11.1247 18 11.958C18 12.6667 17.941 13.2847 17.823 13.812C17.705 14.34 17.514 14.8263 17.25 15.271C17.1113 15.507 16.9343 15.6873 16.719 15.812C16.5037 15.9373 16.264 16 16 16H4C3.736 16 3.49633 15.9373 3.281 15.812C3.06567 15.6873 2.88867 15.507 2.75 15.271C2.486 14.8263 2.295 14.34 2.177 13.812C2.059 13.2847 2 12.6667 2 11.958C2 10.8473 2.21167 9.80933 2.635 8.844C3.059 7.87867 3.632 7.03833 4.354 6.323C5.07667 5.60767 5.92733 5.04167 6.906 4.625C7.88533 4.20833 8.92367 4 10.021 4Z" fill="black"/>
</svg>
