<svg width="160" height="66" viewBox="0 0 160 66" fill="none" xmlns="http://www.w3.org/2000/svg">
<mask id="path-1-inside-1_4690_314791" fill="white">
<path d="M0 0H160V66H0V0Z"/>
</mask>
<path d="M0 0H160V66H0V0Z" fill="url(#paint0_linear_4690_314791)" fill-opacity="0.15"/>
<path d="M160 66V70H161V66H160ZM0 66H-1V70H0V66ZM159 0V66H161V0H159ZM160 62H0V70H160V62ZM1 66V0H-1V66H1Z" fill="#FF4896" mask="url(#path-1-inside-1_4690_314791)"/>
<path d="M69.042 33.667V35H62.8896V25.1357H64.4209V33.667H69.042ZM72.8701 35.123C71.4346 35.123 70.3887 34.2617 70.3887 32.9082C70.3887 31.5752 71.3867 30.8027 73.1572 30.6934L75.1738 30.5703V29.9209C75.1738 29.1074 74.6543 28.6494 73.6494 28.6494C72.8291 28.6494 72.2617 28.957 72.0977 29.4971H70.6758C70.8262 28.2461 72.0293 27.4326 73.7178 27.4326C75.584 27.4326 76.6367 28.3623 76.6367 29.9209V35H75.2217V33.9473H75.1055C74.6611 34.6992 73.8477 35.123 72.8701 35.123ZM73.2461 33.9404C74.3535 33.9404 75.1738 33.2158 75.1738 32.2588V31.6162L73.3555 31.7393C72.3301 31.8076 71.8652 32.1699 71.8652 32.8467C71.8652 33.5371 72.4463 33.9404 73.2461 33.9404ZM82.6729 35.123C81.6338 35.123 80.7656 34.6445 80.3213 33.8242H80.2119V35H78.7969V24.6641H80.2666V28.752H80.3828C80.7793 27.9453 81.6543 27.4463 82.6729 27.4463C84.5596 27.4463 85.749 28.9297 85.749 31.2881C85.749 33.626 84.5527 35.123 82.6729 35.123ZM82.249 28.7041C81.0186 28.7041 80.2461 29.6953 80.2393 31.2881C80.2461 32.8809 81.0117 33.8652 82.249 33.8652C83.4932 33.8652 84.2383 32.8945 84.2383 31.2881C84.2383 29.6816 83.4932 28.7041 82.249 28.7041ZM92.4004 33.0107H93.8154C93.4941 34.3232 92.291 35.1436 90.5889 35.1436C88.4561 35.1436 87.1504 33.6738 87.1504 31.3018C87.1504 28.9434 88.4834 27.4326 90.582 27.4326C92.6533 27.4326 93.9043 28.8477 93.9043 31.1719V31.6777H88.6475V31.7461C88.6953 33.0928 89.4541 33.9404 90.6299 33.9404C91.5186 33.9404 92.127 33.6123 92.4004 33.0107ZM90.5752 28.6289C89.4883 28.6289 88.7295 29.4219 88.6475 30.6182H92.4072C92.373 29.415 91.6621 28.6289 90.5752 28.6289ZM95.7363 35V24.6641H97.2061V35H95.7363Z" fill="#B90063"/>
<path d="M70.8047 54V52.3184H66.6797V51.2051C67.793 49.2949 69.0352 47.2969 70.2012 45.5449H72.0703V51.2051H73.2363V52.3184H72.0703V54H70.8047ZM67.9395 51.1465V51.2285H70.8223V46.6523H70.7461C69.8379 48.0176 68.8066 49.6641 67.9395 51.1465ZM75.4746 54.0879C74.9824 54.0879 74.6133 53.7188 74.6133 53.2441C74.6133 52.7695 74.9824 52.4004 75.4746 52.4004C75.9727 52.4004 76.3359 52.7695 76.3359 53.2441C76.3359 53.7188 75.9727 54.0879 75.4746 54.0879ZM78.0117 47.9941C78.0117 46.4414 79.2129 45.3398 80.918 45.3398C82.5059 45.3398 83.6484 46.3535 83.6484 47.7422C83.6484 48.7207 83.2207 49.418 81.7383 50.9062L79.875 52.7812V52.8809H83.7773V54H78.082V53.1094L80.9766 50.0977C82.0488 48.9785 82.3301 48.5566 82.3301 47.8711C82.3301 47.0508 81.7734 46.4238 80.8359 46.4238C79.8809 46.4238 79.2539 47.0566 79.2539 47.9941H78.0117ZM88.4531 54.2051C86.7715 54.2051 85.5879 53.1797 85.5059 51.709H86.7598C86.8535 52.5527 87.5391 53.1094 88.459 53.1094C89.4844 53.1094 90.1758 52.3711 90.1758 51.2695C90.1758 50.2031 89.4902 49.4883 88.4941 49.4883C87.7441 49.4883 87.1523 49.8398 86.8418 50.4258H85.6406L86.1152 45.5449H91.0195V46.6582H87.1348L86.8887 49.2539H86.9883C87.375 48.7324 88.002 48.457 88.8574 48.457C90.2871 48.457 91.459 49.5586 91.459 51.2461C91.459 53.0039 90.2461 54.2051 88.4531 54.2051ZM96.252 49.418C96.252 48.3105 97.2891 47.5137 98.7305 47.5137C100.166 47.5137 101.104 48.1816 101.227 49.2832H100.02C99.9023 48.8086 99.4453 48.498 98.7305 48.498C98.0273 48.498 97.4941 48.8438 97.4941 49.3594C97.4941 49.752 97.8164 49.998 98.5078 50.1621L99.5684 50.4082C100.781 50.6895 101.35 51.2109 101.35 52.1367C101.35 53.3203 100.23 54.123 98.707 54.123C97.1895 54.123 96.1992 53.4375 96.0879 52.3301H97.3477C97.5059 52.8281 97.9746 53.1387 98.7363 53.1387C99.5215 53.1387 100.078 52.7754 100.078 52.2539C100.078 51.8555 99.7793 51.5977 99.1406 51.4453L98.0273 51.1816C96.8145 50.9004 96.252 50.3613 96.252 49.418Z" fill="#B90063"/>
<defs>
<linearGradient id="paint0_linear_4690_314791" x1="80" y1="0" x2="80" y2="66" gradientUnits="userSpaceOnUse">
<stop stop-color="#FF7DD2" stop-opacity="0"/>
<stop offset="0.85" stop-color="#FF7DD2"/>
</linearGradient>
</defs>
</svg>
