<svg width="192" height="86" viewBox="0 0 192 86" fill="none" xmlns="http://www.w3.org/2000/svg">
<g clip-path="url(#clip0_4690_314478)">
<rect x="35.5" y="41" width="128" height="2" fill="#E1E3E1"/>
<rect x="33.5" y="38" width="2" height="8" fill="#E1E3E1"/>
<rect x="163.5" y="38" width="2" height="8" fill="#E1E3E1"/>
<g clip-path="url(#clip1_4690_314478)">
<rect width="68" height="16" transform="translate(45.5 34)" fill="white"/>
<rect opacity="0.4" x="45.5" y="34" width="68" height="16" fill="#80DA88"/>
<rect x="51.5" y="34" width="62" height="16" fill="#80DA88"/>
</g>
</g>
<rect x="22.5" y="59" width="167" height="2" fill="#E1E3E1"/>
<rect x="20.5" y="56" width="2" height="8" fill="#E1E3E1"/>
<rect x="189.5" y="56" width="2" height="8" fill="#E1E3E1"/>
<g clip-path="url(#clip2_4690_314478)">
<rect width="83" height="16" transform="translate(71.5 52)" fill="white"/>
<rect opacity="0.4" x="71.5" y="52" width="83" height="16" fill="#FFE07C"/>
<rect x="77.5" y="52" width="77" height="16" fill="#FFE07C"/>
</g>
<rect x="82.5" y="77" width="104" height="2" fill="#E1E3E1"/>
<rect x="80.5" y="74" width="2" height="8" fill="#E1E3E1"/>
<rect x="186.5" y="74" width="2" height="8" fill="#E1E3E1"/>
<g clip-path="url(#clip3_4690_314478)">
<rect width="44" height="16" transform="translate(102.5 70)" fill="white"/>
<rect opacity="0.4" x="102.5" y="70" width="44" height="16" fill="#80DA88"/>
<rect x="113.5" y="70" width="33" height="16" fill="#80DA88"/>
</g>
<rect x="2.5" y="23" width="150" height="2" fill="#E1E3E1"/>
<rect x="0.5" y="20" width="2" height="8" fill="#E1E3E1"/>
<rect x="152.5" y="20" width="2" height="8" fill="#E1E3E1"/>
<g clip-path="url(#clip4_4690_314478)">
<rect width="142" height="16" transform="translate(10.5 16)" fill="white"/>
<rect opacity="0.4" x="10.5" y="16" width="142" height="16" fill="#D9BAFD"/>
<rect x="14.5" y="16" width="138" height="16" fill="#D9BAFD"/>
</g>
<rect x="34.5" y="35" width="130" height="14" stroke="#1F1F1F" stroke-width="2"/>
<g filter="url(#filter0_dd_4690_314478)">
<path d="M65.5 7C65.5 4.79086 67.2909 3 69.5 3H110.5C112.709 3 114.5 4.79086 114.5 7V23C114.5 25.2091 112.709 27 110.5 27H69.5C67.2909 27 65.5 25.2091 65.5 23V7Z" fill="#1F1F1F"/>
<path d="M79.042 18.667V20H72.8896V10.1357H74.4209V18.667H79.042ZM82.8701 20.123C81.4346 20.123 80.3887 19.2617 80.3887 17.9082C80.3887 16.5752 81.3867 15.8027 83.1572 15.6934L85.1738 15.5703V14.9209C85.1738 14.1074 84.6543 13.6494 83.6494 13.6494C82.8291 13.6494 82.2617 13.957 82.0977 14.4971H80.6758C80.8262 13.2461 82.0293 12.4326 83.7178 12.4326C85.584 12.4326 86.6367 13.3623 86.6367 14.9209V20H85.2217V18.9473H85.1055C84.6611 19.6992 83.8477 20.123 82.8701 20.123ZM83.2461 18.9404C84.3535 18.9404 85.1738 18.2158 85.1738 17.2588V16.6162L83.3555 16.7393C82.3301 16.8076 81.8652 17.1699 81.8652 17.8467C81.8652 18.5371 82.4463 18.9404 83.2461 18.9404ZM92.6729 20.123C91.6338 20.123 90.7656 19.6445 90.3213 18.8242H90.2119V20H88.7969V9.66406H90.2666V13.752H90.3828C90.7793 12.9453 91.6543 12.4463 92.6729 12.4463C94.5596 12.4463 95.749 13.9297 95.749 16.2881C95.749 18.626 94.5527 20.123 92.6729 20.123ZM92.249 13.7041C91.0186 13.7041 90.2461 14.6953 90.2393 16.2881C90.2461 17.8809 91.0117 18.8652 92.249 18.8652C93.4932 18.8652 94.2383 17.8945 94.2383 16.2881C94.2383 14.6816 93.4932 13.7041 92.249 13.7041ZM102.4 18.0107H103.815C103.494 19.3232 102.291 20.1436 100.589 20.1436C98.4561 20.1436 97.1504 18.6738 97.1504 16.3018C97.1504 13.9434 98.4834 12.4326 100.582 12.4326C102.653 12.4326 103.904 13.8477 103.904 16.1719V16.6777H98.6475V16.7461C98.6953 18.0928 99.4541 18.9404 100.63 18.9404C101.519 18.9404 102.127 18.6123 102.4 18.0107ZM100.575 13.6289C99.4883 13.6289 98.7295 14.4219 98.6475 15.6182H102.407C102.373 14.415 101.662 13.6289 100.575 13.6289ZM105.736 20V9.66406H107.206V20H105.736Z" fill="white"/>
<path fill-rule="evenodd" clip-rule="evenodd" d="M100.95 35.1415L96.0001 30.1917L92.5 26.606L89.6361 26.6562L99.5356 36.5557L100.95 35.1415Z" fill="#1F1F1F"/>
<circle cx="3" cy="3" r="3" transform="matrix(-0.707107 -0.707107 -0.707107 0.707107 103.778 35.1416)" fill="#1F1F1F"/>
<rect x="47.5" y="8.70996" width="12" height="12" rx="6" fill="white"/>
<mask id="mask0_4690_314478" style="mask-type:alpha" maskUnits="userSpaceOnUse" x="45" y="6" width="17" height="17">
<rect x="45.5" y="6.70996" width="16" height="16" fill="#D9D9D9"/>
</mask>
<g mask="url(#mask0_4690_314478)">
<path d="M49.4002 18.1096C49.9668 17.6763 50.6002 17.3346 51.3002 17.0846C52.0002 16.8346 52.7335 16.7096 53.5002 16.7096C54.2668 16.7096 55.0002 16.8346 55.7002 17.0846C56.4002 17.3346 57.0335 17.6763 57.6002 18.1096C57.9891 17.6541 58.2918 17.1374 58.5085 16.5596C58.7252 15.9819 58.8335 15.3652 58.8335 14.7096C58.8335 13.2319 58.3141 11.9735 57.2752 10.9346C56.2363 9.89575 54.9779 9.3763 53.5002 9.3763C52.0224 9.3763 50.7641 9.89575 49.7252 10.9346C48.6863 11.9735 48.1668 13.2319 48.1668 14.7096C48.1668 15.3652 48.2752 15.9819 48.4918 16.5596C48.7085 17.1374 49.0113 17.6541 49.4002 18.1096ZM53.5002 15.3763C52.8446 15.3763 52.2918 15.1513 51.8418 14.7013C51.3918 14.2513 51.1668 13.6985 51.1668 13.043C51.1668 12.3874 51.3918 11.8346 51.8418 11.3846C52.2918 10.9346 52.8446 10.7096 53.5002 10.7096C54.1557 10.7096 54.7085 10.9346 55.1585 11.3846C55.6085 11.8346 55.8335 12.3874 55.8335 13.043C55.8335 13.6985 55.6085 14.2513 55.1585 14.7013C54.7085 15.1513 54.1557 15.3763 53.5002 15.3763ZM53.5002 21.3763C52.5779 21.3763 51.7113 21.2013 50.9002 20.8513C50.0891 20.5013 49.3835 20.0263 48.7835 19.4263C48.1835 18.8263 47.7085 18.1207 47.3585 17.3096C47.0085 16.4985 46.8335 15.6319 46.8335 14.7096C46.8335 13.7874 47.0085 12.9207 47.3585 12.1096C47.7085 11.2985 48.1835 10.593 48.7835 9.99297C49.3835 9.39297 50.0891 8.91797 50.9002 8.56797C51.7113 8.21797 52.5779 8.04297 53.5002 8.04297C54.4224 8.04297 55.2891 8.21797 56.1002 8.56797C56.9113 8.91797 57.6168 9.39297 58.2168 9.99297C58.8168 10.593 59.2918 11.2985 59.6418 12.1096C59.9918 12.9207 60.1668 13.7874 60.1668 14.7096C60.1668 15.6319 59.9918 16.4985 59.6418 17.3096C59.2918 18.1207 58.8168 18.8263 58.2168 19.4263C57.6168 20.0263 56.9113 20.5013 56.1002 20.8513C55.2891 21.2013 54.4224 21.3763 53.5002 21.3763ZM53.5002 20.043C54.0891 20.043 54.6446 19.9569 55.1668 19.7846C55.6891 19.6124 56.1668 19.3652 56.6002 19.043C56.1668 18.7207 55.6891 18.4735 55.1668 18.3013C54.6446 18.1291 54.0891 18.043 53.5002 18.043C52.9113 18.043 52.3557 18.1291 51.8335 18.3013C51.3113 18.4735 50.8335 18.7207 50.4002 19.043C50.8335 19.3652 51.3113 19.6124 51.8335 19.7846C52.3557 19.9569 52.9113 20.043 53.5002 20.043ZM53.5002 14.043C53.7891 14.043 54.0279 13.9485 54.2168 13.7596C54.4057 13.5707 54.5002 13.3319 54.5002 13.043C54.5002 12.7541 54.4057 12.5152 54.2168 12.3263C54.0279 12.1374 53.7891 12.043 53.5002 12.043C53.2113 12.043 52.9724 12.1374 52.7835 12.3263C52.5946 12.5152 52.5002 12.7541 52.5002 13.043C52.5002 13.3319 52.5946 13.5707 52.7835 13.7596C52.9724 13.9485 53.2113 14.043 53.5002 14.043Z" fill="#1F1F1F"/>
</g>
</g>
<defs>
<filter id="filter0_dd_4690_314478" x="41.5" y="0" width="96" height="47.2129" filterUnits="userSpaceOnUse" color-interpolation-filters="sRGB">
<feFlood flood-opacity="0" result="BackgroundImageFix"/>
<feColorMatrix in="SourceAlpha" type="matrix" values="0 0 0 0 0 0 0 0 0 0 0 0 0 0 0 0 0 0 127 0" result="hardAlpha"/>
<feMorphology radius="1" operator="dilate" in="SourceAlpha" result="effect1_dropShadow_4690_314478"/>
<feOffset dy="1"/>
<feGaussianBlur stdDeviation="1.5"/>
<feColorMatrix type="matrix" values="0 0 0 0 0 0 0 0 0 0 0 0 0 0 0 0 0 0 0.15 0"/>
<feBlend mode="normal" in2="BackgroundImageFix" result="effect1_dropShadow_4690_314478"/>
<feColorMatrix in="SourceAlpha" type="matrix" values="0 0 0 0 0 0 0 0 0 0 0 0 0 0 0 0 0 0 127 0" result="hardAlpha"/>
<feOffset dy="1"/>
<feGaussianBlur stdDeviation="1"/>
<feColorMatrix type="matrix" values="0 0 0 0 0 0 0 0 0 0 0 0 0 0 0 0 0 0 0.3 0"/>
<feBlend mode="normal" in2="effect1_dropShadow_4690_314478" result="effect2_dropShadow_4690_314478"/>
<feBlend mode="normal" in="SourceGraphic" in2="effect2_dropShadow_4690_314478" result="shape"/>
</filter>
<clipPath id="clip0_4690_314478">
<rect x="33.5" y="34" width="132" height="16" rx="8" fill="white"/>
</clipPath>
<clipPath id="clip1_4690_314478">
<rect width="68" height="16" fill="white" transform="translate(45.5 34)"/>
</clipPath>
<clipPath id="clip2_4690_314478">
<rect width="83" height="16" fill="white" transform="translate(71.5 52)"/>
</clipPath>
<clipPath id="clip3_4690_314478">
<rect width="44" height="16" fill="white" transform="translate(102.5 70)"/>
</clipPath>
<clipPath id="clip4_4690_314478">
<rect width="142" height="16" fill="white" transform="translate(10.5 16)"/>
</clipPath>
</defs>
</svg>
