<svg width="20" height="20" viewBox="0 0 20 20" fill="none" xmlns="http://www.w3.org/2000/svg">
<path d="M9.99483 5.5C9.51217 5.5 9.10069 5.32814 8.76042 4.98442C8.42014 4.64069 8.25 4.2275 8.25 3.74483C8.25 3.26217 8.42186 2.85069 8.76558 2.51042C9.10931 2.17014 9.5225 2 10.0052 2C10.4878 2 10.8993 2.17186 11.2396 2.51558C11.5799 2.85931 11.75 3.2725 11.75 3.75517C11.75 4.23783 11.5781 4.64931 11.2344 4.98958C10.8907 5.32986 10.4775 5.5 9.99483 5.5ZM7.5 17.75V8.10417C6.73611 8.04861 5.98264 7.9375 5.23958 7.77083C4.49653 7.60417 3.75 7.42361 3 7.22917L3.375 5.83333C4.45833 6.125 5.55208 6.35069 6.65625 6.51042C7.76042 6.67014 8.875 6.75 10 6.75C11.125 6.75 12.2396 6.67014 13.3438 6.51042C14.4479 6.35069 15.5417 6.125 16.625 5.83333L17 7.22917C16.25 7.42361 15.5035 7.60417 14.7604 7.77083C14.0174 7.9375 13.2639 8.05172 12.5 8.1135V17.75H11L10.8125 13.125H9.20833L9 17.75H7.5Z" fill="black"/>
</svg>
