<svg width="20" height="20" viewBox="0 0 20 20" fill="none" xmlns="http://www.w3.org/2000/svg">
<g clip-path="url(#clip0_4442_3515)">
<path d="M10 14.5C11 14.5 11.8333 14.1597 12.5 13.4792C13.1667 12.7986 13.5 11.9722 13.5 11C13.5 10.0417 13.1667 9.22222 12.5 8.54167C11.8333 7.84722 11 7.5 10 7.5C9 7.5 8.16667 7.84722 7.5 8.54167C6.83333 9.22222 6.5 10.0486 6.5 11.0208C6.5 11.9792 6.83333 12.7986 7.5 13.4792C8.16667 14.1597 9 14.5 10 14.5ZM10 13C9.41667 13 8.9375 12.8056 8.5625 12.4167C8.1875 12.0278 8 11.5486 8 10.9792C8 10.4236 8.1875 9.95833 8.5625 9.58333C8.9375 9.19444 9.41667 9 10 9C10.5833 9 11.0625 9.19444 11.4375 9.58333C11.8125 9.95833 12 10.4236 12 10.9792C12 11.5486 11.8125 12.0278 11.4375 12.4167C11.0625 12.8056 10.5833 13 10 13ZM3.5 17C3.09722 17 2.74306 16.8542 2.4375 16.5625C2.14583 16.2569 2 15.9028 2 15.5V6.5C2 6.09722 2.14583 5.75 2.4375 5.45833C2.74306 5.15278 3.09722 5 3.5 5H6L7.5 3H12.5L14 5H16.5C16.9167 5 17.2708 5.15278 17.5625 5.45833C17.8542 5.75 18 6.09722 18 6.5V15.5C18 15.9028 17.8542 16.2569 17.5625 16.5625C17.2708 16.8542 16.9167 17 16.5 17H3.5ZM3.5 15.5H16.5V6.5H13.25L11.75 4.5H8.25L6.75 6.5H3.5V15.5Z" fill="black"/>
</g>
<defs>
<clipPath id="clip0_4442_3515">
<rect width="20" height="20" fill="white"/>
</clipPath>
</defs>
</svg>
