<svg width="20" height="20" viewBox="0 0 20 20" fill="none" xmlns="http://www.w3.org/2000/svg">
<path d="M10 18C8.11111 17.4722 6.63889 16.3611 5.58333 14.6667C4.52778 12.9722 4 11.1736 4 9.27083V4.5L10 2L16 4.5V9.27083C16 10.2708 15.8472 11.2917 15.5417 12.3333C15.2361 13.375 14.7431 14.3056 14.0625 15.125L11.5238 12.5833C11.2857 12.7361 11.0417 12.8438 10.7917 12.9063C10.5417 12.9688 10.2778 13 10 13C9.16667 13 8.45833 12.7083 7.875 12.125C7.29167 11.5417 7 10.8333 7 10C7 9.16667 7.29167 8.45833 7.875 7.875C8.45833 7.29167 9.16667 7 10 7C10.8333 7 11.5417 7.29167 12.125 7.875C12.7083 8.45833 13 9.16667 13 10C13 10.2778 12.9653 10.5424 12.8958 10.794C12.8264 11.0455 12.7222 11.2878 12.5833 11.5208L13.7292 12.6667C13.9653 12.125 14.1528 11.5694 14.2917 11C14.4306 10.4306 14.5 9.85417 14.5 9.27083V5.5L10 3.625L5.5 5.5V9.27083C5.5 10.7292 5.89236 12.1424 6.67708 13.5104C7.46181 14.8785 8.56944 15.8542 10 16.4375C10.3889 16.3125 10.7465 16.1389 11.0729 15.9167C11.3993 15.6944 11.7083 15.4444 12 15.1667L13.0625 16.25C12.6181 16.6528 12.1424 17.0069 11.6354 17.3125C11.1285 17.6181 10.5833 17.8472 10 18ZM10.0044 11.5C10.4181 11.5 10.7708 11.3527 11.0625 11.0581C11.3542 10.7635 11.5 10.4094 11.5 9.99563C11.5 9.58188 11.3527 9.22917 11.0581 8.9375C10.7635 8.64583 10.4094 8.5 9.99563 8.5C9.58188 8.5 9.22917 8.64729 8.9375 8.94188C8.64583 9.23646 8.5 9.59063 8.5 10.0044C8.5 10.4181 8.64729 10.7708 8.94187 11.0625C9.23646 11.3542 9.59062 11.5 10.0044 11.5Z" fill="black"/>
</svg>
