<svg width="20" height="20" viewBox="0 0 20 20" fill="none" xmlns="http://www.w3.org/2000/svg">
<path d="M3.5 18C3.08333 18 2.72933 17.854 2.438 17.562C2.146 17.2707 2 16.9167 2 16.5V9.5C2 9.08333 2.146 8.72933 2.438 8.438C2.72933 8.146 3.08333 8 3.5 8H5V3.5C5 3.08333 5.146 2.72933 5.438 2.438C5.72933 2.146 6.08333 2 6.5 2H16.5C16.9167 2 17.2707 2.146 17.562 2.438C17.854 2.72933 18 3.08333 18 3.5V10.5C18 10.9167 17.854 11.2707 17.562 11.562C17.2707 11.854 16.9167 12 16.5 12H15V16.5C15 16.9167 14.854 17.2707 14.562 17.562C14.2707 17.854 13.9167 18 13.5 18H3.5ZM3.5 16.5H13.5V11H3.5V16.5ZM15 10.5H16.5V5H6.5V8H13.5C13.9167 8 14.2707 8.146 14.562 8.438C14.854 8.72933 15 9.08333 15 9.5V10.5Z" fill="black"/>
</svg>
