<svg width="20" height="20" viewBox="0 0 20 20" fill="none" xmlns="http://www.w3.org/2000/svg">
<path d="M4.938 14.062C5.68733 13.5347 6.48933 13.1423 7.344 12.885C8.198 12.6283 9.08333 12.5 10 12.5C10.9167 12.5 11.802 12.6283 12.656 12.885C13.5107 13.1423 14.3127 13.5347 15.062 14.062C15.5487 13.4927 15.91 12.861 16.146 12.167C16.382 11.4723 16.5 10.75 16.5 10C16.5 8.19467 15.868 6.66 14.604 5.396C13.34 4.132 11.8053 3.5 10 3.5C8.19467 3.5 6.66 4.132 5.396 5.396C4.132 6.66 3.5 8.19467 3.5 10C3.5 10.75 3.618 11.4723 3.854 12.167C4.09 12.861 4.45133 13.4927 4.938 14.062ZM10 11.5C9.16667 11.5 8.45833 11.2083 7.875 10.625C7.29167 10.0417 7 9.33333 7 8.5C7 7.66667 7.29167 6.95833 7.875 6.375C8.45833 5.79167 9.16667 5.5 10 5.5C10.8333 5.5 11.5417 5.79167 12.125 6.375C12.7083 6.95833 13 7.66667 13 8.5C13 9.33333 12.7083 10.0417 12.125 10.625C11.5417 11.2083 10.8333 11.5 10 11.5ZM10 18C8.90267 18 7.868 17.7917 6.896 17.375C5.924 16.9583 5.07333 16.3853 4.344 15.656C3.61467 14.9267 3.04167 14.076 2.625 13.104C2.20833 12.132 2 11.0973 2 10C2 8.88867 2.20833 7.85033 2.625 6.885C3.04167 5.92033 3.61467 5.07333 4.344 4.344C5.07333 3.61467 5.924 3.04167 6.896 2.625C7.868 2.20833 8.90267 2 10 2C11.1113 2 12.1497 2.20833 13.115 2.625C14.0797 3.04167 14.9267 3.61467 15.656 4.344C16.3853 5.07333 16.9583 5.92033 17.375 6.885C17.7917 7.85033 18 8.88867 18 10C18 11.0973 17.7917 12.132 17.375 13.104C16.9583 14.076 16.3853 14.9267 15.656 15.656C14.9267 16.3853 14.0797 16.9583 13.115 17.375C12.1497 17.7917 11.1113 18 10 18ZM10 16.5C10.722 16.5 11.4163 16.3853 12.083 16.156C12.7497 15.9267 13.3747 15.59 13.958 15.146C13.3607 14.7707 12.7287 14.486 12.062 14.292C11.3953 14.0973 10.708 14 10 14C9.292 14 8.601 14.0937 7.927 14.281C7.25367 14.4683 6.62533 14.7567 6.042 15.146C6.62533 15.59 7.25033 15.9267 7.917 16.156C8.58367 16.3853 9.278 16.5 10 16.5ZM10 10C10.4167 10 10.7707 9.854 11.062 9.562C11.354 9.27067 11.5 8.91667 11.5 8.5C11.5 8.08333 11.354 7.72933 11.062 7.438C10.7707 7.146 10.4167 7 10 7C9.58333 7 9.22933 7.146 8.938 7.438C8.646 7.72933 8.5 8.08333 8.5 8.5C8.5 8.91667 8.646 9.27067 8.938 9.562C9.22933 9.854 9.58333 10 10 10Z" fill="black"/>
</svg>
