<svg width="20" height="20" viewBox="0 0 20 20" fill="none" xmlns="http://www.w3.org/2000/svg">
<path d="M9.25 17V10.8125H9.0625C8.27125 10.8125 7.51097 10.6632 6.78167 10.3646C6.05222 10.066 5.40278 9.63889 4.83333 9.08333C4.24194 8.51069 3.78854 7.84889 3.47313 7.09792C3.15771 6.34708 3 5.56444 3 4.75V3H4.75C5.54167 3 6.29861 3.14931 7.02083 3.44792C7.74306 3.74653 8.38889 4.17361 8.95833 4.72917C9.36111 5.11806 9.69792 5.55208 9.96875 6.03125C10.2396 6.51042 10.4444 7.01389 10.5833 7.54167C11.1111 6.80556 11.7917 6.23958 12.625 5.84375C13.4583 5.44792 14.3333 5.25 15.25 5.25H17V7C17 7.81569 16.8438 8.59944 16.5313 9.35125C16.2188 10.1032 15.7639 10.7639 15.1667 11.3333C14.6111 11.8194 13.9944 12.1944 13.3167 12.4583C12.6388 12.7222 11.929 12.8542 11.1875 12.8542H10.75V17H9.25ZM9.25 9.25C9.25 8.61111 9.14236 7.98958 8.92708 7.38542C8.71181 6.78125 8.38194 6.25694 7.9375 5.8125C7.49306 5.36806 6.96875 5.03819 6.36458 4.82292C5.76042 4.60764 5.13889 4.5 4.5 4.5C4.5 5.13889 4.60764 5.76042 4.82292 6.36458C5.03819 6.96875 5.36806 7.49306 5.8125 7.9375C6.25694 8.38194 6.78125 8.71181 7.38542 8.92708C7.98958 9.14236 8.61111 9.25 9.25 9.25ZM10.75 11.5C11.3889 11.5 12.0104 11.3924 12.6146 11.1771C13.2188 10.9618 13.7431 10.6319 14.1875 10.1875C14.6319 9.74306 14.9618 9.21875 15.1771 8.61458C15.3924 8.01042 15.5 7.38889 15.5 6.75C14.8611 6.75 14.2396 6.85764 13.6354 7.07292C13.0313 7.28819 12.5069 7.61806 12.0625 8.0625C11.6181 8.50694 11.2882 9.03125 11.0729 9.63542C10.8576 10.2396 10.75 10.8611 10.75 11.5Z" fill="black"/>
</svg>
