<svg width="20" height="20" viewBox="0 0 20 20" fill="none" xmlns="http://www.w3.org/2000/svg">
<path d="M4.5 17C4.0875 17 3.73437 16.8531 3.44062 16.5594C3.14687 16.2656 3 15.9125 3 15.5V12C3.55556 11.9722 4.02778 11.7674 4.41667 11.3854C4.80556 11.0035 5 10.5417 5 10C5 9.45833 4.80556 8.99653 4.41667 8.61458C4.02778 8.23264 3.55556 8.02778 3 8V4.5C3 4.0875 3.14687 3.73437 3.44062 3.44062C3.73437 3.14687 4.0875 3 4.5 3H8C8 2.44444 8.19288 1.97222 8.57865 1.58333C8.9644 1.19444 9.43662 1 9.99531 1C10.554 1 11.0278 1.19333 11.4167 1.58C11.8056 1.96667 12 2.44 12 3H15.5C15.9125 3 16.2656 3.14687 16.5594 3.44062C16.8531 3.73437 17 4.0875 17 4.5V8C17.5556 8 18.0278 8.19288 18.4167 8.57865C18.8056 8.9644 19 9.43662 19 9.99531C19 10.554 18.8067 11.0278 18.42 11.4167C18.0333 11.8056 17.56 12 17 12V15.5C17 15.9125 16.8531 16.2656 16.5594 16.5594C16.2656 16.8531 15.9125 17 15.5 17H12C11.9722 16.4444 11.7674 15.9722 11.3854 15.5833C11.0035 15.1944 10.5417 15 10 15C9.45833 15 8.99653 15.1944 8.61458 15.5833C8.23264 15.9722 8.02778 16.4444 8 17H4.5ZM15.5 15.5V4.5H4.5V6.83333C5.125 7.11111 5.61458 7.53819 5.96875 8.11458C6.32292 8.69097 6.5 9.31944 6.5 10C6.5 10.6973 6.32292 11.3334 5.96875 11.9084C5.61458 12.4834 5.125 12.9028 4.5 13.1667V15.5H6.83333C7.09722 14.875 7.51665 14.3854 8.0916 14.0313C8.66658 13.6771 9.30271 13.5 10 13.5C10.6806 13.5 11.309 13.6771 11.8854 14.0313C12.4618 14.3854 12.8889 14.875 13.1667 15.5H15.5Z" fill="black"/>
</svg>
