<svg width="20" height="20" viewBox="0 0 20 20" fill="none" xmlns="http://www.w3.org/2000/svg">
<path d="M8 16C6.88889 16 5.94444 15.6111 5.16667 14.8333C4.38889 14.0556 4 13.1111 4 12C4 10.8889 4.38889 9.94444 5.16667 9.16667C5.94444 8.38889 6.88889 8 8 8H13.125L11.1875 6.0625L12.25 5L16 8.75L12.25 12.5L11.1875 11.4375L13.125 9.5H8C7.30556 9.5 6.71528 9.74306 6.22917 10.2292C5.74306 10.7153 5.5 11.3056 5.5 12C5.5 12.6944 5.74306 13.2847 6.22917 13.7708C6.71528 14.2569 7.30556 14.5 8 14.5H14V16H8Z" fill="black"/>
</svg>
