<svg width="20" height="20" viewBox="0 0 20 20" fill="none" xmlns="http://www.w3.org/2000/svg">
<g clip-path="url(#clip0_563_5227)">
<path d="M15.5 5.6694V3H17V8H12V6.5H14.2428C13.234 5.2785 11.7079 4.5 10 4.5C6.96243 4.5 4.5 6.96243 4.5 10C4.5 13.0376 6.96243 15.5 10 15.5C13.0376 15.5 15.5 13.0376 15.5 10H17C17 13.866 13.866 17 10 17C6.13401 17 3 13.866 3 10C3 6.13401 6.13401 3 10 3C12.231 3 14.2182 4.04367 15.5 5.6694Z" fill="black"/>
</g>
<defs>
<clipPath id="clip0_563_5227">
<rect width="20" height="20" fill="white"/>
</clipPath>
</defs>
</svg>
