<svg width="20" height="20" viewBox="0 0 20 20" fill="none" xmlns="http://www.w3.org/2000/svg">
<path d="M4.33333 15.6458C3.58333 14.8958 3.00694 14.0347 2.60417 13.0625C2.20139 12.0903 2 11.0694 2 9.99998C2 8.93054 2.20139 7.9097 2.60417 6.93748C3.00694 5.96526 3.58333 5.0972 4.33333 4.33331L5.41667 5.39581C4.79167 6.00692 4.31597 6.70831 3.98958 7.49998C3.66319 8.29165 3.5 9.12498 3.5 9.99998C3.5 10.8611 3.66319 11.684 3.98958 12.4687C4.31597 13.2535 4.78472 13.9583 5.39583 14.5833L4.33333 15.6458ZM7.75 15C7.40278 15 7.10764 14.8785 6.86458 14.6354C6.62153 14.3923 6.5 14.0972 6.5 13.75C6.5 13.4028 6.62153 13.1076 6.86458 12.8646C7.10764 12.6215 7.40278 12.5 7.75 12.5C8.09722 12.5 8.39236 12.6215 8.63542 12.8646C8.87847 13.1076 9 13.4028 9 13.75C9 14.0972 8.87847 14.3923 8.63542 14.6354C8.39236 14.8785 8.09722 15 7.75 15ZM10.5 11V9.29165L9.02083 10.1458L8.27083 8.85415L9.75 7.99998L8.27083 7.14581L9.02083 5.85415L10.5 6.70831V4.99998H12V6.70831L13.4792 5.85415L14.2292 7.14581L12.75 7.99998L14.2292 8.85415L13.4792 10.1458L12 9.29165V11H10.5ZM15.6667 15.6458L14.6042 14.5833C15.2153 13.9722 15.684 13.2743 16.0104 12.4896C16.3368 11.7048 16.5 10.875 16.5 9.99998C16.5 9.12498 16.3403 8.29165 16.0208 7.49998C15.7014 6.70831 15.2292 6.00692 14.6042 5.39581L15.6667 4.33331C16.4167 5.0972 16.9931 5.96526 17.3958 6.93748C17.7986 7.9097 18 8.93054 18 9.99998C18 11.0694 17.7986 12.0903 17.3958 13.0625C16.9931 14.0347 16.4167 14.8958 15.6667 15.6458Z" fill="black"/>
</svg>
