<svg width="20" height="20" viewBox="0 0 20 20" fill="none" xmlns="http://www.w3.org/2000/svg">
<path d="M10 18.125C9.028 18.125 8.11833 17.941 7.271 17.573C6.42367 17.205 5.684 16.705 5.052 16.073C4.42 15.441 3.92 14.7013 3.552 13.854C3.184 13.0067 3 12.097 3 11.125H4.5C4.5 12.639 5.03833 13.934 6.115 15.01C7.191 16.0867 8.486 16.625 10 16.625C11.514 16.625 12.809 16.0867 13.885 15.01C14.9617 13.934 15.5 12.639 15.5 11.125C15.5 9.611 14.9617 8.316 13.885 7.24C12.809 6.16333 11.514 5.625 10 5.625H9.875L10.938 6.688L9.875 7.75L7 4.875L9.875 2L10.938 3.062L9.854 4.125H10C10.972 4.125 11.8817 4.309 12.729 4.677C13.5763 5.045 14.316 5.545 14.948 6.177C15.58 6.809 16.08 7.54867 16.448 8.396C16.816 9.24333 17 10.153 17 11.125C17 12.097 16.816 13.0067 16.448 13.854C16.08 14.7013 15.58 15.441 14.948 16.073C14.316 16.705 13.5763 17.205 12.729 17.573C11.8817 17.941 10.972 18.125 10 18.125Z" fill="black"/>
</svg>
