<?xml version="1.0" encoding="UTF-8" standalone="no"?>
<svg width="140px" height="20px" viewBox="0 0 140 20" version="1.1" xmlns="http://www.w3.org/2000/svg" xmlns:xlink="http://www.w3.org/1999/xlink">
    <!-- Generator: Sketch 3.7.2 (28276) - http://www.bohemiancoding.com/sketch -->
    <title>resourceGlyphs</title>
    <desc>Created with Sketch.</desc>
    <defs></defs>
    <g id="Page-1" stroke="none" stroke-width="1" fill="none" fill-rule="evenodd">
        <g id="resourceGlyphs">
            <g id="Cookies" transform="translate(120.000000, 0.000000)">
                <polygon id="bounds" fill="#E8F0FE" opacity="0" points="0 0 16 0 16 16 0 16"></polygon>
                <path d="M13.5263158,6.25 L12.0526316,6.25 L12.0526316,5.5 C12.0526316,5.086 11.7225263,4.75 11.3157895,4.75 L9.84210526,4.75 L9.84210526,4 C9.84210526,3.586 9.512,3.25 9.10526316,3.25 L8.36842105,3.25 L8.36842105,1.75 C8.36842105,1.423 8.16063158,1.153 7.874,1.0495 C7.82021053,1.021 7.74947368,1 7.63157895,1 C3.96873684,1 1,4.02175 1,7.75 C1,11.4775 3.96873684,14.5 7.63157895,14.5 C11.2944211,14.5 14.2631579,11.4775 14.2631579,7.75 L14.2631579,7 C14.2631579,6.586 13.9330526,6.25 13.5263158,6.25 L13.5263158,6.25 Z M3.57894737,8.5 C2.96818277,8.5 2.47368421,7.99667111 2.47368421,7.375 C2.47368421,6.75332889 2.96818277,6.25 3.57894737,6.25 C4.18971196,6.25 4.68421053,6.75332889 4.68421053,7.375 C4.68421053,7.99667111 4.18971196,8.5 3.57894737,8.5 L3.57894737,8.5 Z M4.68421053,4.375 C4.68421053,3.75325 5.17936842,3.25 5.78947368,3.25 C6.40031579,3.25 6.89473684,3.75325 6.89473684,4.375 C6.89473684,4.996 6.40031579,5.5 5.78947368,5.5 C5.17936842,5.5 4.68421053,4.996 4.68421053,4.375 L4.68421053,4.375 Z M6.89473684,13 C6.28414724,13 5.78947368,12.4966611 5.78947368,11.8753756 C5.78947368,11.2540902 6.28414724,10.75 6.89473684,10.75 C7.50532644,10.75 8,11.2540902 8,11.8753756 C8,12.4966611 7.50532644,13 6.89473684,13 L6.89473684,13 Z M7.26315789,9.25 C6.65305263,9.25 6.15789474,8.746 6.15789474,8.125 C6.15789474,7.504 6.65305263,7 7.26315789,7 C7.87326316,7 8.36842105,7.504 8.36842105,8.125 C8.36842105,8.746 7.87326316,9.25 7.26315789,9.25 L7.26315789,9.25 Z M10.9473684,10.75 C10.3372632,10.75 9.84210526,10.246 9.84210526,9.625 C9.84210526,9.004 10.3372632,8.5 10.9473684,8.5 C11.5574737,8.5 12.0526316,9.004 12.0526316,9.625 C12.0526316,10.246 11.5574737,10.75 10.9473684,10.75 L10.9473684,10.75 Z" id="Shape" fill="#212121"></path>
            </g>
            <g id="Group-2" transform="translate(60.000000, 0.000000)">
                <rect id="Rectangle-1-Copy-3" fill="#E8F0FE" opacity="0" x="0" y="0" width="16" height="16"></rect>
                <path d="M8,6 C11.3137085,6 14,5.1045695 14,4 C14,2.8954305 11.3137085,2 8,2 C4.6862915,2 2,2.8954305 2,4 C2,5.1045695 4.6862915,6 8,6 Z M2,13 C2,14.1045695 4.6862915,15 8,15 C11.3137085,15 14,14.1045695 14,13 L14,11 C14,12.1045695 11.3137085,13 8,13 C4.6862915,13 2,12.1045695 2,11 L2,13 Z M2,10 C2,11.1045695 4.6862915,12 8,12 C11.3137085,12 14,11.1045695 14,10 L14,8 C14,9.1045695 11.3137085,10 8,10 C4.6862915,10 2,9.1045695 2,8 L2,10 Z M2,7 C2,8.1045695 4.6862915,9 8,9 C11.3137085,9 14,8.1045695 14,7 L14,5 C14,6.1045695 11.3137085,7 8,7 C4.6862915,7 2,6.1045695 2,5 L2,7 Z" id="Combined-Shape" fill="#000000"></path>
            </g>
            <g id="Group-2" transform="translate(80.000000, 0.000000)">
                <rect id="Rectangle-1-Copy-3" fill="#E8F0FE" opacity="0" x="0" y="0" width="16" height="16"></rect>
                <path d="M2,3.99895656 C2,3.44724809 2.45097518,3 2.99077797,3 L8,3 L8,6 L2,6 L2,3.99895656 Z M2,11 L8,11 L8,14 L2.99077797,14 C2.44358641,14 2,13.5573397 2,13.0010434 L2,11 Z M2,7 L8,7 L8,10 L2,10 L2,7 Z M9,3 L14.009222,3 C14.5564136,3 15,3.44266033 15,3.99895656 L15,6 L9,6 L9,3 Z M9,11 L15,11 L15,13.0010434 C15,13.5527519 14.5490248,14 14.009222,14 L9,14 L9,11 Z M9,7 L15,7 L15,10 L9,10 L9,7 Z" id="Combined-Shape" fill="#212121"></path>
            </g>
            <g id="Group-2" transform="translate(100.000000, 0.000000)">
                <rect id="Rectangle-1-Copy-3" fill="#E8F0FE" opacity="0" x="0" y="0" width="16" height="16"></rect>
                <path d="M8.87835493,9.58602689 C8.48320663,9.84764903 8.00939505,10 7.5,10 C6.11928813,10 5,8.88071187 5,7.5 C5,6.11928813 6.11928813,5 7.5,5 C8.88071187,5 10,6.11928813 10,7.5 C10,8.00939505 9.84764903,8.48320663 9.58602689,8.87835493 L12,11.29 L11.29,12 L8.87835493,9.58602689 Z M2,3.9955775 C2,3.44573523 2.44748943,3 2.99850233,3 L14.0014977,3 C14.5529553,3 15,3.44483697 15,3.9955775 L15,13.0044225 C15,13.5542648 14.5525106,14 14.0014977,14 L2.99850233,14 C2.44704472,14 2,13.555163 2,13.0044225 L2,3.9955775 Z M7.5,9 C8.32842712,9 9,8.32842712 9,7.5 C9,6.67157288 8.32842712,6 7.5,6 C6.67157288,6 6,6.67157288 6,7.5 C6,8.32842712 6.67157288,9 7.5,9 Z" id="Combined-Shape" fill="#000000"></path>
            </g>
            <g id="Group-2" transform="translate(40.000000, 0.000000)">
                <rect id="Rectangle-1-Copy-3" fill="#E8F0FE" opacity="0" x="0" y="0" width="16" height="16"></rect>
                <path d="M3,4 L13,4 L13,13.007983 C13,14.1081436 12.1125667,15 11.000385,15 L4.99961498,15 C3.89525812,15 3,14.0998238 3,13.007983 L3,4 Z M2,2 L14,2 L14,3 L2,3 L2,2 Z M5,1 L11,1 L11,2 L5,2 L5,1 Z" id="Combined-Shape" fill="#212121"></path>
            </g>
            <g id="Group" transform="translate(20.000000, 0.000000)">
                <rect id="Rectangle-1-Copy-3" fill="#E8F0FE" opacity="0" x="0" y="0" width="16" height="16"></rect>
                <path d="M6.5,3.22890114 L6.5,1 L9.5,1 L9.5,3.22890114 C10.2076308,3.45115512 10.8474694,3.82649178 11.3807038,4.31609894 L13.3121778,3.20096189 L14.8121778,5.79903811 L12.8816495,6.91362915 C12.9591395,7.26338859 13,7.62692256 13,8 C13,8.37307744 12.9591395,8.73661141 12.8816495,9.08637085 L14.8121778,10.2009619 L13.3121778,12.7990381 L11.3807038,11.6839011 C10.8474694,12.1735082 10.2076308,12.5488449 9.5,12.7710989 L9.5,15 L6.5,15 L6.5,12.7710989 C5.79236923,12.5488449 5.15253056,12.1735082 4.61929619,11.6839011 L2.68782217,12.7990381 L1.18782217,10.2009619 L3.11835049,9.08637085 C3.04086051,8.73661141 3,8.37307744 3,8 C3,7.62692256 3.04086051,7.26338859 3.11835049,6.91362915 L1.18782217,5.79903811 L2.68782217,3.20096189 L4.61929619,4.31609894 C5.15253056,3.82649178 5.79236923,3.45115512 6.5,3.22890114 Z M8,10.5 C9.38071187,10.5 10.5,9.38071187 10.5,8 C10.5,6.61928813 9.38071187,5.5 8,5.5 C6.61928813,5.5 5.5,6.61928813 5.5,8 C5.5,9.38071187 6.61928813,10.5 8,10.5 Z" id="Combined-Shape" fill="#212121"></path>
            </g>
            <g id="Group-2">
                <rect id="Rectangle-1-Copy-3" x="0" y="0" width="16" height="16"></rect>
                <g id="Group-5" transform="translate(3.000000, 1.000000)" fill="#000000">
                    <path d="M6,-9.43689571e-16 L0.995397568,-9.43689571e-16 C0.455664396,-9.43689571e-16 -3.55271368e-15,0.450780073 -3.55271368e-15,1.00684547 L-3.55271368e-15,12.9931545 C-3.55271368e-15,13.5500512 0.445654671,14 0.995397568,14 L9.00460243,14 C9.5443356,14 10,13.5492199 10,12.9931545 L10,4 L6,-2.1649349e-15 Z M9.28999996,4 L6,4 L6,0.710000038 L9.28999996,4 Z" id="Combined-Shape"></path>
                </g>
            </g>
        </g>
    </g>
</svg>