<?xml version="1.0" encoding="UTF-8" standalone="no"?>
<svg
   xmlns:dc="http://purl.org/dc/elements/1.1/"
   xmlns:cc="http://creativecommons.org/ns#"
   xmlns:rdf="http://www.w3.org/1999/02/22-rdf-syntax-ns#"
   xmlns:svg="http://www.w3.org/2000/svg"
   xmlns="http://www.w3.org/2000/svg"
   xmlns:sodipodi="http://sodipodi.sourceforge.net/DTD/sodipodi-0.dtd"
   xmlns:inkscape="http://www.inkscape.org/namespaces/inkscape"
   width="140px"
   height="20px"
   viewBox="0 0 140 20"
   version="1.1"
   id="svg3369"
   inkscape:version="0.48.4 r9939"
   sodipodi:docname="resourceGlyphs.svg">
  <metadata
     id="metadata3417">
    <rdf:RDF>
      <cc:Work
         rdf:about="">
        <dc:format>image/svg+xml</dc:format>
        <dc:type
           rdf:resource="http://purl.org/dc/dcmitype/StillImage" />
      </cc:Work>
    </rdf:RDF>
  </metadata>
  <sodipodi:namedview
     pagecolor="#ffffff"
     bordercolor="#666666"
     borderopacity="1"
     objecttolerance="10"
     gridtolerance="10"
     guidetolerance="10"
     inkscape:pageopacity="0"
     inkscape:pageshadow="2"
     inkscape:window-width="640"
     inkscape:window-height="480"
     id="namedview3415"
     showgrid="false"
     inkscape:zoom="2.3357143"
     inkscape:cx="57.178711"
     inkscape:cy="10"
     inkscape:window-x="0"
     inkscape:window-y="0"
     inkscape:window-maximized="0"
     inkscape:current-layer="svg3369" />
  <!-- Generator: Sketch 3.7.2 (28276) - http://www.bohemiancoding.com/sketch -->
  <title
     id="title3371">resourceGlyphs</title>
  <desc
     id="desc3373">Created with Sketch.</desc>
  <defs
     id="defs3375" />
  <g
     style="fill:none;stroke:none"
     id="Cookies"
     transform="translate(120,0)">
    <polygon
       id="bounds"
       points="0,0 16,0 16,16 0,16 "
       style="opacity:0;fill:#e8f0fe" />
    <path
       d="m 13.526316,6.25 -1.473684,0 0,-0.75 c 0,-0.414 -0.330106,-0.75 -0.736843,-0.75 l -1.4736837,0 0,-0.75 C 9.8421053,3.586 9.512,3.25 9.1052632,3.25 l -0.7368421,0 0,-1.5 C 8.3684211,1.423 8.1606316,1.153 7.874,1.0495 7.8202105,1.021 7.7494737,1 7.6315789,1 3.9687368,1 1,4.02175 1,7.75 c 0,3.7275 2.9687368,6.75 6.6315789,6.75 3.6628421,0 6.6315791,-3.0225 6.6315791,-6.75 l 0,-0.75 c 0,-0.414 -0.330105,-0.75 -0.736842,-0.75 l 0,0 z M 3.5789474,8.5 C 2.9681828,8.5 2.4736842,7.9966711 2.4736842,7.375 c 0,-0.6216711 0.4944986,-1.125 1.1052632,-1.125 0.6107646,0 1.1052631,0.5033289 1.1052631,1.125 0,0.6216711 -0.4944985,1.125 -1.1052631,1.125 l 0,0 z M 4.6842105,4.375 c 0,-0.62175 0.4951579,-1.125 1.1052632,-1.125 0.6108421,0 1.1052631,0.50325 1.1052631,1.125 0,0.621 -0.494421,1.125 -1.1052631,1.125 C 5.1793684,5.5 4.6842105,4.996 4.6842105,4.375 l 0,0 z M 6.8947368,13 C 6.2841472,13 5.7894737,12.496661 5.7894737,11.875376 5.7894737,11.25409 6.2841472,10.75 6.8947368,10.75 7.5053264,10.75 8,11.25409 8,11.875376 8,12.496661 7.5053264,13 6.8947368,13 l 0,0 z M 7.2631579,9.25 C 6.6530526,9.25 6.1578947,8.746 6.1578947,8.125 6.1578947,7.504 6.6530526,7 7.2631579,7 c 0.6101053,0 1.1052632,0.504 1.1052632,1.125 0,0.621 -0.4951579,1.125 -1.1052632,1.125 l 0,0 z m 3.6842101,1.5 c -0.610105,0 -1.1052627,-0.504 -1.1052627,-1.125 0,-0.621 0.4951577,-1.125 1.1052627,-1.125 0.610106,0 1.105264,0.504 1.105264,1.125 0,0.621 -0.495158,1.125 -1.105264,1.125 l 0,0 z"
       id="Shape"
       inkscape:connector-curvature="0"
       style="fill:#212121" />
  </g>
  <g
     style="fill:none;stroke:none"
     id="Group-2"
     transform="translate(60,0)">
    <rect
       id="Rectangle-1-Copy-3"
       x="0"
       y="0"
       width="16"
       height="16"
       style="opacity:0;fill:#e8f0fe" />
    <path
       d="M 8,6 C 11.313709,6 14,5.1045695 14,4 14,2.8954305 11.313709,2 8,2 4.6862915,2 2,2.8954305 2,4 2,5.1045695 4.6862915,6 8,6 z m -6,7 c 0,1.10457 2.6862915,2 6,2 3.313709,0 6,-0.89543 6,-2 l 0,-2 c 0,1.10457 -2.686291,2 -6,2 -3.3137085,0 -6,-0.89543 -6,-2 l 0,2 z m 0,-3 c 0,1.10457 2.6862915,2 6,2 3.313709,0 6,-0.89543 6,-2 L 14,8 C 14,9.1045695 11.313709,10 8,10 4.6862915,10 2,9.1045695 2,8 l 0,2 z M 2,7 c 0,1.1045695 2.6862915,2 6,2 3.313709,0 6,-0.8954305 6,-2 L 14,5 C 14,6.1045695 11.313709,7 8,7 4.6862915,7 2,6.1045695 2,5 l 0,2 z"
       id="Combined-Shape"
       inkscape:connector-curvature="0"
       style="fill:#000000" />
  </g>
  <g
     style="fill:none;stroke:none"
     id="g3385"
     transform="translate(80,0)">
    <rect
       id="rect3387"
       x="0"
       y="0"
       width="16"
       height="16"
       style="opacity:0;fill:#e8f0fe" />
    <path
       d="M 2,3.9989566 C 2,3.4472481 2.4509752,3 2.990778,3 L 8,3 8,6 2,6 2,3.9989566 z M 2,11 8,11 8,14 2.990778,14 C 2.4435864,14 2,13.55734 2,13.001043 L 2,11 z M 2,7 8,7 8,10 2,10 2,7 z M 9,3 14.009222,3 C 14.556414,3 15,3.4426603 15,3.9989566 L 15,6 9,6 9,3 z m 0,8 6,0 0,2.001043 C 15,13.552752 14.549025,14 14.009222,14 L 9,14 9,11 z m 0,-4 6,0 0,3 -6,0 0,-3 z"
       id="path3389"
       inkscape:connector-curvature="0"
       style="fill:#212121" />
  </g>
  <g
     style="fill:none;stroke:none"
     id="g3397"
     transform="translate(40,0)">
    <rect
       id="rect3399"
       x="0"
       y="0"
       width="16"
       height="16"
       style="opacity:0;fill:#e8f0fe" />
    <path
       d="m 3,4 10,0 0,9.007983 C 13,14.108144 12.112567,15 11.000385,15 l -6.00077,0 C 3.8952581,15 3,14.099824 3,13.007983 L 3,4 z M 2,2 14,2 14,3 2,3 2,2 z M 5,1 11,1 11,2 5,2 5,1 z"
       id="path3401"
       inkscape:connector-curvature="0"
       style="fill:#212121" />
  </g>
  <g
     style="fill:none;stroke:none"
     id="Group"
     transform="translate(20,0)">
    <rect
       id="rect3404"
       x="0"
       y="0"
       width="16"
       height="16"
       style="opacity:0;fill:#e8f0fe" />
    <path
       d="M 6.5,3.2289011 6.5,1 l 3,0 0,2.2289011 c 0.707631,0.222254 1.347469,0.5975907 1.880704,1.0871978 l 1.931474,-1.115137 1.5,2.5980762 -1.930528,1.114591 C 12.959139,7.2633886 13,7.6269226 13,8 13,8.3730774 12.95914,8.7366114 12.88165,9.0863709 l 1.930528,1.1145911 -1.5,2.598076 -1.931474,-1.115137 C 10.847469,12.173508 10.207631,12.548845 9.5,12.771099 L 9.5,15 l -3,0 0,-2.228901 C 5.7923692,12.548845 5.1525306,12.173508 4.6192962,11.683901 l -1.931474,1.115137 -1.5,-2.598076 1.9305283,-1.1145911 C 3.0408605,8.7366114 3,8.3730774 3,8 3,7.6269226 3.0408605,7.2633886 3.1183505,6.9136291 l -1.9305283,-1.114591 1.5,-2.5980762 1.931474,1.115137 C 5.1525306,3.8264918 5.7923692,3.4511551 6.5,3.2289011 z M 8,10.5 C 9.3807119,10.5 10.5,9.3807119 10.5,8 10.5,6.6192881 9.3807119,5.5 8,5.5 6.6192881,5.5 5.5,6.6192881 5.5,8 c 0,1.3807119 1.1192881,2.5 2.5,2.5 z"
       id="path3406"
       inkscape:connector-curvature="0"
       style="fill:#212121" />
  </g>
  <g
     style="fill:none;stroke:none"
     id="g3408">
    <rect
       id="rect3410"
       x="0"
       y="0"
       width="16"
       height="16" />
    <g
       id="Group-5"
       transform="translate(3,1)"
       style="fill:#000000">
      <path
         d="M 6,0 0.99539757,0 C 0.4556644,0 0,0.45078007 0,1.0068455 L 0,12.993154 C 0,13.550051 0.44565467,14 0.99539757,14 L 9.0046024,14 C 9.5443356,14 10,13.54922 10,12.993154 L 10,4 6,0 z M 9.29,4 6,4 6,0.71000004 9.29,4 z"
         id="path3413"
         inkscape:connector-curvature="0" />
    </g>
  </g>
</svg>
