<svg width="12" height="11" viewBox="0 0 12 11" fill="none" xmlns="http://www.w3.org/2000/svg">
<path d="M2 11V9.5H8C8.69445 9.5 9.28472 9.25694 9.77083 8.77083C10.2569 8.28472 10.5 7.69444 10.5 7C10.5 6.30556 10.2569 5.71528 9.77083 5.22917C9.28472 4.74305 8.69445 4.5 8 4.5H2.875L4.8125 6.4375L3.75 7.5L3.57628e-07 3.75L3.75 -1.19209e-06L4.8125 1.0625L2.875 3H8C9.11111 3 10.0556 3.38889 10.8333 4.16667C11.6111 4.94444 12 5.88889 12 7C12 8.11111 11.6111 9.05556 10.8333 9.83333C10.0556 10.6111 9.11111 11 8 11H2Z" fill="black"/>
</svg>
