<svg width="20" height="20" viewBox="0 0 20 20" fill="none" xmlns="http://www.w3.org/2000/svg">
<path d="M3 17.5L3 4.49999C3 4.08749 3.14688 3.73436 3.44063 3.44061C3.73438 3.14686 4.0875 2.99999 4.5 2.99999L15.5 2.99994C15.9125 2.99994 16.2656 3.14681 16.5594 3.44056C16.8531 3.73431 17 4.08744 17 4.49994V12.9999C17 13.4124 16.8531 13.7656 16.5594 14.0593C16.2656 14.3531 15.9125 14.4999 15.5 14.4999L5.4999 14.5L3 17.5ZM4.5 13L15.5 12.9999V4.49994L4.5 4.49999V13Z" fill="black"/>
<path d="M7.69137 11.5011H6V9.80974L9.6484 6.11252C9.74335 6.01757 9.84424 5.97009 9.95106 5.97009C10.0579 5.97009 10.1588 6.01757 10.2537 6.11252L11.3576 7.19856C11.4525 7.29351 11.5 7.3944 11.5 7.50122C11.5 7.60804 11.4525 7.70893 11.3576 7.80389L7.69137 11.5011Z" fill="black"/>
<path d="M14 11.5011H8.96151L10.2434 10.2192H14V11.5011Z" fill="black"/>
</svg>
