<svg width="20" height="20" viewBox="0 0 20 20" fill="none" xmlns="http://www.w3.org/2000/svg">
<path d="M15.8334 17.5001L10.0001 11.6667L8.04175 13.6251C8.15286 13.8334 8.22925 14.0556 8.27091 14.2917C8.31258 14.5279 8.33341 14.764 8.33341 15.0001C8.33341 15.9167 8.00703 16.7015 7.35425 17.3542C6.70147 18.007 5.91675 18.3334 5.00008 18.3334C4.08341 18.3334 3.29869 18.007 2.64591 17.3542C1.99314 16.7015 1.66675 15.9167 1.66675 15.0001C1.66675 14.0834 1.99314 13.2987 2.64591 12.6459C3.29869 11.9931 4.08341 11.6667 5.00008 11.6667C5.23619 11.6667 5.4723 11.6876 5.70841 11.7292C5.94453 11.7709 6.16675 11.8473 6.37508 11.9584L8.33341 10.0001L6.37508 8.04175C6.16675 8.15286 5.94453 8.22925 5.70841 8.27091C5.4723 8.31258 5.23619 8.33341 5.00008 8.33341C4.08341 8.33341 3.29869 8.00703 2.64591 7.35425C1.99314 6.70147 1.66675 5.91675 1.66675 5.00008C1.66675 4.08341 1.99314 3.29869 2.64591 2.64591C3.29869 1.99314 4.08341 1.66675 5.00008 1.66675C5.91675 1.66675 6.70147 1.99314 7.35425 2.64591C8.00703 3.29869 8.33341 4.08341 8.33341 5.00008C8.33341 5.23619 8.31258 5.4723 8.27091 5.70841C8.22925 5.94453 8.15286 6.16675 8.04175 6.37508L18.3334 16.6667V17.5001H15.8334ZM12.5001 9.16675L10.8334 7.50008L15.8334 2.50008H18.3334V3.33341L12.5001 9.16675ZM5.00008 6.66675C5.45841 6.66675 5.85078 6.50355 6.17716 6.17716C6.50355 5.85078 6.66675 5.45841 6.66675 5.00008C6.66675 4.54175 6.50355 4.14939 6.17716 3.823C5.85078 3.49661 5.45841 3.33341 5.00008 3.33341C4.54175 3.33341 4.14939 3.49661 3.823 3.823C3.49661 4.14939 3.33341 4.54175 3.33341 5.00008C3.33341 5.45841 3.49661 5.85078 3.823 6.17716C4.14939 6.50355 4.54175 6.66675 5.00008 6.66675ZM10.0001 10.4167C10.1112 10.4167 10.2084 10.3751 10.2917 10.2917C10.3751 10.2084 10.4167 10.1112 10.4167 10.0001C10.4167 9.88897 10.3751 9.79175 10.2917 9.70841C10.2084 9.62508 10.1112 9.58341 10.0001 9.58341C9.88897 9.58341 9.79175 9.62508 9.70841 9.70841C9.62508 9.79175 9.58341 9.88897 9.58341 10.0001C9.58341 10.1112 9.62508 10.2084 9.70841 10.2917C9.79175 10.3751 9.88897 10.4167 10.0001 10.4167ZM5.00008 16.6667C5.45841 16.6667 5.85078 16.5036 6.17716 16.1772C6.50355 15.8508 6.66675 15.4584 6.66675 15.0001C6.66675 14.5417 6.50355 14.1494 6.17716 13.823C5.85078 13.4966 5.45841 13.3334 5.00008 13.3334C4.54175 13.3334 4.14939 13.4966 3.823 13.823C3.49661 14.1494 3.33341 14.5417 3.33341 15.0001C3.33341 15.4584 3.49661 15.8508 3.823 16.1772C4.14939 16.5036 4.54175 16.6667 5.00008 16.6667Z" fill="black"/>
</svg>
