<svg width="20" height="20" fill="none" xmlns="http://www.w3.org/2000/svg"><g clip-path="url(#a)"><path d="M10.354 16 4 9.646a1.586 1.586 0 0 1-.427-1.073c-.007-.41.135-.76.427-1.052L7.52 4a1.481 1.481 0 0 1 1.084-.458c.417 0 .764.152 1.042.458L16 10.354c.306.278.458.625.458 1.042 0 .416-.152.778-.458 1.083L12.48 16a1.399 1.399 0 0 1-1.053.427A1.586 1.586 0 0 1 10.354 16Zm1.063-1.042 3.52-3.541-6.354-6.375-3.541 3.541 6.375 6.375ZM9.958 20c-1.291 0-2.51-.23-3.656-.688a10.076 10.076 0 0 1-3.052-1.895 10.245 10.245 0 0 1-2.198-2.855A9.592 9.592 0 0 1 0 11h1.5a8.358 8.358 0 0 0 .865 2.833 8.455 8.455 0 0 0 1.729 2.302A8.83 8.83 0 0 0 6.49 17.74a8.51 8.51 0 0 0 2.864.74l-1.396-1.418L9 16l3.646 3.625c-.445.125-.89.219-1.334.281A9.697 9.697 0 0 1 9.959 20ZM18.5 9a8.358 8.358 0 0 0-.865-2.833 8.565 8.565 0 0 0-1.718-2.302A8.623 8.623 0 0 0 13.52 2.26a8.608 8.608 0 0 0-2.875-.74l1.396 1.417L11 4 7.354.375A7.642 7.642 0 0 1 8.687.083C9.133.028 9.584 0 10.043 0c1.291 0 2.51.23 3.656.688a10.21 10.21 0 0 1 3.062 1.895 9.99 9.99 0 0 1 2.198 2.854A9.71 9.71 0 0 1 20 9h-1.5Z" fill="#000"/></g><defs><clipPath id="a"><path fill="#fff" d="M0 0h20v20H0z"/></clipPath></defs></svg>