<?xml version="1.0" encoding="UTF-8" standalone="no"?>
<svg width="160px" height="96px" viewBox="0 0 160 96" version="1.1" xmlns="http://www.w3.org/2000/svg" xmlns:xlink="http://www.w3.org/1999/xlink">
    <!-- Generator: Sketch 39.1 (31720) - http://www.bohemiancoding.com/sketch -->
    <title>Non-Touch-Summary-Icons</title>
    <desc>Created with Sketch.</desc>
    <defs></defs>
    <g id="Page" stroke="none" stroke-width="1" fill="none" fill-rule="evenodd">
        <g id="Non-Touch-Summary-Icons" transform="translate(-128.000000, -192.000000)">
            <g id="Info-Grey" transform="translate(176.000000, 272.000000)" fill="#000000">
                <path d="M2,3.73208732 C2,2.77548191 2.77427769,2 3.72629963,2 L13.2737004,2 C14.2271093,2 15,2.76890868 15,3.73208732 L15,12.2679127 C15,13.2245181 14.2257223,14 13.2737004,14 L3.72629963,14 C2.77289067,14 2,13.2310913 2,12.2679127 L2,3.73208732 Z M8,6 L9,6 L9,5 L8,5 L8,6 L8,6 Z M8,11 L9,11 L9,7 L8,7 L8,11 L8,11 Z" id="Icon"></path>
            </g>
            <g id="Unkonwn-Grey" transform="translate(192.000000, 272.000000)">
                <g id="Icon-HTTP">
                    <polygon id="Layout" points="0 0 16 0 16 16 0 16"></polygon>
                </g>
                <g id="ic_help_black_24dp" transform="translate(2.000000, 2.000000)" fill="#000000">
                    <g id="Group">
                        <path d="M0,1.73208732 C0,0.775481909 0.774277687,0 1.72629963,0 L11.2737004,0 C12.2271093,0 13,0.768908679 13,1.73208732 L13,10.2679127 C13,11.2245181 12.2257223,12 11.2737004,12 L1.72629963,12 C0.77289067,12 0,11.2310913 0,10.2679127 L0,1.73208732 Z M7,9 L6,9 L6,8 L7,8 L7,9 Z M8.035,5.125 L7.585,5.585 C7.225,5.95 7,6.25 7,7 L6.69726562,7 L6.3104248,7 L6,7 L6,6.75 C6,6.2 6.225,5.7 6.585,5.335 L7.205,4.705 C7.39,4.525 7.5,4.275 7.5,4 C7.5,3.45 7.05,3 6.5,3 C5.95,3 5.5,3.45 5.5,4 L4.5,4 C4.5,2.895 5.395,2 6.5,2 C7.605,2 8.5,2.895 8.5,4 C8.5,4.44 8.32,4.84 8.035,5.125 Z" id="Combined-Shape"></path>
                    </g>
                </g>
            </g>
            <g id="Icon" transform="translate(128.000000, 272.000000)">
                <g id="Security-Icon-Green-Simple">
                    <rect id="Layout" opacity="0.2" x="0" y="0" width="16" height="16"></rect>
                    <rect id="Green" fill="#000000" x="4" y="4" width="8" height="8" rx="1"></rect>
                </g>
            </g>
            <g id="Icon" transform="translate(144.000000, 272.000000)">
                <g id="Security-Icon-Green-Simple">
                    <rect id="Layout" opacity="0.2" x="0" y="0" width="16" height="16"></rect>
                    <rect id="Green" fill="#000000" x="4" y="4" width="8" height="8" rx="4"></rect>
                </g>
            </g>
            <g id="Icon" transform="translate(160.000000, 272.000000)">
                <g id="Security-Icon-Green-Simple">
                    <rect id="Layout" opacity="0.2" x="0" y="0" width="16" height="16"></rect>
                    <polygon id="Red" fill="#000000" points="8 3 13 12 3 12"></polygon>
                </g>
            </g>
            <g id="Icon" transform="translate(160.000000, 256.000000)">
                <rect id="Layout" opacity="0.2" x="0" y="0" width="16" height="16"></rect>
                <path d="M0.5,14 L15.5,14 L8,1 L0.5,14 L0.5,14 Z M9,12 L7,12 L7,10 L9,10 L9,12 L9,12 Z M9,9 L7,9 L7,6 L9,6 L9,9 L9,9 Z" fill="#000000"></path>
            </g>
            <g id="Icon" transform="translate(144.000000, 256.000000)">
                <polygon id="Layout" points="0 0 16 0 16 16 0 16"></polygon>
                <path d="M8,1 C4.136,1 1,4.136 1,8 C1,11.864 4.136,15 8,15 C11.864,15 15,11.864 15,8 C15,4.136 11.864,1 8,1 L8,1 Z M2.5,8 C2.5,4.968125 4.968125,2.5 8,2.5 C11.031875,2.5 13.5,4.968125 13.5,8 C13.5,11.031875 11.031875,13.5 8,13.5 C4.968125,13.5 2.5,11.031875 2.5,8 Z M9,12 L9,7 L7,7 L7,12 L9,12 Z M7,6 L9,6 L9,4 L7,4 L7,6 L7,6 Z" fill="#000000"></path>
            </g>
            <g id="Icon" transform="translate(128.000000, 256.000000)">
                <polygon id="Layout" points="0 0 16 0 16 16 0 16"></polygon>
                <path d="M10.5,6.49999992 L10.5,5.49999992 C10.5,4.11999512 9.38000488,3 8,3 C6.61999512,3.01017207 5.5,4.11999512 5.5,5.49999992 L5.5,6.49999992 C5.5,6.49999992 5.55000305,6.5 5,6.49999992 C4.44999695,6.49999983 4,6.95015331 4,7.49633781 L4,12.5 C4,13.0500031 4.45001221,13.5 5,13.5 C5.54998779,13.5 10.4500122,13.5 11,13.5 C11.5499878,13.5 12,13.0500031 12,12.5 C12,11.9499969 12,8.05000305 12,7.5 C12,6.97227107 11.5500031,6.5 11,6.49999992 C10.4499969,6.5 10.5,6.49999992 10.5,6.49999992 Z M6.5,6.51011411 L6.5,5.5 C6.5,4.66999817 7.16999817,4 8,4 C8.83000183,4 9.5,4.66999817 9.5,5.5 L9.5,6.51011411 L6.5,6.51011411 Z" fill="#000000"></path>
            </g>
            <g id="Icon" transform="translate(227.000000, 227.000000)" fill="#000000">
                <path d="M0,3.46603816 C0,1.55179814 1.54855537,0 3.46603816,0 L22.5339618,0 C24.4482019,0 26,1.54855537 26,3.46603816 L26,22.5339618 C26,24.4482019 24.4514446,26 22.5339618,26 L3.46603816,26 C1.55179814,26 0,24.4514446 0,22.5339618 L0,3.46603816 Z M12,9 L14,9 L14,7 L12,7 L12,9 L12,9 Z M12,19 L14,19 L14,11 L12,11 L12,19 L12,19 Z"></path>
            </g>
            <g id="Icon" transform="translate(256.000000, 224.000000)">
                <g id="Icon-HTTP">
                    <polygon id="Layout" points="0 0 32 0 32 32 0 32"></polygon>
                </g>
                <g id="ic_help_black_24dp" transform="translate(3.000000, 3.000000)" fill="#000000">
                    <g id="Group">
                        <path d="M0,3.46603816 C0,1.55179814 1.54855537,0 3.46603816,0 L22.5339618,0 C24.4482019,0 26,1.54855537 26,3.46603816 L26,22.5339618 C26,24.4482019 24.4514446,26 22.5339618,26 L3.46603816,26 C1.55179814,26 0,24.4514446 0,22.5339618 L0,3.46603816 Z M14,19 L12,19 L12,17 L14,17 L14,19 Z M16.07,11.25 L15.17,12.17 C14.45,12.9 14,13.5 14,15 L13.3945312,15 L12.6208496,15 L12,15 L12,14.5 C12,13.4 12.45,12.4 13.17,11.67 L14.41,10.41 C14.78,10.05 15,9.55 15,9 C15,7.9 14.1,7 13,7 C11.9,7 11,7.9 11,9 L9,9 C9,6.79 10.79,5 13,5 C15.21,5 17,6.79 17,9 C17,9.88 16.64,10.68 16.07,11.25 Z" id="Combined-Shape"></path>
                    </g>
                </g>
            </g>
            <g id="Icon" transform="translate(128.000000, 224.000000)">
                <g id="Security-Icon-Green-Simple">
                    <rect id="Layout" opacity="0.2" x="0" y="0" width="32" height="32"></rect>
                    <rect id="Green" fill="#000000" x="8" y="8" width="16" height="16" rx="2"></rect>
                </g>
            </g>
            <g id="Icon" transform="translate(160.000000, 224.000000)">
                <g id="Security-Icon-Green-Simple">
                    <rect id="Layout" opacity="0.2" x="0" y="0" width="32" height="32"></rect>
                    <rect id="Green" fill="#000000" x="8" y="8" width="16" height="16" rx="8"></rect>
                </g>
            </g>
            <g id="Icon" transform="translate(192.000000, 224.000000)">
                <g id="Security-Icon-Green-Simple">
                    <rect id="Layout" opacity="0.2" x="0" y="0" width="32" height="32"></rect>
                    <polygon id="Red" fill="#000000" points="16 6 26 24 6 24"></polygon>
                </g>
            </g>
            <g id="Icon" transform="translate(192.000000, 192.000000)">
                <rect id="Layout" opacity="0.2" x="0" y="0" width="32" height="32"></rect>
                <path d="M4,27 L29,27 L16.5,5 L4,27 L4,27 Z M18,24 L15,24 L15,21 L18,21 L18,24 L18,24 Z M18,19 L15,19 L15,13 L18,13 L18,19 L18,19 Z" fill="#000000"></path>
            </g>
            <g id="Icon" transform="translate(160.000000, 192.000000)">
                <polygon id="Layout" points="0 0 32 0 32 32 0 32"></polygon>
                <path d="M16.5,3 C9.048,3 3,9.048 3,16.5 C3,23.952 9.048,30 16.5,30 C23.952,30 30,23.952 30,16.5 C30,9.048 23.952,3 16.5,3 L16.5,3 Z M6,16.5 C6,10.711875 10.711875,6 16.5,6 C22.288125,6 27,10.711875 27,16.5 C27,22.288125 22.288125,27 16.5,27 C10.711875,27 6,22.288125 6,16.5 Z M15,23 L18,23 L18,15 L15,15 L15,23 L15,23 Z M15,13 L18,13 L18,10 L15,10 L15,13 L15,13 Z" fill="#000000"></path>
            </g>
            <g id="Icon" transform="translate(128.000000, 192.000000)">
                <polygon id="Layout" points="0 0 32 0 32 32 0 32"></polygon>
                <path d="M21,12.9999998 L21,10.9999998 C21,8.23999023 18.7600098,6 16,6 C13.2399902,6.02034414 11,8.23999023 11,10.9999998 L11,12.9999998 C11,12.9999998 11.1000061,13 10,12.9999998 C8.8999939,12.9999997 8,13.9003066 8,14.9926756 L8,25 C8,26.1000061 8.90002441,27 10,27 C11.0999756,27 20.9000244,27 22,27 C23.0999756,27 24,26.1000061 24,25 C24,23.8999939 24,16.1000061 24,15 C24,13.9445421 23.1000061,13 22,12.9999998 C20.8999939,13 21,12.9999998 21,12.9999998 Z M13,13.0202282 L13,11 C13,9.33999634 14.3399963,8 16,8 C17.6600037,8 19,9.33999634 19,11 L19,13.0202282 L13,13.0202282 Z" fill="#000000"></path>
            </g>
        </g>
    </g>
</svg>