<svg width="20" height="20" viewBox="0 0 20 20" fill="none" xmlns="http://www.w3.org/2000/svg">
<path d="M4.5 17C4.08333 17 3.72933 16.854 3.438 16.562C3.146 16.2707 3 15.9167 3 15.5H4.5V17ZM3 13.875V12.375H4.5V13.875H3ZM3 10.75V9.25H4.5V10.75H3ZM3 7.625V6.125H4.5V7.625H3ZM3 4.5C3 4.08333 3.146 3.72933 3.438 3.438C3.72933 3.146 4.08333 3 4.5 3V4.5H3ZM6.125 17V15.5H7.625V17H6.125ZM6.125 4.5V3H7.625V4.5H6.125ZM9 17V9H17V10.5H11.562L17 15.938L15.938 17L10.5 11.562V17H9ZM9.25 4.5V3H10.75V4.5H9.25ZM12.375 4.5V3H13.875V4.5H12.375ZM15.5 7.5V6H17V7.5H15.5ZM15.5 4.5V3C15.9167 3 16.2707 3.146 16.562 3.438C16.854 3.72933 17 4.08333 17 4.5H15.5Z" fill="black"/>
</svg>
