<svg width="20" height="20" viewBox="0 0 20 20" fill="none" xmlns="http://www.w3.org/2000/svg">
<path d="M15 15V16.5C15 16.9167 14.854 17.2707 14.562 17.562C14.2707 17.854 13.9167 18 13.5 18H3.5C3.08333 18 2.72933 17.854 2.438 17.562C2.146 17.2707 2 16.9167 2 16.5V6.5C2 6.08333 2.146 5.72933 2.438 5.438C2.72933 5.146 3.08333 5 3.5 5H5V3.5C5 3.08333 5.146 2.72933 5.438 2.438C5.72933 2.146 6.08333 2 6.5 2H16.5C16.9167 2 17.2707 2.146 17.562 2.438C17.854 2.72933 18 3.08333 18 3.5V13.5C18 13.9167 17.854 14.2707 17.562 14.562C17.2707 14.854 16.9167 15 16.5 15H15ZM16.5 13.5V3.5H6.5V13.5H16.5Z" fill="black"/>
</svg>
