<svg width="20" height="20" viewBox="0 0 20 20" fill="none" xmlns="http://www.w3.org/2000/svg">
<path d="M10 18C8.125 17.5417 6.57292 16.4803 5.34375 14.8158C4.11458 13.1513 3.5 11.3029 3.5 9.27083V4.5L10 2L16.5 4.5V9.27083C16.5 11.3029 15.8854 13.1513 14.6563 14.8158C13.4271 16.4803 11.875 17.5417 10 18ZM10 16.4375C11.4444 15.9896 12.6389 15.0938 13.5833 13.75C14.5278 12.4063 15 10.9132 15 9.27083V5.52083L10 3.60417L5 5.52083V9.27083C5 10.9132 5.47222 12.4063 6.41667 13.75C7.36111 15.0938 8.55556 15.9896 10 16.4375Z" fill="black"/>
</svg>
