<?xml version="1.0" encoding="UTF-8" standalone="no"?>
<!-- Created with Inkscape (http://www.inkscape.org/) -->

<svg
   xmlns:dc="http://purl.org/dc/elements/1.1/"
   xmlns:cc="http://creativecommons.org/ns#"
   xmlns:rdf="http://www.w3.org/1999/02/22-rdf-syntax-ns#"
   xmlns:svg="http://www.w3.org/2000/svg"
   xmlns="http://www.w3.org/2000/svg"
   xmlns:xlink="http://www.w3.org/1999/xlink"
   xmlns:sodipodi="http://sodipodi.sourceforge.net/DTD/sodipodi-0.dtd"
   xmlns:inkscape="http://www.inkscape.org/namespaces/inkscape"
   width="190"
   height="30"
   id="svg3250"
   version="1.1"
   inkscape:version="0.48.4 r9939"
   sodipodi:docname="smallIcons.svg">
  <defs
     id="defs3252">
    <linearGradient
       gradientTransform="matrix(0,-0.41666666,-0.41666666,0,218,106)"
       gradientUnits="userSpaceOnUse"
       id="p"
       x1="0"
       x2="24"
       xlink:href="#l"
       y1="0"
       y2="0" />
    <linearGradient
       id="l">
      <stop
         offset="0"
         stop-color="#d7687d"
         id="stop3458" />
      <stop
         offset="1"
         stop-color="#b21402"
         id="stop3460" />
    </linearGradient>
    <linearGradient
       y2="0"
       x2="24"
       y1="0"
       x1="0"
       gradientTransform="matrix(0,-0.41666666,-0.41666666,0,25,1032.3622)"
       gradientUnits="userSpaceOnUse"
       id="linearGradient3308"
       xlink:href="#l"
       inkscape:collect="always" />
    <linearGradient
       inkscape:collect="always"
       xlink:href="#l-0"
       id="linearGradient3239"
       gradientUnits="userSpaceOnUse"
       gradientTransform="matrix(0,-0.41666666,-0.41666666,0,249.99999,117)"
       x1="0"
       y1="0"
       x2="24"
       y2="0" />
    <linearGradient
       id="l-0">
      <stop
         offset="0"
         stop-color="#d7687d"
         id="stop3458-8" />
      <stop
         offset="1"
         stop-color="#b21402"
         id="stop3460-8" />
    </linearGradient>
    <linearGradient
       gradientTransform="matrix(0.71428571,0,0,0.71428571,132.28571,37.714287)"
       gradientUnits="userSpaceOnUse"
       id="q"
       x1="113"
       x2="127"
       xlink:href="#a"
       y1="104"
       y2="104" />
    <linearGradient
       id="a">
      <stop
         offset="0"
         stop-color="#606eda"
         id="stop3403" />
      <stop
         offset="1"
         stop-color="#021db2"
         id="stop3405" />
    </linearGradient>
    <linearGradient
       y2="104"
       x2="127"
       y1="104"
       x1="113"
       gradientTransform="matrix(0.71428571,0,0,0.71428571,-0.71428982,953.07646)"
       gradientUnits="userSpaceOnUse"
       id="linearGradient3359"
       xlink:href="#a"
       inkscape:collect="always" />
    <linearGradient
       gradientTransform="matrix(0,0.43965518,0.78048781,0,44.48744,928.48286)"
       gradientUnits="userSpaceOnUse"
       id="t"
       x1="227.875"
       x2="235.125"
       xlink:href="#i"
       y1="103.15625"
       y2="103.15625" />
    <linearGradient
       id="i">
      <stop
         offset="0"
         stop-color="#f00"
         stop-opacity="0"
         id="stop3443" />
      <stop
         offset="1"
         stop-color="#f0cb68"
         stop-opacity="0.71"
         id="stop3445" />
    </linearGradient>
    <linearGradient
       gradientTransform="matrix(0,-0.62931035,0.92682926,0,29.46895,1170.8907)"
       gradientUnits="userSpaceOnUse"
       id="s"
       x1="227.875"
       x2="235.125"
       xlink:href="#j"
       y1="103.15625"
       y2="103.15625" />
    <linearGradient
       id="j">
      <stop
         offset="0"
         stop-color="#e60000"
         stop-opacity="0.65"
         id="stop3448" />
      <stop
         offset="1"
         stop-color="#fff"
         stop-opacity="0.91"
         id="stop3450" />
    </linearGradient>
    <linearGradient
       gradientTransform="matrix(0,1.3793103,-1.3008129,0,363.08462,-218.35335)"
       gradientUnits="userSpaceOnUse"
       id="r"
       x1="227.875"
       x2="235.125"
       xlink:href="#k"
       y1="103.15625"
       y2="103.15625" />
    <linearGradient
       id="k">
      <stop
         offset="0"
         stop-color="#a10000"
         id="stop3453" />
      <stop
         offset="1"
         stop-color="#c60000"
         id="stop3455" />
    </linearGradient>
    <linearGradient
       y2="103.15625"
       x2="235.125"
       y1="103.15625"
       x1="227.875"
       gradientTransform="matrix(0,1.3793103,-1.3008129,0,259.08462,708.00888)"
       gradientUnits="userSpaceOnUse"
       id="linearGradient3398"
       xlink:href="#k"
       inkscape:collect="always" />
    <linearGradient
       gradientTransform="matrix(-0.00480259,0.43959676,0.7803841,0.00852566,65.60742,927.52853)"
       gradientUnits="userSpaceOnUse"
       id="w"
       x1="227.875"
       x2="235.125"
       xlink:href="#f"
       y1="103.15625"
       y2="103.15625" />
    <linearGradient
       id="f">
      <stop
         offset="0"
         stop-color="#00d600"
         stop-opacity="0"
         id="stop3428" />
      <stop
         offset="1"
         stop-color="#d8fc7b"
         stop-opacity="0.81"
         id="stop3430" />
    </linearGradient>
    <linearGradient
       gradientTransform="matrix(0.00687428,-0.62922672,0.92670611,0.01012422,47.870946,1169.7969)"
       gradientUnits="userSpaceOnUse"
       id="v"
       x1="227.875"
       x2="235.125"
       xlink:href="#g"
       y1="103.15625"
       y2="103.15625" />
    <linearGradient
       id="g">
      <stop
         offset="0"
         stop-color="#00ba00"
         id="stop3433" />
      <stop
         offset="1"
         stop-color="#fff"
         stop-opacity="0.91"
         id="stop3435" />
    </linearGradient>
    <linearGradient
       gradientTransform="matrix(-0.01506784,1.3792098,-1.3007182,-0.01421029,377.66542,-216.8212)"
       gradientUnits="userSpaceOnUse"
       id="u"
       x1="227.875"
       x2="235.125"
       xlink:href="#h"
       y1="103.15625"
       y2="103.15625" />
    <linearGradient
       id="h">
      <stop
         offset="0"
         stop-color="#00a104"
         id="stop3438" />
      <stop
         offset="1"
         stop-color="#00c605"
         id="stop3440" />
    </linearGradient>
    <linearGradient
       y2="103.15625"
       x2="235.125"
       y1="103.15625"
       x1="227.875"
       gradientTransform="matrix(-0.01506693,1.3791269,-1.30064,-0.01420944,282.65715,709.5601)"
       gradientUnits="userSpaceOnUse"
       id="linearGradient3426"
       xlink:href="#h"
       inkscape:collect="always" />
    <linearGradient
       gradientTransform="matrix(0,0.43965518,0.78048781,0,84.443253,928.43867)"
       gradientUnits="userSpaceOnUse"
       id="y"
       x1="227.875"
       x2="235.125"
       xlink:href="#d"
       y1="103.15625"
       y2="103.15625" />
    <linearGradient
       id="d">
      <stop
         offset="0"
         stop-color="#ffa801"
         stop-opacity="0"
         id="stop3418" />
      <stop
         offset="1"
         stop-color="#f0fb3d"
         id="stop3420" />
    </linearGradient>
    <linearGradient
       gradientTransform="matrix(0,-0.62931035,0.92682926,0,69.468953,1170.8907)"
       gradientUnits="userSpaceOnUse"
       id="x"
       x1="227.875"
       x2="235.125"
       xlink:href="#e"
       y1="103.15625"
       y2="103.15625" />
    <linearGradient
       id="e">
      <stop
         offset="0"
         stop-color="#ffbd00"
         stop-opacity="0.65"
         id="stop3423" />
      <stop
         offset="1"
         stop-color="#fff"
         stop-opacity="0.91"
         id="stop3425" />
    </linearGradient>
  </defs>
  <sodipodi:namedview
     id="base"
     pagecolor="#ffffff"
     bordercolor="#666666"
     borderopacity="1.0"
     inkscape:pageopacity="0.0"
     inkscape:pageshadow="2"
     inkscape:zoom="5.5"
     inkscape:cx="87.644148"
     inkscape:cy="14.858115"
     inkscape:document-units="px"
     inkscape:current-layer="layer1"
     showgrid="true"
     inkscape:window-width="1178"
     inkscape:window-height="865"
     inkscape:window-x="2254"
     inkscape:window-y="165"
     inkscape:window-maximized="0">
    <inkscape:grid
       type="xygrid"
       id="grid3258"
       empspacing="2"
       visible="true"
       enabled="true"
       snapvisiblegridlinesonly="true"
       spacingx="10px"
       spacingy="10px"
       dotted="false" />
  </sodipodi:namedview>
  <metadata
     id="metadata3255">
    <rdf:RDF>
      <cc:Work
         rdf:about="">
        <dc:format>image/svg+xml</dc:format>
        <dc:type
           rdf:resource="http://purl.org/dc/dcmitype/StillImage" />
        <dc:title />
      </cc:Work>
    </rdf:RDF>
  </metadata>
  <g
     inkscape:label="Layer 1"
     inkscape:groupmode="layer"
     id="layer1"
     transform="translate(0,-1022.3622)">
    <path
       d="m 25,1022.3622 c -2.76,0 -5,2.24 -5,5 0,2.76 2.24,5 5,5 2.76,0 5,-2.24 5,-5 0,-2.76 -2.24,-5 -5,-5"
       id="path3699"
       inkscape:connector-curvature="0"
       style="fill:url(#linearGradient3308)" />
    <path
       d="m 20.36,1027.3622 c 0,2.56 2.08,4.64 4.64,4.64 2.56,0 4.64,-2.08 4.64,-4.64 0,-2.56 -2.08,-4.64 -4.64,-4.64 -2.56,0 -4.64,2.08 -4.64,4.64"
       id="path3701"
       inkscape:connector-curvature="0"
       style="fill:#eb3941" />
    <path
       d="m 23,1025.3622 4,4"
       id="path3703"
       inkscape:connector-curvature="0"
       style="stroke:#ffffff" />
    <path
       d="m 27,1025.3622 -4,4"
       id="path3705"
       inkscape:connector-curvature="0"
       style="stroke:#ffffff" />
    <g
       id="g3234"
       transform="translate(-205,915.3622)">
      <path
         style="fill:url(#linearGradient3239)"
         inkscape:connector-curvature="0"
         id="path3699-5"
         d="m 250,107 c -2.76,0 -5,2.24 -5,5 0,2.76 2.24,5 5,5 2.76,0 5,-2.24 5,-5 0,-2.76 -2.24,-5 -5,-5" />
      <path
         id="path3701-0"
         d="m 245.36,112 c 0,2.56 2.08,4.64 4.64,4.64 2.56,0 4.64,-2.08 4.64,-4.64 0,-2.56 -2.08,-4.64 -4.64,-4.64 -2.56,0 -4.64,2.08 -4.64,4.64"
         inkscape:connector-curvature="0"
         style="fill:#f4979b;fill-opacity:1" />
      <path
         style="fill:#ffffff;fill-opacity:1"
         id="path3689-2"
         d="m 248.64912,113.55532 -1.12,-1.57887 -0.94113,0.9411 1.98332,2.80777 5.01668,-5.96555 -0.8711,-1.03445 z"
         inkscape:connector-curvature="0" />
    </g>
    <path
       d="m 61,1031.3622 4,-8 4,8 z"
       id="path3707"
       inkscape:connector-curvature="0"
       style="stroke:#c19600;stroke-width:2;stroke-linejoin:round" />
    <path
       d="m 61,1031.3622 4,-8 4,8 z"
       id="path3709"
       inkscape:connector-curvature="0"
       style="fill:#f4bd00;stroke:#f5bd00;stroke-width:1.5;stroke-linejoin:round" />
    <path
       d="m 63.75,1025.1122 2.5,0 0,2.5 -0.5,1.75 -1.5,0 -0.5,-1.75 0,-2.5 m 0,5.25 2.5,0 0,1.25 -2.5,0"
       id="path3711"
       inkscape:connector-curvature="0"
       style="fill:#ad8601" />
    <path
       d="m 64,1025.3622 2,0 0,2.25 -0.5,1.75 -1,0 -0.5,-1.75 0,-2.25 m 0,5 2,0 0,1 -2,0"
       id="path3713"
       inkscape:connector-curvature="0"
       style="fill:#ffffff" />
    <path
       d="m 85,1022.3622 c -2.76,0 -5,2.24 -5,5 0,2.76 2.24,5 5,5 2.76,0 5,-2.24 5,-5 0,-2.76 -2.24,-5 -5,-5"
       id="path3741"
       inkscape:connector-curvature="0"
       style="fill:url(#linearGradient3359)" />
    <path
       d="m 80.36,1027.3622 c 0,2.56 2.08,4.64 4.64,4.64 2.56,0 4.64,-2.08 4.64,-4.64 0,-2.56 -2.08,-4.64 -4.64,-4.64 -2.56,0 -4.64,2.08 -4.64,4.64"
       id="path3743"
       inkscape:connector-curvature="0"
       style="fill:#2a53cd" />
    <path
       d="m 83.93,1024.5022 c -0.03,-0.53 0.55,-0.97 1.06,-0.83 0.5,0.12 0.79,0.73 0.56,1.18 -0.2,0.44 -0.79,0.61 -1.2,0.36 -0.26,-0.14 -0.42,-0.42 -0.42,-0.71 z m 1.7,5.46 c 0.22,0 0.45,0 0.67,0 0,0.18 0,0.35 0,0.53 -0.96,0 -1.93,0 -2.89,0 0,-0.18 0,-0.35 0,-0.53 0.22,0 0.44,0 0.66,0 0,-1.2 0,-2.41 0,-3.61 -0.22,0 -0.44,0 -0.66,0 0,-0.18 0,-0.35 0,-0.53 0.74,0 1.48,0 2.22,0 0,1.38 0,2.76 0,4.14 z"
       id="path3745"
       inkscape:connector-curvature="0"
       style="fill:#ffffff" />
    <path
       d="m 103.25,1022.3622 c -0.7,0 -1.25,0.5 -1.25,1.25 l 0,7.5 c 0,0.7 0.5,1.25 1.25,1.25 l 3.5,0 c 0.7,0 1.25,-0.5 1.25,-1.25 l 0,-7.5 c 0,-0.7 -0.5,-1.25 -1.25,-1.25 l -3.5,0 z m -0.25,1 4,0 0,7 -4,0 0,-7 z m 2,7.25 c 0.4,0 0.75,0.3 0.75,0.75 0,0.4 -0.3,0.75 -0.75,0.75 -0.4,0 -0.75,-0.3 -0.75,-0.75 0,-0.4 0.3,-0.75 0.75,-0.75 z"
       id="path3765"
       inkscape:connector-curvature="0" />
    <path
       d="m 125,1032.3622 c -2.76,0 -5,-2.24 -5,-5 0,-2.76 2.24,-5 5,-5 2.76,0 5,2.24 5,5 0,2.76 -2.24,5 -5,5 z"
       id="path3715"
       inkscape:connector-curvature="0"
       style="fill:url(#linearGradient3398)" />
    <path
       d="m 129.5,1027.3622 c 0,2.49 -2.01,4.5 -4.5,4.5 -2.49,0 -4.5,-2.01 -4.5,-4.5 0,-2.49 2.01,-4.5 4.5,-4.5 2.49,0 4.5,2.01 4.5,4.5 z"
       id="path3717"
       inkscape:connector-curvature="0"
       style="fill:#dd0000" />
    <path
       d="m 125.03,1022.8922 c 1.97,0 3.56,1.02 3.56,2.28 0,1.26 -1.59,2.28 -3.56,2.28 -1.97,0 -3.56,-1.02 -3.56,-2.28 0,-1.26 1.59,-2.28 3.56,-2.28 z"
       id="path3719"
       inkscape:connector-curvature="0"
       style="fill:url(#s)" />
    <path
       d="m 125.03,1031.8322 c 1.66,0 3,-0.71 3,-1.59 0,-0.88 -1.34,-1.59 -3,-1.59 -1.66,0 -3,0.71 -3,1.59 0,0.88 1.34,1.59 3,1.59 z"
       id="path3721"
       inkscape:connector-curvature="0"
       style="fill:url(#t)" />
    <path
       d="m 144.95,1032.3619 c -2.75983,-0.03 -4.9797,-2.2899 -4.9497,-5.0497 0.03,-2.7598 2.28986,-4.9797 5.0497,-4.9497 2.75983,0.03 4.9797,2.2899 4.9497,5.0497 -0.03,2.7598 -2.28986,4.9797 -5.0497,4.9497 z"
       id="path3723"
       inkscape:connector-curvature="0"
       style="fill:url(#linearGradient3426)" />
    <path
       d="m 149.49973,1027.4122 c -0.03,2.4898 -2.05988,4.4797 -4.54973,4.4497 -2.48985,-0.03 -4.47973,-2.0598 -4.44973,-4.5497 0.03,-2.4898 2.05988,-4.4797 4.54973,-4.4497 2.48985,0.03 4.47973,2.0598 4.44973,4.5497 z"
       id="path3725"
       inkscape:connector-curvature="0"
       style="fill:#00be00" />
    <path
       d="m 145.07999,1022.8925 c 1.96989,0.02 3.54979,1.0599 3.53979,2.3198 -0.01,1.26 -1.6199,2.2599 -3.58978,2.2399 -1.96988,-0.02 -3.54979,-1.0599 -3.53979,-2.3199 0.01,-1.2599 1.6199,-2.2598 3.58978,-2.2398 z"
       id="path3727"
       inkscape:connector-curvature="0"
       style="fill:url(#v)" />
    <path
       d="m 144.98,1031.7719 c 1.6599,0.02 3.00982,-0.6799 3.01982,-1.5599 0.01,-0.8799 -1.32992,-1.6099 -2.97982,-1.6299 -1.6599,-0.02 -3.00982,0.68 -3.01982,1.5599 -0.01,0.88 1.32992,1.6099 2.97982,1.6299 z"
       id="path3729"
       inkscape:connector-curvature="0"
       style="fill:url(#w)" />
    <path
       d="m 165,1032.3622 c -2.76,0 -5,-2.24 -5,-5 0,-2.76 2.24,-5 5,-5 2.76,0 5,2.24 5,5 0,2.76 -2.24,5 -5,5 z"
       id="path3731"
       inkscape:connector-curvature="0"
       style="fill:#e5a600" />
    <path
       d="m 169.5,1027.3622 c 0,2.49 -2.01,4.5 -4.5,4.5 -2.49,0 -4.5,-2.01 -4.5,-4.5 0,-2.49 2.01,-4.5 4.5,-4.5 2.49,0 4.5,2.01 4.5,4.5 z"
       id="path3733"
       inkscape:connector-curvature="0"
       style="fill:#ffbd00" />
    <path
       d="m 165.03,1022.8922 c 1.97,0 3.56,1.02 3.56,2.28 0,1.26 -1.59,2.28 -3.56,2.28 -1.97,0 -3.56,-1.02 -3.56,-2.28 0,-1.26 1.59,-2.28 3.56,-2.28 z"
       id="path3735"
       inkscape:connector-curvature="0"
       style="fill:url(#x)" />
    <path
       d="m 164.99,1031.7822 c 1.66,0 3,-0.71 3,-1.59 0,-0.88 -1.34,-1.59 -3,-1.59 -1.66,0 -3,0.71 -3,1.59 0,0.88 1.34,1.59 3,1.59 z"
       id="path3737"
       inkscape:connector-curvature="0"
       style="fill:url(#y)" />
    <path
       inkscape:connector-curvature="0"
       id="path3660"
       d="m 180.5,1029.8622 4,0 0,2 5,-4.5 -5,-4.5 0,2 -4,0 z"
       style="fill:#4688f1;fill-opacity:1"
       sodipodi:nodetypes="cccccccc" />
    <path
       d="m 3.25,1044.1122 3.5,3.25 -3.5,3.25"
       id="path3693"
       inkscape:connector-curvature="0"
       style="fill:none;stroke:#939393;stroke-width:1.5" />
    <path
       d="m 23.25,1044.1122 3.5,3.25 -3.5,3.25"
       id="path3691"
       inkscape:connector-curvature="0"
       style="fill:none;stroke:#367cf1;stroke-width:1.5" />
    <path
       d="m 46.5,1047.3622 c 0,0.55 0.45,1 1,1 0.55,0 1,-0.45 1,-1 0,-0.55 -0.45,-1 -1,-1 -0.55,0 -1,0.45 -1,1"
       id="path3695"
       inkscape:connector-curvature="0"
       style="fill:#bababa" />
    <path
       d="m 45.75,1044.1122 -3.5,3.25 3.5,3.25"
       id="path3697"
       inkscape:connector-curvature="0"
       style="fill:none;stroke:#bababa;stroke-width:1.5" />
    <g
       id="Page-1"
       transform="translate(80,1042.3622)"
       style="fill:none;stroke:none">
      <g
         id="curve_swatch"
         style="fill:#000000">
        <path
           id="Combined-Shape"
           d="M 0,0.99539757 C 0,0.44565467 0.4556644,0 0.99539757,0 L 9.0046024,0 C 9.5543453,0 10,0.4556644 10,0.99539757 L 10,9.0046024 C 10,9.5543453 9.5443356,10 9.0046024,10 L 0.99539757,10 C 0.44565467,10 0,9.5443356 0,9.0046024 L 0,0.99539757 z M 5.1232992,5.7397954 C 7.6905853,5.3119144 8.75,4.5467816 8.75,2 L 7.25,2 C 7.25,3.6198851 6.8094147,3.9380856 4.8767008,4.2602046 2.3094147,4.6880856 1.25,5.4532184 1.25,8 l 1.5,0 c 0,-1.6198851 0.4405853,-1.9380856 2.3732992,-2.2602046 z"
           inkscape:connector-curvature="0" />
      </g>
    </g>
    <g
       id="Swatch"
       transform="translate(60,1042.3622)"
       style="fill:none;stroke:none">
      <g
         id="shadow_swatch-3"
         style="fill:#000000">
        <g
           id="Group">
          <rect
             height="10"
             width="10"
             y="0"
             x="0"
             id="Rectangle"
             style="fill-opacity:0" />
          <path
             id="Combined-Shape-6"
             d="M 7.5,2.5 7.5,0 0,0 l 0,7.5 2.5,0 0,2.5 7.5,0 0,-7.5 -2.5,0 z M 1,1 6.5,1 6.5,6.5 1,6.5 1,1 z m 2.5,6.5 4,0 0,-4 1.5,0 0,5.5 -5.5,0 0,-1.5 z"
             inkscape:connector-curvature="0" />
          <polygon
             points="3.5,9 3.5,7.5 7.5,7.5 7.5,3.5 9,3.5 9,9 "
             id="Rectangle-6-Copy"
             style="fill-opacity:0.25" />
        </g>
      </g>
    </g>
  </g>
</svg>
