<svg width="20" height="20" viewBox="0 0 20 20" fill="none" xmlns="http://www.w3.org/2000/svg">
<path d="M10 19L7 16H4.5C4.09722 16 3.74306 15.8542 3.4375 15.5625C3.14583 15.2569 3 14.9028 3 14.5V3.5C3 3.09722 3.14583 2.75 3.4375 2.45833C3.74306 2.15278 4.09722 2 4.5 2H10.5C10.5 2.23611 10.5 2.47917 10.5 2.72917C10.5 2.96528 10.5 3.22222 10.5 3.5H4.5V14.5H15.5V9.5C15.7639 9.5 16.0208 9.5 16.2708 9.5C16.5208 9.5 16.7639 9.5 17 9.5V14.5C17 14.9028 16.8542 15.2569 16.5625 15.5625C16.2708 15.8542 15.9167 16 15.5 16H13L10 19ZM15.5 8C15.4861 8 15.4306 7.95833 15.3333 7.875C15.1389 7.08333 14.75 6.40278 14.1667 5.83333C13.5972 5.25 12.9167 4.86111 12.125 4.66667C12.0972 4.65278 12.0556 4.59722 12 4.5C12 4.47222 12.0417 4.41667 12.125 4.33333C12.9167 4.13889 13.5972 3.75694 14.1667 3.1875C14.75 2.60417 15.1389 1.91667 15.3333 1.125C15.3472 1.09722 15.4028 1.05556 15.5 1C15.5278 1 15.5833 1.04167 15.6667 1.125C15.875 1.91667 16.2639 2.59722 16.8333 3.16667C17.4028 3.73611 18.0833 4.125 18.875 4.33333C18.9028 4.33333 18.9444 4.38889 19 4.5C19 4.51389 18.9583 4.56944 18.875 4.66667C18.0833 4.86111 17.3958 5.25 16.8125 5.83333C16.2431 6.40278 15.8611 7.08333 15.6667 7.875C15.6667 7.90278 15.6111 7.94444 15.5 8Z" fill="black"/>
</svg>
