<svg width="16" height="18" viewBox="0 0 16 18" fill="none" xmlns="http://www.w3.org/2000/svg">
<path d="M7 18L4 15H1.5C1.09722 15 0.743056 14.8542 0.4375 14.5625C0.145834 14.2569 1.19209e-07 13.9028 1.19209e-07 13.5V2.5C1.19209e-07 2.09722 0.145834 1.75 0.4375 1.45833C0.743056 1.15278 1.09722 0.999999 1.5 0.999999H6C6 1.22222 6 1.45833 6 1.70833C6 1.95833 6 2.22222 6 2.5H1.5V13.5H4.60417L7 15.8958L9.375 13.5H12.5V10C12.7639 10 13.0208 10 13.2708 10C13.5208 10 13.7639 10 14 10V13.5C14 13.9028 13.8542 14.2569 13.5625 14.5625C13.2708 14.8542 12.9167 15 12.5 15H10L7 18ZM11.5 9C11.5 7.75 11.0625 6.6875 10.1875 5.8125C9.3125 4.9375 8.25 4.5 7 4.5C8.25 4.5 9.3125 4.0625 10.1875 3.1875C11.0625 2.3125 11.5 1.25 11.5 -9.53674e-07C11.5 1.25 11.9375 2.3125 12.8125 3.1875C13.6875 4.0625 14.75 4.5 16 4.5C14.75 4.5 13.6875 4.9375 12.8125 5.8125C11.9375 6.6875 11.5 7.75 11.5 9Z" fill="#474747"/>
</svg>
