<svg width="20" height="20" viewBox="0 0 20 20" fill="none" xmlns="http://www.w3.org/2000/svg"><g clip-path="url(#clip0_670_22)"><path d="M10 19L7 16H4.5C4.09722 16 3.74306 15.8542 3.4375 15.5625C3.14583 15.2569 3 14.9028 3 14.5V3.5C3 3.09722 3.14583 2.75 3.4375 2.45833C3.74306 2.15278 4.09722 2 4.5 2H9C9 2.22222 9 2.45833 9 2.70833C9 2.95833 9 3.22222 9 3.5H4.5V14.5H7.60417L10 16.8958L12.375 14.5H15.5V11C15.7639 11 16.0208 11 16.2708 11C16.5208 11 16.7639 11 17 11V14.5C17 14.9028 16.8542 15.2569 16.5625 15.5625C16.2708 15.8542 15.9167 16 15.5 16H13L10 19ZM14.5 10C14.5 8.75 14.0625 7.6875 13.1875 6.8125C12.3125 5.9375 11.25 5.5 10 5.5C11.25 5.5 12.3125 5.0625 13.1875 4.1875C14.0625 3.3125 14.5 2.25 14.5 0.999999C14.5 2.25 14.9375 3.3125 15.8125 4.1875C16.6875 5.0625 17.75 5.5 19 5.5C17.75 5.5 16.6875 5.9375 15.8125 6.8125C14.9375 7.6875 14.5 8.75 14.5 10Z" fill="black"/></g><defs><clipPath id="clip0_670_22"><rect width="20" height="20" fill="white"/></clipPath></defs></svg>