<svg xmlns="http://www.w3.org/2000/svg" width="20" height="20" viewBox="0 0 20 20" fill="none">
  <path d="M10.0013 18.3307C10.0013 17.178 9.78255 16.0946 9.34505 15.0807C8.90755 14.0668 8.3138 13.1849 7.5638 12.4349C6.8138 11.6849 5.93186 11.0911 4.91797 10.6536C3.90408 10.2161 2.82075 9.9974 1.66797 9.9974C2.82075 9.9974 3.90408 9.77865 4.91797 9.34115C5.93186 8.90365 6.8138 8.3099 7.5638 7.5599C8.3138 6.8099 8.90755 5.92795 9.34505 4.91406C9.78255 3.90017 10.0013 2.81684 10.0013 1.66406C10.0013 2.81684 10.2201 3.90017 10.6576 4.91406C11.0951 5.92795 11.6888 6.8099 12.4388 7.5599C13.1888 8.3099 14.0707 8.90365 15.0846 9.34115C16.0985 9.77865 17.1819 9.9974 18.3346 9.9974C17.1819 9.9974 16.0985 10.2161 15.0846 10.6536C14.0707 11.0911 13.1888 11.6849 12.4388 12.4349C11.6888 13.1849 11.0951 14.0668 10.6576 15.0807C10.2201 16.0946 10.0013 17.178 10.0013 18.3307Z" fill="#1B6EF3"/>
</svg>