<svg width="14" height="16" viewBox="0 0 14 16" fill="none" xmlns="http://www.w3.org/2000/svg">
<g clip-path="url(#clip0_1320_25512)">
<path d="M7 12.6319C6.94299 12.6319 6.89549 12.6129 6.85749 12.5749C6.81948 12.5369 6.79098 12.4894 6.77198 12.4324C6.61997 11.8338 6.38245 11.259 6.05942 10.708C5.74589 10.1474 5.37536 9.64862 4.94782 9.21158C4.51078 8.77454 4.01199 8.39926 3.45144 8.08573C2.90039 7.7722 2.32559 7.53943 1.72704 7.38742C1.67003 7.36842 1.62253 7.33992 1.58452 7.30191C1.54652 7.26391 1.52752 7.2164 1.52752 7.1594C1.52752 7.10239 1.54652 7.05489 1.58452 7.01689C1.62253 6.97888 1.67003 6.95038 1.72704 6.93138C2.32559 6.77937 2.90039 6.5466 3.45144 6.23307C4.00249 5.91954 4.50128 5.54426 4.94782 5.10722C5.38486 4.67968 5.76014 4.18564 6.07367 3.62509C6.3872 3.06454 6.61997 2.48499 6.77198 1.88644C6.79098 1.82943 6.81948 1.78193 6.85749 1.74392C6.89549 1.70592 6.94299 1.68692 7 1.68692C7.057 1.68692 7.10451 1.70592 7.14251 1.74392C7.18052 1.78193 7.20902 1.82943 7.22802 1.88644C7.38003 2.48499 7.6128 3.06454 7.92633 3.62509C8.23986 4.17614 8.61514 4.67018 9.05218 5.10722C9.48922 5.54426 9.98326 5.91954 10.5343 6.23307C11.0949 6.5466 11.6744 6.77937 12.273 6.93138C12.33 6.95038 12.3775 6.97888 12.4155 7.01689C12.4535 7.05489 12.4725 7.10239 12.4725 7.1594C12.4725 7.2164 12.4535 7.26391 12.4155 7.30191C12.3775 7.33992 12.33 7.36842 12.273 7.38742C11.6744 7.53943 11.0949 7.7722 10.5343 8.08573C9.97376 8.39926 9.47972 8.77454 9.05218 9.21158C8.61514 9.65812 8.23986 10.1569 7.92633 10.708C7.6128 11.259 7.38003 11.8338 7.22802 12.4324C7.20902 12.4894 7.18052 12.5369 7.14251 12.5749C7.10451 12.6129 7.057 12.6319 7 12.6319Z" fill="#0B57D0"/>
</g>
<defs>
<clipPath id="clip0_1320_25512">
<rect width="14" height="15.1442" fill="white"/>
</clipPath>
</defs>
</svg>
