<svg xmlns="http://www.w3.org/2000/svg" width="16" height="16" viewBox="0 0 16 16" fill="none">
<path d="M7.4001 11.2V7.2H8.6001V11.2H7.4001ZM8.00361 6.4C7.8346 6.4 7.69176 6.34284 7.5751 6.22852C7.45843 6.11418 7.4001 5.97252 7.4001 5.80352C7.4001 5.63451 7.45726 5.49167 7.57158 5.375C7.68591 5.25833 7.82758 5.2 7.99658 5.2C8.16559 5.2 8.30843 5.25716 8.4251 5.37148C8.54176 5.48582 8.6001 5.62748 8.6001 5.79648C8.6001 5.9655 8.54294 6.10833 8.42861 6.225C8.31428 6.34167 8.17261 6.4 8.00361 6.4ZM13.1168 7.1L14.1168 6.1C14.2168 6.41111 14.289 6.72344 14.3334 7.03698C14.3779 7.35053 14.4001 7.67153 14.4001 8C14.4001 8.88196 14.2334 9.71078 13.9001 10.4865C13.5668 11.2622 13.1084 11.9417 12.5251 12.525C11.9418 13.1083 11.2627 13.5667 10.488 13.9C9.71331 14.2333 8.88553 14.4 8.0047 14.4C7.12385 14.4 6.29454 14.2333 5.51676 13.9C4.73899 13.5667 4.05843 13.1083 3.4751 12.525C2.89176 11.9417 2.43343 11.2613 2.1001 10.484C1.76676 9.70671 1.6001 8.87616 1.6001 7.99237C1.6001 7.10857 1.76676 6.28056 2.1001 5.50833C2.43343 4.73611 2.89176 4.05833 3.4751 3.475C4.05843 2.89167 4.73794 2.43333 5.51363 2.1C6.28932 1.76667 7.11814 1.6 8.0001 1.6C8.32856 1.6 8.64957 1.62222 8.96311 1.66667C9.27666 1.71111 9.58899 1.78333 9.9001 1.88333L8.9001 2.88333C8.74454 2.86111 8.59516 2.84167 8.45195 2.825C8.30874 2.80833 8.15812 2.8 8.0001 2.8C6.55565 2.8 5.32788 3.30556 4.31676 4.31667C3.30565 5.32778 2.8001 6.55556 2.8001 8C2.8001 9.44444 3.30565 10.6722 4.31676 11.6833C5.32788 12.6944 6.55565 13.2 8.0001 13.2C9.44454 13.2 10.6723 12.6944 11.6834 11.6833C12.6945 10.6722 13.2001 9.44444 13.2001 8C13.2001 7.84198 13.1918 7.69136 13.1751 7.54815C13.1584 7.40494 13.139 7.25556 13.1168 7.1ZM11.6001 8C11.6001 6.99637 11.251 6.14546 10.5528 5.44727C9.85464 4.74909 9.00373 4.4 8.0001 4.4C9.00373 4.4 9.85464 4.05091 10.5528 3.35273C11.251 2.65454 11.6001 1.80363 11.6001 0.8C11.6001 1.80363 11.9492 2.65454 12.6474 3.35273C13.3456 4.05091 14.1965 4.4 15.2001 4.4C14.1965 4.4 13.3456 4.74909 12.6474 5.44727C11.9492 6.14546 11.6001 6.99637 11.6001 8Z" fill="#0B57D0"/>
</svg>