<svg width="20" height="20" viewBox="0 0 20 20" fill="none" xmlns="http://www.w3.org/2000/svg">
<path d="M10 18C9.91667 18 9.84722 17.9722 9.79167 17.9167C9.73611 17.8611 9.69444 17.7917 9.66667 17.7083C9.44444 16.8333 9.09722 15.9931 8.625 15.1875C8.16667 14.3681 7.625 13.6389 7 13C6.36111 12.3611 5.63194 11.8125 4.8125 11.3542C4.00694 10.8958 3.16667 10.5556 2.29167 10.3333C2.20833 10.3056 2.13889 10.2639 2.08333 10.2083C2.02778 10.1528 2 10.0833 2 10C2 9.91667 2.02778 9.84722 2.08333 9.79167C2.13889 9.73611 2.20833 9.69445 2.29167 9.66667C3.16667 9.44444 4.00694 9.10417 4.8125 8.64583C5.61806 8.1875 6.34722 7.63889 7 7C7.63889 6.375 8.1875 5.65278 8.64583 4.83333C9.10417 4.01389 9.44444 3.16667 9.66667 2.29167C9.69444 2.20833 9.73611 2.13889 9.79167 2.08333C9.84722 2.02778 9.91667 2 10 2C10.0833 2 10.1528 2.02778 10.2083 2.08333C10.2639 2.13889 10.3056 2.20833 10.3333 2.29167C10.5556 3.16667 10.8958 4.01389 11.3542 4.83333C11.8125 5.63889 12.3611 6.36111 13 7C13.6389 7.63889 14.3611 8.1875 15.1667 8.64583C15.9861 9.10417 16.8333 9.44444 17.7083 9.66667C17.7917 9.69445 17.8611 9.73611 17.9167 9.79167C17.9722 9.84722 18 9.91667 18 10C18 10.0833 17.9722 10.1528 17.9167 10.2083C17.8611 10.2639 17.7917 10.3056 17.7083 10.3333C16.8333 10.5556 15.9861 10.8958 15.1667 11.3542C14.3472 11.8125 13.625 12.3611 13 13C12.3611 13.6528 11.8125 14.3819 11.3542 15.1875C10.8958 15.9931 10.5556 16.8333 10.3333 17.7083C10.3056 17.7917 10.2639 17.8611 10.2083 17.9167C10.1528 17.9722 10.0833 18 10 18Z" fill="black"/>
</svg>
