<svg width="20" height="20" viewBox="0 0 20 20" fill="none" xmlns="http://www.w3.org/2000/svg">
<path d="M15.5 8C15.4861 8 15.4306 7.95833 15.3333 7.875C15.1389 7.08333 14.75 6.40278 14.1667 5.83333C13.5972 5.25 12.9167 4.86111 12.125 4.66667C12.0972 4.65278 12.0556 4.59722 12 4.5C12 4.47222 12.0417 4.41667 12.125 4.33333C12.9167 4.13889 13.5972 3.75694 14.1667 3.1875C14.75 2.60417 15.1389 1.91667 15.3333 1.125C15.3472 1.09722 15.4028 1.05556 15.5 1C15.5278 1 15.5833 1.04167 15.6667 1.125C15.875 1.91667 16.2639 2.59722 16.8333 3.16667C17.4028 3.73611 18.0833 4.125 18.875 4.33333C18.9028 4.33333 18.9444 4.38889 19 4.5C19 4.51389 18.9583 4.56944 18.875 4.66667C18.0833 4.86111 17.3958 5.25 16.8125 5.83333C16.2431 6.40278 15.8611 7.08333 15.6667 7.875C15.6667 7.90278 15.6111 7.94444 15.5 8ZM15.5 8C15.4861 8 15.4306 7.95833 15.3333 7.875C15.1389 7.08333 14.75 6.40278 14.1667 5.83333C13.5972 5.25 12.9167 4.86111 12.125 4.66667C12.0972 4.65278 12.0556 4.59722 12 4.5C12 4.47222 12.0417 4.41667 12.125 4.33333C12.9167 4.13889 13.5972 3.75694 14.1667 3.1875C14.75 2.60417 15.1389 1.91667 15.3333 1.125C15.3472 1.09722 15.4028 1.05556 15.5 1C15.5278 1 15.5833 1.04167 15.6667 1.125C15.875 1.91667 16.2639 2.59722 16.8333 3.16667C17.4028 3.73611 18.0833 4.125 18.875 4.33333C18.9028 4.33333 18.9444 4.38889 19 4.5C19 4.51389 18.9583 4.56944 18.875 4.66667C18.0833 4.86111 17.3958 5.25 16.8125 5.83333C16.2431 6.40278 15.8611 7.08333 15.6667 7.875C15.6667 7.90278 15.6111 7.94444 15.5 8ZM10 3.5C8.19444 3.5 6.65972 4.13194 5.39583 5.39583C4.13194 6.65972 3.5 8.19445 3.5 10C3.5 11.8056 4.125 13.3403 5.375 14.6042C6.63889 15.8681 8.18056 16.5 10 16.5C11.8056 16.5 13.3403 15.8681 14.6042 14.6042C15.8681 13.3403 16.5 11.8056 16.5 10C16.7361 10 16.9792 10 17.2292 10C17.4792 10 17.7361 10 18 10C18 11.0972 17.7917 12.1319 17.375 13.1042C16.9583 14.0764 16.3819 14.9306 15.6458 15.6667C14.9236 16.3889 14.0764 16.9583 13.1042 17.375C12.1458 17.7917 11.1111 18 10 18C8.90278 18 7.86806 17.7917 6.89583 17.375C5.92361 16.9583 5.06944 16.3889 4.33333 15.6667C3.61111 14.9306 3.04167 14.0764 2.625 13.1042C2.20833 12.1319 2 11.0972 2 10C2 8.88889 2.20833 7.85417 2.625 6.89583C3.04167 5.92361 3.61111 5.07639 4.33333 4.35417C5.06944 3.61806 5.92361 3.04167 6.89583 2.625C7.86806 2.20833 8.90278 2 10 2C10 2.26389 10 2.52083 10 2.77083C10 3.02083 10 3.26389 10 3.5ZM9.25 14H10.75V9H9.25V14ZM10 8C10.2083 8 10.3819 7.93056 10.5208 7.79167C10.6736 7.63889 10.75 7.45833 10.75 7.25C10.75 7.04167 10.6736 6.86806 10.5208 6.72917C10.3819 6.57639 10.2083 6.5 10 6.5C9.79167 6.5 9.61111 6.57639 9.45833 6.72917C9.31945 6.86806 9.25 7.04167 9.25 7.25C9.25 7.45833 9.31945 7.63889 9.45833 7.79167C9.61111 7.93056 9.79167 8 10 8Z" fill="black"/>
</svg>
