<svg width="20" height="20" viewBox="0 0 20 20" fill="none" xmlns="http://www.w3.org/2000/svg">
<path d="M10 18C8.90267 18 7.868 17.7917 6.896 17.375C5.924 16.9583 5.07333 16.3853 4.344 15.656C3.61467 14.9267 3.04167 14.076 2.625 13.104C2.20833 12.132 2 11.0973 2 10C2 8.88867 2.20833 7.85033 2.625 6.885C3.04167 5.92033 3.61467 5.07333 4.344 4.344C5.07333 3.61467 5.924 3.04167 6.896 2.625C7.868 2.20833 8.90267 2 10 2C11.1113 2 12.1497 2.20833 13.115 2.625C14.0797 3.04167 14.9267 3.61467 15.656 4.344C16.3853 5.07333 16.9583 5.92033 17.375 6.885C17.7917 7.85033 18 8.88867 18 10V11.25C18 12.014 17.7327 12.6633 17.198 13.198C16.6633 13.7327 16.014 14 15.25 14C14.778 14 14.344 13.882 13.948 13.646C13.552 13.41 13.2153 13.0973 12.938 12.708C12.5487 13.1107 12.1007 13.4267 11.594 13.656C11.0867 13.8853 10.5553 14 10 14C8.88867 14 7.94433 13.611 7.167 12.833C6.389 12.0557 6 11.1113 6 10C6 8.88867 6.389 7.94433 7.167 7.167C7.94433 6.389 8.88867 6 10 6C11.1113 6 12.0557 6.389 12.833 7.167C13.611 7.94433 14 8.88867 14 10V11.25C14 11.5973 14.1217 11.8923 14.365 12.135C14.6077 12.3783 14.9027 12.5 15.25 12.5C15.5973 12.5 15.8923 12.3783 16.135 12.135C16.3783 11.8923 16.5 11.5973 16.5 11.25V10C16.5 8.19467 15.868 6.66 14.604 5.396C13.34 4.132 11.8053 3.5 10 3.5C8.19467 3.5 6.66 4.132 5.396 5.396C4.132 6.66 3.5 8.19467 3.5 10C3.5 11.8053 4.132 13.34 5.396 14.604C6.66 15.868 8.19467 16.5 10 16.5H14V18H10ZM10 12.5C10.6947 12.5 11.285 12.257 11.771 11.771C12.257 11.285 12.5 10.6947 12.5 10C12.5 9.30533 12.257 8.715 11.771 8.229C11.285 7.743 10.6947 7.5 10 7.5C9.30533 7.5 8.715 7.743 8.229 8.229C7.743 8.715 7.5 9.30533 7.5 10C7.5 10.6947 7.743 11.285 8.229 11.771C8.715 12.257 9.30533 12.5 10 12.5Z" fill="black"/>
</svg>
