<svg width="20" height="20" viewBox="0 0 20 20" fill="none" xmlns="http://www.w3.org/2000/svg">
<path d="M4.5 16V14.5H6.042C5.41667 13.9447 4.92 13.2813 4.552 12.51C4.184 11.7393 4 10.9027 4 10C4 8.59733 4.42367 7.36467 5.271 6.302C6.11833 5.23933 7.19467 4.54133 8.5 4.208V5.771C7.62533 6.09033 6.90667 6.62833 6.344 7.385C5.78133 8.14233 5.5 9.014 5.5 10C5.5 10.6667 5.63533 11.2847 5.906 11.854C6.17667 12.4233 6.54133 12.9093 7 13.312V12H8.5V16H4.5ZM11.5 15.792V14.229C12.3747 13.9097 13.0933 13.3717 13.656 12.615C14.2187 11.8577 14.5 10.986 14.5 10C14.5 9.33333 14.3647 8.71533 14.094 8.146C13.8233 7.57667 13.4587 7.09067 13 6.688V8H11.5V4H15.5V5.5H13.958C14.5833 6.05533 15.08 6.71867 15.448 7.49C15.816 8.26067 16 9.09733 16 10C16 11.4027 15.5763 12.6353 14.729 13.698C13.8817 14.7607 12.8053 15.4587 11.5 15.792Z" fill="black"/>
</svg>
