<svg xmlns="http://www.w3.org/2000/svg" width="20" height="20" viewBox="0 0 20 20" fill="none">
<path d="M1.19209e-07 16.0001V14.5001H9V16.0001H1.19209e-07ZM1.19209e-07 12.2501V10.7501H14V12.2501H1.19209e-07ZM1.19209e-07 8.50012V7.00012H9V8.50012H1.19209e-07ZM12.5 7.00012C12.4861 7.00012 12.4306 6.95845 12.3333 6.87512C12.1389 6.08345 11.75 5.4029 11.1667 4.83345C10.5972 4.25012 9.91667 3.86123 9.125 3.66679C9.09722 3.6529 9.05556 3.59734 9 3.50012C9 3.47234 9.04167 3.41679 9.125 3.33345C9.91667 3.13901 10.5972 2.75707 11.1667 2.18762C11.75 1.60429 12.1389 0.916788 12.3333 0.125122C12.3472 0.0973434 12.4028 0.0556766 12.5 0.000121117C12.5278 0.000121117 12.5833 0.0417879 12.6667 0.125122C12.875 0.916788 13.2639 1.59734 13.8333 2.16679C14.4028 2.73623 15.0833 3.12512 15.875 3.33345C15.9028 3.33345 15.9444 3.38901 16 3.50012C16 3.51401 15.9583 3.56957 15.875 3.66679C15.0833 3.86123 14.3958 4.25012 13.8125 4.83345C13.2431 5.4029 12.8611 6.08345 12.6667 6.87512C12.6667 6.9029 12.6111 6.94457 12.5 7.00012Z" fill="black"/>
</svg>