<svg width="20" height="20" viewBox="0 0 20 20" fill="none" xmlns="http://www.w3.org/2000/svg">
<path d="M15 17H5.5V7L11.5 1L12.1667 1.45833C12.4167 1.63889 12.6007 1.86806 12.7188 2.14583C12.8368 2.42361 12.8611 2.70833 12.7917 3L12 7H17.5C17.9167 7 18.2708 7.14583 18.5625 7.4375C18.8542 7.72917 19 8.08333 19 8.5V9.6875C19 9.79861 18.9896 9.89931 18.9688 9.98958C18.9479 10.0799 18.9167 10.1736 18.875 10.2708L16.3958 16.0833C16.2708 16.3611 16.0833 16.5833 15.8333 16.75C15.5833 16.9167 15.3056 17 15 17ZM4 7V17H1V7H4Z" fill="black"/>
</svg>
