<svg width="20" height="20" viewBox="0 0 20 20" fill="none" xmlns="http://www.w3.org/2000/svg">
<path d="M15 17H5.5V7L11.5 1L12.1667 1.45833C12.4028 1.625 12.5833 1.83681 12.7083 2.09375C12.8333 2.35069 12.8681 2.61806 12.8125 2.89583L12.7917 3L12 7H17.5C17.9167 7 18.2708 7.14583 18.5625 7.4375C18.8542 7.72917 19 8.08333 19 8.5V9.6875C19 9.79861 18.9896 9.89931 18.9688 9.98958C18.9479 10.0799 18.9167 10.1736 18.875 10.2708L16.3944 16.0875C16.2703 16.3625 16.0833 16.5833 15.8333 16.75C15.5833 16.9167 15.3056 17 15 17ZM7 15.5H15L17.5 9.6875V8.5H10.1667L11.1875 3.4375L7 7.625V15.5ZM5.5 7V8.5H2.5V15.5H5.5V17H1V7H5.5Z" fill="black"/>
</svg>
