<svg width="20" height="20" viewBox="0 0 20 20" fill="none" xmlns="http://www.w3.org/2000/svg">
<g clip-path="url(#clip0_4467_2467)">
<path d="M10 18C8.90278 18 7.86806 17.7917 6.89583 17.375C5.92361 16.9583 5.06944 16.3889 4.33333 15.6667C3.61111 14.9306 3.04167 14.0764 2.625 13.1042C2.20833 12.1319 2 11.0972 2 10C2 8.88889 2.20833 7.85417 2.625 6.89583C3.04167 5.92361 3.61111 5.07639 4.33333 4.35417C5.06944 3.61805 5.92361 3.04167 6.89583 2.625C7.86806 2.20833 8.90278 2 10 2C11.1111 2 12.1458 2.20833 13.1042 2.625C14.0764 3.04167 14.9236 3.61805 15.6458 4.35417C16.3819 5.07639 16.9583 5.92361 17.375 6.89583C17.7917 7.85417 18 8.88889 18 10C18 11.0972 17.7917 12.1319 17.375 13.1042C16.9583 14.0764 16.3819 14.9306 15.6458 15.6667C14.9236 16.3889 14.0764 16.9583 13.1042 17.375C12.1458 17.7917 11.1111 18 10 18ZM9.25 16.4583V3.54167C7.625 3.73611 6.25694 4.44444 5.14583 5.66667C4.04861 6.875 3.5 8.31944 3.5 10C3.5 11.6806 4.04861 13.1319 5.14583 14.3542C6.25694 15.5625 7.625 16.2639 9.25 16.4583ZM10.75 16.4583C11.2222 16.4028 11.6667 16.3056 12.0833 16.1667C12.5139 16.0139 12.9236 15.8194 13.3125 15.5833H10.75V16.4583ZM10.75 14.0833H15.0417C15.1528 13.9306 15.2569 13.7778 15.3542 13.625C15.4653 13.4722 15.5694 13.3194 15.6667 13.1667H10.75V14.0833ZM10.75 11.6667H16.2708C16.3125 11.5139 16.3472 11.3611 16.375 11.2083C16.4028 11.0556 16.4306 10.9028 16.4583 10.75H10.75V11.6667ZM10.75 9.25H16.4583C16.4306 9.09722 16.4028 8.94444 16.375 8.79167C16.3472 8.63889 16.3125 8.48611 16.2708 8.33333H10.75V9.25ZM10.75 6.83333H15.6667C15.5694 6.66667 15.4653 6.51389 15.3542 6.375C15.2569 6.22222 15.1528 6.06944 15.0417 5.91667H10.75V6.83333ZM10.75 4.41667H13.3125C12.9236 4.18055 12.5139 3.99305 12.0833 3.85417C11.6667 3.70139 11.2222 3.59722 10.75 3.54167V4.41667Z" fill="black"/>
</g>
<defs>
<clipPath id="clip0_4467_2467">
<rect width="20" height="20" fill="white"/>
</clipPath>
</defs>
</svg>
