<svg width="20" height="20" viewBox="0 0 20 20" fill="none" xmlns="http://www.w3.org/2000/svg">
    <path fill="black"
        d="M 8.730469 18.332031 C 8.339844 18.332031 7.976562 18.25 7.636719 18.082031 C 7.296875 17.917969 7.007812 17.679688 6.769531 17.375 L 2.230469 11.605469 L 2.625 11.1875 C 2.902344 10.894531 3.234375 10.722656 3.625 10.667969 C 4.015625 10.609375 4.375 10.6875 4.707031 10.894531 L 6.25 11.832031 L 6.25 5 C 6.25 4.765625 6.328125 4.566406 6.488281 4.40625 C 6.648438 4.246094 6.847656 4.167969 7.082031 4.167969 C 7.320312 4.167969 7.519531 4.246094 7.6875 4.40625 C 7.855469 4.566406 7.9375 4.765625 7.9375 5 L 7.9375 14.832031 L 5.917969 13.582031 L 8.082031 16.355469 C 8.167969 16.453125 8.265625 16.527344 8.375 16.582031 C 8.484375 16.640625 8.605469 16.667969 8.730469 16.667969 L 13.332031 16.667969 C 13.792969 16.667969 14.183594 16.503906 14.511719 16.175781 C 14.835938 15.851562 15 15.457031 15 15 L 15 11.667969 C 15 11.429688 14.921875 11.234375 14.761719 11.074219 C 14.601562 10.914062 14.402344 10.832031 14.167969 10.832031 L 9.605469 10.832031 L 9.605469 9.167969 L 14.167969 9.167969 C 14.859375 9.167969 15.453125 9.410156 15.9375 9.894531 C 16.421875 10.382812 16.667969 10.972656 16.667969 11.667969 L 16.667969 15 C 16.667969 15.917969 16.339844 16.703125 15.6875 17.355469 C 15.035156 18.007812 14.25 18.332031 13.332031 18.332031 Z M 3.480469 7.082031 C 3.296875 6.777344 3.160156 6.449219 3.0625 6.09375 C 2.964844 5.738281 2.917969 5.375 2.917969 5 C 2.917969 3.847656 3.324219 2.863281 4.136719 2.050781 C 4.949219 1.238281 5.929688 0.832031 7.082031 0.832031 C 8.234375 0.832031 9.21875 1.238281 10.03125 2.050781 C 10.84375 2.863281 11.25 3.847656 11.25 5 C 11.25 5.375 11.203125 5.738281 11.105469 6.09375 C 11.007812 6.449219 10.867188 6.777344 10.6875 7.082031 L 9.25 6.25 C 9.359375 6.054688 9.445312 5.859375 9.5 5.65625 C 9.554688 5.453125 9.582031 5.234375 9.582031 5 C 9.582031 4.304688 9.339844 3.714844 8.855469 3.230469 C 8.367188 2.742188 7.777344 2.5 7.082031 2.5 C 6.390625 2.5 5.796875 2.742188 5.3125 3.230469 C 4.828125 3.714844 4.582031 4.304688 4.582031 5 C 4.582031 5.234375 4.609375 5.453125 4.667969 5.65625 C 4.722656 5.859375 4.804688 6.054688 4.917969 6.25 Z M 10.457031 12.917969 Z M 10.457031 12.917969 " />
</svg>