<svg width="20" height="20" viewBox="0 0 20 20" fill="none" xmlns="http://www.w3.org/2000/svg">
<path d="M12.792 13.542L13.854 12.479L10.75 9.375V5H9.25V10L12.792 13.542ZM10 18C8.90267 18 7.868 17.7917 6.896 17.375C5.924 16.9583 5.07333 16.3853 4.344 15.656C3.61467 14.9267 3.04167 14.076 2.625 13.104C2.20833 12.132 2 11.0973 2 10C2 8.88867 2.20833 7.847 2.625 6.875C3.04167 5.903 3.61467 5.05567 4.344 4.333C5.07333 3.611 5.924 3.04167 6.896 2.625C7.868 2.20833 8.90267 2 10 2C11.1113 2 12.153 2.20833 13.125 2.625C14.097 3.04167 14.9443 3.611 15.667 4.333C16.389 5.05567 16.9583 5.903 17.375 6.875C17.7917 7.847 18 8.88867 18 10C18 11.0973 17.7917 12.132 17.375 13.104C16.9583 14.076 16.389 14.9267 15.667 15.656C14.9443 16.3853 14.097 16.9583 13.125 17.375C12.153 17.7917 11.1113 18 10 18ZM10 16.5C11.8053 16.5 13.34 15.8647 14.604 14.594C15.868 13.3233 16.5 11.792 16.5 10C16.5 8.19467 15.868 6.66 14.604 5.396C13.34 4.132 11.8053 3.5 10 3.5C8.208 3.5 6.67667 4.132 5.406 5.396C4.13533 6.66 3.5 8.19467 3.5 10C3.5 11.792 4.13533 13.3233 5.406 14.594C6.67667 15.8647 8.208 16.5 10 16.5Z" fill="black"/>
</svg>
